<svg xmlns="http://www.w3.org/2000/svg" width="414" height="896" fill="none" viewBox="0 0 414 896"><g clip-path="url(#a)"><path fill="#fff" d="M0 0h414v896H0z"/><path fill="#3aa8c4" d="M-4 203h422v57H-4z"/><rect width="180" height="159.398" x="218" y="317" fill="#c4c4c4" rx="10"/><path stroke="#000" stroke-linecap="round" stroke-linejoin="round" stroke-width="3" d="m285.486 399.68 13.053-13.053a5.693 5.693 0 0 1 8.051 0l13.053 13.053m-5.693-5.693 4.514-4.513a5.69 5.69 0 0 1 8.051 0l4.513 4.513m-17.078-17.078h.029m-22.8 34.157h34.157a5.69 5.69 0 0 0 5.692-5.693v-34.157a5.69 5.69 0 0 0-5.692-5.693h-34.157a5.693 5.693 0 0 0-5.693 5.693v34.157a5.693 5.693 0 0 0 5.693 5.693"/><path fill="#000" d="M239.974 435.261c2.745 0 4.515-1.575 4.515-4.71v-5.955h-1.845v6.045c0 1.935-1.005 2.91-2.64 2.91-1.65 0-2.655-1.035-2.655-2.985v-5.97h-1.845v6.045c0 3.045 1.74 4.62 4.47 4.62m6.822 2.235h1.83v-3.63c.555.735 1.38 1.395 2.7 1.395 1.875 0 3.675-1.485 3.675-4.11v-.03c0-2.64-1.815-4.11-3.675-4.11-1.29 0-2.115.66-2.7 1.485v-1.32h-1.83zm4.095-3.81c-1.23 0-2.31-1.02-2.31-2.535v-.03c0-1.515 1.08-2.535 2.31-2.535 1.215 0 2.265 1.005 2.265 2.535v.03c0 1.56-1.02 2.535-2.265 2.535m6.074 1.41h1.83v-10.95h-1.83zm7.967.18c2.445 0 4.245-1.875 4.245-4.125v-.03c0-2.265-1.785-4.11-4.215-4.11s-4.23 1.875-4.23 4.14v.03c0 2.25 1.785 4.095 4.2 4.095m.03-1.59c-1.41 0-2.415-1.155-2.415-2.535v-.03c0-1.38.93-2.52 2.385-2.52 1.425 0 2.43 1.155 2.43 2.55v.03c0 1.365-.93 2.505-2.4 2.505m8.343 1.575c1.215 0 2.04-.51 2.58-1.155v.99h1.77v-4.695c0-1.035-.27-1.875-.855-2.445-.555-.57-1.44-.885-2.625-.885-1.26 0-2.115.255-3 .645l.495 1.425c.72-.3 1.38-.495 2.265-.495 1.275 0 1.965.6 1.965 1.725v.195a6.6 6.6 0 0 0-2.13-.33c-1.935 0-3.285.84-3.285 2.55v.03c0 1.59 1.335 2.445 2.82 2.445m.51-1.32c-.87 0-1.545-.435-1.545-1.2v-.03c0-.825.69-1.32 1.86-1.32.72 0 1.335.135 1.8.315v.54c0 1.005-.915 1.695-2.115 1.695m9.284 1.32c1.29 0 2.115-.66 2.7-1.485v1.32h1.815v-10.95h-1.815v4.26c-.57-.75-1.395-1.395-2.7-1.395-1.89 0-3.675 1.485-3.675 4.11v.03c0 2.625 1.815 4.11 3.675 4.11m.435-1.575c-1.23 0-2.28-1.005-2.28-2.535v-.03c0-1.56 1.035-2.535 2.28-2.535 1.215 0 2.295 1.005 2.295 2.535v.03c0 1.515-1.08 2.535-2.295 2.535m11.26 1.41h1.815v-6.36h2.07v-1.5h-2.1v-.435c0-.81.36-1.2 1.05-1.2.39 0 .705.075 1.065.195v-1.53c-.405-.12-.84-.21-1.485-.21-.765 0-1.35.21-1.77.63s-.645 1.08-.645 1.95v.585h-1.005v1.515h1.005zm5.22 0h1.83v-3.015c0-2.1 1.11-3.135 2.7-3.135h.105v-1.92c-1.395-.06-2.31.75-2.805 1.935v-1.785h-1.83zm9.712.18c2.445 0 4.245-1.875 4.245-4.125v-.03c0-2.265-1.785-4.11-4.215-4.11s-4.23 1.875-4.23 4.14v.03c0 2.25 1.785 4.095 4.2 4.095m.03-1.59c-1.41 0-2.415-1.155-2.415-2.535v-.03c0-1.38.93-2.52 2.385-2.52 1.425 0 2.43 1.155 2.43 2.55v.03c0 1.365-.93 2.505-2.4 2.505m6.049 1.41h1.83v-4.47c0-1.215.69-1.965 1.695-1.965s1.605.69 1.605 1.92v4.515h1.815v-4.47c0-1.275.705-1.965 1.695-1.965 1.02 0 1.605.675 1.605 1.935v4.5h1.815v-5.055c0-1.935-1.05-3.03-2.775-3.03-1.2 0-2.04.555-2.67 1.395-.42-.84-1.23-1.395-2.37-1.395-1.215 0-1.905.66-2.415 1.365v-1.2h-1.83zm22.02.165c1.29 0 2.115-.66 2.7-1.485v1.32h1.815v-10.95h-1.815v4.26c-.57-.75-1.395-1.395-2.7-1.395-1.89 0-3.675 1.485-3.675 4.11v.03c0 2.625 1.815 4.11 3.675 4.11m.435-1.575c-1.23 0-2.28-1.005-2.28-2.535v-.03c0-1.56 1.035-2.535 2.28-2.535 1.215 0 2.295 1.005 2.295 2.535v.03c0 1.515-1.08 2.535-2.295 2.535m9.989 1.59c1.455 0 2.49-.585 3.24-1.485l-1.065-.945c-.63.615-1.26.945-2.145.945-1.17 0-2.085-.72-2.28-2.01h5.82c.015-.18.03-.345.03-.51 0-2.28-1.275-4.26-3.795-4.26-2.265 0-3.87 1.86-3.87 4.125v.03c0 2.445 1.77 4.11 4.065 4.11m-2.265-4.695c.165-1.23.945-2.085 2.055-2.085 1.2 0 1.89.915 2.01 2.085zm9.812 4.575h1.635l3.24-7.98h-1.905l-2.145 5.82-2.13-5.82h-1.95zm6.445-9.195h1.95v-1.725h-1.95zm.06 9.135h1.83v-7.92h-1.83zm7.862.18c1.545 0 2.46-.615 3.24-1.485l-1.095-1.08c-.585.585-1.2.975-2.055.975-1.395 0-2.37-1.125-2.37-2.535v-.03c0-1.38.975-2.52 2.295-2.52.9 0 1.485.42 2.04.99l1.14-1.215c-.75-.81-1.68-1.365-3.165-1.365-2.385 0-4.125 1.89-4.125 4.14v.03c0 2.25 1.74 4.095 4.095 4.095m8.32 0c1.455 0 2.49-.585 3.24-1.485l-1.065-.945c-.63.615-1.26.945-2.145.945-1.17 0-2.085-.72-2.28-2.01h5.82c.015-.18.03-.345.03-.51 0-2.28-1.275-4.26-3.795-4.26-2.265 0-3.87 1.86-3.87 4.125v.03c0 2.445 1.77 4.11 4.065 4.11m-2.265-4.695c.165-1.23.945-2.085 2.055-2.085 1.2 0 1.89.915 2.01 2.085z"/><rect width="180" height="159.398" x="16" y="317" fill="#c4c4c4" rx="10"/><path fill="#000" d="M65.347 435.096h1.845v-8.79h3.345v-1.71H62v1.71h3.346zm7.488.165c1.215 0 2.04-.51 2.58-1.155v.99h1.77v-4.695c0-1.035-.27-1.875-.855-2.445-.555-.57-1.44-.885-2.625-.885-1.26 0-2.115.255-3 .645l.495 1.425c.72-.3 1.38-.495 2.265-.495 1.275 0 1.965.6 1.965 1.725v.195a6.6 6.6 0 0 0-2.13-.33c-1.935 0-3.285.84-3.285 2.55v.03c0 1.59 1.335 2.445 2.82 2.445m.51-1.32c-.87 0-1.545-.435-1.545-1.2v-.03c0-.825.69-1.32 1.86-1.32.72 0 1.335.135 1.8.315v.54c0 1.005-.915 1.695-2.115 1.695m5.999 1.155h1.83v-2.265l1.125-1.17 2.34 3.435h2.13l-3.255-4.695 3.15-3.225h-2.205l-3.285 3.51v-6.54h-1.83zm11.994.18c1.455 0 2.49-.585 3.24-1.485l-1.065-.945c-.63.615-1.26.945-2.145.945-1.17 0-2.085-.72-2.28-2.01h5.82c.015-.18.03-.345.03-.51 0-2.28-1.275-4.26-3.795-4.26-2.265 0-3.87 1.86-3.87 4.125v.03c0 2.445 1.77 4.11 4.065 4.11m-2.265-4.695c.165-1.23.945-2.085 2.055-2.085 1.2 0 1.89.915 2.01 2.085zm12.17 6.915h1.83v-3.63c.555.735 1.38 1.395 2.7 1.395 1.875 0 3.675-1.485 3.675-4.11v-.03c0-2.64-1.815-4.11-3.675-4.11-1.29 0-2.115.66-2.7 1.485v-1.32h-1.83zm4.095-3.81c-1.23 0-2.31-1.02-2.31-2.535v-.03c0-1.515 1.08-2.535 2.31-2.535 1.215 0 2.265 1.005 2.265 2.535v.03c0 1.56-1.02 2.535-2.265 2.535m5.968 1.41h1.83v-4.47c0-1.23.735-1.965 1.785-1.965 1.08 0 1.695.705 1.695 1.935v4.5h1.815v-5.055c0-1.83-1.035-3.03-2.82-3.03-1.23 0-1.965.645-2.475 1.38v-4.245h-1.83zm13.082.18c2.445 0 4.245-1.875 4.245-4.125v-.03c0-2.265-1.785-4.11-4.215-4.11s-4.23 1.875-4.23 4.14v.03c0 2.25 1.785 4.095 4.2 4.095m.03-1.59c-1.41 0-2.415-1.155-2.415-2.535v-.03c0-1.38.93-2.52 2.385-2.52 1.425 0 2.43 1.155 2.43 2.55v.03c0 1.365-.93 2.505-2.4 2.505m8.719 1.545c.69 0 1.185-.15 1.635-.405v-1.485c-.36.18-.72.27-1.125.27-.615 0-.975-.285-.975-.99v-3.885h2.13v-1.56h-2.13v-2.175h-1.815v2.175h-1.005v1.56h1.005v4.17c0 1.74.945 2.325 2.28 2.325m7.057.045c2.445 0 4.245-1.875 4.245-4.125v-.03c0-2.265-1.785-4.11-4.215-4.11s-4.23 1.875-4.23 4.14v.03c0 2.25 1.785 4.095 4.2 4.095m.03-1.59c-1.41 0-2.415-1.155-2.415-2.535v-.03c0-1.38.93-2.52 2.385-2.52 1.425 0 2.43 1.155 2.43 2.55v.03c0 1.365-.93 2.505-2.4 2.505"/><path stroke="#000" stroke-linecap="round" stroke-linejoin="round" stroke-width="3" d="M82.145 379.349a5.42 5.42 0 0 1 5.421-5.422h2.52a5.42 5.42 0 0 0 4.511-2.414l2.203-3.304a5.42 5.42 0 0 1 4.511-2.414h10.462a5.42 5.42 0 0 1 4.511 2.414l2.203 3.304a5.42 5.42 0 0 0 4.511 2.414h2.52a5.423 5.423 0 0 1 5.422 5.422v24.398a5.42 5.42 0 0 1-5.422 5.421H87.566a5.42 5.42 0 0 1-5.422-5.421z"/><path stroke="#000" stroke-linecap="round" stroke-linejoin="round" stroke-width="3" d="M114.675 390.193a8.133 8.133 0 1 1-16.266-.001 8.133 8.133 0 0 1 16.266.001"/><path fill="#000" d="M357.524 493.132c2.196 0 3.612-1.26 3.612-3.768V484.6h-1.476v4.836c0 1.548-.804 2.328-2.112 2.328-1.32 0-2.124-.828-2.124-2.388V484.6h-1.476v4.836c0 2.436 1.392 3.696 3.576 3.696m5.458 1.788h1.464v-2.904c.444.588 1.104 1.116 2.16 1.116 1.5 0 2.94-1.188 2.94-3.288v-.024c0-2.112-1.452-3.288-2.94-3.288-1.032 0-1.692.528-2.16 1.188v-1.056h-1.464zm3.276-3.048c-.984 0-1.848-.816-1.848-2.028v-.024c0-1.212.864-2.028 1.848-2.028.972 0 1.812.804 1.812 2.028v.024c0 1.248-.816 2.028-1.812 2.028m10.508 1.236c.552 0 .948-.12 1.308-.324v-1.188a1.95 1.95 0 0 1-.9.216c-.492 0-.78-.228-.78-.792v-3.108h1.704v-1.248h-1.704v-1.74h-1.452v1.74h-.804v1.248h.804v3.336c0 1.392.756 1.86 1.824 1.86m5.646.036c1.956 0 3.396-1.5 3.396-3.3v-.024c0-1.812-1.428-3.288-3.372-3.288s-3.384 1.5-3.384 3.312v.024c0 1.8 1.428 3.276 3.36 3.276m.024-1.272c-1.128 0-1.932-.924-1.932-2.028v-.024c0-1.104.744-2.016 1.908-2.016 1.14 0 1.944.924 1.944 2.04v.024c0 1.092-.744 2.004-1.92 2.004m11.581 1.272c1.764 0 3.12-1.188 3.12-2.856v-.024c0-1.68-1.308-2.64-2.928-2.64-.9 0-1.524.336-2.016.852.024-1.152.552-2.676 2.016-2.676.744 0 1.236.276 1.824.744l.792-1.152c-.732-.588-1.476-.936-2.568-.936-2.376 0-3.6 2.004-3.6 4.572v.024c0 1.692.384 2.568 1.02 3.204.564.564 1.308.888 2.34.888m-.036-1.284c-1.044 0-1.74-.648-1.74-1.5v-.024c0-.804.66-1.476 1.704-1.476s1.716.624 1.716 1.464v.024c0 .864-.636 1.512-1.68 1.512"/><path fill="#fff" d="M35.964 228h1.86v-4.185l4.17-6.315H39.88l-2.97 4.635-2.925-4.635h-2.19l4.17 6.36zm9.547.18c2.445 0 4.245-1.875 4.245-4.125v-.03c0-2.265-1.785-4.11-4.215-4.11s-4.23 1.875-4.23 4.14v.03c0 2.25 1.785 4.095 4.2 4.095m.03-1.59c-1.41 0-2.415-1.155-2.415-2.535v-.03c0-1.38.93-2.52 2.385-2.52 1.425 0 2.43 1.155 2.43 2.55v.03c0 1.365-.93 2.505-2.4 2.505m8.794 1.575c1.23 0 1.965-.645 2.475-1.395V228h1.83v-7.92h-1.83v4.47c0 1.23-.735 1.95-1.785 1.95-1.08 0-1.695-.69-1.695-1.92v-4.5h-1.815v5.04c0 1.845 1.035 3.045 2.82 3.045m6.212-6.42c1.515-.12 2.31-.825 2.31-2.49V217.5h-1.995v2.07h.78c.06.765-.375 1.23-1.29 1.395zm6.893 6.315h1.635l3.24-7.98H70.41l-2.145 5.82-2.13-5.82h-1.95zm9.592.12c1.455 0 2.49-.585 3.24-1.485l-1.065-.945c-.63.615-1.26.945-2.145.945-1.17 0-2.085-.72-2.28-2.01h5.82c.015-.18.03-.345.03-.51 0-2.28-1.275-4.26-3.795-4.26-2.265 0-3.87 1.86-3.87 4.125v.03c0 2.445 1.77 4.11 4.065 4.11m-2.265-4.695c.165-1.23.945-2.085 2.055-2.085 1.2 0 1.89.915 2.01 2.085zM87.357 228h1.814v-6.36h2.07v-1.5h-2.1v-.435c0-.81.36-1.2 1.05-1.2.39 0 .706.075 1.066.195v-1.53c-.406-.12-.84-.21-1.486-.21-.764 0-1.35.21-1.77.63s-.645 1.08-.645 1.95v.585h-1.004v1.515h1.004zm5.325 0h1.83v-7.92h-1.83zm-.06-9.135h1.95v-1.725h-1.95zM96.867 228h1.83v-4.47c0-1.23.735-1.965 1.785-1.965 1.08 0 1.695.705 1.695 1.935v4.5h1.815v-5.055c0-1.83-1.035-3.03-2.82-3.03-1.23 0-1.965.645-2.475 1.38v-1.215h-1.83zm9.347-9.135h1.95v-1.725h-1.95zm.06 9.135h1.83v-7.92h-1.83zm6.917.15c1.65 0 2.94-.825 2.94-2.49v-.03c0-1.425-1.305-1.95-2.46-2.31-.93-.3-1.785-.54-1.785-1.125v-.03c0-.435.405-.78 1.11-.78.66 0 1.47.285 2.235.75l.72-1.29c-.84-.555-1.92-.9-2.91-.9-1.575 0-2.82.915-2.82 2.43v.03c0 1.5 1.305 1.98 2.475 2.31.93.285 1.77.495 1.77 1.11v.03c0 .525-.45.855-1.23.855-.81 0-1.725-.33-2.595-.975l-.81 1.23a5.47 5.47 0 0 0 3.36 1.185m4.785-.15h1.83v-4.47c0-1.23.735-1.965 1.785-1.965 1.08 0 1.695.705 1.695 1.935v4.5h1.815v-5.055c0-1.83-1.035-3.03-2.82-3.03-1.23 0-1.965.645-2.475 1.38v-4.245h-1.83zm12.946.18c1.455 0 2.49-.585 3.24-1.485l-1.065-.945c-.63.615-1.26.945-2.145.945-1.17 0-2.085-.72-2.28-2.01h5.82c.015-.18.03-.345.03-.51 0-2.28-1.275-4.26-3.795-4.26-2.265 0-3.87 1.86-3.87 4.125v.03c0 2.445 1.77 4.11 4.065 4.11m-2.265-4.695c.165-1.23.945-2.085 2.055-2.085 1.2 0 1.89.915 2.01 2.085zm10.958 4.68c1.29 0 2.115-.66 2.7-1.485V228h1.815v-10.95h-1.815v4.26c-.57-.75-1.395-1.395-2.7-1.395-1.89 0-3.675 1.485-3.675 4.11v.03c0 2.625 1.815 4.11 3.675 4.11m.435-1.575c-1.23 0-2.28-1.005-2.28-2.535v-.03c0-1.56 1.035-2.535 2.28-2.535 1.215 0 2.295 1.005 2.295 2.535v.03c0 1.515-1.08 2.535-2.295 2.535m10.841 1.41h1.83v-3.015c0-2.1 1.11-3.135 2.7-3.135h.105v-1.92c-1.395-.06-2.31.75-2.805 1.935v-1.785h-1.83zm9.577.18c1.455 0 2.49-.585 3.24-1.485l-1.065-.945c-.63.615-1.26.945-2.145.945-1.17 0-2.085-.72-2.28-2.01h5.82c.015-.18.03-.345.03-.51 0-2.28-1.275-4.26-3.795-4.26-2.265 0-3.87 1.86-3.87 4.125v.03c0 2.445 1.77 4.11 4.065 4.11m-2.265-4.695c.165-1.23.945-2.085 2.055-2.085 1.2 0 1.89.915 2.01 2.085zm11.348 4.695c1.545 0 2.46-.615 3.24-1.485l-1.095-1.08c-.585.585-1.2.975-2.055.975-1.395 0-2.37-1.125-2.37-2.535v-.03c0-1.38.975-2.52 2.295-2.52.9 0 1.485.42 2.04.99l1.14-1.215c-.75-.81-1.68-1.365-3.165-1.365-2.385 0-4.125 1.89-4.125 4.14v.03c0 2.25 1.74 4.095 4.095 4.095m8.455 0c2.445 0 4.245-1.875 4.245-4.125v-.03c0-2.265-1.785-4.11-4.215-4.11s-4.23 1.875-4.23 4.14v.03c0 2.25 1.785 4.095 4.2 4.095m.03-1.59c-1.41 0-2.415-1.155-2.415-2.535v-.03c0-1.38.93-2.52 2.385-2.52 1.425 0 2.43 1.155 2.43 2.55v.03c0 1.365-.93 2.505-2.4 2.505m6.048 1.41h1.83v-3.015c0-2.1 1.11-3.135 2.7-3.135h.105v-1.92c-1.395-.06-2.31.75-2.805 1.935v-1.785h-1.83zm9.276.165c1.29 0 2.115-.66 2.7-1.485V228h1.815v-10.95h-1.815v4.26c-.57-.75-1.395-1.395-2.7-1.395-1.89 0-3.675 1.485-3.675 4.11v.03c0 2.625 1.815 4.11 3.675 4.11m.435-1.575c-1.23 0-2.28-1.005-2.28-2.535v-.03c0-1.56 1.035-2.535 2.28-2.535 1.215 0 2.295 1.005 2.295 2.535v.03c0 1.515-1.08 2.535-2.295 2.535m6.389-7.725h1.95v-1.725h-1.95zm.06 9.135h1.83v-7.92h-1.83zm4.187 0h1.83v-4.47c0-1.23.735-1.965 1.785-1.965 1.08 0 1.695.705 1.695 1.935v4.5h1.815v-5.055c0-1.83-1.035-3.03-2.82-3.03-1.23 0-1.965.645-2.475 1.38v-1.215h-1.83zm12.841 2.43c1.425 0 2.535-.345 3.255-1.065.66-.66 1.005-1.65 1.005-2.985v-6.3h-1.815v1.185c-.615-.735-1.44-1.35-2.775-1.35-1.845 0-3.6 1.38-3.6 3.72v.03c0 2.325 1.725 3.705 3.6 3.705 1.305 0 2.13-.6 2.79-1.44v.6c0 1.59-.885 2.415-2.505 2.415-1.08 0-1.965-.3-2.82-.825l-.675 1.365c1.02.615 2.235.945 3.54.945m.15-4.605c-1.245 0-2.25-.885-2.25-2.175v-.03c0-1.305.99-2.16 2.25-2.16s2.325.87 2.325 2.16v.03c0 1.29-1.065 2.175-2.325 2.175m13.166 2.34c1.215 0 2.04-.51 2.58-1.155v.99h1.77v-4.695c0-1.035-.27-1.875-.855-2.445-.555-.57-1.44-.885-2.625-.885-1.26 0-2.115.255-3 .645l.495 1.425c.72-.3 1.38-.495 2.265-.495 1.275 0 1.965.6 1.965 1.725v.195a6.6 6.6 0 0 0-2.13-.33c-1.935 0-3.285.84-3.285 2.55v.03c0 1.59 1.335 2.445 2.82 2.445m.51-1.32c-.87 0-1.545-.435-1.545-1.2v-.03c0-.825.69-1.32 1.86-1.32.72 0 1.335.135 1.8.315v.54c0 1.005-.915 1.695-2.115 1.695m5.999 1.155h1.83v-4.47c0-1.23.735-1.965 1.785-1.965 1.08 0 1.695.705 1.695 1.935v4.5h1.815v-5.055c0-1.83-1.035-3.03-2.82-3.03-1.23 0-1.965.645-2.475 1.38v-1.215h-1.83zm12.586.165c1.29 0 2.115-.66 2.7-1.485V228h1.815v-10.95h-1.815v4.26c-.57-.75-1.395-1.395-2.7-1.395-1.89 0-3.675 1.485-3.675 4.11v.03c0 2.625 1.815 4.11 3.675 4.11m.435-1.575c-1.23 0-2.28-1.005-2.28-2.535v-.03c0-1.56 1.035-2.535 2.28-2.535 1.215 0 2.295 1.005 2.295 2.535v.03c0 1.515-1.08 2.535-2.295 2.535m13.571 1.56c1.65 0 2.94-.825 2.94-2.49v-.03c0-1.425-1.305-1.95-2.46-2.31-.93-.3-1.785-.54-1.785-1.125v-.03c0-.435.405-.78 1.11-.78.66 0 1.47.285 2.235.75l.72-1.29c-.84-.555-1.92-.9-2.91-.9-1.575 0-2.82.915-2.82 2.43v.03c0 1.5 1.305 1.98 2.475 2.31.93.285 1.77.495 1.77 1.11v.03c0 .525-.45.855-1.23.855-.81 0-1.725-.33-2.595-.975l-.81 1.23a5.47 5.47 0 0 0 3.36 1.185m7.08.015c1.215 0 2.04-.51 2.58-1.155v.99h1.77v-4.695c0-1.035-.27-1.875-.855-2.445-.555-.57-1.44-.885-2.625-.885-1.26 0-2.115.255-3 .645l.495 1.425c.72-.3 1.38-.495 2.265-.495 1.275 0 1.965.6 1.965 1.725v.195a6.6 6.6 0 0 0-2.13-.33c-1.935 0-3.285.84-3.285 2.55v.03c0 1.59 1.335 2.445 2.82 2.445m.51-1.32c-.87 0-1.545-.435-1.545-1.2v-.03c0-.825.69-1.32 1.86-1.32.72 0 1.335.135 1.8.315v.54c0 1.005-.915 1.695-2.115 1.695m8.225 1.215h1.635l3.24-7.98h-1.905l-2.145 5.82-2.13-5.82h-1.95zm9.592.12c1.455 0 2.49-.585 3.24-1.485l-1.065-.945c-.63.615-1.26.945-2.145.945-1.17 0-2.085-.72-2.28-2.01h5.82c.015-.18.03-.345.03-.51 0-2.28-1.275-4.26-3.795-4.26-2.265 0-3.87 1.86-3.87 4.125v.03c0 2.445 1.77 4.11 4.065 4.11m-2.265-4.695c.165-1.23.945-2.085 2.055-2.085 1.2 0 1.89.915 2.01 2.085zm10.958 4.68c1.29 0 2.115-.66 2.7-1.485V228h1.815v-10.95h-1.815v4.26c-.57-.75-1.395-1.395-2.7-1.395-1.89 0-3.675 1.485-3.675 4.11v.03c0 2.625 1.815 4.11 3.675 4.11m.435-1.575c-1.23 0-2.28-1.005-2.28-2.535v-.03c0-1.56 1.035-2.535 2.28-2.535 1.215 0 2.295 1.005 2.295 2.535v.03c0 1.515-1.08 2.535-2.295 2.535m13.51 1.545c.69 0 1.185-.15 1.635-.405v-1.485c-.36.18-.72.27-1.125.27-.615 0-.975-.285-.975-.99v-3.885h2.13v-1.56h-2.13v-2.175h-1.815v2.175h-1.005v1.56h1.005v4.17c0 1.74.945 2.325 2.28 2.325m7.058.045c2.445 0 4.245-1.875 4.245-4.125v-.03c0-2.265-1.785-4.11-4.215-4.11s-4.23 1.875-4.23 4.14v.03c0 2.25 1.785 4.095 4.2 4.095m.03-1.59c-1.41 0-2.415-1.155-2.415-2.535v-.03c0-1.38.93-2.52 2.385-2.52 1.425 0 2.43 1.155 2.43 2.55v.03c0 1.365-.93 2.505-2.4 2.505m13.83 1.575c1.29 0 2.115-.66 2.7-1.485V228h1.815v-10.95h-1.815v4.26c-.57-.75-1.395-1.395-2.7-1.395-1.89 0-3.675 1.485-3.675 4.11v.03c0 2.625 1.815 4.11 3.675 4.11m.435-1.575c-1.23 0-2.28-1.005-2.28-2.535v-.03c0-1.56 1.035-2.535 2.28-2.535 1.215 0 2.295 1.005 2.295 2.535v.03c0 1.515-1.08 2.535-2.295 2.535m9.989 1.59c1.455 0 2.49-.585 3.24-1.485l-1.065-.945c-.63.615-1.26.945-2.145.945-1.17 0-2.085-.72-2.28-2.01h5.82c.015-.18.03-.345.03-.51 0-2.28-1.275-4.26-3.795-4.26-2.265 0-3.87 1.86-3.87 4.125v.03c0 2.445 1.77 4.11 4.065 4.11m-2.265-4.695c.165-1.23.945-2.085 2.055-2.085 1.2 0 1.89.915 2.01 2.085zm9.812 4.575h1.635l3.24-7.98h-1.905l-2.145 5.82-2.13-5.82h-1.95zm6.445-9.195h1.95v-1.725h-1.95zm.06 9.135h1.83v-7.92h-1.83zm7.862.18c1.545 0 2.46-.615 3.24-1.485l-1.095-1.08c-.585.585-1.2.975-2.055.975-1.395 0-2.37-1.125-2.37-2.535v-.03c0-1.38.975-2.52 2.295-2.52.9 0 1.485.42 2.04.99l1.14-1.215c-.75-.81-1.68-1.365-3.165-1.365-2.385 0-4.125 1.89-4.125 4.14v.03c0 2.25 1.74 4.095 4.095 4.095m8.32 0c1.455 0 2.49-.585 3.24-1.485l-1.065-.945c-.63.615-1.26.945-2.145.945-1.17 0-2.085-.72-2.28-2.01h5.82c.015-.18.03-.345.03-.51 0-2.28-1.275-4.26-3.795-4.26-2.265 0-3.87 1.86-3.87 4.125v.03c0 2.445 1.77 4.11 4.065 4.11m-2.265-4.695c.165-1.23.945-2.085 2.055-2.085 1.2 0 1.89.915 2.01 2.085zm7.106 6.705c1.515-.135 2.31-.84 2.31-2.505v-1.755h-1.995V228h.78c.06.765-.375 1.23-1.29 1.41zM45.65 248h1.83v-4.47c0-1.23.735-1.965 1.785-1.965 1.08 0 1.695.705 1.695 1.935v4.5h1.815v-5.055c0-1.83-1.035-3.03-2.82-3.03-1.23 0-1.965.645-2.475 1.38v-1.215h-1.83zm13.082.18c2.445 0 4.245-1.875 4.245-4.125v-.03c0-2.265-1.785-4.11-4.215-4.11s-4.23 1.875-4.23 4.14v.03c0 2.25 1.785 4.095 4.2 4.095m.03-1.59c-1.41 0-2.415-1.155-2.415-2.535v-.03c0-1.38.93-2.52 2.385-2.52 1.425 0 2.43 1.155 2.43 2.55v.03c0 1.365-.93 2.505-2.4 2.505m7.587 1.47h1.62l1.785-5.415 1.77 5.415h1.635l2.595-7.98h-1.83l-1.62 5.43-1.755-5.46h-1.56l-1.755 5.46-1.59-5.43H63.77zm15.602-.06h1.83v-10.95h-1.83zm7.832.18c1.455 0 2.49-.585 3.24-1.485l-1.065-.945c-.63.615-1.26.945-2.145.945-1.17 0-2.085-.72-2.28-2.01h5.82c.015-.18.03-.345.03-.51 0-2.28-1.275-4.26-3.795-4.26-2.265 0-3.87 1.86-3.87 4.125v.03c0 2.445 1.77 4.11 4.065 4.11m-2.265-4.695c.165-1.23.945-2.085 2.055-2.085 1.2 0 1.89.915 2.01 2.085zm10.343 4.65c.69 0 1.185-.15 1.635-.405v-1.485c-.36.18-.72.27-1.125.27-.615 0-.975-.285-.975-.99v-3.885h2.13v-1.56h-2.13v-2.175H95.58v2.175h-1.005v1.56h1.005v4.17c0 1.74.945 2.325 2.28 2.325m3.254-6.39c1.515-.12 2.31-.825 2.31-2.49V237.5h-1.995v2.07h.78c.06.765-.375 1.23-1.29 1.395zm6.825 6.405c1.65 0 2.94-.825 2.94-2.49v-.03c0-1.425-1.305-1.95-2.46-2.31-.93-.3-1.785-.54-1.785-1.125v-.03c0-.435.405-.78 1.11-.78.66 0 1.47.285 2.235.75l.72-1.29c-.84-.555-1.92-.9-2.91-.9-1.575 0-2.82.915-2.82 2.43v.03c0 1.5 1.305 1.98 2.475 2.31.93.285 1.77.495 1.77 1.11v.03c0 .525-.45.855-1.23.855-.81 0-1.725-.33-2.595-.975l-.81 1.23a5.47 5.47 0 0 0 3.36 1.185m12.822 2.28c1.425 0 2.535-.345 3.255-1.065.66-.66 1.005-1.65 1.005-2.985v-6.3h-1.815v1.185c-.615-.735-1.44-1.35-2.775-1.35-1.845 0-3.6 1.38-3.6 3.72v.03c0 2.325 1.725 3.705 3.6 3.705 1.305 0 2.13-.6 2.79-1.44v.6c0 1.59-.885 2.415-2.505 2.415-1.08 0-1.965-.3-2.82-.825l-.675 1.365c1.02.615 2.235.945 3.54.945m.15-4.605c-1.245 0-2.25-.885-2.25-2.175v-.03c0-1.305.99-2.16 2.25-2.16s2.325.87 2.325 2.16v.03c0 1.29-1.065 2.175-2.325 2.175m10.154 2.355c2.445 0 4.245-1.875 4.245-4.125v-.03c0-2.265-1.785-4.11-4.215-4.11s-4.23 1.875-4.23 4.14v.03c0 2.25 1.785 4.095 4.2 4.095m.03-1.59c-1.41 0-2.415-1.155-2.415-2.535v-.03c0-1.38.93-2.52 2.385-2.52 1.425 0 2.43 1.155 2.43 2.55v.03c0 1.365-.93 2.505-2.4 2.505m12.84 1.575c1.215 0 2.04-.51 2.58-1.155v.99h1.77v-4.695c0-1.035-.27-1.875-.855-2.445-.555-.57-1.44-.885-2.625-.885-1.26 0-2.115.255-3 .645l.495 1.425c.72-.3 1.38-.495 2.265-.495 1.275 0 1.965.6 1.965 1.725v.195a6.6 6.6 0 0 0-2.13-.33c-1.935 0-3.285.84-3.285 2.55v.03c0 1.59 1.335 2.445 2.82 2.445m.51-1.32c-.87 0-1.545-.435-1.545-1.2v-.03c0-.825.69-1.32 1.86-1.32.72 0 1.335.135 1.8.315v.54c0 1.005-.915 1.695-2.115 1.695m5.999 1.155h1.83v-4.47c0-1.23.735-1.965 1.785-1.965 1.08 0 1.695.705 1.695 1.935v4.5h1.815v-5.055c0-1.83-1.035-3.03-2.82-3.03-1.23 0-1.965.645-2.475 1.38v-4.245h-1.83zm12.947.18c1.455 0 2.49-.585 3.24-1.485l-1.065-.945c-.63.615-1.26.945-2.145.945-1.17 0-2.085-.72-2.28-2.01h5.82c.015-.18.03-.345.03-.51 0-2.28-1.275-4.26-3.795-4.26-2.265 0-3.87 1.86-3.87 4.125v.03c0 2.445 1.77 4.11 4.065 4.11m-2.265-4.695c.165-1.23.945-2.085 2.055-2.085 1.2 0 1.89.915 2.01 2.085zm9.967 4.68c1.215 0 2.04-.51 2.58-1.155v.99h1.77v-4.695c0-1.035-.27-1.875-.855-2.445-.555-.57-1.44-.885-2.625-.885-1.26 0-2.115.255-3 .645l.495 1.425c.72-.3 1.38-.495 2.265-.495 1.275 0 1.965.6 1.965 1.725v.195a6.6 6.6 0 0 0-2.13-.33c-1.935 0-3.285.84-3.285 2.55v.03c0 1.59 1.335 2.445 2.82 2.445m.51-1.32c-.87 0-1.545-.435-1.545-1.2v-.03c0-.825.69-1.32 1.86-1.32.72 0 1.335.135 1.8.315v.54c0 1.005-.915 1.695-2.115 1.695m9.284 1.32c1.29 0 2.115-.66 2.7-1.485V248h1.815v-10.95h-1.815v4.26c-.57-.75-1.395-1.395-2.7-1.395-1.89 0-3.675 1.485-3.675 4.11v.03c0 2.625 1.815 4.11 3.675 4.11m.435-1.575c-1.23 0-2.28-1.005-2.28-2.535v-.03c0-1.56 1.035-2.535 2.28-2.535 1.215 0 2.295 1.005 2.295 2.535v.03c0 1.515-1.08 2.535-2.295 2.535m13.136 1.575c1.215 0 2.04-.51 2.58-1.155v.99h1.77v-4.695c0-1.035-.27-1.875-.855-2.445-.555-.57-1.44-.885-2.625-.885-1.26 0-2.115.255-3 .645l.495 1.425c.72-.3 1.38-.495 2.265-.495 1.275 0 1.965.6 1.965 1.725v.195a6.6 6.6 0 0 0-2.13-.33c-1.935 0-3.285.84-3.285 2.55v.03c0 1.59 1.335 2.445 2.82 2.445m.51-1.32c-.87 0-1.545-.435-1.545-1.2v-.03c0-.825.69-1.32 1.86-1.32.72 0 1.335.135 1.8.315v.54c0 1.005-.915 1.695-2.115 1.695m5.998 1.155h1.83v-4.47c0-1.23.735-1.965 1.785-1.965 1.08 0 1.695.705 1.695 1.935v4.5h1.815v-5.055c0-1.83-1.035-3.03-2.82-3.03-1.23 0-1.965.645-2.475 1.38v-1.215h-1.83zm12.587.165c1.29 0 2.115-.66 2.7-1.485V248h1.815v-10.95h-1.815v4.26c-.57-.75-1.395-1.395-2.7-1.395-1.89 0-3.675 1.485-3.675 4.11v.03c0 2.625 1.815 4.11 3.675 4.11m.435-1.575c-1.23 0-2.28-1.005-2.28-2.535v-.03c0-1.56 1.035-2.535 2.28-2.535 1.215 0 2.295 1.005 2.295 2.535v.03c0 1.515-1.08 2.535-2.295 2.535m13.586 1.575c1.23 0 1.965-.645 2.475-1.395V248h1.83v-7.92h-1.83v4.47c0 1.23-.735 1.95-1.785 1.95-1.08 0-1.695-.69-1.695-1.92v-4.5h-1.815v5.04c0 1.845 1.035 3.045 2.82 3.045m6.556 2.235h1.83v-3.63c.555.735 1.38 1.395 2.7 1.395 1.875 0 3.675-1.485 3.675-4.11v-.03c0-2.64-1.815-4.11-3.675-4.11-1.29 0-2.115.66-2.7 1.485v-1.32h-1.83zm4.095-3.81c-1.23 0-2.31-1.02-2.31-2.535v-.03c0-1.515 1.08-2.535 2.31-2.535 1.215 0 2.265 1.005 2.265 2.535v.03c0 1.56-1.02 2.535-2.265 2.535M244.3 248h1.83v-10.95h-1.83zm7.967.18c2.445 0 4.245-1.875 4.245-4.125v-.03c0-2.265-1.785-4.11-4.215-4.11s-4.23 1.875-4.23 4.14v.03c0 2.25 1.785 4.095 4.2 4.095m.03-1.59c-1.41 0-2.415-1.155-2.415-2.535v-.03c0-1.38.93-2.52 2.385-2.52 1.425 0 2.43 1.155 2.43 2.55v.03c0 1.365-.93 2.505-2.4 2.505m8.343 1.575c1.215 0 2.04-.51 2.58-1.155v.99h1.77v-4.695c0-1.035-.27-1.875-.855-2.445-.555-.57-1.44-.885-2.625-.885-1.26 0-2.115.255-3 .645l.495 1.425c.72-.3 1.38-.495 2.265-.495 1.275 0 1.965.6 1.965 1.725v.195a6.6 6.6 0 0 0-2.13-.33c-1.935 0-3.285.84-3.285 2.55v.03c0 1.59 1.335 2.445 2.82 2.445m.51-1.32c-.87 0-1.545-.435-1.545-1.2v-.03c0-.825.69-1.32 1.86-1.32.72 0 1.335.135 1.8.315v.54c0 1.005-.915 1.695-2.115 1.695m9.284 1.32c1.29 0 2.115-.66 2.7-1.485V248h1.815v-10.95h-1.815v4.26c-.57-.75-1.395-1.395-2.7-1.395-1.89 0-3.675 1.485-3.675 4.11v.03c0 2.625 1.815 4.11 3.675 4.11m.435-1.575c-1.23 0-2.28-1.005-2.28-2.535v-.03c0-1.56 1.035-2.535 2.28-2.535 1.215 0 2.295 1.005 2.295 2.535v.03c0 1.515-1.08 2.535-2.295 2.535m14.275-.63-2.22-5.88h-1.95l3.3 7.935c-.3.675-.615.9-1.125.9-.375 0-.735-.12-1.065-.3l-.615 1.335a3.6 3.6 0 0 0 1.875.495c1.275 0 1.98-.6 2.61-2.235l3.15-8.13h-1.89zm8.827 2.22c2.445 0 4.245-1.875 4.245-4.125v-.03c0-2.265-1.785-4.11-4.215-4.11s-4.23 1.875-4.23 4.14v.03c0 2.25 1.785 4.095 4.2 4.095m.03-1.59c-1.41 0-2.415-1.155-2.415-2.535v-.03c0-1.38.93-2.52 2.385-2.52 1.425 0 2.43 1.155 2.43 2.55v.03c0 1.365-.93 2.505-2.4 2.505m8.793 1.575c1.23 0 1.965-.645 2.475-1.395V248h1.83v-7.92h-1.83v4.47c0 1.23-.735 1.95-1.785 1.95-1.08 0-1.695-.69-1.695-1.92v-4.5h-1.815v5.04c0 1.845 1.035 3.045 2.82 3.045m6.557-.165h1.83v-3.015c0-2.1 1.11-3.135 2.7-3.135h.105v-1.92c-1.395-.06-2.31.75-2.805 1.935v-1.785h-1.83zm10.693 2.4h1.83v-3.63c.555.735 1.38 1.395 2.7 1.395 1.875 0 3.675-1.485 3.675-4.11v-.03c0-2.64-1.815-4.11-3.675-4.11-1.29 0-2.115.66-2.7 1.485v-1.32h-1.83zm4.095-3.81c-1.23 0-2.31-1.02-2.31-2.535v-.03c0-1.515 1.08-2.535 2.31-2.535 1.215 0 2.265 1.005 2.265 2.535v.03c0 1.56-1.02 2.535-2.265 2.535m5.969 1.41h1.83v-4.47c0-1.23.735-1.965 1.785-1.965 1.08 0 1.695.705 1.695 1.935v4.5h1.815v-5.055c0-1.83-1.035-3.03-2.82-3.03-1.23 0-1.965.645-2.475 1.38v-4.245h-1.83zm13.082.18c2.445 0 4.245-1.875 4.245-4.125v-.03c0-2.265-1.785-4.11-4.215-4.11s-4.23 1.875-4.23 4.14v.03c0 2.25 1.785 4.095 4.2 4.095m.03-1.59c-1.41 0-2.415-1.155-2.415-2.535v-.03c0-1.38.93-2.52 2.385-2.52 1.425 0 2.43 1.155 2.43 2.55v.03c0 1.365-.93 2.505-2.4 2.505m8.718 1.545c.69 0 1.185-.15 1.635-.405v-1.485c-.36.18-.72.27-1.125.27-.615 0-.975-.285-.975-.99v-3.885h2.13v-1.56h-2.13v-2.175h-1.815v2.175h-1.005v1.56h1.005v4.17c0 1.74.945 2.325 2.28 2.325m7.057.045c2.445 0 4.245-1.875 4.245-4.125v-.03c0-2.265-1.785-4.11-4.215-4.11s-4.23 1.875-4.23 4.14v.03c0 2.25 1.785 4.095 4.2 4.095m.03-1.59c-1.41 0-2.415-1.155-2.415-2.535v-.03c0-1.38.93-2.52 2.385-2.52 1.425 0 2.43 1.155 2.43 2.55v.03c0 1.365-.93 2.505-2.4 2.505m6.694-1.92h1.005l.555-6.645v-.525h-2.13v.525zm-.495 3.33h1.995v-2.07h-1.995z"/><path fill="#000" d="M16.8 289h2.46v-4.5h2.78c3.08 0 5.6-1.64 5.6-4.78v-.04c0-2.82-2.04-4.68-5.32-4.68H16.8zm2.46-6.72v-5.04h2.86c1.84 0 3.02.86 3.02 2.5v.04c0 1.46-1.16 2.5-3.02 2.5zm10.6 6.72h2.44v-5.96c0-1.64.98-2.62 2.38-2.62 1.44 0 2.26.94 2.26 2.58v6h2.42v-6.74c0-2.44-1.38-4.04-3.76-4.04-1.64 0-2.62.86-3.3 1.84v-5.66h-2.44zm17.442.24c3.26 0 5.66-2.5 5.66-5.5v-.04c0-3.02-2.38-5.48-5.62-5.48s-5.64 2.5-5.64 5.52v.04c0 3 2.38 5.46 5.6 5.46m.04-2.12c-1.88 0-3.22-1.54-3.22-3.38v-.04c0-1.84 1.24-3.36 3.18-3.36 1.9 0 3.24 1.54 3.24 3.4v.04c0 1.82-1.24 3.34-3.2 3.34m11.624 2.06c.92 0 1.58-.2 2.18-.54v-1.98c-.48.24-.96.36-1.5.36-.82 0-1.3-.38-1.3-1.32v-5.18h2.84v-2.08h-2.84v-2.9h-2.42v2.9h-1.34v2.08h1.34v5.56c0 2.32 1.26 3.1 3.04 3.1m9.41.06c3.26 0 5.66-2.5 5.66-5.5v-.04c0-3.02-2.38-5.48-5.62-5.48s-5.64 2.5-5.64 5.52v.04c0 3 2.38 5.46 5.6 5.46m.04-2.12c-1.88 0-3.22-1.54-3.22-3.38v-.04c0-1.84 1.24-3.36 3.18-3.36 1.9 0 3.24 1.54 3.24 3.4v.04c0 1.82-1.24 3.34-3.2 3.34m11.705 2.08c2.2 0 3.92-1.1 3.92-3.32v-.04c0-1.9-1.74-2.6-3.28-3.08-1.24-.4-2.38-.72-2.38-1.5v-.04c0-.58.54-1.04 1.48-1.04.88 0 1.96.38 2.98 1l.96-1.72c-1.12-.74-2.56-1.2-3.88-1.2-2.1 0-3.76 1.22-3.76 3.24v.04c0 2 1.74 2.64 3.3 3.08 1.24.38 2.36.66 2.36 1.48v.04c0 .7-.6 1.14-1.64 1.14-1.08 0-2.3-.44-3.46-1.3l-1.08 1.64a7.3 7.3 0 0 0 4.48 1.58"/><path fill="#de1639" d="M364.813 293.18c2.646 0 4.5-1.404 4.5-3.762v-.036c0-2.088-1.368-3.042-4.032-3.69-2.43-.576-3.006-1.008-3.006-1.98v-.036c0-.828.756-1.494 2.052-1.494 1.152 0 2.286.45 3.42 1.296l1.188-1.674c-1.278-1.026-2.736-1.584-4.572-1.584-2.502 0-4.302 1.494-4.302 3.654v.036c0 2.322 1.512 3.114 4.194 3.762 2.34.54 2.844 1.026 2.844 1.926v.036c0 .936-.864 1.584-2.232 1.584-1.548 0-2.772-.594-3.978-1.638l-1.332 1.584c1.512 1.35 3.33 2.016 5.256 2.016m6.834-.18h2.196v-2.718l1.35-1.404 2.808 4.122h2.556l-3.906-5.634 3.78-3.87h-2.646l-3.942 4.212v-7.848h-2.196zm10.53-10.962h2.34v-2.07h-2.34zm.072 10.962h2.196v-9.504h-2.196zm5.025 2.88h2.196v-4.356c.666.882 1.656 1.674 3.24 1.674 2.25 0 4.41-1.782 4.41-4.932v-.036c0-3.168-2.178-4.932-4.41-4.932-1.548 0-2.538.792-3.24 1.782v-1.584h-2.196zm4.914-4.572c-1.476 0-2.772-1.224-2.772-3.042v-.036c0-1.818 1.296-3.042 2.772-3.042 1.458 0 2.718 1.206 2.718 3.042v.036c0 1.872-1.224 3.042-2.718 3.042"/><path fill="#ffcb35" d="M174 166C37 149-4.667 163.167-19.5 192.5L-31-28.5 455-56l6 190c-9.5 2.167-42.5 18.5-97.5 27.5-42.678 6.984-76.877 18.475-189.5 4.5"/><path stroke="#000" stroke-linecap="round" stroke-linejoin="bevel" stroke-width="2.5" d="M41 74H19m6.335-8-6.85 6.85a1.666 1.666 0 0 0 0 2.35l6.666 6.667"/><path fill="#000" fill-rule="evenodd" d="M393.333 19.332h-16.666c-.921 0-1.667.746-1.667 1.667v6c0 .92.746 1.666 1.667 1.666h16.666c.921 0 1.667-.746 1.667-1.666v-6c0-.92-.746-1.667-1.667-1.667m-16.666-1A2.667 2.667 0 0 0 374 20.999v6a2.667 2.667 0 0 0 2.667 2.666h16.666A2.667 2.667 0 0 0 396 27v-6a2.667 2.667 0 0 0-2.667-2.667z" clip-rule="evenodd" opacity=".35"/><path fill="#000" d="M397 21.998v4a2.17 2.17 0 0 0 0-4" opacity=".4"/><path fill="#000" d="M376 21.665c0-.736.597-1.333 1.333-1.333h15.334c.736 0 1.333.597 1.333 1.333v4.667c0 .736-.597 1.333-1.333 1.333h-15.334A1.333 1.333 0 0 1 376 26.332z"/><path fill="#000" fill-rule="evenodd" d="M359.33 20.713c2.216 0 4.347 1.117 5.953 3.119.121.154.314.152.433-.005l1.156-1.53a.5.5 0 0 0 .094-.3.5.5 0 0 0-.096-.297c-4.215-5.298-10.865-5.298-15.08 0a.5.5 0 0 0-.097.298c0 .112.033.22.094.3l1.156 1.53c.119.157.312.159.433.004 1.606-2.002 3.738-3.119 5.954-3.119m0 4.978c1.217 0 2.391.593 3.294 1.665.122.152.314.148.433-.008l1.155-1.53a.5.5 0 0 0 .094-.302.5.5 0 0 0-.099-.3c-2.748-3.352-7.004-3.352-9.752 0a.5.5 0 0 0-.098.3.5.5 0 0 0 .094.302l1.154 1.53c.119.156.311.16.433.008.902-1.071 2.075-1.665 3.292-1.665m2.313 3.349a.48.48 0 0 1-.094.302l-1.997 2.643a.28.28 0 0 1-.222.122.28.28 0 0 1-.222-.122l-1.997-2.643a.48.48 0 0 1-.094-.302.48.48 0 0 1 .103-.297c1.276-1.415 3.144-1.415 4.42 0a.48.48 0 0 1 .103.297m-15.977-10.872h-1c-.552 0-1 .587-1 1.311v11.366c0 .724.448 1.311 1 1.311h1c.552 0 1-.587 1-1.311V19.479c0-.724-.448-1.311-1-1.311m-5.667 3.06h1c.553 0 1 .587 1 1.311v8.306c0 .724-.447 1.311-1 1.311h-1c-.552 0-1-.587-1-1.311v-8.306c0-.724.448-1.311 1-1.311m-3.666 3.06h-1c-.553 0-1 .587-1 1.311v5.246c0 .724.447 1.311 1 1.311h1c.552 0 1-.587 1-1.311v-5.246c0-.724-.448-1.311-1-1.311m-4.667 2.622h-1c-.552 0-1 .588-1 1.312v2.623c0 .724.448 1.311 1 1.311h1c.552 0 1-.587 1-1.311v-2.623c0-.724-.448-1.312-1-1.312" clip-rule="evenodd"/><path fill="#000" d="M37.32 29.257c2.688 0 4.285-2.102 4.285-5.662 0-1.34-.256-2.468-.747-3.34-.71-1.355-1.934-2.087-3.48-2.087-2.299 0-3.925 1.545-3.925 3.713 0 2.037 1.465 3.516 3.48 3.516 1.237 0 2.24-.579 2.738-1.582h.125c0 2.417-.916 3.86-2.461 3.86-.908 0-1.611-.498-1.853-1.297H33.6c.315 1.736 1.787 2.879 3.72 2.879m.066-5.362c-1.216 0-2.08-.864-2.08-2.072 0-1.18.908-2.08 2.088-2.08 1.179 0 2.087.915 2.087 2.11 0 1.178-.886 2.042-2.095 2.042m7.31 5.259c.696 0 1.172-.498 1.172-1.157 0-.666-.476-1.157-1.172-1.157-.688 0-1.172.49-1.172 1.157 0 .66.484 1.157 1.172 1.157m0-5.493c.696 0 1.172-.49 1.172-1.15 0-.666-.476-1.157-1.172-1.157-.688 0-1.172.49-1.172 1.157 0 .66.484 1.15 1.172 1.15M52.724 29h1.809v-1.97h1.428v-1.596h-1.428v-7.002h-2.666c-1.868 2.812-3.355 5.163-4.307 6.914v1.684h5.164zm-3.413-3.632a80 80 0 0 1 3.34-5.398h.102v5.508h-3.442zM59.99 29h1.89V18.432h-1.883l-2.761 1.933v1.817l2.63-1.846h.124z"/><path stroke="#666" stroke-width="2" d="M293 123h79"/><path stroke="#de1639" stroke-width="2" d="M51 123h242"/><circle cx="46.5" cy="122" r="15" fill="#de1639"/><path fill="#fff" d="M45.704 129H47.9v-12.69h-1.53l-3.402 1.08.468 1.8 2.268-.63z"/><path fill="#000" d="M24.037 151h1.476v-2.7h1.668c1.848 0 3.36-.984 3.36-2.868v-.024c0-1.692-1.224-2.808-3.192-2.808h-3.312zm1.476-4.032v-3.024h1.716c1.104 0 1.812.516 1.812 1.5v.024c0 .876-.696 1.5-1.812 1.5zm6.36 4.032h1.464v-2.412c0-1.68.888-2.508 2.16-2.508h.084v-1.536c-1.116-.048-1.848.6-2.244 1.548v-1.428h-1.464zm7.662.144c1.164 0 1.992-.468 2.592-1.188l-.852-.756c-.504.492-1.008.756-1.716.756-.936 0-1.668-.576-1.824-1.608h4.656c.012-.144.024-.276.024-.408 0-1.824-1.02-3.408-3.036-3.408-1.812 0-3.096 1.488-3.096 3.3v.024c0 1.956 1.416 3.288 3.252 3.288m-1.812-3.756c.132-.984.756-1.668 1.644-1.668.96 0 1.512.732 1.608 1.668zm6.138 5.532h1.464v-2.904c.444.588 1.104 1.116 2.16 1.116 1.5 0 2.94-1.188 2.94-3.288v-.024c0-2.112-1.452-3.288-2.94-3.288-1.032 0-1.692.528-2.16 1.188v-1.056H43.86zm3.276-3.048c-.984 0-1.848-.816-1.848-2.028v-.024c0-1.212.864-2.028 1.848-2.028.972 0 1.812.804 1.812 2.028v.024c0 1.248-.816 2.028-1.812 2.028m6.61 1.26c.973 0 1.633-.408 2.065-.924V151h1.416v-3.756c0-.828-.216-1.5-.684-1.956-.444-.456-1.152-.708-2.1-.708-1.008 0-1.692.204-2.4.516l.396 1.14c.576-.24 1.104-.396 1.812-.396 1.02 0 1.572.48 1.572 1.38v.156a5.3 5.3 0 0 0-1.704-.264c-1.548 0-2.628.672-2.628 2.04v.024c0 1.272 1.068 1.956 2.256 1.956m.409-1.056c-.696 0-1.236-.348-1.236-.96v-.024c0-.66.552-1.056 1.488-1.056.576 0 1.068.108 1.44.252v.432c0 .804-.732 1.356-1.692 1.356m4.799.924h1.464v-2.412c0-1.68.888-2.508 2.16-2.508h.084v-1.536c-1.116-.048-1.848.6-2.244 1.548v-1.428h-1.464zm7.662.144c1.164 0 1.992-.468 2.592-1.188l-.852-.756c-.504.492-1.008.756-1.716.756-.936 0-1.668-.576-1.824-1.608h4.656c.012-.144.024-.276.024-.408 0-1.824-1.02-3.408-3.036-3.408-1.812 0-3.096 1.488-3.096 3.3v.024c0 1.956 1.416 3.288 3.252 3.288m-1.812-3.756c.132-.984.756-1.668 1.644-1.668.96 0 1.512.732 1.608 1.668z"/><ellipse cx="127.5" cy="122" fill="#de1639" rx="15.5" ry="15"/><path fill="#fff" d="M122.882 129h9.108v-1.944h-5.994l2.592-2.16c2.232-1.818 3.276-2.88 3.276-4.878v-.036c0-2.25-1.692-3.762-4.158-3.762-2.25 0-3.438.954-4.644 2.628l1.584 1.242c.954-1.26 1.746-1.89 2.898-1.89s2.034.738 2.034 1.962c0 1.134-.648 1.926-2.358 3.402l-4.338 3.69z"/><path fill="#000" d="m106.86 150.196-.96-.816a4.32 4.32 0 0 0 .852-2.58v-.024c0-2.364-1.8-4.32-4.38-4.32s-4.404 1.98-4.404 4.344v.024c0 2.364 1.8 4.32 4.38 4.32.972 0 1.848-.288 2.556-.792l1.008.9zm-4.488-.42c-1.668 0-2.856-1.344-2.856-2.976v-.024c0-1.632 1.164-2.952 2.832-2.952s2.856 1.344 2.856 2.976v.024c0 .6-.144 1.14-.408 1.596l-1.476-1.344-.948 1.08 1.452 1.248c-.42.24-.9.372-1.452.372m8.179 1.356c.984 0 1.572-.516 1.98-1.116V151h1.464v-6.336h-1.464v3.576c0 .984-.588 1.56-1.428 1.56-.864 0-1.356-.552-1.356-1.536v-3.6h-1.452v4.032c0 1.476.828 2.436 2.256 2.436m8.161.012c1.164 0 1.992-.468 2.592-1.188l-.852-.756c-.504.492-1.008.756-1.716.756-.936 0-1.668-.576-1.824-1.608h4.656c.012-.144.024-.276.024-.408 0-1.824-1.02-3.408-3.036-3.408-1.812 0-3.096 1.488-3.096 3.3v.024c0 1.956 1.416 3.288 3.252 3.288m-1.812-3.756c.132-.984.756-1.668 1.644-1.668.96 0 1.512.732 1.608 1.668zm8.323 3.732c1.32 0 2.352-.66 2.352-1.992v-.024c0-1.14-1.044-1.56-1.968-1.848-.744-.24-1.428-.432-1.428-.9v-.024c0-.348.324-.624.888-.624.528 0 1.176.228 1.788.6l.576-1.032c-.672-.444-1.536-.72-2.328-.72-1.26 0-2.256.732-2.256 1.944v.024c0 1.2 1.044 1.584 1.98 1.848.744.228 1.416.396 1.416.888v.024c0 .42-.36.684-.984.684-.648 0-1.38-.264-2.076-.78l-.648.984a4.38 4.38 0 0 0 2.688.948m5.846-.012c.552 0 .948-.12 1.308-.324v-1.188a1.95 1.95 0 0 1-.9.216c-.492 0-.78-.228-.78-.792v-3.108h1.704v-1.248h-1.704v-1.74h-1.452v1.74h-.804v1.248h.804v3.336c0 1.392.756 1.86 1.824 1.86m2.834-7.416h1.56v-1.38h-1.56zm.048 7.308h1.464v-6.336h-1.464zm6.373.144c1.956 0 3.396-1.5 3.396-3.3v-.024c0-1.812-1.428-3.288-3.372-3.288s-3.384 1.5-3.384 3.312v.024c0 1.8 1.428 3.276 3.36 3.276m.024-1.272c-1.128 0-1.932-.924-1.932-2.028v-.024c0-1.104.744-2.016 1.908-2.016 1.14 0 1.944.924 1.944 2.04v.024c0 1.092-.744 2.004-1.92 2.004m4.839 1.128h1.464v-3.576c0-.984.588-1.572 1.428-1.572.864 0 1.356.564 1.356 1.548v3.6h1.452v-4.044c0-1.464-.828-2.424-2.256-2.424-.984 0-1.572.516-1.98 1.104v-.972h-1.464zm9.626.12c1.32 0 2.352-.66 2.352-1.992v-.024c0-1.14-1.044-1.56-1.968-1.848-.744-.24-1.428-.432-1.428-.9v-.024c0-.348.324-.624.888-.624.528 0 1.176.228 1.788.6l.576-1.032c-.672-.444-1.536-.72-2.328-.72-1.26 0-2.256.732-2.256 1.944v.024c0 1.2 1.044 1.584 1.98 1.848.744.228 1.416.396 1.416.888v.024c0 .42-.36.684-.984.684-.648 0-1.38-.264-2.076-.78l-.648.984a4.38 4.38 0 0 0 2.688.948"/><ellipse cx="371" cy="122" fill="#efefef" stroke="#666" stroke-width="2" rx="15.5" ry="15"/><path fill="#666" d="M370.972 129.216c2.79 0 4.68-1.692 4.68-4.266v-.036c0-2.664-1.944-3.96-4.392-3.96-.846 0-1.404.144-1.998.36l.198-2.934h5.634v-1.98h-7.542l-.36 6.174 1.332.882c.648-.306 1.422-.558 2.322-.558 1.53 0 2.61.81 2.61 2.088v.036c0 1.314-.99 2.178-2.502 2.178-1.17 0-2.232-.576-3.24-1.512l-1.368 1.602c1.188 1.152 2.7 1.926 4.626 1.926M350.16 151h1.476v-2.7h1.668c1.848 0 3.36-.984 3.36-2.868v-.024c0-1.692-1.224-2.808-3.192-2.808h-3.312zm1.476-4.032v-3.024h1.716c1.104 0 1.812.516 1.812 1.5v.024c0 .876-.696 1.5-1.812 1.5zm8.567 4.164c.984 0 1.572-.516 1.98-1.116V151h1.464v-6.336h-1.464v3.576c0 .984-.588 1.56-1.428 1.56-.864 0-1.356-.552-1.356-1.536v-3.6h-1.452v4.032c0 1.476.828 2.436 2.256 2.436m8.87 0c1.5 0 2.94-1.188 2.94-3.288v-.024c0-2.112-1.452-3.288-2.94-3.288-1.032 0-1.692.528-2.16 1.188v-3.48h-1.464V151h1.464v-.984c.444.588 1.104 1.116 2.16 1.116m-.348-1.26c-.984 0-1.848-.816-1.848-2.028v-.024c0-1.212.864-2.028 1.848-2.028.972 0 1.812.804 1.812 2.028v.024c0 1.248-.816 2.028-1.812 2.028m4.859 1.128h1.464v-8.76h-1.464zm3.385-7.308h1.56v-1.38h-1.56zm.048 7.308h1.464v-6.336h-1.464zm5.534.12c1.32 0 2.352-.66 2.352-1.992v-.024c0-1.14-1.044-1.56-1.968-1.848-.744-.24-1.428-.432-1.428-.9v-.024c0-.348.324-.624.888-.624.528 0 1.176.228 1.788.6l.576-1.032c-.672-.444-1.536-.72-2.328-.72-1.26 0-2.256.732-2.256 1.944v.024c0 1.2 1.044 1.584 1.98 1.848.744.228 1.416.396 1.416.888v.024c0 .42-.36.684-.984.684-.648 0-1.38-.264-2.076-.78l-.648.984a4.38 4.38 0 0 0 2.688.948m3.828-.12h1.464v-3.576c0-.984.588-1.572 1.428-1.572.864 0 1.356.564 1.356 1.548v3.6h1.452v-4.044c0-1.464-.828-2.424-2.256-2.424-.984 0-1.572.516-1.98 1.104v-3.396h-1.464z"/><ellipse cx="294.5" cy="122" fill="#fff" stroke="#de1639" stroke-width="2" rx="15.5" ry="15"/><path fill="#de1639" d="M295.416 128h2.124v-2.826h1.8v-1.818h-1.8v-8.046h-1.89l-7.002 8.28.414 1.584h6.354zm-4.14-4.644 4.14-4.986v4.986zM273.912 151h1.476v-2.928h1.848L279.3 151h1.752l-2.268-3.18c1.164-.336 1.992-1.164 1.992-2.544v-.024c0-.732-.252-1.356-.696-1.812-.54-.528-1.368-.84-2.424-.84h-3.744zm1.476-4.236v-2.82h2.148c1.092 0 1.74.492 1.74 1.392v.024c0 .852-.672 1.404-1.728 1.404zm9.815 4.38c1.164 0 1.992-.468 2.592-1.188l-.852-.756c-.504.492-1.008.756-1.716.756-.936 0-1.668-.576-1.824-1.608h4.656c.012-.144.024-.276.024-.408 0-1.824-1.02-3.408-3.036-3.408-1.812 0-3.096 1.488-3.096 3.3v.024c0 1.956 1.416 3.288 3.252 3.288m-1.812-3.756c.132-.984.756-1.668 1.644-1.668.96 0 1.512.732 1.608 1.668zm7.849 3.66h1.308l2.592-6.384h-1.524l-1.716 4.656-1.704-4.656h-1.56zm5.157-7.356h1.56v-1.38h-1.56zm.048 7.308h1.464v-6.336h-1.464zm6.266.144c1.164 0 1.992-.468 2.592-1.188l-.852-.756c-.504.492-1.008.756-1.716.756-.936 0-1.668-.576-1.824-1.608h4.656c.012-.144.024-.276.024-.408 0-1.824-1.02-3.408-3.036-3.408-1.812 0-3.096 1.488-3.096 3.3v.024c0 1.956 1.416 3.288 3.252 3.288m-1.812-3.756c.132-.984.756-1.668 1.644-1.668.96 0 1.512.732 1.608 1.668zm7.369 3.66h1.296l1.428-4.332 1.416 4.332h1.308l2.076-6.384h-1.464l-1.296 4.344-1.404-4.368h-1.248l-1.404 4.368-1.272-4.344h-1.5z"/><ellipse cx="216.5" cy="122" fill="#de1639" rx="15.5" ry="15"/><path fill="#fff" d="M216.598 129.216c2.628 0 4.41-1.674 4.41-3.996v-.036c0-2.322-1.8-3.294-3.708-3.528l3.51-3.6V116.4h-8.334v1.926h5.454l-3.402 3.618.36 1.386h1.026c1.764 0 2.898.702 2.898 1.944v.036c0 1.152-.954 1.908-2.178 1.908-1.404 0-2.412-.594-3.312-1.656l-1.548 1.458c1.062 1.278 2.628 2.196 4.824 2.196"/><path fill="#000" d="M195.976 151h1.476v-2.928h1.848l2.064 2.928h1.752l-2.268-3.18c1.164-.336 1.992-1.164 1.992-2.544v-.024c0-.732-.252-1.356-.696-1.812-.54-.528-1.368-.84-2.424-.84h-3.744zm1.476-4.236v-2.82h2.148c1.092 0 1.74.492 1.74 1.392v.024c0 .852-.672 1.404-1.728 1.404zm9.815 4.38c1.164 0 1.992-.468 2.592-1.188l-.852-.756c-.504.492-1.008.756-1.716.756-.936 0-1.668-.576-1.824-1.608h4.656c.012-.144.024-.276.024-.408 0-1.824-1.02-3.408-3.036-3.408-1.812 0-3.096 1.488-3.096 3.3v.024c0 1.956 1.416 3.288 3.252 3.288m-1.812-3.756c.132-.984.756-1.668 1.644-1.668.96 0 1.512.732 1.608 1.668zm9.078 3.756c1.236 0 1.968-.492 2.592-1.188l-.876-.864c-.468.468-.96.78-1.644.78-1.116 0-1.896-.9-1.896-2.028v-.024c0-1.104.78-2.016 1.836-2.016.72 0 1.188.336 1.632.792l.912-.972c-.6-.648-1.344-1.092-2.532-1.092-1.908 0-3.3 1.512-3.3 3.312v.024c0 1.8 1.392 3.276 3.276 3.276m6.764 0c1.956 0 3.396-1.5 3.396-3.3v-.024c0-1.812-1.428-3.288-3.372-3.288s-3.384 1.5-3.384 3.312v.024c0 1.8 1.428 3.276 3.36 3.276m.024-1.272c-1.128 0-1.932-.924-1.932-2.028v-.024c0-1.104.744-2.016 1.908-2.016 1.14 0 1.944.924 1.944 2.04v.024c0 1.092-.744 2.004-1.92 2.004M226.16 151h1.464v-2.412c0-1.68.888-2.508 2.16-2.508h.084v-1.536c-1.116-.048-1.848.6-2.244 1.548v-1.428h-1.464zm7.421.132c1.032 0 1.692-.528 2.16-1.188V151h1.452v-8.76h-1.452v3.408c-.456-.6-1.116-1.116-2.16-1.116-1.512 0-2.94 1.188-2.94 3.288v.024c0 2.1 1.452 3.288 2.94 3.288m.348-1.26c-.984 0-1.824-.804-1.824-2.028v-.024c0-1.248.828-2.028 1.824-2.028.972 0 1.836.804 1.836 2.028v.024c0 1.212-.864 2.028-1.836 2.028"/></g><defs><clipPath id="a"><path fill="#fff" d="M0 0h414v896H0z"/></clipPath></defs></svg>