<svg width="414" height="896" viewBox="0 0 414 896" fill="none" xmlns="http://www.w3.org/2000/svg">
<g clip-path="url(#clip0_1910_8789)">
<rect width="414" height="896" fill="white"/>
<rect x="-4" y="203" width="422" height="57" fill="#3AA8C4"/>
<rect x="218" y="317" width="180" height="159.398" rx="10" fill="#C4C4C4"/>
<path d="M285.486 399.68L298.539 386.627C300.762 384.404 304.367 384.404 306.59 386.627L319.643 399.68M313.95 393.987L318.464 389.474C320.687 387.25 324.292 387.25 326.515 389.474L331.028 393.987M313.95 376.909H313.979M291.179 411.066H325.336C328.48 411.066 331.028 408.517 331.028 405.373V371.216C331.028 368.072 328.48 365.523 325.336 365.523H291.179C288.035 365.523 285.486 368.072 285.486 371.216V405.373C285.486 408.517 288.035 411.066 291.179 411.066Z" stroke="black" stroke-width="3" stroke-linecap="round" stroke-linejoin="round"/>
<path d="M239.974 435.261C242.719 435.261 244.489 433.686 244.489 430.551V424.596H242.644V430.641C242.644 432.576 241.639 433.551 240.004 433.551C238.354 433.551 237.349 432.516 237.349 430.566V424.596H235.504V430.641C235.504 433.686 237.244 435.261 239.974 435.261ZM246.796 437.496H248.626V433.866C249.181 434.601 250.006 435.261 251.326 435.261C253.201 435.261 255.001 433.776 255.001 431.151V431.121C255.001 428.481 253.186 427.011 251.326 427.011C250.036 427.011 249.211 427.671 248.626 428.496V427.176H246.796V437.496ZM250.891 433.686C249.661 433.686 248.581 432.666 248.581 431.151V431.121C248.581 429.606 249.661 428.586 250.891 428.586C252.106 428.586 253.156 429.591 253.156 431.121V431.151C253.156 432.711 252.136 433.686 250.891 433.686ZM256.965 435.096H258.795V424.146H256.965V435.096ZM264.932 435.276C267.377 435.276 269.177 433.401 269.177 431.151V431.121C269.177 428.856 267.392 427.011 264.962 427.011C262.532 427.011 260.732 428.886 260.732 431.151V431.181C260.732 433.431 262.517 435.276 264.932 435.276ZM264.962 433.686C263.552 433.686 262.547 432.531 262.547 431.151V431.121C262.547 429.741 263.477 428.601 264.932 428.601C266.357 428.601 267.362 429.756 267.362 431.151V431.181C267.362 432.546 266.432 433.686 264.962 433.686ZM273.305 435.261C274.52 435.261 275.345 434.751 275.885 434.106V435.096H277.655V430.401C277.655 429.366 277.385 428.526 276.8 427.956C276.245 427.386 275.36 427.071 274.175 427.071C272.915 427.071 272.06 427.326 271.175 427.716L271.67 429.141C272.39 428.841 273.05 428.646 273.935 428.646C275.21 428.646 275.9 429.246 275.9 430.371V430.566C275.285 430.371 274.655 430.236 273.77 430.236C271.835 430.236 270.485 431.076 270.485 432.786V432.816C270.485 434.406 271.82 435.261 273.305 435.261ZM273.815 433.941C272.945 433.941 272.27 433.506 272.27 432.741V432.711C272.27 431.886 272.96 431.391 274.13 431.391C274.85 431.391 275.465 431.526 275.93 431.706V432.246C275.93 433.251 275.015 433.941 273.815 433.941ZM283.099 435.261C284.389 435.261 285.214 434.601 285.799 433.776V435.096H287.614V424.146H285.799V428.406C285.229 427.656 284.404 427.011 283.099 427.011C281.209 427.011 279.424 428.496 279.424 431.121V431.151C279.424 433.776 281.239 435.261 283.099 435.261ZM283.534 433.686C282.304 433.686 281.254 432.681 281.254 431.151V431.121C281.254 429.561 282.289 428.586 283.534 428.586C284.749 428.586 285.829 429.591 285.829 431.121V431.151C285.829 432.666 284.749 433.686 283.534 433.686ZM294.794 435.096H296.609V428.736H298.679V427.236H296.579V426.801C296.579 425.991 296.939 425.601 297.629 425.601C298.019 425.601 298.334 425.676 298.694 425.796V424.266C298.289 424.146 297.854 424.056 297.209 424.056C296.444 424.056 295.859 424.266 295.439 424.686C295.019 425.106 294.794 425.766 294.794 426.636V427.221H293.789V428.736H294.794V435.096ZM300.014 435.096H301.844V432.081C301.844 429.981 302.954 428.946 304.544 428.946H304.649V427.026C303.254 426.966 302.339 427.776 301.844 428.961V427.176H300.014V435.096ZM309.726 435.276C312.171 435.276 313.971 433.401 313.971 431.151V431.121C313.971 428.856 312.186 427.011 309.756 427.011C307.326 427.011 305.526 428.886 305.526 431.151V431.181C305.526 433.431 307.311 435.276 309.726 435.276ZM309.756 433.686C308.346 433.686 307.341 432.531 307.341 431.151V431.121C307.341 429.741 308.271 428.601 309.726 428.601C311.151 428.601 312.156 429.756 312.156 431.151V431.181C312.156 432.546 311.226 433.686 309.756 433.686ZM315.805 435.096H317.635V430.626C317.635 429.411 318.325 428.661 319.33 428.661C320.335 428.661 320.935 429.351 320.935 430.581V435.096H322.75V430.626C322.75 429.351 323.455 428.661 324.445 428.661C325.465 428.661 326.05 429.336 326.05 430.596V435.096H327.865V430.041C327.865 428.106 326.815 427.011 325.09 427.011C323.89 427.011 323.05 427.566 322.42 428.406C322 427.566 321.19 427.011 320.05 427.011C318.835 427.011 318.145 427.671 317.635 428.376V427.176H315.805V435.096ZM337.825 435.261C339.115 435.261 339.94 434.601 340.525 433.776V435.096H342.34V424.146H340.525V428.406C339.955 427.656 339.13 427.011 337.825 427.011C335.935 427.011 334.15 428.496 334.15 431.121V431.151C334.15 433.776 335.965 435.261 337.825 435.261ZM338.26 433.686C337.03 433.686 335.98 432.681 335.98 431.151V431.121C335.98 429.561 337.015 428.586 338.26 428.586C339.475 428.586 340.555 429.591 340.555 431.121V431.151C340.555 432.666 339.475 433.686 338.26 433.686ZM348.249 435.276C349.704 435.276 350.739 434.691 351.489 433.791L350.424 432.846C349.794 433.461 349.164 433.791 348.279 433.791C347.109 433.791 346.194 433.071 345.999 431.781H351.819C351.834 431.601 351.849 431.436 351.849 431.271C351.849 428.991 350.574 427.011 348.054 427.011C345.789 427.011 344.184 428.871 344.184 431.136V431.166C344.184 433.611 345.954 435.276 348.249 435.276ZM345.984 430.581C346.149 429.351 346.929 428.496 348.039 428.496C349.239 428.496 349.929 429.411 350.049 430.581H345.984ZM355.796 435.156H357.431L360.671 427.176H358.766L356.621 432.996L354.491 427.176H352.541L355.796 435.156ZM362.241 425.961H364.191V424.236H362.241V425.961ZM362.301 435.096H364.131V427.176H362.301V435.096ZM370.163 435.276C371.708 435.276 372.623 434.661 373.403 433.791L372.308 432.711C371.723 433.296 371.108 433.686 370.253 433.686C368.858 433.686 367.883 432.561 367.883 431.151V431.121C367.883 429.741 368.858 428.601 370.178 428.601C371.078 428.601 371.663 429.021 372.218 429.591L373.358 428.376C372.608 427.566 371.678 427.011 370.193 427.011C367.808 427.011 366.068 428.901 366.068 431.151V431.181C366.068 433.431 367.808 435.276 370.163 435.276ZM378.483 435.276C379.938 435.276 380.973 434.691 381.723 433.791L380.658 432.846C380.028 433.461 379.398 433.791 378.513 433.791C377.343 433.791 376.428 433.071 376.233 431.781H382.053C382.068 431.601 382.083 431.436 382.083 431.271C382.083 428.991 380.808 427.011 378.288 427.011C376.023 427.011 374.418 428.871 374.418 431.136V431.166C374.418 433.611 376.188 435.276 378.483 435.276ZM376.218 430.581C376.383 429.351 377.163 428.496 378.273 428.496C379.473 428.496 380.163 429.411 380.283 430.581H376.218Z" fill="black"/>
<rect x="16" y="317" width="180" height="159.398" rx="10" fill="#C4C4C4"/>
<path d="M65.3465 435.096H67.1915V426.306H70.5365V424.596H62.0015V426.306H65.3465V435.096ZM72.8349 435.261C74.0499 435.261 74.8749 434.751 75.4149 434.106V435.096H77.1849V430.401C77.1849 429.366 76.9149 428.526 76.3299 427.956C75.7749 427.386 74.8899 427.071 73.7049 427.071C72.4449 427.071 71.5899 427.326 70.7049 427.716L71.1999 429.141C71.9199 428.841 72.5799 428.646 73.4649 428.646C74.7399 428.646 75.4299 429.246 75.4299 430.371V430.566C74.8149 430.371 74.1849 430.236 73.2999 430.236C71.3649 430.236 70.0149 431.076 70.0149 432.786V432.816C70.0149 434.406 71.3499 435.261 72.8349 435.261ZM73.3449 433.941C72.4749 433.941 71.7999 433.506 71.7999 432.741V432.711C71.7999 431.886 72.4899 431.391 73.6599 431.391C74.3799 431.391 74.9949 431.526 75.4599 431.706V432.246C75.4599 433.251 74.5449 433.941 73.3449 433.941ZM79.3436 435.096H81.1736V432.831L82.2986 431.661L84.6386 435.096H86.7686L83.5136 430.401L86.6636 427.176H84.4586L81.1736 430.686V424.146H79.3436V435.096ZM91.3382 435.276C92.7932 435.276 93.8282 434.691 94.5782 433.791L93.5132 432.846C92.8832 433.461 92.2532 433.791 91.3682 433.791C90.1982 433.791 89.2832 433.071 89.0882 431.781H94.9082C94.9232 431.601 94.9382 431.436 94.9382 431.271C94.9382 428.991 93.6632 427.011 91.1432 427.011C88.8782 427.011 87.2732 428.871 87.2732 431.136V431.166C87.2732 433.611 89.0432 435.276 91.3382 435.276ZM89.0732 430.581C89.2382 429.351 90.0182 428.496 91.1282 428.496C92.3282 428.496 93.0182 429.411 93.1382 430.581H89.0732ZM101.243 437.496H103.073V433.866C103.628 434.601 104.453 435.261 105.773 435.261C107.648 435.261 109.448 433.776 109.448 431.151V431.121C109.448 428.481 107.633 427.011 105.773 427.011C104.483 427.011 103.658 427.671 103.073 428.496V427.176H101.243V437.496ZM105.338 433.686C104.108 433.686 103.028 432.666 103.028 431.151V431.121C103.028 429.606 104.108 428.586 105.338 428.586C106.553 428.586 107.603 429.591 107.603 431.121V431.151C107.603 432.711 106.583 433.686 105.338 433.686ZM111.306 435.096H113.136V430.626C113.136 429.396 113.871 428.661 114.921 428.661C116.001 428.661 116.616 429.366 116.616 430.596V435.096H118.431V430.041C118.431 428.211 117.396 427.011 115.611 427.011C114.381 427.011 113.646 427.656 113.136 428.391V424.146H111.306V435.096ZM124.388 435.276C126.833 435.276 128.633 433.401 128.633 431.151V431.121C128.633 428.856 126.848 427.011 124.418 427.011C121.988 427.011 120.188 428.886 120.188 431.151V431.181C120.188 433.431 121.973 435.276 124.388 435.276ZM124.418 433.686C123.008 433.686 122.003 432.531 122.003 431.151V431.121C122.003 429.741 122.933 428.601 124.388 428.601C125.813 428.601 126.818 429.756 126.818 431.151V431.181C126.818 432.546 125.888 433.686 124.418 433.686ZM133.137 435.231C133.827 435.231 134.322 435.081 134.772 434.826V433.341C134.412 433.521 134.052 433.611 133.647 433.611C133.032 433.611 132.672 433.326 132.672 432.621V428.736H134.802V427.176H132.672V425.001H130.857V427.176H129.852V428.736H130.857V432.906C130.857 434.646 131.802 435.231 133.137 435.231ZM140.194 435.276C142.639 435.276 144.439 433.401 144.439 431.151V431.121C144.439 428.856 142.654 427.011 140.224 427.011C137.794 427.011 135.994 428.886 135.994 431.151V431.181C135.994 433.431 137.779 435.276 140.194 435.276ZM140.224 433.686C138.814 433.686 137.809 432.531 137.809 431.151V431.121C137.809 429.741 138.739 428.601 140.194 428.601C141.619 428.601 142.624 429.756 142.624 431.151V431.181C142.624 432.546 141.694 433.686 140.224 433.686Z" fill="black"/>
<path d="M82.1445 379.349C82.1445 376.355 84.5719 373.927 87.5662 373.927H90.0863C91.8991 373.927 93.5919 373.021 94.5974 371.513L96.8001 368.209C97.8056 366.701 99.4984 365.795 101.311 365.795H111.773C113.586 365.795 115.279 366.701 116.284 368.209L118.487 371.513C119.492 373.021 121.185 373.927 122.998 373.927H125.518C128.512 373.927 130.94 376.355 130.94 379.349V403.747C130.94 406.741 128.512 409.168 125.518 409.168H87.5662C84.5719 409.168 82.1445 406.741 82.1445 403.747V379.349Z" stroke="black" stroke-width="3" stroke-linecap="round" stroke-linejoin="round"/>
<path d="M114.675 390.193C114.675 394.684 111.034 398.325 106.542 398.325C102.051 398.325 98.4096 394.684 98.4096 390.193C98.4096 385.701 102.051 382.06 106.542 382.06C111.034 382.06 114.675 385.701 114.675 390.193Z" stroke="black" stroke-width="3" stroke-linecap="round" stroke-linejoin="round"/>
<path d="M357.524 493.132C359.72 493.132 361.136 491.872 361.136 489.364V484.6H359.66V489.436C359.66 490.984 358.856 491.764 357.548 491.764C356.228 491.764 355.424 490.936 355.424 489.376V484.6H353.948V489.436C353.948 491.872 355.34 493.132 357.524 493.132ZM362.982 494.92H364.446V492.016C364.89 492.604 365.55 493.132 366.606 493.132C368.106 493.132 369.546 491.944 369.546 489.844V489.82C369.546 487.708 368.094 486.532 366.606 486.532C365.574 486.532 364.914 487.06 364.446 487.72V486.664H362.982V494.92ZM366.258 491.872C365.274 491.872 364.41 491.056 364.41 489.844V489.82C364.41 488.608 365.274 487.792 366.258 487.792C367.23 487.792 368.07 488.596 368.07 489.82V489.844C368.07 491.092 367.254 491.872 366.258 491.872ZM376.766 493.108C377.318 493.108 377.714 492.988 378.074 492.784V491.596C377.786 491.74 377.498 491.812 377.174 491.812C376.682 491.812 376.394 491.584 376.394 491.02V487.912H378.098V486.664H376.394V484.924H374.942V486.664H374.138V487.912H374.942V491.248C374.942 492.64 375.698 493.108 376.766 493.108ZM382.412 493.144C384.368 493.144 385.808 491.644 385.808 489.844V489.82C385.808 488.008 384.38 486.532 382.436 486.532C380.492 486.532 379.052 488.032 379.052 489.844V489.868C379.052 491.668 380.48 493.144 382.412 493.144ZM382.436 491.872C381.308 491.872 380.504 490.948 380.504 489.844V489.82C380.504 488.716 381.248 487.804 382.412 487.804C383.552 487.804 384.356 488.728 384.356 489.844V489.868C384.356 490.96 383.612 491.872 382.436 491.872ZM394.017 493.144C395.781 493.144 397.137 491.956 397.137 490.288V490.264C397.137 488.584 395.829 487.624 394.209 487.624C393.309 487.624 392.685 487.96 392.193 488.476C392.217 487.324 392.745 485.8 394.209 485.8C394.953 485.8 395.445 486.076 396.033 486.544L396.825 485.392C396.093 484.804 395.349 484.456 394.257 484.456C391.881 484.456 390.657 486.46 390.657 489.028V489.052C390.657 490.744 391.041 491.62 391.677 492.256C392.241 492.82 392.985 493.144 394.017 493.144ZM393.981 491.86C392.937 491.86 392.241 491.212 392.241 490.36V490.336C392.241 489.532 392.901 488.86 393.945 488.86C394.989 488.86 395.661 489.484 395.661 490.324V490.348C395.661 491.212 395.025 491.86 393.981 491.86Z" fill="black"/>
<path d="M35.9644 228H37.8244V223.815L41.9944 217.5H39.8794L36.9094 222.135L33.9844 217.5H31.7944L35.9644 223.86V228ZM45.5114 228.18C47.9564 228.18 49.7564 226.305 49.7564 224.055V224.025C49.7564 221.76 47.9714 219.915 45.5414 219.915C43.1114 219.915 41.3114 221.79 41.3114 224.055V224.085C41.3114 226.335 43.0964 228.18 45.5114 228.18ZM45.5414 226.59C44.1314 226.59 43.1264 225.435 43.1264 224.055V224.025C43.1264 222.645 44.0564 221.505 45.5114 221.505C46.9364 221.505 47.9414 222.66 47.9414 224.055V224.085C47.9414 225.45 47.0114 226.59 45.5414 226.59ZM54.3348 228.165C55.5648 228.165 56.2998 227.52 56.8098 226.77V228H58.6398V220.08H56.8098V224.55C56.8098 225.78 56.0748 226.5 55.0248 226.5C53.9448 226.5 53.3298 225.81 53.3298 224.58V220.08H51.5148V225.12C51.5148 226.965 52.5498 228.165 54.3348 228.165ZM60.5466 221.745C62.0616 221.625 62.8566 220.92 62.8566 219.255V217.5H60.8616V219.57H61.6416C61.7016 220.335 61.2666 220.8 60.3516 220.965L60.5466 221.745ZM67.4399 228.06H69.0749L72.3149 220.08H70.4099L68.2649 225.9L66.1349 220.08H64.1849L67.4399 228.06ZM77.0317 228.18C78.4867 228.18 79.5217 227.595 80.2717 226.695L79.2067 225.75C78.5767 226.365 77.9467 226.695 77.0617 226.695C75.8917 226.695 74.9767 225.975 74.7817 224.685H80.6017C80.6167 224.505 80.6317 224.34 80.6317 224.175C80.6317 221.895 79.3567 219.915 76.8367 219.915C74.5717 219.915 72.9667 221.775 72.9667 224.04V224.07C72.9667 226.515 74.7367 228.18 77.0317 228.18ZM74.7667 223.485C74.9317 222.255 75.7117 221.4 76.8217 221.4C78.0217 221.4 78.7117 222.315 78.8317 223.485H74.7667ZM87.3565 228H89.1715V221.64H91.2415V220.14H89.1415V219.705C89.1415 218.895 89.5015 218.505 90.1915 218.505C90.5815 218.505 90.8965 218.58 91.2565 218.7V217.17C90.8515 217.05 90.4165 216.96 89.7715 216.96C89.0065 216.96 88.4215 217.17 88.0015 217.59C87.5815 218.01 87.3565 218.67 87.3565 219.54V220.125H86.3515V221.64H87.3565V228ZM92.6815 228H94.5115V220.08H92.6815V228ZM92.6215 218.865H94.5715V217.14H92.6215V218.865ZM96.8682 228H98.6982V223.53C98.6982 222.3 99.4332 221.565 100.483 221.565C101.563 221.565 102.178 222.27 102.178 223.5V228H103.993V222.945C103.993 221.115 102.958 219.915 101.173 219.915C99.9432 219.915 99.2082 220.56 98.6982 221.295V220.08H96.8682V228ZM106.215 218.865H108.165V217.14H106.215V218.865ZM106.275 228H108.105V220.08H106.275V228ZM113.192 228.15C114.842 228.15 116.132 227.325 116.132 225.66V225.63C116.132 224.205 114.827 223.68 113.672 223.32C112.742 223.02 111.887 222.78 111.887 222.195V222.165C111.887 221.73 112.292 221.385 112.997 221.385C113.657 221.385 114.467 221.67 115.232 222.135L115.952 220.845C115.112 220.29 114.032 219.945 113.042 219.945C111.467 219.945 110.222 220.86 110.222 222.375V222.405C110.222 223.905 111.527 224.385 112.697 224.715C113.627 225 114.467 225.21 114.467 225.825V225.855C114.467 226.38 114.017 226.71 113.237 226.71C112.427 226.71 111.512 226.38 110.642 225.735L109.832 226.965C110.822 227.76 112.067 228.15 113.192 228.15ZM117.977 228H119.807V223.53C119.807 222.3 120.542 221.565 121.592 221.565C122.672 221.565 123.287 222.27 123.287 223.5V228H125.102V222.945C125.102 221.115 124.067 219.915 122.282 219.915C121.052 219.915 120.317 220.56 119.807 221.295V217.05H117.977V228ZM130.923 228.18C132.378 228.18 133.413 227.595 134.163 226.695L133.098 225.75C132.468 226.365 131.838 226.695 130.953 226.695C129.783 226.695 128.868 225.975 128.673 224.685H134.493C134.508 224.505 134.523 224.34 134.523 224.175C134.523 221.895 133.248 219.915 130.728 219.915C128.463 219.915 126.858 221.775 126.858 224.04V224.07C126.858 226.515 128.628 228.18 130.923 228.18ZM128.658 223.485C128.823 222.255 129.603 221.4 130.713 221.4C131.913 221.4 132.603 222.315 132.723 223.485H128.658ZM139.616 228.165C140.906 228.165 141.731 227.505 142.316 226.68V228H144.131V217.05H142.316V221.31C141.746 220.56 140.921 219.915 139.616 219.915C137.726 219.915 135.941 221.4 135.941 224.025V224.055C135.941 226.68 137.756 228.165 139.616 228.165ZM140.051 226.59C138.821 226.59 137.771 225.585 137.771 224.055V224.025C137.771 222.465 138.806 221.49 140.051 221.49C141.266 221.49 142.346 222.495 142.346 224.025V224.055C142.346 225.57 141.266 226.59 140.051 226.59ZM150.892 228H152.722V224.985C152.722 222.885 153.832 221.85 155.422 221.85H155.527V219.93C154.132 219.87 153.217 220.68 152.722 221.865V220.08H150.892V228ZM160.469 228.18C161.924 228.18 162.959 227.595 163.709 226.695L162.644 225.75C162.014 226.365 161.384 226.695 160.499 226.695C159.329 226.695 158.414 225.975 158.219 224.685H164.039C164.054 224.505 164.069 224.34 164.069 224.175C164.069 221.895 162.794 219.915 160.274 219.915C158.009 219.915 156.404 221.775 156.404 224.04V224.07C156.404 226.515 158.174 228.18 160.469 228.18ZM158.204 223.485C158.369 222.255 159.149 221.4 160.259 221.4C161.459 221.4 162.149 222.315 162.269 223.485H158.204ZM169.552 228.18C171.097 228.18 172.012 227.565 172.792 226.695L171.697 225.615C171.112 226.2 170.497 226.59 169.642 226.59C168.247 226.59 167.272 225.465 167.272 224.055V224.025C167.272 222.645 168.247 221.505 169.567 221.505C170.467 221.505 171.052 221.925 171.607 222.495L172.747 221.28C171.997 220.47 171.067 219.915 169.582 219.915C167.197 219.915 165.457 221.805 165.457 224.055V224.085C165.457 226.335 167.197 228.18 169.552 228.18ZM178.007 228.18C180.452 228.18 182.252 226.305 182.252 224.055V224.025C182.252 221.76 180.467 219.915 178.037 219.915C175.607 219.915 173.807 221.79 173.807 224.055V224.085C173.807 226.335 175.592 228.18 178.007 228.18ZM178.037 226.59C176.627 226.59 175.622 225.435 175.622 224.055V224.025C175.622 222.645 176.552 221.505 178.007 221.505C179.432 221.505 180.437 222.66 180.437 224.055V224.085C180.437 225.45 179.507 226.59 178.037 226.59ZM184.085 228H185.915V224.985C185.915 222.885 187.025 221.85 188.615 221.85H188.72V219.93C187.325 219.87 186.41 220.68 185.915 221.865V220.08H184.085V228ZM193.361 228.165C194.651 228.165 195.476 227.505 196.061 226.68V228H197.876V217.05H196.061V221.31C195.491 220.56 194.666 219.915 193.361 219.915C191.471 219.915 189.686 221.4 189.686 224.025V224.055C189.686 226.68 191.501 228.165 193.361 228.165ZM193.796 226.59C192.566 226.59 191.516 225.585 191.516 224.055V224.025C191.516 222.465 192.551 221.49 193.796 221.49C195.011 221.49 196.091 222.495 196.091 224.025V224.055C196.091 225.57 195.011 226.59 193.796 226.59ZM200.185 218.865H202.135V217.14H200.185V218.865ZM200.245 228H202.075V220.08H200.245V228ZM204.432 228H206.262V223.53C206.262 222.3 206.997 221.565 208.047 221.565C209.127 221.565 209.742 222.27 209.742 223.5V228H211.557V222.945C211.557 221.115 210.522 219.915 208.737 219.915C207.507 219.915 206.772 220.56 206.262 221.295V220.08H204.432V228ZM217.273 230.43C218.698 230.43 219.808 230.085 220.528 229.365C221.188 228.705 221.533 227.715 221.533 226.38V220.08H219.718V221.265C219.103 220.53 218.278 219.915 216.943 219.915C215.098 219.915 213.343 221.295 213.343 223.635V223.665C213.343 225.99 215.068 227.37 216.943 227.37C218.248 227.37 219.073 226.77 219.733 225.93V226.53C219.733 228.12 218.848 228.945 217.228 228.945C216.148 228.945 215.263 228.645 214.408 228.12L213.733 229.485C214.753 230.1 215.968 230.43 217.273 230.43ZM217.423 225.825C216.178 225.825 215.173 224.94 215.173 223.65V223.62C215.173 222.315 216.163 221.46 217.423 221.46C218.683 221.46 219.748 222.33 219.748 223.62V223.65C219.748 224.94 218.683 225.825 217.423 225.825ZM230.589 228.165C231.804 228.165 232.629 227.655 233.169 227.01V228H234.939V223.305C234.939 222.27 234.669 221.43 234.084 220.86C233.529 220.29 232.644 219.975 231.459 219.975C230.199 219.975 229.344 220.23 228.459 220.62L228.954 222.045C229.674 221.745 230.334 221.55 231.219 221.55C232.494 221.55 233.184 222.15 233.184 223.275V223.47C232.569 223.275 231.939 223.14 231.054 223.14C229.119 223.14 227.769 223.98 227.769 225.69V225.72C227.769 227.31 229.104 228.165 230.589 228.165ZM231.099 226.845C230.229 226.845 229.554 226.41 229.554 225.645V225.615C229.554 224.79 230.244 224.295 231.414 224.295C232.134 224.295 232.749 224.43 233.214 224.61V225.15C233.214 226.155 232.299 226.845 231.099 226.845ZM237.098 228H238.928V223.53C238.928 222.3 239.663 221.565 240.713 221.565C241.793 221.565 242.408 222.27 242.408 223.5V228H244.223V222.945C244.223 221.115 243.188 219.915 241.403 219.915C240.173 219.915 239.438 220.56 238.928 221.295V220.08H237.098V228ZM249.684 228.165C250.974 228.165 251.799 227.505 252.384 226.68V228H254.199V217.05H252.384V221.31C251.814 220.56 250.989 219.915 249.684 219.915C247.794 219.915 246.009 221.4 246.009 224.025V224.055C246.009 226.68 247.824 228.165 249.684 228.165ZM250.119 226.59C248.889 226.59 247.839 225.585 247.839 224.055V224.025C247.839 222.465 248.874 221.49 250.119 221.49C251.334 221.49 252.414 222.495 252.414 224.025V224.055C252.414 225.57 251.334 226.59 250.119 226.59ZM263.69 228.15C265.34 228.15 266.63 227.325 266.63 225.66V225.63C266.63 224.205 265.325 223.68 264.17 223.32C263.24 223.02 262.385 222.78 262.385 222.195V222.165C262.385 221.73 262.79 221.385 263.495 221.385C264.155 221.385 264.965 221.67 265.73 222.135L266.45 220.845C265.61 220.29 264.53 219.945 263.54 219.945C261.965 219.945 260.72 220.86 260.72 222.375V222.405C260.72 223.905 262.025 224.385 263.195 224.715C264.125 225 264.965 225.21 264.965 225.825V225.855C264.965 226.38 264.515 226.71 263.735 226.71C262.925 226.71 262.01 226.38 261.14 225.735L260.33 226.965C261.32 227.76 262.565 228.15 263.69 228.15ZM270.77 228.165C271.985 228.165 272.81 227.655 273.35 227.01V228H275.12V223.305C275.12 222.27 274.85 221.43 274.265 220.86C273.71 220.29 272.825 219.975 271.64 219.975C270.38 219.975 269.525 220.23 268.64 220.62L269.135 222.045C269.855 221.745 270.515 221.55 271.4 221.55C272.675 221.55 273.365 222.15 273.365 223.275V223.47C272.75 223.275 272.12 223.14 271.235 223.14C269.3 223.14 267.95 223.98 267.95 225.69V225.72C267.95 227.31 269.285 228.165 270.77 228.165ZM271.28 226.845C270.41 226.845 269.735 226.41 269.735 225.645V225.615C269.735 224.79 270.425 224.295 271.595 224.295C272.315 224.295 272.93 224.43 273.395 224.61V225.15C273.395 226.155 272.48 226.845 271.28 226.845ZM279.505 228.06H281.14L284.38 220.08H282.475L280.33 225.9L278.2 220.08H276.25L279.505 228.06ZM289.097 228.18C290.552 228.18 291.587 227.595 292.337 226.695L291.272 225.75C290.642 226.365 290.012 226.695 289.127 226.695C287.957 226.695 287.042 225.975 286.847 224.685H292.667C292.682 224.505 292.697 224.34 292.697 224.175C292.697 221.895 291.422 219.915 288.902 219.915C286.637 219.915 285.032 221.775 285.032 224.04V224.07C285.032 226.515 286.802 228.18 289.097 228.18ZM286.832 223.485C286.997 222.255 287.777 221.4 288.887 221.4C290.087 221.4 290.777 222.315 290.897 223.485H286.832ZM297.79 228.165C299.08 228.165 299.905 227.505 300.49 226.68V228H302.305V217.05H300.49V221.31C299.92 220.56 299.095 219.915 297.79 219.915C295.9 219.915 294.115 221.4 294.115 224.025V224.055C294.115 226.68 295.93 228.165 297.79 228.165ZM298.225 226.59C296.995 226.59 295.945 225.585 295.945 224.055V224.025C295.945 222.465 296.98 221.49 298.225 221.49C299.44 221.49 300.52 222.495 300.52 224.025V224.055C300.52 225.57 299.44 226.59 298.225 226.59ZM311.735 228.135C312.425 228.135 312.92 227.985 313.37 227.73V226.245C313.01 226.425 312.65 226.515 312.245 226.515C311.63 226.515 311.27 226.23 311.27 225.525V221.64H313.4V220.08H311.27V217.905H309.455V220.08H308.45V221.64H309.455V225.81C309.455 227.55 310.4 228.135 311.735 228.135ZM318.793 228.18C321.238 228.18 323.038 226.305 323.038 224.055V224.025C323.038 221.76 321.253 219.915 318.823 219.915C316.393 219.915 314.593 221.79 314.593 224.055V224.085C314.593 226.335 316.378 228.18 318.793 228.18ZM318.823 226.59C317.413 226.59 316.408 225.435 316.408 224.055V224.025C316.408 222.645 317.338 221.505 318.793 221.505C320.218 221.505 321.223 222.66 321.223 224.055V224.085C321.223 225.45 320.293 226.59 318.823 226.59ZM332.653 228.165C333.943 228.165 334.768 227.505 335.353 226.68V228H337.168V217.05H335.353V221.31C334.783 220.56 333.958 219.915 332.653 219.915C330.763 219.915 328.978 221.4 328.978 224.025V224.055C328.978 226.68 330.793 228.165 332.653 228.165ZM333.088 226.59C331.858 226.59 330.808 225.585 330.808 224.055V224.025C330.808 222.465 331.843 221.49 333.088 221.49C334.303 221.49 335.383 222.495 335.383 224.025V224.055C335.383 225.57 334.303 226.59 333.088 226.59ZM343.077 228.18C344.532 228.18 345.567 227.595 346.317 226.695L345.252 225.75C344.622 226.365 343.992 226.695 343.107 226.695C341.937 226.695 341.022 225.975 340.827 224.685H346.647C346.662 224.505 346.677 224.34 346.677 224.175C346.677 221.895 345.402 219.915 342.882 219.915C340.617 219.915 339.012 221.775 339.012 224.04V224.07C339.012 226.515 340.782 228.18 343.077 228.18ZM340.812 223.485C340.977 222.255 341.757 221.4 342.867 221.4C344.067 221.4 344.757 222.315 344.877 223.485H340.812ZM350.624 228.06H352.259L355.499 220.08H353.594L351.449 225.9L349.319 220.08H347.369L350.624 228.06ZM357.069 218.865H359.019V217.14H357.069V218.865ZM357.129 228H358.959V220.08H357.129V228ZM364.991 228.18C366.536 228.18 367.451 227.565 368.231 226.695L367.136 225.615C366.551 226.2 365.936 226.59 365.081 226.59C363.686 226.59 362.711 225.465 362.711 224.055V224.025C362.711 222.645 363.686 221.505 365.006 221.505C365.906 221.505 366.491 221.925 367.046 222.495L368.186 221.28C367.436 220.47 366.506 219.915 365.021 219.915C362.636 219.915 360.896 221.805 360.896 224.055V224.085C360.896 226.335 362.636 228.18 364.991 228.18ZM373.311 228.18C374.766 228.18 375.801 227.595 376.551 226.695L375.486 225.75C374.856 226.365 374.226 226.695 373.341 226.695C372.171 226.695 371.256 225.975 371.061 224.685H376.881C376.896 224.505 376.911 224.34 376.911 224.175C376.911 221.895 375.636 219.915 373.116 219.915C370.851 219.915 369.246 221.775 369.246 224.04V224.07C369.246 226.515 371.016 228.18 373.311 228.18ZM371.046 223.485C371.211 222.255 371.991 221.4 373.101 221.4C374.301 221.4 374.991 222.315 375.111 223.485H371.046ZM378.152 230.19C379.667 230.055 380.462 229.35 380.462 227.685V225.93H378.467V228H379.247C379.307 228.765 378.872 229.23 377.957 229.41L378.152 230.19ZM45.6499 248H47.4799V243.53C47.4799 242.3 48.2149 241.565 49.2649 241.565C50.3449 241.565 50.9599 242.27 50.9599 243.5V248H52.7749V242.945C52.7749 241.115 51.7399 239.915 49.9549 239.915C48.7249 239.915 47.9899 240.56 47.4799 241.295V240.08H45.6499V248ZM58.7317 248.18C61.1767 248.18 62.9767 246.305 62.9767 244.055V244.025C62.9767 241.76 61.1917 239.915 58.7617 239.915C56.3317 239.915 54.5317 241.79 54.5317 244.055V244.085C54.5317 246.335 56.3167 248.18 58.7317 248.18ZM58.7617 246.59C57.3517 246.59 56.3467 245.435 56.3467 244.055V244.025C56.3467 242.645 57.2767 241.505 58.7317 241.505C60.1567 241.505 61.1617 242.66 61.1617 244.055V244.085C61.1617 245.45 60.2317 246.59 58.7617 246.59ZM66.3492 248.06H67.9692L69.7542 242.645L71.5242 248.06H73.1592L75.7542 240.08H73.9242L72.3042 245.51L70.5492 240.05H68.9892L67.2342 245.51L65.6442 240.08H63.7692L66.3492 248.06ZM81.9512 248H83.7812V237.05H81.9512V248ZM89.7832 248.18C91.2382 248.18 92.2732 247.595 93.0232 246.695L91.9582 245.75C91.3282 246.365 90.6982 246.695 89.8132 246.695C88.6432 246.695 87.7282 245.975 87.5332 244.685H93.3532C93.3682 244.505 93.3832 244.34 93.3832 244.175C93.3832 241.895 92.1082 239.915 89.5882 239.915C87.3232 239.915 85.7182 241.775 85.7182 244.04V244.07C85.7182 246.515 87.4882 248.18 89.7832 248.18ZM87.5182 243.485C87.6832 242.255 88.4632 241.4 89.5732 241.4C90.7732 241.4 91.4632 242.315 91.5832 243.485H87.5182ZM97.8609 248.135C98.5509 248.135 99.0459 247.985 99.4959 247.73V246.245C99.1359 246.425 98.7759 246.515 98.3709 246.515C97.7559 246.515 97.3959 246.23 97.3959 245.525V241.64H99.5259V240.08H97.3959V237.905H95.5809V240.08H94.5759V241.64H95.5809V245.81C95.5809 247.55 96.5259 248.135 97.8609 248.135ZM101.115 241.745C102.63 241.625 103.425 240.92 103.425 239.255V237.5H101.43V239.57H102.21C102.27 240.335 101.835 240.8 100.92 240.965L101.115 241.745ZM107.94 248.15C109.59 248.15 110.88 247.325 110.88 245.66V245.63C110.88 244.205 109.575 243.68 108.42 243.32C107.49 243.02 106.635 242.78 106.635 242.195V242.165C106.635 241.73 107.04 241.385 107.745 241.385C108.405 241.385 109.215 241.67 109.98 242.135L110.7 240.845C109.86 240.29 108.78 239.945 107.79 239.945C106.215 239.945 104.97 240.86 104.97 242.375V242.405C104.97 243.905 106.275 244.385 107.445 244.715C108.375 245 109.215 245.21 109.215 245.825V245.855C109.215 246.38 108.765 246.71 107.985 246.71C107.175 246.71 106.26 246.38 105.39 245.735L104.58 246.965C105.57 247.76 106.815 248.15 107.94 248.15ZM120.762 250.43C122.187 250.43 123.297 250.085 124.017 249.365C124.677 248.705 125.022 247.715 125.022 246.38V240.08H123.207V241.265C122.592 240.53 121.767 239.915 120.432 239.915C118.587 239.915 116.832 241.295 116.832 243.635V243.665C116.832 245.99 118.557 247.37 120.432 247.37C121.737 247.37 122.562 246.77 123.222 245.93V246.53C123.222 248.12 122.337 248.945 120.717 248.945C119.637 248.945 118.752 248.645 117.897 248.12L117.222 249.485C118.242 250.1 119.457 250.43 120.762 250.43ZM120.912 245.825C119.667 245.825 118.662 244.94 118.662 243.65V243.62C118.662 242.315 119.652 241.46 120.912 241.46C122.172 241.46 123.237 242.33 123.237 243.62V243.65C123.237 244.94 122.172 245.825 120.912 245.825ZM131.066 248.18C133.511 248.18 135.311 246.305 135.311 244.055V244.025C135.311 241.76 133.526 239.915 131.096 239.915C128.666 239.915 126.866 241.79 126.866 244.055V244.085C126.866 246.335 128.651 248.18 131.066 248.18ZM131.096 246.59C129.686 246.59 128.681 245.435 128.681 244.055V244.025C128.681 242.645 129.611 241.505 131.066 241.505C132.491 241.505 133.496 242.66 133.496 244.055V244.085C133.496 245.45 132.566 246.59 131.096 246.59ZM143.936 248.165C145.151 248.165 145.976 247.655 146.516 247.01V248H148.286V243.305C148.286 242.27 148.016 241.43 147.431 240.86C146.876 240.29 145.991 239.975 144.806 239.975C143.546 239.975 142.691 240.23 141.806 240.62L142.301 242.045C143.021 241.745 143.681 241.55 144.566 241.55C145.841 241.55 146.531 242.15 146.531 243.275V243.47C145.916 243.275 145.286 243.14 144.401 243.14C142.466 243.14 141.116 243.98 141.116 245.69V245.72C141.116 247.31 142.451 248.165 143.936 248.165ZM144.446 246.845C143.576 246.845 142.901 246.41 142.901 245.645V245.615C142.901 244.79 143.591 244.295 144.761 244.295C145.481 244.295 146.096 244.43 146.561 244.61V245.15C146.561 246.155 145.646 246.845 144.446 246.845ZM150.445 248H152.275V243.53C152.275 242.3 153.01 241.565 154.06 241.565C155.14 241.565 155.755 242.27 155.755 243.5V248H157.57V242.945C157.57 241.115 156.535 239.915 154.75 239.915C153.52 239.915 152.785 240.56 152.275 241.295V237.05H150.445V248ZM163.392 248.18C164.847 248.18 165.882 247.595 166.632 246.695L165.567 245.75C164.937 246.365 164.307 246.695 163.422 246.695C162.252 246.695 161.337 245.975 161.142 244.685H166.962C166.977 244.505 166.992 244.34 166.992 244.175C166.992 241.895 165.717 239.915 163.197 239.915C160.932 239.915 159.327 241.775 159.327 244.04V244.07C159.327 246.515 161.097 248.18 163.392 248.18ZM161.127 243.485C161.292 242.255 162.072 241.4 163.182 241.4C164.382 241.4 165.072 242.315 165.192 243.485H161.127ZM171.094 248.165C172.309 248.165 173.134 247.655 173.674 247.01V248H175.444V243.305C175.444 242.27 175.174 241.43 174.589 240.86C174.034 240.29 173.149 239.975 171.964 239.975C170.704 239.975 169.849 240.23 168.964 240.62L169.459 242.045C170.179 241.745 170.839 241.55 171.724 241.55C172.999 241.55 173.689 242.15 173.689 243.275V243.47C173.074 243.275 172.444 243.14 171.559 243.14C169.624 243.14 168.274 243.98 168.274 245.69V245.72C168.274 247.31 169.609 248.165 171.094 248.165ZM171.604 246.845C170.734 246.845 170.059 246.41 170.059 245.645V245.615C170.059 244.79 170.749 244.295 171.919 244.295C172.639 244.295 173.254 244.43 173.719 244.61V245.15C173.719 246.155 172.804 246.845 171.604 246.845ZM180.888 248.165C182.178 248.165 183.003 247.505 183.588 246.68V248H185.403V237.05H183.588V241.31C183.018 240.56 182.193 239.915 180.888 239.915C178.998 239.915 177.213 241.4 177.213 244.025V244.055C177.213 246.68 179.028 248.165 180.888 248.165ZM181.323 246.59C180.093 246.59 179.043 245.585 179.043 244.055V244.025C179.043 242.465 180.078 241.49 181.323 241.49C182.538 241.49 183.618 242.495 183.618 244.025V244.055C183.618 245.57 182.538 246.59 181.323 246.59ZM194.459 248.165C195.674 248.165 196.499 247.655 197.039 247.01V248H198.809V243.305C198.809 242.27 198.539 241.43 197.954 240.86C197.399 240.29 196.514 239.975 195.329 239.975C194.069 239.975 193.214 240.23 192.329 240.62L192.824 242.045C193.544 241.745 194.204 241.55 195.089 241.55C196.364 241.55 197.054 242.15 197.054 243.275V243.47C196.439 243.275 195.809 243.14 194.924 243.14C192.989 243.14 191.639 243.98 191.639 245.69V245.72C191.639 247.31 192.974 248.165 194.459 248.165ZM194.969 246.845C194.099 246.845 193.424 246.41 193.424 245.645V245.615C193.424 244.79 194.114 244.295 195.284 244.295C196.004 244.295 196.619 244.43 197.084 244.61V245.15C197.084 246.155 196.169 246.845 194.969 246.845ZM200.967 248H202.797V243.53C202.797 242.3 203.532 241.565 204.582 241.565C205.662 241.565 206.277 242.27 206.277 243.5V248H208.092V242.945C208.092 241.115 207.057 239.915 205.272 239.915C204.042 239.915 203.307 240.56 202.797 241.295V240.08H200.967V248ZM213.554 248.165C214.844 248.165 215.669 247.505 216.254 246.68V248H218.069V237.05H216.254V241.31C215.684 240.56 214.859 239.915 213.554 239.915C211.664 239.915 209.879 241.4 209.879 244.025V244.055C209.879 246.68 211.694 248.165 213.554 248.165ZM213.989 246.59C212.759 246.59 211.709 245.585 211.709 244.055V244.025C211.709 242.465 212.744 241.49 213.989 241.49C215.204 241.49 216.284 242.495 216.284 244.025V244.055C216.284 245.57 215.204 246.59 213.989 246.59ZM227.575 248.165C228.805 248.165 229.54 247.52 230.05 246.77V248H231.88V240.08H230.05V244.55C230.05 245.78 229.315 246.5 228.265 246.5C227.185 246.5 226.57 245.81 226.57 244.58V240.08H224.755V245.12C224.755 246.965 225.79 248.165 227.575 248.165ZM234.131 250.4H235.961V246.77C236.516 247.505 237.341 248.165 238.661 248.165C240.536 248.165 242.336 246.68 242.336 244.055V244.025C242.336 241.385 240.521 239.915 238.661 239.915C237.371 239.915 236.546 240.575 235.961 241.4V240.08H234.131V250.4ZM238.226 246.59C236.996 246.59 235.916 245.57 235.916 244.055V244.025C235.916 242.51 236.996 241.49 238.226 241.49C239.441 241.49 240.491 242.495 240.491 244.025V244.055C240.491 245.615 239.471 246.59 238.226 246.59ZM244.3 248H246.13V237.05H244.3V248ZM252.267 248.18C254.712 248.18 256.512 246.305 256.512 244.055V244.025C256.512 241.76 254.727 239.915 252.297 239.915C249.867 239.915 248.067 241.79 248.067 244.055V244.085C248.067 246.335 249.852 248.18 252.267 248.18ZM252.297 246.59C250.887 246.59 249.882 245.435 249.882 244.055V244.025C249.882 242.645 250.812 241.505 252.267 241.505C253.692 241.505 254.697 242.66 254.697 244.055V244.085C254.697 245.45 253.767 246.59 252.297 246.59ZM260.64 248.165C261.855 248.165 262.68 247.655 263.22 247.01V248H264.99V243.305C264.99 242.27 264.72 241.43 264.135 240.86C263.58 240.29 262.695 239.975 261.51 239.975C260.25 239.975 259.395 240.23 258.51 240.62L259.005 242.045C259.725 241.745 260.385 241.55 261.27 241.55C262.545 241.55 263.235 242.15 263.235 243.275V243.47C262.62 243.275 261.99 243.14 261.105 243.14C259.17 243.14 257.82 243.98 257.82 245.69V245.72C257.82 247.31 259.155 248.165 260.64 248.165ZM261.15 246.845C260.28 246.845 259.605 246.41 259.605 245.645V245.615C259.605 244.79 260.295 244.295 261.465 244.295C262.185 244.295 262.8 244.43 263.265 244.61V245.15C263.265 246.155 262.35 246.845 261.15 246.845ZM270.434 248.165C271.724 248.165 272.549 247.505 273.134 246.68V248H274.949V237.05H273.134V241.31C272.564 240.56 271.739 239.915 270.434 239.915C268.544 239.915 266.759 241.4 266.759 244.025V244.055C266.759 246.68 268.574 248.165 270.434 248.165ZM270.869 246.59C269.639 246.59 268.589 245.585 268.589 244.055V244.025C268.589 242.465 269.624 241.49 270.869 241.49C272.084 241.49 273.164 242.495 273.164 244.025V244.055C273.164 245.57 272.084 246.59 270.869 246.59ZM285.144 245.96L282.924 240.08H280.974L284.274 248.015C283.974 248.69 283.659 248.915 283.149 248.915C282.774 248.915 282.414 248.795 282.084 248.615L281.469 249.95C282.024 250.265 282.594 250.445 283.344 250.445C284.619 250.445 285.324 249.845 285.954 248.21L289.104 240.08H287.214L285.144 245.96ZM293.971 248.18C296.416 248.18 298.216 246.305 298.216 244.055V244.025C298.216 241.76 296.431 239.915 294.001 239.915C291.571 239.915 289.771 241.79 289.771 244.055V244.085C289.771 246.335 291.556 248.18 293.971 248.18ZM294.001 246.59C292.591 246.59 291.586 245.435 291.586 244.055V244.025C291.586 242.645 292.516 241.505 293.971 241.505C295.396 241.505 296.401 242.66 296.401 244.055V244.085C296.401 245.45 295.471 246.59 294.001 246.59ZM302.794 248.165C304.024 248.165 304.759 247.52 305.269 246.77V248H307.099V240.08H305.269V244.55C305.269 245.78 304.534 246.5 303.484 246.5C302.404 246.5 301.789 245.81 301.789 244.58V240.08H299.974V245.12C299.974 246.965 301.009 248.165 302.794 248.165ZM309.351 248H311.181V244.985C311.181 242.885 312.291 241.85 313.881 241.85H313.986V239.93C312.591 239.87 311.676 240.68 311.181 241.865V240.08H309.351V248ZM320.044 250.4H321.874V246.77C322.429 247.505 323.254 248.165 324.574 248.165C326.449 248.165 328.249 246.68 328.249 244.055V244.025C328.249 241.385 326.434 239.915 324.574 239.915C323.284 239.915 322.459 240.575 321.874 241.4V240.08H320.044V250.4ZM324.139 246.59C322.909 246.59 321.829 245.57 321.829 244.055V244.025C321.829 242.51 322.909 241.49 324.139 241.49C325.354 241.49 326.404 242.495 326.404 244.025V244.055C326.404 245.615 325.384 246.59 324.139 246.59ZM330.108 248H331.938V243.53C331.938 242.3 332.673 241.565 333.723 241.565C334.803 241.565 335.418 242.27 335.418 243.5V248H337.233V242.945C337.233 241.115 336.198 239.915 334.413 239.915C333.183 239.915 332.448 240.56 331.938 241.295V237.05H330.108V248ZM343.19 248.18C345.635 248.18 347.435 246.305 347.435 244.055V244.025C347.435 241.76 345.65 239.915 343.22 239.915C340.79 239.915 338.99 241.79 338.99 244.055V244.085C338.99 246.335 340.775 248.18 343.19 248.18ZM343.22 246.59C341.81 246.59 340.805 245.435 340.805 244.055V244.025C340.805 242.645 341.735 241.505 343.19 241.505C344.615 241.505 345.62 242.66 345.62 244.055V244.085C345.62 245.45 344.69 246.59 343.22 246.59ZM351.938 248.135C352.628 248.135 353.123 247.985 353.573 247.73V246.245C353.213 246.425 352.853 246.515 352.448 246.515C351.833 246.515 351.473 246.23 351.473 245.525V241.64H353.603V240.08H351.473V237.905H349.658V240.08H348.653V241.64H349.658V245.81C349.658 247.55 350.603 248.135 351.938 248.135ZM358.995 248.18C361.44 248.18 363.24 246.305 363.24 244.055V244.025C363.24 241.76 361.455 239.915 359.025 239.915C356.595 239.915 354.795 241.79 354.795 244.055V244.085C354.795 246.335 356.58 248.18 358.995 248.18ZM359.025 246.59C357.615 246.59 356.61 245.435 356.61 244.055V244.025C356.61 242.645 357.54 241.505 358.995 241.505C360.42 241.505 361.425 242.66 361.425 244.055V244.085C361.425 245.45 360.495 246.59 359.025 246.59ZM365.719 244.67H366.724L367.279 238.025V237.5H365.149V238.025L365.719 244.67ZM365.224 248H367.219V245.93H365.224V248Z" fill="white"/>
<path d="M16.8 289H19.26V284.5H22.04C25.12 284.5 27.64 282.86 27.64 279.72V279.68C27.64 276.86 25.6 275 22.32 275H16.8V289ZM19.26 282.28V277.24H22.12C23.96 277.24 25.14 278.1 25.14 279.74V279.78C25.14 281.24 23.98 282.28 22.12 282.28H19.26ZM29.8594 289H32.2994V283.04C32.2994 281.4 33.2794 280.42 34.6794 280.42C36.1194 280.42 36.9394 281.36 36.9394 283V289H39.3594V282.26C39.3594 279.82 37.9794 278.22 35.5994 278.22C33.9594 278.22 32.9794 279.08 32.2994 280.06V274.4H29.8594V289ZM47.3017 289.24C50.5617 289.24 52.9617 286.74 52.9617 283.74V283.7C52.9617 280.68 50.5817 278.22 47.3417 278.22C44.1017 278.22 41.7017 280.72 41.7017 283.74V283.78C41.7017 286.78 44.0817 289.24 47.3017 289.24ZM47.3417 287.12C45.4617 287.12 44.1217 285.58 44.1217 283.74V283.7C44.1217 281.86 45.3617 280.34 47.3017 280.34C49.2017 280.34 50.5417 281.88 50.5417 283.74V283.78C50.5417 285.6 49.3017 287.12 47.3417 287.12ZM58.9663 289.18C59.8863 289.18 60.5463 288.98 61.1463 288.64V286.66C60.6663 286.9 60.1863 287.02 59.6463 287.02C58.8263 287.02 58.3463 286.64 58.3463 285.7V280.52H61.1863V278.44H58.3463V275.54H55.9263V278.44H54.5863V280.52H55.9263V286.08C55.9263 288.4 57.1863 289.18 58.9663 289.18ZM68.3759 289.24C71.6359 289.24 74.0359 286.74 74.0359 283.74V283.7C74.0359 280.68 71.6559 278.22 68.4159 278.22C65.1759 278.22 62.7759 280.72 62.7759 283.74V283.78C62.7759 286.78 65.1559 289.24 68.3759 289.24ZM68.4159 287.12C66.5359 287.12 65.1959 285.58 65.1959 283.74V283.7C65.1959 281.86 66.4359 280.34 68.3759 280.34C70.2759 280.34 71.6159 281.88 71.6159 283.74V283.78C71.6159 285.6 70.3759 287.12 68.4159 287.12ZM80.1205 289.2C82.3205 289.2 84.0405 288.1 84.0405 285.88V285.84C84.0405 283.94 82.3005 283.24 80.7605 282.76C79.5205 282.36 78.3805 282.04 78.3805 281.26V281.22C78.3805 280.64 78.9205 280.18 79.8605 280.18C80.7405 280.18 81.8205 280.56 82.8405 281.18L83.8005 279.46C82.6805 278.72 81.2405 278.26 79.9205 278.26C77.8205 278.26 76.1605 279.48 76.1605 281.5V281.54C76.1605 283.54 77.9005 284.18 79.4605 284.62C80.7005 285 81.8205 285.28 81.8205 286.1V286.14C81.8205 286.84 81.2205 287.28 80.1805 287.28C79.1005 287.28 77.8805 286.84 76.7205 285.98L75.6405 287.62C76.9605 288.68 78.6205 289.2 80.1205 289.2Z" fill="black"/>
<path d="M364.813 293.18C367.459 293.18 369.313 291.776 369.313 289.418V289.382C369.313 287.294 367.945 286.34 365.281 285.692C362.851 285.116 362.275 284.684 362.275 283.712V283.676C362.275 282.848 363.031 282.182 364.327 282.182C365.479 282.182 366.613 282.632 367.747 283.478L368.935 281.804C367.657 280.778 366.199 280.22 364.363 280.22C361.861 280.22 360.061 281.714 360.061 283.874V283.91C360.061 286.232 361.573 287.024 364.255 287.672C366.595 288.212 367.099 288.698 367.099 289.598V289.634C367.099 290.57 366.235 291.218 364.867 291.218C363.319 291.218 362.095 290.624 360.889 289.58L359.557 291.164C361.069 292.514 362.887 293.18 364.813 293.18ZM371.647 293H373.843V290.282L375.193 288.878L378.001 293H380.557L376.651 287.366L380.431 283.496H377.785L373.843 287.708V279.86H371.647V293ZM382.177 282.038H384.517V279.968H382.177V282.038ZM382.249 293H384.445V283.496H382.249V293ZM387.274 295.88H389.47V291.524C390.136 292.406 391.126 293.198 392.71 293.198C394.96 293.198 397.12 291.416 397.12 288.266V288.23C397.12 285.062 394.942 283.298 392.71 283.298C391.162 283.298 390.172 284.09 389.47 285.08V283.496H387.274V295.88ZM392.188 291.308C390.712 291.308 389.416 290.084 389.416 288.266V288.23C389.416 286.412 390.712 285.188 392.188 285.188C393.646 285.188 394.906 286.394 394.906 288.23V288.266C394.906 290.138 393.682 291.308 392.188 291.308Z" fill="#DE1639"/>
<path d="M174 166C37 149 -4.66667 163.167 -19.5 192.5L-31 -28.5L455 -56L461 134C451.5 136.167 418.5 152.5 363.5 161.5C320.822 168.484 286.623 179.975 174 166Z" fill="#FFCB35"/>
<path d="M41 74H19" stroke="black" stroke-width="2.5" stroke-linecap="round" stroke-linejoin="bevel"/>
<path d="M25.3347 66L18.4847 72.85C18.1742 73.1623 18 73.5847 18 74.025C18 74.4653 18.1742 74.8877 18.4847 75.2L25.1513 81.8667" stroke="black" stroke-width="2.5" stroke-linecap="round" stroke-linejoin="bevel"/>
<path opacity="0.35" fill-rule="evenodd" clip-rule="evenodd" d="M393.333 19.332H376.667C375.746 19.332 375 20.0782 375 20.9987V26.9987C375 27.9192 375.746 28.6654 376.667 28.6654H393.333C394.254 28.6654 395 27.9192 395 26.9987V20.9987C395 20.0782 394.254 19.332 393.333 19.332ZM376.667 18.332C375.194 18.332 374 19.5259 374 20.9987V26.9987C374 28.4715 375.194 29.6654 376.667 29.6654H393.333C394.806 29.6654 396 28.4715 396 26.9987V20.9987C396 19.5259 394.806 18.332 393.333 18.332H376.667Z" fill="black"/>
<path opacity="0.4" d="M397 21.998V25.998C397.805 25.6593 398.328 24.8712 398.328 23.998C398.328 23.1249 397.805 22.3368 397 21.998" fill="black"/>
<path d="M376 21.6654C376 20.929 376.597 20.332 377.333 20.332H392.667C393.403 20.332 394 20.929 394 21.6654V26.332C394 27.0684 393.403 27.6654 392.667 27.6654H377.333C376.597 27.6654 376 27.0684 376 26.332V21.6654Z" fill="black"/>
<path fill-rule="evenodd" clip-rule="evenodd" d="M359.33 20.713C361.546 20.7131 363.677 21.8297 365.283 23.8319C365.404 23.9865 365.597 23.9845 365.716 23.8275L366.872 22.2976C366.933 22.218 366.966 22.1101 366.966 21.9979C366.965 21.8857 366.931 21.7783 366.87 21.6996C362.655 16.4022 356.005 16.4022 351.79 21.6996C351.729 21.7783 351.694 21.8856 351.693 21.9978C351.693 22.11 351.726 22.2179 351.787 22.2976L352.943 23.8275C353.062 23.9848 353.255 23.9867 353.376 23.8319C354.982 21.8296 357.114 20.713 359.33 20.713ZM359.33 25.6906C360.547 25.6905 361.721 26.2839 362.624 27.3556C362.746 27.5077 362.938 27.5044 363.057 27.3482L364.212 25.8182C364.273 25.738 364.306 25.6291 364.306 25.516C364.305 25.4029 364.269 25.2949 364.207 25.2163C361.459 21.8639 357.203 21.8639 354.455 25.2163C354.393 25.2949 354.357 25.4029 354.357 25.5161C354.356 25.6292 354.39 25.7381 354.451 25.8182L355.605 27.3482C355.724 27.5044 355.916 27.5077 356.038 27.3556C356.94 26.2846 358.113 25.6913 359.33 25.6906ZM361.643 29.0396C361.645 29.1531 361.611 29.2624 361.549 29.3419L359.552 31.9852C359.493 32.0629 359.413 32.1066 359.33 32.1066C359.247 32.1066 359.167 32.0629 359.108 31.9852L357.111 29.3419C357.049 29.2624 357.015 29.153 357.017 29.0395C357.019 28.9261 357.056 28.8187 357.12 28.7426C358.396 27.3278 360.264 27.3278 361.54 28.7426C361.604 28.8187 361.641 28.9262 361.643 29.0396Z" fill="black"/>
<path fill-rule="evenodd" clip-rule="evenodd" d="M345.666 18.168H344.666C344.114 18.168 343.666 18.7551 343.666 19.4794V30.8447C343.666 31.5689 344.114 32.1561 344.666 32.1561H345.666C346.218 32.1561 346.666 31.5689 346.666 30.8447V19.4794C346.666 18.7551 346.218 18.168 345.666 18.168ZM339.999 21.2279H340.999C341.552 21.2279 341.999 21.815 341.999 22.5392V30.8447C341.999 31.5689 341.552 32.1561 340.999 32.1561H339.999C339.447 32.1561 338.999 31.5689 338.999 30.8447V22.5392C338.999 21.815 339.447 21.2279 339.999 21.2279ZM336.333 24.2878H335.333C334.78 24.2878 334.333 24.8749 334.333 25.5991V30.8447C334.333 31.5689 334.78 32.1561 335.333 32.1561H336.333C336.885 32.1561 337.333 31.5689 337.333 30.8447V25.5991C337.333 24.8749 336.885 24.2878 336.333 24.2878ZM331.666 26.9105H330.666C330.114 26.9105 329.666 27.4977 329.666 28.2219V30.8447C329.666 31.5689 330.114 32.1561 330.666 32.1561H331.666C332.218 32.1561 332.666 31.5689 332.666 30.8447V28.2219C332.666 27.4977 332.218 26.9105 331.666 26.9105Z" fill="black"/>
<path d="M37.3203 29.2568C40.0083 29.2568 41.605 27.1548 41.605 23.5952C41.605 22.2549 41.3486 21.127 40.8579 20.2554C40.1475 18.9004 38.9243 18.168 37.3789 18.168C35.0791 18.168 33.4531 19.7134 33.4531 21.8813C33.4531 23.9175 34.918 25.397 36.9321 25.397C38.1699 25.397 39.1733 24.8184 39.6714 23.8149H39.6934C39.6934 23.8149 39.7227 23.8149 39.73 23.8149C39.7446 23.8149 39.7959 23.8149 39.7959 23.8149C39.7959 26.2319 38.8804 27.6748 37.335 27.6748C36.4268 27.6748 35.7236 27.1768 35.4819 26.3784H33.5996C33.9146 28.1143 35.3867 29.2568 37.3203 29.2568ZM37.3862 23.8955C36.1704 23.8955 35.3062 23.0312 35.3062 21.8228C35.3062 20.6436 36.2144 19.7427 37.3936 19.7427C38.5728 19.7427 39.481 20.6582 39.481 21.8521C39.481 23.0312 38.5947 23.8955 37.3862 23.8955Z" fill="black"/>
<path d="M44.6961 29.1543C45.3919 29.1543 45.868 28.6562 45.868 27.9971C45.868 27.3306 45.3919 26.8398 44.6961 26.8398C44.0076 26.8398 43.5242 27.3306 43.5242 27.9971C43.5242 28.6562 44.0076 29.1543 44.6961 29.1543ZM44.6961 23.6611C45.3919 23.6611 45.868 23.1704 45.868 22.5112C45.868 21.8447 45.3919 21.354 44.6961 21.354C44.0076 21.354 43.5242 21.8447 43.5242 22.5112C43.5242 23.1704 44.0076 23.6611 44.6961 23.6611Z" fill="black"/>
<path d="M52.7237 29.0005H54.5328V27.0303H55.961V25.4336H54.5328V18.4316H51.8668C49.9991 21.2441 48.5123 23.5952 47.5602 25.3457V27.0303H52.7237V29.0005ZM49.3106 25.3677C50.5411 23.1997 51.6397 21.4639 52.6505 19.9697H52.753V25.4775H49.3106V25.3677Z" fill="black"/>
<path d="M59.9896 29.0005H61.8793V18.4316H59.997L57.2357 20.3652V22.1816L59.8651 20.3359H59.9896V29.0005Z" fill="black"/>
<line x1="293" y1="123" x2="372" y2="123" stroke="#666666" stroke-width="2"/>
<line x1="51" y1="123" x2="293" y2="123" stroke="#DE1639" stroke-width="2"/>
<circle cx="46.5" cy="122" r="15" fill="#DE1639"/>
<path d="M45.704 129H47.9V116.31H46.37L42.968 117.39L43.436 119.19L45.704 118.56V129Z" fill="white"/>
<path d="M24.037 151H25.513V148.3H27.181C29.029 148.3 30.541 147.316 30.541 145.432V145.408C30.541 143.716 29.317 142.6 27.349 142.6H24.037V151ZM25.513 146.968V143.944H27.229C28.333 143.944 29.041 144.46 29.041 145.444V145.468C29.041 146.344 28.345 146.968 27.229 146.968H25.513ZM31.8727 151H33.3367V148.588C33.3367 146.908 34.2247 146.08 35.4967 146.08H35.5807V144.544C34.4647 144.496 33.7327 145.144 33.3367 146.092V144.664H31.8727V151ZM39.5348 151.144C40.6988 151.144 41.5268 150.676 42.1268 149.956L41.2748 149.2C40.7708 149.692 40.2668 149.956 39.5588 149.956C38.6228 149.956 37.8908 149.38 37.7348 148.348H42.3908C42.4028 148.204 42.4148 148.072 42.4148 147.94C42.4148 146.116 41.3948 144.532 39.3788 144.532C37.5668 144.532 36.2828 146.02 36.2828 147.832V147.856C36.2828 149.812 37.6988 151.144 39.5348 151.144ZM37.7228 147.388C37.8548 146.404 38.4788 145.72 39.3668 145.72C40.3268 145.72 40.8788 146.452 40.9748 147.388H37.7228ZM43.8609 152.92H45.3249V150.016C45.7689 150.604 46.4289 151.132 47.4849 151.132C48.9849 151.132 50.4249 149.944 50.4249 147.844V147.82C50.4249 145.708 48.9729 144.532 47.4849 144.532C46.4529 144.532 45.7929 145.06 45.3249 145.72V144.664H43.8609V152.92ZM47.1369 149.872C46.1529 149.872 45.2889 149.056 45.2889 147.844V147.82C45.2889 146.608 46.1529 145.792 47.1369 145.792C48.1089 145.792 48.9489 146.596 48.9489 147.82V147.844C48.9489 149.092 48.1329 149.872 47.1369 149.872ZM53.7477 151.132C54.7197 151.132 55.3797 150.724 55.8117 150.208V151H57.2277V147.244C57.2277 146.416 57.0117 145.744 56.5437 145.288C56.0997 144.832 55.3917 144.58 54.4437 144.58C53.4357 144.58 52.7517 144.784 52.0437 145.096L52.4397 146.236C53.0157 145.996 53.5437 145.84 54.2517 145.84C55.2717 145.84 55.8237 146.32 55.8237 147.22V147.376C55.3317 147.22 54.8277 147.112 54.1197 147.112C52.5717 147.112 51.4917 147.784 51.4917 149.152V149.176C51.4917 150.448 52.5597 151.132 53.7477 151.132ZM54.1557 150.076C53.4597 150.076 52.9197 149.728 52.9197 149.116V149.092C52.9197 148.432 53.4717 148.036 54.4077 148.036C54.9837 148.036 55.4757 148.144 55.8477 148.288V148.72C55.8477 149.524 55.1157 150.076 54.1557 150.076ZM58.9547 151H60.4187V148.588C60.4187 146.908 61.3067 146.08 62.5787 146.08H62.6627V144.544C61.5467 144.496 60.8147 145.144 60.4187 146.092V144.664H58.9547V151ZM66.6168 151.144C67.7808 151.144 68.6088 150.676 69.2088 149.956L68.3568 149.2C67.8528 149.692 67.3488 149.956 66.6408 149.956C65.7048 149.956 64.9728 149.38 64.8168 148.348H69.4728C69.4848 148.204 69.4968 148.072 69.4968 147.94C69.4968 146.116 68.4768 144.532 66.4608 144.532C64.6488 144.532 63.3648 146.02 63.3648 147.832V147.856C63.3648 149.812 64.7808 151.144 66.6168 151.144ZM64.8048 147.388C64.9368 146.404 65.5608 145.72 66.4488 145.72C67.4088 145.72 67.9608 146.452 68.0568 147.388H64.8048Z" fill="black"/>
<ellipse cx="127.5" cy="122" rx="15.5" ry="15" fill="#DE1639"/>
<path d="M122.882 129H131.99V127.056H125.996L128.588 124.896C130.82 123.078 131.864 122.016 131.864 120.018V119.982C131.864 117.732 130.172 116.22 127.706 116.22C125.456 116.22 124.268 117.174 123.062 118.848L124.646 120.09C125.6 118.83 126.392 118.2 127.544 118.2C128.696 118.2 129.578 118.938 129.578 120.162C129.578 121.296 128.93 122.088 127.22 123.564L122.882 127.254V129Z" fill="white"/>
<path d="M106.86 150.196L105.9 149.38C106.44 148.648 106.752 147.76 106.752 146.8V146.776C106.752 144.412 104.952 142.456 102.372 142.456C99.7918 142.456 97.9678 144.436 97.9678 146.8V146.824C97.9678 149.188 99.7678 151.144 102.348 151.144C103.32 151.144 104.196 150.856 104.904 150.352L105.912 151.252L106.86 150.196ZM102.372 149.776C100.704 149.776 99.5158 148.432 99.5158 146.8V146.776C99.5158 145.144 100.68 143.824 102.348 143.824C104.016 143.824 105.204 145.168 105.204 146.8V146.824C105.204 147.424 105.06 147.964 104.796 148.42L103.32 147.076L102.372 148.156L103.824 149.404C103.404 149.644 102.924 149.776 102.372 149.776ZM110.551 151.132C111.535 151.132 112.123 150.616 112.531 150.016V151H113.995V144.664H112.531V148.24C112.531 149.224 111.943 149.8 111.103 149.8C110.239 149.8 109.747 149.248 109.747 148.264V144.664H108.295V148.696C108.295 150.172 109.123 151.132 110.551 151.132ZM118.712 151.144C119.876 151.144 120.704 150.676 121.304 149.956L120.452 149.2C119.948 149.692 119.444 149.956 118.736 149.956C117.8 149.956 117.068 149.38 116.912 148.348H121.568C121.58 148.204 121.592 148.072 121.592 147.94C121.592 146.116 120.572 144.532 118.556 144.532C116.744 144.532 115.46 146.02 115.46 147.832V147.856C115.46 149.812 116.876 151.144 118.712 151.144ZM116.9 147.388C117.032 146.404 117.656 145.72 118.544 145.72C119.504 145.72 120.056 146.452 120.152 147.388H116.9ZM125.223 151.12C126.543 151.12 127.575 150.46 127.575 149.128V149.104C127.575 147.964 126.531 147.544 125.607 147.256C124.863 147.016 124.179 146.824 124.179 146.356V146.332C124.179 145.984 124.503 145.708 125.067 145.708C125.595 145.708 126.243 145.936 126.855 146.308L127.431 145.276C126.759 144.832 125.895 144.556 125.103 144.556C123.843 144.556 122.847 145.288 122.847 146.5V146.524C122.847 147.724 123.891 148.108 124.827 148.372C125.571 148.6 126.243 148.768 126.243 149.26V149.284C126.243 149.704 125.883 149.968 125.259 149.968C124.611 149.968 123.879 149.704 123.183 149.188L122.535 150.172C123.327 150.808 124.323 151.12 125.223 151.12ZM131.069 151.108C131.621 151.108 132.017 150.988 132.377 150.784V149.596C132.089 149.74 131.801 149.812 131.477 149.812C130.985 149.812 130.697 149.584 130.697 149.02V145.912H132.401V144.664H130.697V142.924H129.245V144.664H128.441V145.912H129.245V149.248C129.245 150.64 130.001 151.108 131.069 151.108ZM133.903 143.692H135.463V142.312H133.903V143.692ZM133.951 151H135.415V144.664H133.951V151ZM140.324 151.144C142.28 151.144 143.72 149.644 143.72 147.844V147.82C143.72 146.008 142.292 144.532 140.348 144.532C138.404 144.532 136.964 146.032 136.964 147.844V147.868C136.964 149.668 138.392 151.144 140.324 151.144ZM140.348 149.872C139.22 149.872 138.416 148.948 138.416 147.844V147.82C138.416 146.716 139.16 145.804 140.324 145.804C141.464 145.804 142.268 146.728 142.268 147.844V147.868C142.268 148.96 141.524 149.872 140.348 149.872ZM145.187 151H146.651V147.424C146.651 146.44 147.239 145.852 148.079 145.852C148.943 145.852 149.435 146.416 149.435 147.4V151H150.887V146.956C150.887 145.492 150.059 144.532 148.631 144.532C147.647 144.532 147.059 145.048 146.651 145.636V144.664H145.187V151ZM154.813 151.12C156.133 151.12 157.165 150.46 157.165 149.128V149.104C157.165 147.964 156.121 147.544 155.197 147.256C154.453 147.016 153.769 146.824 153.769 146.356V146.332C153.769 145.984 154.093 145.708 154.657 145.708C155.185 145.708 155.833 145.936 156.445 146.308L157.021 145.276C156.349 144.832 155.485 144.556 154.693 144.556C153.433 144.556 152.437 145.288 152.437 146.5V146.524C152.437 147.724 153.481 148.108 154.417 148.372C155.161 148.6 155.833 148.768 155.833 149.26V149.284C155.833 149.704 155.473 149.968 154.849 149.968C154.201 149.968 153.469 149.704 152.773 149.188L152.125 150.172C152.917 150.808 153.913 151.12 154.813 151.12Z" fill="black"/>
<ellipse cx="371" cy="122" rx="15.5" ry="15" fill="#EFEFEF" stroke="#666666" stroke-width="2"/>
<path d="M370.972 129.216C373.762 129.216 375.652 127.524 375.652 124.95V124.914C375.652 122.25 373.708 120.954 371.26 120.954C370.414 120.954 369.856 121.098 369.262 121.314L369.46 118.38H375.094V116.4H367.552L367.192 122.574L368.524 123.456C369.172 123.15 369.946 122.898 370.846 122.898C372.376 122.898 373.456 123.708 373.456 124.986V125.022C373.456 126.336 372.466 127.2 370.954 127.2C369.784 127.2 368.722 126.624 367.714 125.688L366.346 127.29C367.534 128.442 369.046 129.216 370.972 129.216Z" fill="#666666"/>
<path d="M350.16 151H351.636V148.3H353.304C355.152 148.3 356.664 147.316 356.664 145.432V145.408C356.664 143.716 355.44 142.6 353.472 142.6H350.16V151ZM351.636 146.968V143.944H353.352C354.456 143.944 355.164 144.46 355.164 145.444V145.468C355.164 146.344 354.468 146.968 353.352 146.968H351.636ZM360.203 151.132C361.187 151.132 361.775 150.616 362.183 150.016V151H363.647V144.664H362.183V148.24C362.183 149.224 361.595 149.8 360.755 149.8C359.891 149.8 359.399 149.248 359.399 148.264V144.664H357.947V148.696C357.947 150.172 358.775 151.132 360.203 151.132ZM369.073 151.132C370.573 151.132 372.013 149.944 372.013 147.844V147.82C372.013 145.708 370.561 144.532 369.073 144.532C368.041 144.532 367.381 145.06 366.913 145.72V142.24H365.449V151H366.913V150.016C367.357 150.604 368.017 151.132 369.073 151.132ZM368.725 149.872C367.741 149.872 366.877 149.056 366.877 147.844V147.82C366.877 146.608 367.741 145.792 368.725 145.792C369.697 145.792 370.537 146.596 370.537 147.82V147.844C370.537 149.092 369.721 149.872 368.725 149.872ZM373.584 151H375.048V142.24H373.584V151ZM376.969 143.692H378.529V142.312H376.969V143.692ZM377.017 151H378.481V144.664H377.017V151ZM382.551 151.12C383.871 151.12 384.903 150.46 384.903 149.128V149.104C384.903 147.964 383.859 147.544 382.935 147.256C382.191 147.016 381.507 146.824 381.507 146.356V146.332C381.507 145.984 381.831 145.708 382.395 145.708C382.923 145.708 383.571 145.936 384.183 146.308L384.759 145.276C384.087 144.832 383.223 144.556 382.431 144.556C381.171 144.556 380.175 145.288 380.175 146.5V146.524C380.175 147.724 381.219 148.108 382.155 148.372C382.899 148.6 383.571 148.768 383.571 149.26V149.284C383.571 149.704 383.211 149.968 382.587 149.968C381.939 149.968 381.207 149.704 380.511 149.188L379.863 150.172C380.655 150.808 381.651 151.12 382.551 151.12ZM386.379 151H387.843V147.424C387.843 146.44 388.431 145.852 389.271 145.852C390.135 145.852 390.627 146.416 390.627 147.4V151H392.079V146.956C392.079 145.492 391.251 144.532 389.823 144.532C388.839 144.532 388.251 145.048 387.843 145.636V142.24H386.379V151Z" fill="#666666"/>
<ellipse cx="294.5" cy="122" rx="15.5" ry="15" fill="white" stroke="#DE1639" stroke-width="2"/>
<path d="M295.416 128H297.54V125.174H299.34V123.356H297.54V115.31H295.65L288.648 123.59L289.062 125.174H295.416V128ZM291.276 123.356L295.416 118.37V123.356H291.276Z" fill="#DE1639"/>
<path d="M273.912 151H275.388V148.072H277.236L279.3 151H281.052L278.784 147.82C279.948 147.484 280.776 146.656 280.776 145.276V145.252C280.776 144.52 280.524 143.896 280.08 143.44C279.54 142.912 278.712 142.6 277.656 142.6H273.912V151ZM275.388 146.764V143.944H277.536C278.628 143.944 279.276 144.436 279.276 145.336V145.36C279.276 146.212 278.604 146.764 277.548 146.764H275.388ZM285.203 151.144C286.367 151.144 287.195 150.676 287.795 149.956L286.943 149.2C286.439 149.692 285.935 149.956 285.227 149.956C284.291 149.956 283.559 149.38 283.403 148.348H288.059C288.071 148.204 288.083 148.072 288.083 147.94C288.083 146.116 287.063 144.532 285.047 144.532C283.235 144.532 281.951 146.02 281.951 147.832V147.856C281.951 149.812 283.367 151.144 285.203 151.144ZM283.391 147.388C283.523 146.404 284.147 145.72 285.035 145.72C285.995 145.72 286.547 146.452 286.643 147.388H283.391ZM291.24 151.048H292.548L295.14 144.664H293.616L291.9 149.32L290.196 144.664H288.636L291.24 151.048ZM296.397 143.692H297.957V142.312H296.397V143.692ZM296.445 151H297.909V144.664H296.445V151ZM302.711 151.144C303.875 151.144 304.703 150.676 305.303 149.956L304.451 149.2C303.947 149.692 303.443 149.956 302.735 149.956C301.799 149.956 301.067 149.38 300.911 148.348H305.567C305.579 148.204 305.591 148.072 305.591 147.94C305.591 146.116 304.571 144.532 302.555 144.532C300.743 144.532 299.459 146.02 299.459 147.832V147.856C299.459 149.812 300.875 151.144 302.711 151.144ZM300.899 147.388C301.031 146.404 301.655 145.72 302.543 145.72C303.503 145.72 304.055 146.452 304.151 147.388H300.899ZM308.268 151.048H309.564L310.992 146.716L312.408 151.048H313.716L315.792 144.664H314.328L313.032 149.008L311.628 144.64H310.38L308.976 149.008L307.704 144.664H306.204L308.268 151.048Z" fill="#DE1639"/>
<ellipse cx="216.5" cy="122" rx="15.5" ry="15" fill="#DE1639"/>
<path d="M216.598 129.216C219.226 129.216 221.008 127.542 221.008 125.22V125.184C221.008 122.862 219.208 121.89 217.3 121.656L220.81 118.056V116.4H212.476V118.326H217.93L214.528 121.944L214.888 123.33H215.914C217.678 123.33 218.812 124.032 218.812 125.274V125.31C218.812 126.462 217.858 127.218 216.634 127.218C215.23 127.218 214.222 126.624 213.322 125.562L211.774 127.02C212.836 128.298 214.402 129.216 216.598 129.216Z" fill="white"/>
<path d="M195.976 151H197.452V148.072H199.3L201.364 151H203.116L200.848 147.82C202.012 147.484 202.84 146.656 202.84 145.276V145.252C202.84 144.52 202.588 143.896 202.144 143.44C201.604 142.912 200.776 142.6 199.72 142.6H195.976V151ZM197.452 146.764V143.944H199.6C200.692 143.944 201.34 144.436 201.34 145.336V145.36C201.34 146.212 200.668 146.764 199.612 146.764H197.452ZM207.267 151.144C208.431 151.144 209.259 150.676 209.859 149.956L209.007 149.2C208.503 149.692 207.999 149.956 207.291 149.956C206.355 149.956 205.623 149.38 205.467 148.348H210.123C210.135 148.204 210.147 148.072 210.147 147.94C210.147 146.116 209.127 144.532 207.111 144.532C205.299 144.532 204.015 146.02 204.015 147.832V147.856C204.015 149.812 205.431 151.144 207.267 151.144ZM205.455 147.388C205.587 146.404 206.211 145.72 207.099 145.72C208.059 145.72 208.611 146.452 208.707 147.388H205.455ZM214.533 151.144C215.769 151.144 216.501 150.652 217.125 149.956L216.249 149.092C215.781 149.56 215.289 149.872 214.605 149.872C213.489 149.872 212.709 148.972 212.709 147.844V147.82C212.709 146.716 213.489 145.804 214.545 145.804C215.265 145.804 215.733 146.14 216.177 146.596L217.089 145.624C216.489 144.976 215.745 144.532 214.557 144.532C212.649 144.532 211.257 146.044 211.257 147.844V147.868C211.257 149.668 212.649 151.144 214.533 151.144ZM221.297 151.144C223.253 151.144 224.693 149.644 224.693 147.844V147.82C224.693 146.008 223.265 144.532 221.321 144.532C219.377 144.532 217.937 146.032 217.937 147.844V147.868C217.937 149.668 219.365 151.144 221.297 151.144ZM221.321 149.872C220.193 149.872 219.389 148.948 219.389 147.844V147.82C219.389 146.716 220.133 145.804 221.297 145.804C222.437 145.804 223.241 146.728 223.241 147.844V147.868C223.241 148.96 222.497 149.872 221.321 149.872ZM226.16 151H227.624V148.588C227.624 146.908 228.512 146.08 229.784 146.08H229.868V144.544C228.752 144.496 228.02 145.144 227.624 146.092V144.664H226.16V151ZM233.581 151.132C234.613 151.132 235.273 150.604 235.741 149.944V151H237.193V142.24H235.741V145.648C235.285 145.048 234.625 144.532 233.581 144.532C232.069 144.532 230.641 145.72 230.641 147.82V147.844C230.641 149.944 232.093 151.132 233.581 151.132ZM233.929 149.872C232.945 149.872 232.105 149.068 232.105 147.844V147.82C232.105 146.572 232.933 145.792 233.929 145.792C234.901 145.792 235.765 146.596 235.765 147.82V147.844C235.765 149.056 234.901 149.872 233.929 149.872Z" fill="black"/>
</g>
<defs>
<clipPath id="clip0_1910_8789">
<rect width="414" height="896" fill="white"/>
</clipPath>
</defs>
</svg>
