<svg xmlns="http://www.w3.org/2000/svg" width="414" height="896" fill="none" viewBox="0 0 414 896"><g clip-path="url(#a)"><path fill="#fff" d="M0 0h414v896H0z"/><path fill="#000" d="M36.3 283.24c2.62 0 4.22-.96 5.68-2.48l-1.58-1.6c-1.2 1.12-2.3 1.8-4.02 1.8-2.68 0-4.62-2.22-4.62-4.96v-.04c0-2.74 1.96-4.92 4.6-4.92 1.62 0 2.8.68 3.94 1.72l1.58-1.82c-1.34-1.28-2.9-2.18-5.5-2.18-4.22 0-7.2 3.26-7.2 7.24v.04c0 4.02 3.02 7.2 7.12 7.2m7.985-.24h2.44v-5.96c0-1.64.98-2.62 2.38-2.62 1.44 0 2.26.94 2.26 2.58v6h2.42v-6.74c0-2.44-1.38-4.04-3.76-4.04-1.64 0-2.62.86-3.3 1.84v-5.66h-2.44zm17.263.24c1.94 0 3.32-.78 4.32-1.98l-1.42-1.26c-.84.82-1.68 1.26-2.86 1.26-1.56 0-2.78-.96-3.04-2.68h7.76c.02-.24.04-.46.04-.68 0-3.04-1.7-5.68-5.06-5.68-3.02 0-5.16 2.48-5.16 5.5v.04c0 3.26 2.36 5.48 5.42 5.48m-3.02-6.26c.22-1.64 1.26-2.78 2.74-2.78 1.6 0 2.52 1.22 2.68 2.78zm15.13 6.26c2.06 0 3.28-.82 4.32-1.98l-1.46-1.44c-.78.78-1.6 1.3-2.74 1.3-1.86 0-3.16-1.5-3.16-3.38v-.04c0-1.84 1.3-3.36 3.06-3.36 1.2 0 1.98.56 2.72 1.32l1.52-1.62c-1-1.08-2.24-1.82-4.22-1.82-3.18 0-5.5 2.52-5.5 5.52v.04c0 3 2.32 5.46 5.46 5.46m6.526-.24h2.44v-3.02l1.5-1.56 3.12 4.58h2.84l-4.34-6.26 4.2-4.3h-2.94l-4.38 4.68v-8.72h-2.44zm17.776 0h2.44v-14.6h-2.44zm5.643-12.18h2.6v-2.3h-2.6zm.08 12.18h2.44v-10.56h-2.44zm9.223.2c2.2 0 3.92-1.1 3.92-3.32v-.04c0-1.9-1.74-2.6-3.28-3.08-1.24-.4-2.38-.72-2.38-1.5v-.04c0-.58.54-1.04 1.48-1.04.88 0 1.96.38 2.98 1l.96-1.72c-1.12-.74-2.56-1.2-3.88-1.2-2.1 0-3.76 1.22-3.76 3.24v.04c0 2 1.74 2.64 3.3 3.08 1.24.38 2.36.66 2.36 1.48v.04c0 .7-.6 1.14-1.64 1.14-1.08 0-2.3-.44-3.46-1.3l-1.08 1.64a7.3 7.3 0 0 0 4.48 1.58m9.744-.02c.92 0 1.58-.2 2.18-.54v-1.98c-.48.24-.96.36-1.5.36-.82 0-1.3-.38-1.3-1.32v-5.18h2.84v-2.08h-2.84v-2.9h-2.42v2.9h-1.34v2.08h1.34v5.56c0 2.32 1.26 3.1 3.04 3.1"/><g filter="url(#b)"><g filter="url(#c)"><rect width="123" height="46" x="242" y="804" fill="#de1639" rx="6"/><path fill="#fff" d="M283.512 833v-12.6h2.556l5.904 7.758V820.4h2.736V833h-2.358l-6.102-8.01V833zm18.505.216c-2.898 0-5.04-2.034-5.04-4.986v-.036c0-2.754 1.962-5.022 4.77-5.022 3.222 0 4.698 2.502 4.698 5.238 0 .216-.018.45-.036.72h-6.714c.27 1.242 1.134 1.89 2.358 1.89.918 0 1.566-.288 2.34-.99l1.566 1.386c-.918 1.134-2.196 1.8-3.942 1.8m-2.358-5.796h4.122c-.162-1.224-.882-2.052-2.034-2.052s-1.872.81-2.088 2.052m10.53-4.068 1.8 2.826 1.818-2.826h2.862l-3.258 4.716 3.402 4.932h-2.934l-1.944-3.006-1.944 3.006h-2.862l3.384-4.896-3.258-4.752zm11.52 9.81c-1.656 0-2.808-.666-2.808-2.898v-4.572h-1.152v-2.34h1.152v-2.466h2.736v2.466h2.268v2.34h-2.268v4.122c0 .63.288.936.882.936a2.7 2.7 0 0 0 1.35-.342v2.196c-.576.342-1.242.558-2.16.558"/></g><g filter="url(#d)"><rect width="147" height="46" x="49" y="804" fill="#ededed" rx="6"/><path fill="#676767" d="M70.03 833.18c-1.944 0-3.744-.648-5.256-2.016l1.332-1.584c1.224 1.062 2.412 1.638 3.978 1.638 1.368 0 2.232-.648 2.232-1.584v-.036c0-.882-.504-1.404-2.844-1.926-2.682-.63-4.194-1.458-4.194-3.762v-.036c0-2.16 1.8-3.654 4.302-3.654 1.854 0 3.276.558 4.572 1.584l-1.188 1.674c-1.152-.846-2.268-1.296-3.42-1.296-1.296 0-2.052.648-2.052 1.494v.036c0 .972.576 1.404 3.006 1.98 2.646.684 4.032 1.584 4.032 3.69v.036c0 2.376-1.854 3.762-4.5 3.762m9.588.018c-1.782 0-3.384-1.008-3.384-2.934v-.036c0-2.07 1.62-3.06 3.942-3.06 1.08 0 1.818.162 2.556.396v-.234c0-1.368-.828-2.07-2.358-2.07-1.08 0-1.854.234-2.718.594l-.594-1.71c1.062-.45 2.088-.774 3.6-.774 1.422 0 2.466.36 3.15 1.062.702.702 1.026 1.692 1.026 2.934V833h-2.124v-1.188c-.648.774-1.638 1.386-3.096 1.386m.612-1.584c1.44 0 2.538-.81 2.538-2.034v-.648a6 6 0 0 0-2.16-.378c-1.422 0-2.232.576-2.232 1.584v.036c0 .918.792 1.44 1.854 1.44m9.87 1.458-3.905-9.576h2.34l2.556 6.984 2.574-6.984h2.286l-3.888 9.576zm11.511.144c-2.736 0-4.878-1.998-4.878-4.932v-.036c0-2.736 1.926-4.95 4.644-4.95 3.024 0 4.554 2.376 4.554 5.112 0 .198-.018.396-.036.612h-6.984c.234 1.566 1.314 2.412 2.736 2.412 1.08 0 1.8-.396 2.574-1.134l1.278 1.134c-.918 1.08-2.142 1.782-3.888 1.782m-2.718-5.634h4.878c-.144-1.386-.972-2.502-2.412-2.502-1.35 0-2.268 1.008-2.466 2.502m17.357 5.616c-1.782 0-3.384-1.008-3.384-2.934v-.036c0-2.07 1.62-3.06 3.942-3.06 1.08 0 1.818.162 2.556.396v-.234c0-1.368-.828-2.07-2.358-2.07-1.08 0-1.854.234-2.718.594l-.594-1.71c1.062-.45 2.088-.774 3.6-.774 1.422 0 2.466.36 3.15 1.062.702.702 1.026 1.692 1.026 2.934V833h-2.124v-1.188c-.648.774-1.638 1.386-3.096 1.386m.612-1.584c1.44 0 2.538-.81 2.538-2.034v-.648a6 6 0 0 0-2.16-.378c-1.422 0-2.232.576-2.232 1.584v.036c0 .918.792 1.44 1.854 1.44m10.475 1.566a6.56 6.56 0 0 1-4.032-1.422l.972-1.476c1.062.774 2.124 1.17 3.114 1.17.936 0 1.476-.396 1.476-1.026v-.036c0-.72-1.008-.99-2.124-1.332-1.386-.378-2.97-.972-2.97-2.772v-.036c0-1.818 1.494-2.916 3.384-2.916 1.206 0 2.484.414 3.492 1.08l-.864 1.548c-.918-.558-1.89-.9-2.682-.9-.846 0-1.332.414-1.332.936v.036c0 .684 1.026 1.008 2.142 1.35 1.368.432 2.952 1.062 2.952 2.772v.036c0 1.998-1.548 2.988-3.528 2.988m15.08.018c-2.232 0-4.41-1.764-4.41-4.932v-.036c0-3.168 2.142-4.932 4.41-4.932 1.548 0 2.574.774 3.24 1.674v-5.112h2.178V833h-2.178v-1.584c-.702.99-1.71 1.782-3.24 1.782m.522-1.89c1.458 0 2.754-1.224 2.754-3.042v-.036c0-1.836-1.296-3.042-2.754-3.042-1.494 0-2.736 1.17-2.736 3.042v.036c0 1.836 1.242 3.042 2.736 3.042m7.612 1.692v-9.504h2.196v2.142c.594-1.44 1.692-2.394 3.366-2.322v2.304h-.126c-1.926 0-3.24 1.242-3.24 3.762V833zm9.733.198c-1.782 0-3.384-1.008-3.384-2.934v-.036c0-2.07 1.62-3.06 3.942-3.06 1.08 0 1.818.162 2.556.396v-.234c0-1.368-.828-2.07-2.358-2.07-1.08 0-1.854.234-2.718.594l-.594-1.71c1.062-.45 2.088-.774 3.6-.774 1.422 0 2.466.36 3.15 1.062.702.702 1.026 1.692 1.026 2.934V833h-2.124v-1.188c-.648.774-1.638 1.386-3.096 1.386m.612-1.584c1.44 0 2.538-.81 2.538-2.034v-.648a6 6 0 0 0-2.16-.378c-1.422 0-2.232.576-2.232 1.584v.036c0 .918.792 1.44 1.854 1.44m7.702 1.386v-7.632h-1.206v-1.818h1.206v-.702c0-1.044.252-1.818.774-2.34.504-.504 1.206-.756 2.124-.756.774 0 1.296.108 1.782.252v1.836c-.432-.144-.792-.234-1.278-.234-.846 0-1.26.486-1.26 1.44v.522h2.52v1.8h-2.484V833zm9.468.162c-1.602 0-2.736-.702-2.736-2.79v-5.004h-1.206v-1.872h1.206v-2.61h2.178v2.61h2.556v1.872h-2.556v4.662c0 .846.432 1.188 1.17 1.188q.702 0 1.35-.324v1.782c-.558.306-1.116.486-1.962.486"/></g></g><path fill="#de1639" d="M364.813 188.18c2.646 0 4.5-1.404 4.5-3.762v-.036c0-2.088-1.368-3.042-4.032-3.69-2.43-.576-3.006-1.008-3.006-1.98v-.036c0-.828.756-1.494 2.052-1.494 1.152 0 2.286.45 3.42 1.296l1.188-1.674c-1.278-1.026-2.736-1.584-4.572-1.584-2.502 0-4.302 1.494-4.302 3.654v.036c0 2.322 1.512 3.114 4.194 3.762 2.34.54 2.844 1.026 2.844 1.926v.036c0 .936-.864 1.584-2.232 1.584-1.548 0-2.772-.594-3.978-1.638l-1.332 1.584c1.512 1.35 3.33 2.016 5.256 2.016m6.834-.18h2.196v-2.718l1.35-1.404 2.808 4.122h2.556l-3.906-5.634 3.78-3.87h-2.646l-3.942 4.212v-7.848h-2.196zm10.53-10.962h2.34v-2.07h-2.34zm.072 10.962h2.196v-9.504h-2.196zm5.025 2.88h2.196v-4.356c.666.882 1.656 1.674 3.24 1.674 2.25 0 4.41-1.782 4.41-4.932v-.036c0-3.168-2.178-4.932-4.41-4.932-1.548 0-2.538.792-3.24 1.782v-1.584h-2.196zm4.914-4.572c-1.476 0-2.772-1.224-2.772-3.042v-.036c0-1.818 1.296-3.042 2.772-3.042 1.458 0 2.718 1.206 2.718 3.042v.036c0 1.872-1.224 3.042-2.718 3.042"/><path fill="#000" d="M22.22 184h2.46v-11.72h4.46V170H17.76v2.28h4.46zm8.899-12.18h2.6v-2.3h-2.6zm.08 12.18h2.44v-10.56h-2.44zm9.142.18c.92 0 1.58-.2 2.18-.54v-1.98c-.48.24-.96.36-1.5.36-.82 0-1.3-.38-1.3-1.32v-5.18h2.84v-2.08h-2.84v-2.9h-2.42v2.9h-1.34v2.08h1.34v5.56c0 2.32 1.26 3.1 3.04 3.1m4.803-.18h2.44v-14.6h-2.44zm10.443.24c1.94 0 3.32-.78 4.32-1.98l-1.42-1.26c-.84.82-1.68 1.26-2.86 1.26-1.56 0-2.78-.96-3.04-2.68h7.76c.02-.24.04-.46.04-.68 0-3.04-1.7-5.68-5.06-5.68-3.02 0-5.16 2.48-5.16 5.5v.04c0 3.26 2.36 5.48 5.42 5.48m-3.02-6.26c.22-1.64 1.26-2.78 2.74-2.78 1.6 0 2.52 1.22 2.68 2.78z"/><g filter="url(#e)"><rect width="382" height="38" x="16" y="203" fill="#fff" rx="6"/><rect width="381" height="37" x="16.5" y="203.5" stroke="#d1d5db" rx="5.5"/><path fill="#6b7280" d="M32.627 227.065h1.391l2.236-6.539 2.236 6.539h1.391l3.159-9.165h-1.677l-2.171 6.747-2.236-6.773h-1.352l-2.236 6.773-2.171-6.747h-1.729zM44.029 227h1.586v-2.613c0-1.82.962-2.717 2.34-2.717h.09v-1.664c-1.208-.052-2.001.65-2.43 1.677v-1.547h-1.586zm5.409-7.917h1.69v-1.495h-1.69zM49.49 227h1.586v-6.864H49.49zm5.943.117c.598 0 1.027-.13 1.417-.351v-1.287a2.1 2.1 0 0 1-.975.234c-.533 0-.845-.247-.845-.858v-3.367h1.846v-1.352H55.03v-1.885h-1.573v1.885h-.871v1.352h.87v3.614c0 1.508.82 2.015 1.977 2.015m5.999.039c1.26 0 2.158-.507 2.808-1.287l-.923-.819c-.546.533-1.092.819-1.86.819-1.013 0-1.806-.624-1.975-1.742h5.044c.013-.156.026-.299.026-.442 0-1.976-1.105-3.692-3.29-3.692-1.962 0-3.353 1.612-3.353 3.575v.026c0 2.119 1.534 3.562 3.523 3.562m-1.963-4.069c.143-1.066.819-1.807 1.78-1.807 1.04 0 1.639.793 1.743 1.807zm12.861 4.03c.598 0 1.027-.13 1.417-.351v-1.287a2.1 2.1 0 0 1-.975.234c-.533 0-.845-.247-.845-.858v-3.367h1.846v-1.352h-1.846v-1.885h-1.573v1.885h-.871v1.352h.871v3.614c0 1.508.819 2.015 1.976 2.015m3.07-8.034h1.69v-1.495H75.4zm.052 7.917h1.586v-6.864h-1.586zm5.942.117c.599 0 1.027-.13 1.417-.351v-1.287a2.1 2.1 0 0 1-.975.234c-.532 0-.844-.247-.844-.858v-3.367h1.846v-1.352h-1.846v-1.885h-1.574v1.885h-.87v1.352h.87v3.614c0 1.508.82 2.015 1.976 2.015m3.122-.117h1.586v-9.49h-1.586zm6.788.156c1.26 0 2.158-.507 2.808-1.287l-.923-.819c-.546.533-1.092.819-1.86.819-1.013 0-1.806-.624-1.975-1.742h5.044c.013-.156.026-.299.026-.442 0-1.976-1.105-3.692-3.29-3.692-1.962 0-3.353 1.612-3.353 3.575v.026c0 2.119 1.534 3.562 3.523 3.562m-1.963-4.069c.143-1.066.819-1.807 1.78-1.807 1.04 0 1.639.793 1.743 1.807zM99.888 227h1.586v-3.874c0-1.066.637-1.703 1.547-1.703.936 0 1.469.611 1.469 1.677v3.9h1.573v-4.381c0-1.586-.897-2.626-2.444-2.626-1.066 0-1.703.559-2.145 1.196v-3.679h-1.586zm11.221.156c1.261 0 2.158-.507 2.808-1.287l-.923-.819c-.546.533-1.092.819-1.859.819-1.014 0-1.807-.624-1.976-1.742h5.044c.013-.156.026-.299.026-.442 0-1.976-1.105-3.692-3.289-3.692-1.963 0-3.354 1.612-3.354 3.575v.026c0 2.119 1.534 3.562 3.523 3.562m-1.963-4.069c.143-1.066.819-1.807 1.781-1.807 1.04 0 1.638.793 1.742 1.807zm6.649 3.913h1.586v-2.613c0-1.82.962-2.717 2.34-2.717h.091v-1.664c-1.209-.052-2.002.65-2.431 1.677v-1.547h-1.586zm8.301.156c1.261 0 2.158-.507 2.808-1.287l-.923-.819c-.546.533-1.092.819-1.859.819-1.014 0-1.807-.624-1.976-1.742h5.044c.013-.156.026-.299.026-.442 0-1.976-1.105-3.692-3.289-3.692-1.963 0-3.354 1.612-3.354 3.575v.026c0 2.119 1.534 3.562 3.523 3.562m-1.963-4.069c.143-1.066.819-1.807 1.781-1.807 1.04 0 1.638.793 1.742 1.807zm12.861 4.03c.598 0 1.027-.13 1.417-.351v-1.287a2.1 2.1 0 0 1-.975.234c-.533 0-.845-.247-.845-.858v-3.367h1.846v-1.352h-1.846v-1.885h-1.573v1.885h-.871v1.352h.871v3.614c0 1.508.819 2.015 1.976 2.015m6.116.039c2.119 0 3.679-1.625 3.679-3.575v-.026c0-1.963-1.547-3.562-3.653-3.562s-3.666 1.625-3.666 3.588v.026c0 1.95 1.547 3.549 3.64 3.549m.026-1.378c-1.222 0-2.093-1.001-2.093-2.197v-.026c0-1.196.806-2.184 2.067-2.184 1.235 0 2.106 1.001 2.106 2.21v.026c0 1.183-.806 2.171-2.08 2.171m11.506 1.352c1.43 0 2.548-.715 2.548-2.158v-.026c0-1.235-1.131-1.69-2.132-2.002-.806-.26-1.547-.468-1.547-.975v-.026c0-.377.351-.676.962-.676.572 0 1.274.247 1.937.65l.624-1.118c-.728-.481-1.664-.78-2.522-.78-1.365 0-2.444.793-2.444 2.106v.026c0 1.3 1.131 1.716 2.145 2.002.806.247 1.534.429 1.534.962v.026c0 .455-.39.741-1.066.741-.702 0-1.495-.286-2.249-.845l-.702 1.066a4.74 4.74 0 0 0 2.912 1.027m6.135.013c1.053 0 1.768-.442 2.236-1.001V227h1.534v-4.069c0-.897-.234-1.625-.741-2.119-.481-.494-1.248-.767-2.275-.767-1.092 0-1.833.221-2.6.559l.429 1.235c.624-.26 1.196-.429 1.963-.429 1.105 0 1.703.52 1.703 1.495v.169a5.7 5.7 0 0 0-1.846-.286c-1.677 0-2.847.728-2.847 2.21v.026c0 1.378 1.157 2.119 2.444 2.119m.442-1.144c-.754 0-1.339-.377-1.339-1.04v-.026c0-.715.598-1.144 1.612-1.144a4.4 4.4 0 0 1 1.56.273v.468c0 .871-.793 1.469-1.833 1.469m7.129 1.053h1.417l2.808-6.916h-1.651l-1.859 5.044-1.846-5.044h-1.69zm8.313.104c1.261 0 2.158-.507 2.808-1.287l-.923-.819c-.546.533-1.092.819-1.859.819-1.014 0-1.807-.624-1.976-1.742h5.044c.013-.156.026-.299.026-.442 0-1.976-1.105-3.692-3.289-3.692-1.963 0-3.354 1.612-3.354 3.575v.026c0 2.119 1.534 3.562 3.523 3.562m-1.963-4.069c.143-1.066.819-1.807 1.781-1.807 1.04 0 1.638.793 1.742 1.807zm13.525 2.145-1.924-5.096h-1.69l2.86 6.877c-.26.585-.533.78-.975.78-.325 0-.637-.104-.923-.26l-.533 1.157c.481.273.975.429 1.625.429 1.105 0 1.716-.52 2.262-1.937l2.73-7.046h-1.638zm7.649 1.924c2.119 0 3.679-1.625 3.679-3.575v-.026c0-1.963-1.547-3.562-3.653-3.562s-3.666 1.625-3.666 3.588v.026c0 1.95 1.547 3.549 3.64 3.549m.026-1.378c-1.222 0-2.093-1.001-2.093-2.197v-.026c0-1.196.806-2.184 2.067-2.184 1.235 0 2.106 1.001 2.106 2.21v.026c0 1.183-.806 2.171-2.08 2.171m7.621 1.365c1.066 0 1.703-.559 2.145-1.209V227h1.586v-6.864h-1.586v3.874c0 1.066-.637 1.69-1.547 1.69-.936 0-1.469-.598-1.469-1.664v-3.9h-1.573v4.368c0 1.599.897 2.639 2.444 2.639m5.683-.143h1.586v-2.613c0-1.82.962-2.717 2.34-2.717h.091v-1.664c-1.209-.052-2.002.65-2.431 1.677v-1.547h-1.586zm9.306-7.917h1.69v-1.495h-1.69zm.052 7.917h1.586v-6.864h-1.586zm3.629 0h1.586v-3.874c0-1.066.637-1.703 1.547-1.703.936 0 1.469.611 1.469 1.677v3.9h1.573v-4.381c0-1.586-.897-2.626-2.444-2.626-1.066 0-1.703.559-2.145 1.196v-1.053h-1.586zm10.375.117c.598 0 1.027-.13 1.417-.351v-1.287a2.1 2.1 0 0 1-.975.234c-.533 0-.845-.247-.845-.858v-3.367h1.846v-1.352h-1.846v-1.885h-1.573v1.885h-.871v1.352h.871v3.614c0 1.508.819 2.015 1.976 2.015m6 .039c1.261 0 2.158-.507 2.808-1.287l-.923-.819c-.546.533-1.092.819-1.859.819-1.014 0-1.807-.624-1.976-1.742h5.044c.013-.156.026-.299.026-.442 0-1.976-1.105-3.692-3.289-3.692-1.963 0-3.354 1.612-3.354 3.575v.026c0 2.119 1.534 3.562 3.523 3.562m-1.963-4.069c.143-1.066.819-1.807 1.781-1.807 1.04 0 1.638.793 1.742 1.807zM241.25 227h1.586v-2.613c0-1.82.962-2.717 2.34-2.717h.091v-1.664c-1.209-.052-2.002.65-2.431 1.677v-1.547h-1.586zm7.555.052h1.417l2.808-6.916h-1.651l-1.859 5.044-1.846-5.044h-1.69zm5.586-7.969h1.69v-1.495h-1.69zm.052 7.917h1.586v-6.864h-1.586zm6.788.156c1.261 0 2.158-.507 2.808-1.287l-.923-.819c-.546.533-1.092.819-1.859.819-1.014 0-1.807-.624-1.976-1.742h5.044c.013-.156.026-.299.026-.442 0-1.976-1.105-3.692-3.289-3.692-1.963 0-3.354 1.612-3.354 3.575v.026c0 2.119 1.534 3.562 3.523 3.562m-1.963-4.069c.143-1.066.819-1.807 1.781-1.807 1.04 0 1.638.793 1.742 1.807zm7.983 3.965h1.404l1.547-4.693 1.534 4.693h1.417l2.249-6.916h-1.586l-1.404 4.706-1.521-4.732h-1.352l-1.521 4.732-1.378-4.706h-1.625zm15.42.091c1.053 0 1.768-.442 2.236-1.001V227h1.534v-4.069c0-.897-.234-1.625-.741-2.119-.481-.494-1.248-.767-2.275-.767-1.092 0-1.833.221-2.6.559l.429 1.235c.624-.26 1.196-.429 1.963-.429 1.105 0 1.703.52 1.703 1.495v.169a5.7 5.7 0 0 0-1.846-.286c-1.677 0-2.847.728-2.847 2.21v.026c0 1.378 1.157 2.119 2.444 2.119m.442-1.144c-.754 0-1.339-.377-1.339-1.04v-.026c0-.715.598-1.144 1.612-1.144a4.4 4.4 0 0 1 1.56.273v.468c0 .871-.793 1.469-1.833 1.469m7.449 1.118c.598 0 1.027-.13 1.417-.351v-1.287a2.1 2.1 0 0 1-.975.234c-.533 0-.845-.247-.845-.858v-3.367h1.846v-1.352h-1.846v-1.885h-1.573v1.885h-.871v1.352h.871v3.614c0 1.508.819 2.015 1.976 2.015m8.918.026c1.053 0 1.768-.442 2.236-1.001V227h1.534v-4.069c0-.897-.234-1.625-.741-2.119-.481-.494-1.248-.767-2.275-.767-1.092 0-1.833.221-2.6.559l.429 1.235c.624-.26 1.196-.429 1.963-.429 1.105 0 1.703.52 1.703 1.495v.169a5.7 5.7 0 0 0-1.846-.286c-1.677 0-2.847.728-2.847 2.21v.026c0 1.378 1.157 2.119 2.444 2.119m.442-1.144c-.754 0-1.339-.377-1.339-1.04v-.026c0-.715.598-1.144 1.612-1.144a4.4 4.4 0 0 1 1.56.273v.468c0 .871-.793 1.469-1.833 1.469m5.199 1.001h1.586v-3.874c0-1.066.637-1.703 1.547-1.703.936 0 1.469.611 1.469 1.677v3.9h1.573v-4.381c0-1.586-.897-2.626-2.444-2.626-1.066 0-1.703.559-2.145 1.196v-1.053h-1.586zm10.848-1.768-1.924-5.096h-1.69l2.86 6.877c-.26.585-.533.78-.975.78-.325 0-.637-.104-.923-.26l-.533 1.157c.481.273.975.429 1.625.429 1.105 0 1.716-.52 2.262-1.937l2.73-7.046h-1.638zm7.081 1.885c.598 0 1.027-.13 1.417-.351v-1.287a2.1 2.1 0 0 1-.975.234c-.533 0-.845-.247-.845-.858v-3.367h1.846v-1.352h-1.846v-1.885h-1.573v1.885h-.871v1.352h.871v3.614c0 1.508.819 2.015 1.976 2.015m3.069-8.034h1.69v-1.495h-1.69zm.052 7.917h1.586v-6.864h-1.586zm3.629 0h1.586v-3.874c0-1.053.598-1.703 1.469-1.703s1.391.598 1.391 1.664V227h1.573v-3.874c0-1.105.611-1.703 1.469-1.703.884 0 1.391.585 1.391 1.677v3.9h1.573v-4.381c0-1.677-.91-2.626-2.405-2.626-1.04 0-1.768.481-2.314 1.209-.364-.728-1.066-1.209-2.054-1.209-1.053 0-1.651.572-2.093 1.183v-1.04H329.8zm15.499.156c1.261 0 2.158-.507 2.808-1.287l-.923-.819c-.546.533-1.092.819-1.859.819-1.014 0-1.807-.624-1.976-1.742h5.044c.013-.156.026-.299.026-.442 0-1.976-1.105-3.692-3.289-3.692-1.963 0-3.354 1.612-3.354 3.575v.026c0 2.119 1.534 3.562 3.523 3.562m-1.963-4.069c.143-1.066.819-1.807 1.781-1.807 1.04 0 1.638.793 1.742 1.807z"/></g><path fill="#ffcb35" d="M174 166C37 149-4.667 163.167-19.5 192.5L-31-28.5 455-56l6 190c-9.5 2.167-42.5 18.5-97.5 27.5-42.678 6.984-76.877 18.475-189.5 4.5"/><path fill="#000" fill-rule="evenodd" d="M393.333 19.332h-16.666c-.921 0-1.667.746-1.667 1.667v6c0 .92.746 1.666 1.667 1.666h16.666c.921 0 1.667-.746 1.667-1.666v-6c0-.92-.746-1.667-1.667-1.667m-16.666-1A2.667 2.667 0 0 0 374 20.999v6a2.667 2.667 0 0 0 2.667 2.666h16.666A2.667 2.667 0 0 0 396 27v-6a2.667 2.667 0 0 0-2.667-2.667z" clip-rule="evenodd" opacity=".35"/><path fill="#000" d="M397 21.998v4a2.17 2.17 0 0 0 0-4" opacity=".4"/><path fill="#000" d="M376 21.665c0-.736.597-1.333 1.333-1.333h15.334c.736 0 1.333.597 1.333 1.333v4.667c0 .736-.597 1.333-1.333 1.333h-15.334A1.333 1.333 0 0 1 376 26.332z"/><path fill="#000" fill-rule="evenodd" d="M359.33 20.713c2.216 0 4.347 1.117 5.953 3.119.121.154.314.152.433-.005l1.156-1.53a.5.5 0 0 0 .094-.3.5.5 0 0 0-.096-.297c-4.215-5.298-10.865-5.298-15.08 0a.5.5 0 0 0-.097.298c0 .112.033.22.094.3l1.156 1.53c.119.157.312.159.433.004 1.606-2.002 3.738-3.119 5.954-3.119m0 4.978c1.217 0 2.391.593 3.294 1.665.122.152.314.148.433-.008l1.155-1.53a.5.5 0 0 0 .094-.302.5.5 0 0 0-.099-.3c-2.748-3.352-7.004-3.352-9.752 0a.5.5 0 0 0-.098.3.5.5 0 0 0 .094.302l1.154 1.53c.119.156.311.16.433.008.902-1.071 2.075-1.665 3.292-1.665m2.313 3.349a.48.48 0 0 1-.094.302l-1.997 2.643a.28.28 0 0 1-.222.122.28.28 0 0 1-.222-.122l-1.997-2.643a.48.48 0 0 1-.094-.302.48.48 0 0 1 .103-.297c1.276-1.415 3.144-1.415 4.42 0a.48.48 0 0 1 .103.297m-15.977-10.872h-1c-.552 0-1 .587-1 1.311v11.366c0 .724.448 1.311 1 1.311h1c.552 0 1-.587 1-1.311V19.479c0-.724-.448-1.311-1-1.311m-5.667 3.06h1c.553 0 1 .587 1 1.311v8.306c0 .724-.447 1.311-1 1.311h-1c-.552 0-1-.587-1-1.311v-8.306c0-.724.448-1.311 1-1.311m-3.666 3.06h-1c-.553 0-1 .587-1 1.311v5.246c0 .724.447 1.311 1 1.311h1c.552 0 1-.587 1-1.311v-5.246c0-.724-.448-1.311-1-1.311m-4.667 2.622h-1c-.552 0-1 .588-1 1.312v2.623c0 .724.448 1.311 1 1.311h1c.552 0 1-.587 1-1.311v-2.623c0-.724-.448-1.312-1-1.312" clip-rule="evenodd"/><path fill="#000" d="M37.32 29.257c2.688 0 4.285-2.102 4.285-5.662 0-1.34-.256-2.468-.747-3.34-.71-1.355-1.934-2.087-3.48-2.087-2.299 0-3.925 1.545-3.925 3.713 0 2.037 1.465 3.516 3.48 3.516 1.237 0 2.24-.579 2.738-1.582h.125c0 2.417-.916 3.86-2.461 3.86-.908 0-1.611-.498-1.853-1.297H33.6c.315 1.736 1.787 2.879 3.72 2.879m.066-5.362c-1.216 0-2.08-.864-2.08-2.072 0-1.18.908-2.08 2.088-2.08 1.179 0 2.087.915 2.087 2.11 0 1.178-.886 2.042-2.095 2.042m7.31 5.259c.696 0 1.172-.498 1.172-1.157 0-.666-.476-1.157-1.172-1.157-.688 0-1.172.49-1.172 1.157 0 .66.484 1.157 1.172 1.157m0-5.493c.696 0 1.172-.49 1.172-1.15 0-.666-.476-1.157-1.172-1.157-.688 0-1.172.49-1.172 1.157 0 .66.484 1.15 1.172 1.15M52.724 29h1.809v-1.97h1.428v-1.596h-1.428v-7.002h-2.666c-1.868 2.812-3.355 5.163-4.307 6.914v1.684h5.164zm-3.413-3.632a80 80 0 0 1 3.34-5.398h.102v5.508h-3.442zM59.99 29h1.89V18.432h-1.883l-2.761 1.933v1.817l2.63-1.846h.124z"/><path stroke="#666" stroke-width="2" d="M45 123h324"/><circle cx="43.5" cy="122" r="15" fill="#fff" stroke="#de1639" stroke-width="2"/><path fill="#de1639" d="M42.704 129v-10.44l-2.268.63-.468-1.8 3.402-1.08h1.53V129zm-21.667 22v-8.4h3.312c1.968 0 3.192 1.116 3.192 2.808v.024c0 1.872-1.5 2.868-3.36 2.868h-1.668v2.7zm1.476-4.032h1.716c1.116 0 1.812-.624 1.812-1.5v-.024c0-.996-.708-1.5-1.812-1.5h-1.716zm6.36 4.032v-6.336h1.464v1.428c.396-.96 1.128-1.596 2.244-1.548v1.536h-.084c-1.284 0-2.16.828-2.16 2.508V151zm7.662.144c-1.824 0-3.252-1.332-3.252-3.288v-.024c0-1.824 1.284-3.3 3.096-3.3 2.016 0 3.036 1.584 3.036 3.408 0 .132-.012.264-.024.408h-4.656c.156 1.044.876 1.608 1.824 1.608.72 0 1.2-.264 1.716-.756l.852.756c-.612.72-1.428 1.188-2.592 1.188m-1.812-3.756h3.252c-.096-.924-.648-1.668-1.608-1.668-.9 0-1.512.672-1.644 1.668m6.138 5.532v-8.256h1.464v1.056c.468-.66 1.116-1.188 2.16-1.188 1.488 0 2.94 1.176 2.94 3.288v.024c0 2.112-1.44 3.288-2.94 3.288-1.056 0-1.716-.528-2.16-1.116v2.904zm3.276-3.048c.996 0 1.812-.78 1.812-2.028v-.024c0-1.224-.84-2.028-1.812-2.028-.996 0-1.848.816-1.848 2.028v.024c0 1.212.852 2.028 1.848 2.028m6.61 1.26c-1.187 0-2.255-.672-2.255-1.956v-.024c0-1.38 1.08-2.04 2.628-2.04.72 0 1.212.108 1.704.264v-.156c0-.912-.552-1.38-1.572-1.38-.72 0-1.236.156-1.812.396l-.396-1.14c.708-.3 1.392-.516 2.4-.516.948 0 1.644.24 2.1.708.468.468.684 1.128.684 1.956V151h-1.416v-.792c-.432.516-1.092.924-2.064.924m.409-1.056c.96 0 1.692-.54 1.692-1.356v-.432a4 4 0 0 0-1.44-.252c-.948 0-1.488.384-1.488 1.056v.024c0 .612.528.96 1.236.96m4.799.924v-6.336h1.464v1.428c.396-.96 1.128-1.596 2.244-1.548v1.536h-.084c-1.284 0-2.16.828-2.16 2.508V151zm7.662.144c-1.824 0-3.252-1.332-3.252-3.288v-.024c0-1.824 1.284-3.3 3.096-3.3 2.016 0 3.036 1.584 3.036 3.408 0 .132-.012.264-.024.408h-4.656c.156 1.044.876 1.608 1.824 1.608.72 0 1.2-.264 1.716-.756l.852.756c-.612.72-1.428 1.188-2.592 1.188m-1.812-3.756h3.252c-.096-.924-.648-1.668-1.608-1.668-.9 0-1.512.672-1.644 1.668"/><ellipse cx="124.5" cy="122" fill="#efefef" stroke="#666" stroke-width="2" rx="15.5" ry="15"/><path fill="#666" d="M119.882 129h9.108v-1.944h-5.994l2.592-2.16c2.232-1.818 3.276-2.88 3.276-4.878v-.036c0-2.25-1.692-3.762-4.158-3.762-2.25 0-3.438.954-4.644 2.628l1.584 1.242c.954-1.26 1.746-1.89 2.898-1.89s2.034.738 2.034 1.962c0 1.134-.648 1.926-2.358 3.402l-4.338 3.69zm-16.022 21.196-.96-.816a4.32 4.32 0 0 0 .852-2.58v-.024c0-2.364-1.8-4.32-4.38-4.32s-4.404 1.98-4.404 4.344v.024c0 2.364 1.8 4.32 4.38 4.32.972 0 1.848-.288 2.556-.792l1.008.9zm-4.488-.42c-1.668 0-2.856-1.344-2.856-2.976v-.024c0-1.632 1.164-2.952 2.832-2.952s2.856 1.344 2.856 2.976v.024c0 .6-.144 1.14-.408 1.596l-1.476-1.344-.948 1.08 1.452 1.248c-.42.24-.9.372-1.452.372m8.179 1.356c.984 0 1.572-.516 1.98-1.116V151h1.464v-6.336h-1.464v3.576c0 .984-.588 1.56-1.428 1.56-.864 0-1.356-.552-1.356-1.536v-3.6h-1.452v4.032c0 1.476.828 2.436 2.256 2.436m8.161.012c1.164 0 1.992-.468 2.592-1.188l-.852-.756c-.504.492-1.008.756-1.716.756-.936 0-1.668-.576-1.824-1.608h4.656c.012-.144.024-.276.024-.408 0-1.824-1.02-3.408-3.036-3.408-1.812 0-3.096 1.488-3.096 3.3v.024c0 1.956 1.416 3.288 3.252 3.288m-1.812-3.756c.132-.984.756-1.668 1.644-1.668.96 0 1.512.732 1.608 1.668zm8.323 3.732c1.32 0 2.352-.66 2.352-1.992v-.024c0-1.14-1.044-1.56-1.968-1.848-.744-.24-1.428-.432-1.428-.9v-.024c0-.348.324-.624.888-.624.528 0 1.176.228 1.788.6l.576-1.032c-.672-.444-1.536-.72-2.328-.72-1.26 0-2.256.732-2.256 1.944v.024c0 1.2 1.044 1.584 1.98 1.848.744.228 1.416.396 1.416.888v.024c0 .42-.36.684-.984.684-.648 0-1.38-.264-2.076-.78l-.648.984a4.38 4.38 0 0 0 2.688.948m5.846-.012c.552 0 .948-.12 1.308-.324v-1.188a1.95 1.95 0 0 1-.9.216c-.492 0-.78-.228-.78-.792v-3.108h1.704v-1.248h-1.704v-1.74h-1.452v1.74h-.804v1.248h.804v3.336c0 1.392.756 1.86 1.824 1.86m2.834-7.416h1.56v-1.38h-1.56zm.048 7.308h1.464v-6.336h-1.464zm6.373.144c1.956 0 3.396-1.5 3.396-3.3v-.024c0-1.812-1.428-3.288-3.372-3.288s-3.384 1.5-3.384 3.312v.024c0 1.8 1.428 3.276 3.36 3.276m.024-1.272c-1.128 0-1.932-.924-1.932-2.028v-.024c0-1.104.744-2.016 1.908-2.016 1.14 0 1.944.924 1.944 2.04v.024c0 1.092-.744 2.004-1.92 2.004m4.839 1.128h1.464v-3.576c0-.984.588-1.572 1.428-1.572.864 0 1.356.564 1.356 1.548v3.6h1.452v-4.044c0-1.464-.828-2.424-2.256-2.424-.984 0-1.572.516-1.98 1.104v-.972h-1.464zm9.626.12c1.32 0 2.352-.66 2.352-1.992v-.024c0-1.14-1.044-1.56-1.968-1.848-.744-.24-1.428-.432-1.428-.9v-.024c0-.348.324-.624.888-.624.528 0 1.176.228 1.788.6l.576-1.032c-.672-.444-1.536-.72-2.328-.72-1.26 0-2.256.732-2.256 1.944v.024c0 1.2 1.044 1.584 1.98 1.848.744.228 1.416.396 1.416.888v.024c0 .42-.36.684-.984.684-.648 0-1.38-.264-2.076-.78l-.648.984a4.38 4.38 0 0 0 2.688.948"/><ellipse cx="368" cy="122" fill="#efefef" stroke="#666" stroke-width="2" rx="15.5" ry="15"/><path fill="#666" d="M367.972 129.216c2.79 0 4.68-1.692 4.68-4.266v-.036c0-2.664-1.944-3.96-4.392-3.96-.846 0-1.404.144-1.998.36l.198-2.934h5.634v-1.98h-7.542l-.36 6.174 1.332.882c.648-.306 1.422-.558 2.322-.558 1.53 0 2.61.81 2.61 2.088v.036c0 1.314-.99 2.178-2.502 2.178-1.17 0-2.232-.576-3.24-1.512l-1.368 1.602c1.188 1.152 2.7 1.926 4.626 1.926M347.16 151h1.476v-2.7h1.668c1.848 0 3.36-.984 3.36-2.868v-.024c0-1.692-1.224-2.808-3.192-2.808h-3.312zm1.476-4.032v-3.024h1.716c1.104 0 1.812.516 1.812 1.5v.024c0 .876-.696 1.5-1.812 1.5zm8.567 4.164c.984 0 1.572-.516 1.98-1.116V151h1.464v-6.336h-1.464v3.576c0 .984-.588 1.56-1.428 1.56-.864 0-1.356-.552-1.356-1.536v-3.6h-1.452v4.032c0 1.476.828 2.436 2.256 2.436m8.87 0c1.5 0 2.94-1.188 2.94-3.288v-.024c0-2.112-1.452-3.288-2.94-3.288-1.032 0-1.692.528-2.16 1.188v-3.48h-1.464V151h1.464v-.984c.444.588 1.104 1.116 2.16 1.116m-.348-1.26c-.984 0-1.848-.816-1.848-2.028v-.024c0-1.212.864-2.028 1.848-2.028.972 0 1.812.804 1.812 2.028v.024c0 1.248-.816 2.028-1.812 2.028m4.859 1.128h1.464v-8.76h-1.464zm3.385-7.308h1.56v-1.38h-1.56zm.048 7.308h1.464v-6.336h-1.464zm5.534.12c1.32 0 2.352-.66 2.352-1.992v-.024c0-1.14-1.044-1.56-1.968-1.848-.744-.24-1.428-.432-1.428-.9v-.024c0-.348.324-.624.888-.624.528 0 1.176.228 1.788.6l.576-1.032c-.672-.444-1.536-.72-2.328-.72-1.26 0-2.256.732-2.256 1.944v.024c0 1.2 1.044 1.584 1.98 1.848.744.228 1.416.396 1.416.888v.024c0 .42-.36.684-.984.684-.648 0-1.38-.264-2.076-.78l-.648.984a4.38 4.38 0 0 0 2.688.948m3.828-.12h1.464v-3.576c0-.984.588-1.572 1.428-1.572.864 0 1.356.564 1.356 1.548v3.6h1.452v-4.044c0-1.464-.828-2.424-2.256-2.424-.984 0-1.572.516-1.98 1.104v-3.396h-1.464z"/><ellipse cx="291.5" cy="122" fill="#efefef" stroke="#666" stroke-width="2" rx="15.5" ry="15"/><path fill="#666" d="M292.416 128h2.124v-2.826h1.8v-1.818h-1.8v-8.046h-1.89l-7.002 8.28.414 1.584h6.354zm-4.14-4.644 4.14-4.986v4.986zM270.912 151h1.476v-2.928h1.848L276.3 151h1.752l-2.268-3.18c1.164-.336 1.992-1.164 1.992-2.544v-.024c0-.732-.252-1.356-.696-1.812-.54-.528-1.368-.84-2.424-.84h-3.744zm1.476-4.236v-2.82h2.148c1.092 0 1.74.492 1.74 1.392v.024c0 .852-.672 1.404-1.728 1.404zm9.815 4.38c1.164 0 1.992-.468 2.592-1.188l-.852-.756c-.504.492-1.008.756-1.716.756-.936 0-1.668-.576-1.824-1.608h4.656c.012-.144.024-.276.024-.408 0-1.824-1.02-3.408-3.036-3.408-1.812 0-3.096 1.488-3.096 3.3v.024c0 1.956 1.416 3.288 3.252 3.288m-1.812-3.756c.132-.984.756-1.668 1.644-1.668.96 0 1.512.732 1.608 1.668zm7.849 3.66h1.308l2.592-6.384h-1.524l-1.716 4.656-1.704-4.656h-1.56zm5.157-7.356h1.56v-1.38h-1.56zm.048 7.308h1.464v-6.336h-1.464zm6.266.144c1.164 0 1.992-.468 2.592-1.188l-.852-.756c-.504.492-1.008.756-1.716.756-.936 0-1.668-.576-1.824-1.608h4.656c.012-.144.024-.276.024-.408 0-1.824-1.02-3.408-3.036-3.408-1.812 0-3.096 1.488-3.096 3.3v.024c0 1.956 1.416 3.288 3.252 3.288m-1.812-3.756c.132-.984.756-1.668 1.644-1.668.96 0 1.512.732 1.608 1.668zm7.369 3.66h1.296l1.428-4.332 1.416 4.332h1.308l2.076-6.384h-1.464l-1.296 4.344-1.404-4.368h-1.248l-1.404 4.368-1.272-4.344h-1.5z"/><ellipse cx="213.5" cy="122" fill="#efefef" stroke="#666" stroke-width="2" rx="15.5" ry="15"/><path fill="#666" d="M213.598 129.216c2.628 0 4.41-1.674 4.41-3.996v-.036c0-2.322-1.8-3.294-3.708-3.528l3.51-3.6V116.4h-8.334v1.926h5.454l-3.402 3.618.36 1.386h1.026c1.764 0 2.898.702 2.898 1.944v.036c0 1.152-.954 1.908-2.178 1.908-1.404 0-2.412-.594-3.312-1.656l-1.548 1.458c1.062 1.278 2.628 2.196 4.824 2.196M192.976 151h1.476v-2.928h1.848l2.064 2.928h1.752l-2.268-3.18c1.164-.336 1.992-1.164 1.992-2.544v-.024c0-.732-.252-1.356-.696-1.812-.54-.528-1.368-.84-2.424-.84h-3.744zm1.476-4.236v-2.82h2.148c1.092 0 1.74.492 1.74 1.392v.024c0 .852-.672 1.404-1.728 1.404zm9.815 4.38c1.164 0 1.992-.468 2.592-1.188l-.852-.756c-.504.492-1.008.756-1.716.756-.936 0-1.668-.576-1.824-1.608h4.656c.012-.144.024-.276.024-.408 0-1.824-1.02-3.408-3.036-3.408-1.812 0-3.096 1.488-3.096 3.3v.024c0 1.956 1.416 3.288 3.252 3.288m-1.812-3.756c.132-.984.756-1.668 1.644-1.668.96 0 1.512.732 1.608 1.668zm9.078 3.756c1.236 0 1.968-.492 2.592-1.188l-.876-.864c-.468.468-.96.78-1.644.78-1.116 0-1.896-.9-1.896-2.028v-.024c0-1.104.78-2.016 1.836-2.016.72 0 1.188.336 1.632.792l.912-.972c-.6-.648-1.344-1.092-2.532-1.092-1.908 0-3.3 1.512-3.3 3.312v.024c0 1.8 1.392 3.276 3.276 3.276m6.764 0c1.956 0 3.396-1.5 3.396-3.3v-.024c0-1.812-1.428-3.288-3.372-3.288s-3.384 1.5-3.384 3.312v.024c0 1.8 1.428 3.276 3.36 3.276m.024-1.272c-1.128 0-1.932-.924-1.932-2.028v-.024c0-1.104.744-2.016 1.908-2.016 1.14 0 1.944.924 1.944 2.04v.024c0 1.092-.744 2.004-1.92 2.004M223.16 151h1.464v-2.412c0-1.68.888-2.508 2.16-2.508h.084v-1.536c-1.116-.048-1.848.6-2.244 1.548v-1.428h-1.464zm7.421.132c1.032 0 1.692-.528 2.16-1.188V151h1.452v-8.76h-1.452v3.408c-.456-.6-1.116-1.116-2.16-1.116-1.512 0-2.94 1.188-2.94 3.288v.024c0 2.1 1.452 3.288 2.94 3.288m.348-1.26c-.984 0-1.824-.804-1.824-2.028v-.024c0-1.248.828-2.028 1.824-2.028.972 0 1.836.804 1.836 2.028v.024c0 1.212-.864 2.028-1.836 2.028"/><path stroke="#000" stroke-linecap="round" stroke-linejoin="bevel" stroke-width="2.5" d="M41 74H19m6.335-8-6.85 6.85a1.666 1.666 0 0 0 0 2.35l6.666 6.667"/><g filter="url(#f)"><g clip-path="url(#g)"><rect width="382" height="38" x="16" y="354" fill="#fff" rx="6"/><path fill="#fff" d="M49.5 354.5H392a5.5 5.5 0 0 1 5.5 5.5v26a5.5 5.5 0 0 1-5.5 5.5H49.5z"/><path stroke="#d1d5db" d="M49.5 354.5H392a5.5 5.5 0 0 1 5.5 5.5v26a5.5 5.5 0 0 1-5.5 5.5H49.5z"/><path fill="#7e8390" d="M63.17 378h1.599v-3.835h4.342V378h1.599v-9.1h-1.599v3.783h-4.342V368.9H63.17zm11.671.143c1.053 0 1.768-.442 2.236-1.001V378h1.534v-4.069c0-.897-.234-1.625-.741-2.119-.481-.494-1.248-.767-2.275-.767-1.092 0-1.833.221-2.6.559l.429 1.235c.624-.26 1.196-.429 1.963-.429 1.105 0 1.703.52 1.703 1.495v.169a5.7 5.7 0 0 0-1.846-.286c-1.677 0-2.847.728-2.847 2.21v.026c0 1.378 1.157 2.119 2.444 2.119m.442-1.144c-.754 0-1.339-.377-1.339-1.04v-.026c0-.715.598-1.144 1.612-1.144a4.4 4.4 0 0 1 1.56.273v.468c0 .871-.793 1.469-1.833 1.469m7.129 1.053h1.417l2.808-6.916h-1.651l-1.86 5.044-1.845-5.044h-1.69zm8.313.104c1.26 0 2.158-.507 2.808-1.287l-.923-.819c-.546.533-1.092.819-1.86.819-1.013 0-1.806-.624-1.975-1.742h5.044c.013-.156.026-.299.026-.442 0-1.976-1.105-3.692-3.29-3.692-1.962 0-3.353 1.612-3.353 3.575v.026c0 2.119 1.534 3.562 3.523 3.562m-1.963-4.069c.143-1.066.819-1.807 1.78-1.807 1.04 0 1.639.793 1.743 1.807zm10.547 5.993h1.586v-3.146c.481.637 1.196 1.209 2.34 1.209 1.625 0 3.185-1.287 3.185-3.562v-.026c0-2.288-1.573-3.562-3.185-3.562-1.118 0-1.833.572-2.34 1.287v-1.144h-1.586zm3.549-3.302c-1.066 0-2.002-.884-2.002-2.197v-.026c0-1.313.936-2.197 2.002-2.197 1.053 0 1.963.871 1.963 2.197v.026c0 1.352-.884 2.197-1.963 2.197m7.162 1.365c1.053 0 1.768-.442 2.236-1.001V378h1.534v-4.069c0-.897-.234-1.625-.741-2.119-.481-.494-1.248-.767-2.275-.767-1.092 0-1.833.221-2.6.559l.429 1.235c.624-.26 1.196-.429 1.963-.429 1.105 0 1.703.52 1.703 1.495v.169a5.7 5.7 0 0 0-1.846-.286c-1.677 0-2.847.728-2.847 2.21v.026c0 1.378 1.157 2.119 2.444 2.119m.442-1.144c-.754 0-1.339-.377-1.339-1.04v-.026c0-.715.598-1.144 1.612-1.144a4.4 4.4 0 0 1 1.56.273v.468c0 .871-.793 1.469-1.833 1.469m5.199 1.001h1.586v-2.613c0-1.82.962-2.717 2.34-2.717h.091v-1.664c-1.209-.052-2.002.65-2.431 1.677v-1.547h-1.586zm7.684.117c.598 0 1.027-.13 1.417-.351v-1.287a2.1 2.1 0 0 1-.975.234c-.533 0-.845-.247-.845-.858v-3.367h1.846v-1.352h-1.846v-1.885h-1.573v1.885h-.871v1.352h.871v3.614c0 1.508.819 2.015 1.976 2.015m3.069-8.034h1.69v-1.495h-1.69zm.052 7.917h1.586v-6.864h-1.586zm6.814.156c1.339 0 2.132-.533 2.808-1.287l-.949-.936c-.507.507-1.04.845-1.781.845-1.209 0-2.054-.975-2.054-2.197v-.026c0-1.196.845-2.184 1.989-2.184.78 0 1.287.364 1.768.858l.988-1.053c-.65-.702-1.456-1.183-2.743-1.183-2.067 0-3.575 1.638-3.575 3.588v.026c0 1.95 1.508 3.549 3.549 3.549m4.281-8.073h1.69v-1.495h-1.69zm.052 7.917h1.586v-6.864h-1.586zm3.629 2.08h1.586v-3.146c.481.637 1.196 1.209 2.34 1.209 1.625 0 3.185-1.287 3.185-3.562v-.026c0-2.288-1.573-3.562-3.185-3.562-1.118 0-1.833.572-2.34 1.287v-1.144h-1.586zm3.549-3.302c-1.066 0-2.002-.884-2.002-2.197v-.026c0-1.313.936-2.197 2.002-2.197 1.053 0 1.963.871 1.963 2.197v.026c0 1.352-.884 2.197-1.963 2.197m7.161 1.365c1.053 0 1.768-.442 2.236-1.001V378h1.534v-4.069c0-.897-.234-1.625-.741-2.119-.481-.494-1.248-.767-2.275-.767-1.092 0-1.833.221-2.6.559l.429 1.235c.624-.26 1.196-.429 1.963-.429 1.105 0 1.703.52 1.703 1.495v.169a5.7 5.7 0 0 0-1.846-.286c-1.677 0-2.847.728-2.847 2.21v.026c0 1.378 1.157 2.119 2.444 2.119m.442-1.144c-.754 0-1.339-.377-1.339-1.04v-.026c0-.715.598-1.144 1.612-1.144a4.4 4.4 0 0 1 1.56.273v.468c0 .871-.793 1.469-1.833 1.469m5.199 1.001h1.586v-3.874c0-1.066.637-1.703 1.547-1.703.936 0 1.469.611 1.469 1.677v3.9h1.573v-4.381c0-1.586-.897-2.626-2.444-2.626-1.066 0-1.703.559-2.145 1.196v-1.053h-1.586zm10.376.117c.598 0 1.027-.13 1.417-.351v-1.287a2.1 2.1 0 0 1-.975.234c-.533 0-.845-.247-.845-.858v-3.367h1.846v-1.352h-1.846v-1.885h-1.573v1.885h-.871v1.352h.871v3.614c0 1.508.819 2.015 1.976 2.015m6.928-.117h1.586v-2.613c0-1.82.962-2.717 2.34-2.717h.091v-1.664c-1.209-.052-2.002.65-2.431 1.677v-1.547h-1.586zm8.3.156c1.261 0 2.158-.507 2.808-1.287l-.923-.819c-.546.533-1.092.819-1.859.819-1.014 0-1.807-.624-1.976-1.742h5.044c.013-.156.026-.299.026-.442 0-1.976-1.105-3.692-3.289-3.692-1.963 0-3.354 1.612-3.354 3.575v.026c0 2.119 1.534 3.562 3.523 3.562m-1.963-4.069c.143-1.066.819-1.807 1.781-1.807 1.04 0 1.638.793 1.742 1.807zm8.639 4.056c1.053 0 1.768-.442 2.236-1.001V378h1.534v-4.069c0-.897-.234-1.625-.741-2.119-.481-.494-1.248-.767-2.275-.767-1.092 0-1.833.221-2.6.559l.429 1.235c.624-.26 1.196-.429 1.963-.429 1.105 0 1.703.52 1.703 1.495v.169a5.7 5.7 0 0 0-1.846-.286c-1.677 0-2.847.728-2.847 2.21v.026c0 1.378 1.157 2.119 2.444 2.119m.442-1.144c-.754 0-1.339-.377-1.339-1.04v-.026c0-.715.598-1.144 1.612-1.144a4.4 4.4 0 0 1 1.56.273v.468c0 .871-.793 1.469-1.833 1.469m8.046 1.144c1.118 0 1.833-.572 2.34-1.287V378h1.573v-9.49h-1.573v3.692c-.494-.65-1.209-1.209-2.34-1.209-1.638 0-3.185 1.287-3.185 3.562v.026c0 2.275 1.573 3.562 3.185 3.562m.377-1.365c-1.066 0-1.976-.871-1.976-2.197v-.026c0-1.352.897-2.197 1.976-2.197 1.053 0 1.989.871 1.989 2.197v.026c0 1.313-.936 2.197-1.989 2.197m8.475-.546-1.924-5.096h-1.69l2.86 6.877c-.26.585-.533.78-.975.78-.325 0-.637-.104-.923-.26l-.533 1.157c.481.273.975.429 1.625.429 1.105 0 1.716-.52 2.262-1.937l2.73-7.046h-1.638z"/><path fill="#fff" d="M22 354.5h27.5v37H22a5.5 5.5 0 0 1-5.5-5.5v-26a5.5 5.5 0 0 1 5.5-5.5"/><path stroke="#d1d5db" d="M22 354.5h27.5v37H22a5.5 5.5 0 0 1-5.5-5.5v-26a5.5 5.5 0 0 1 5.5-5.5Z"/><rect width="15" height="15" x="25.5" y="365.5" fill="#fff" rx="3.5"/><rect width="15" height="15" x="25.5" y="365.5" stroke="#d1d5db" rx="3.5"/></g></g><g filter="url(#h)"><g clip-path="url(#i)"><rect width="382" height="38" x="16" y="412" fill="#fff" rx="6"/><path fill="#fff" d="M49.5 412.5H392a5.5 5.5 0 0 1 5.5 5.5v26a5.5 5.5 0 0 1-5.5 5.5H49.5z"/><path stroke="#d1d5db" d="M49.5 412.5H392a5.5 5.5 0 0 1 5.5 5.5v26a5.5 5.5 0 0 1-5.5 5.5H49.5z"/><path fill="#7e8390" d="M66.355 436.13c1.911 0 3.25-1.014 3.25-2.717v-.026c0-1.508-.988-2.197-2.912-2.665-1.755-.416-2.171-.728-2.171-1.43v-.026c0-.598.546-1.079 1.482-1.079.832 0 1.651.325 2.47.936l.858-1.209c-.923-.741-1.976-1.144-3.302-1.144-1.807 0-3.107 1.079-3.107 2.639v.026c0 1.677 1.092 2.249 3.029 2.717 1.69.39 2.054.741 2.054 1.391v.026c0 .676-.624 1.144-1.612 1.144-1.118 0-2.002-.429-2.873-1.183l-.962 1.144a5.6 5.6 0 0 0 3.796 1.456m8.094.026c1.261 0 2.158-.507 2.808-1.287l-.923-.819c-.546.533-1.092.819-1.859.819-1.014 0-1.807-.624-1.976-1.742h5.044c.013-.156.026-.299.026-.442 0-1.976-1.105-3.692-3.289-3.692-1.963 0-3.354 1.612-3.354 3.575v.026c0 2.119 1.534 3.562 3.523 3.562m-1.963-4.069c.143-1.066.82-1.807 1.781-1.807 1.04 0 1.638.793 1.742 1.807zm8.964 4.03c.598 0 1.027-.13 1.417-.351v-1.287a2.1 2.1 0 0 1-.975.234c-.533 0-.845-.247-.845-.858v-3.367h1.846v-1.352h-1.846v-1.885h-1.573v1.885h-.87v1.352h.87v3.614c0 1.508.82 2.015 1.976 2.015m8.917.026c1.053 0 1.768-.442 2.236-1.001V436h1.534v-4.069c0-.897-.234-1.625-.74-2.119-.482-.494-1.249-.767-2.276-.767-1.092 0-1.833.221-2.6.559l.43 1.235c.623-.26 1.195-.429 1.962-.429 1.105 0 1.703.52 1.703 1.495v.169a5.7 5.7 0 0 0-1.846-.286c-1.677 0-2.847.728-2.847 2.21v.026c0 1.378 1.157 2.119 2.444 2.119m.442-1.144c-.754 0-1.339-.377-1.339-1.04v-.026c0-.715.598-1.144 1.612-1.144a4.4 4.4 0 0 1 1.56.273v.468c0 .871-.793 1.469-1.833 1.469m11.411 1.118c.598 0 1.027-.13 1.417-.351v-1.287a2.1 2.1 0 0 1-.975.234c-.533 0-.845-.247-.845-.858v-3.367h1.846v-1.352h-1.846v-1.885h-1.573v1.885h-.871v1.352h.871v3.614c0 1.508.819 2.015 1.976 2.015m3.069-8.034h1.69v-1.495h-1.69zm.052 7.917h1.586v-6.864h-1.586zm3.629 0h1.586v-3.874c0-1.053.598-1.703 1.469-1.703s1.391.598 1.391 1.664V436h1.573v-3.874c0-1.105.611-1.703 1.469-1.703.884 0 1.391.585 1.391 1.677v3.9h1.573v-4.381c0-1.677-.91-2.626-2.405-2.626-1.04 0-1.768.481-2.314 1.209-.364-.728-1.066-1.209-2.054-1.209-1.053 0-1.651.572-2.093 1.183v-1.04h-1.586zm15.499.156c1.261 0 2.158-.507 2.808-1.287l-.923-.819c-.546.533-1.092.819-1.859.819-1.014 0-1.807-.624-1.976-1.742h5.044c.013-.156.026-.299.026-.442 0-1.976-1.105-3.692-3.289-3.692-1.963 0-3.354 1.612-3.354 3.575v.026c0 2.119 1.534 3.562 3.523 3.562m-1.963-4.069c.143-1.066.819-1.807 1.781-1.807 1.04 0 1.638.793 1.742 1.807z"/><path fill="#fff" d="M22 412.5h27.5v37H22a5.5 5.5 0 0 1-5.5-5.5v-26a5.5 5.5 0 0 1 5.5-5.5"/><path stroke="#d1d5db" d="M22 412.5h27.5v37H22a5.5 5.5 0 0 1-5.5-5.5v-26a5.5 5.5 0 0 1 5.5-5.5Z"/><rect width="15" height="15" x="25.5" y="423.5" fill="#fff" rx="3.5"/><rect width="15" height="15" x="25.5" y="423.5" stroke="#d1d5db" rx="3.5"/></g></g><g filter="url(#j)"><g clip-path="url(#k)"><rect width="382" height="38" x="16" y="470" fill="#fff" rx="6"/><path fill="#fff" d="M49.5 470.5H392a5.5 5.5 0 0 1 5.5 5.5v26a5.5 5.5 0 0 1-5.5 5.5H49.5z"/><path stroke="#d1d5db" d="M49.5 470.5H392a5.5 5.5 0 0 1 5.5 5.5v26a5.5 5.5 0 0 1-5.5 5.5H49.5z"/><path fill="#7e8390" d="M65.393 494h1.599v-7.618h2.899V484.9h-7.397v1.482h2.899zm6.49.143c1.053 0 1.768-.442 2.236-1.001V494h1.534v-4.069c0-.897-.234-1.625-.741-2.119-.481-.494-1.248-.767-2.275-.767-1.092 0-1.833.221-2.6.559l.429 1.235c.624-.26 1.196-.429 1.963-.429 1.105 0 1.703.52 1.703 1.495v.169a5.7 5.7 0 0 0-1.846-.286c-1.677 0-2.847.728-2.847 2.21v.026c0 1.378 1.157 2.119 2.444 2.119m.442-1.144c-.754 0-1.34-.377-1.34-1.04v-.026c0-.715.599-1.144 1.613-1.144a4.4 4.4 0 0 1 1.56.273v.468c0 .871-.793 1.469-1.833 1.469m5.29 1.001H79.2v-9.49h-1.586zm3.629 0h1.586v-1.963l.975-1.014L85.833 494h1.846l-2.821-4.069 2.73-2.795h-1.911l-2.847 3.042v-5.668h-1.586zm13.777.117c.598 0 1.027-.13 1.417-.351v-1.287a2.1 2.1 0 0 1-.975.234c-.533 0-.845-.247-.845-.858v-3.367h1.846v-1.352h-1.846v-1.885h-1.573v1.885h-.87v1.352h.87v3.614c0 1.508.82 2.015 1.976 2.015m6.117.039c2.119 0 3.679-1.625 3.679-3.575v-.026c0-1.963-1.547-3.562-3.653-3.562s-3.666 1.625-3.666 3.588v.026c0 1.95 1.547 3.549 3.64 3.549m.026-1.378c-1.222 0-2.093-1.001-2.093-2.197v-.026c0-1.196.806-2.184 2.067-2.184 1.235 0 2.106 1.001 2.106 2.21v.026c0 1.183-.806 2.171-2.08 2.171m9.178-6.695h1.69v-1.495h-1.69zm.052 7.917h1.586v-6.864h-1.586zm3.629 0h1.586v-3.874c0-1.066.637-1.703 1.547-1.703.936 0 1.469.611 1.469 1.677v3.9h1.573v-4.381c0-1.586-.897-2.626-2.444-2.626-1.066 0-1.703.559-2.145 1.196v-1.053h-1.586zm10.375.117c.598 0 1.027-.13 1.417-.351v-1.287a2.1 2.1 0 0 1-.975.234c-.533 0-.845-.247-.845-.858v-3.367h1.846v-1.352h-1.846v-1.885h-1.573v1.885h-.871v1.352h.871v3.614c0 1.508.819 2.015 1.976 2.015m6 .039c1.261 0 2.158-.507 2.808-1.287l-.923-.819c-.546.533-1.092.819-1.859.819-1.014 0-1.807-.624-1.976-1.742h5.044c.013-.156.026-.299.026-.442 0-1.976-1.105-3.692-3.289-3.692-1.963 0-3.354 1.612-3.354 3.575v.026c0 2.119 1.534 3.562 3.523 3.562m-1.963-4.069c.143-1.066.819-1.807 1.781-1.807 1.04 0 1.638.793 1.742 1.807zm6.649 3.913h1.586v-2.613c0-1.82.962-2.717 2.34-2.717h.091v-1.664c-1.209-.052-2.002.65-2.431 1.677v-1.547h-1.586zm7.554.052h1.417l2.808-6.916h-1.651l-1.859 5.044-1.846-5.044h-1.69zm5.587-7.969h1.69v-1.495h-1.69zm.052 7.917h1.586v-6.864h-1.586zm6.788.156c1.261 0 2.158-.507 2.808-1.287l-.923-.819c-.546.533-1.092.819-1.859.819-1.014 0-1.807-.624-1.976-1.742h5.044c.013-.156.026-.299.026-.442 0-1.976-1.105-3.692-3.289-3.692-1.963 0-3.354 1.612-3.354 3.575v.026c0 2.119 1.534 3.562 3.523 3.562m-1.963-4.069c.143-1.066.819-1.807 1.781-1.807 1.04 0 1.638.793 1.742 1.807zm7.983 3.965h1.404l1.547-4.693 1.534 4.693h1.417l2.249-6.916h-1.586l-1.404 4.706-1.521-4.732h-1.352l-1.521 4.732-1.378-4.706h-1.625zm12.362.104c1.261 0 2.158-.507 2.808-1.287l-.923-.819c-.546.533-1.092.819-1.859.819-1.014 0-1.807-.624-1.976-1.742h5.044c.013-.156.026-.299.026-.442 0-1.976-1.105-3.692-3.289-3.692-1.963 0-3.354 1.612-3.354 3.575v.026c0 2.119 1.534 3.562 3.523 3.562m-1.963-4.069c.143-1.066.819-1.807 1.781-1.807 1.04 0 1.638.793 1.742 1.807zm9.809 4.069c1.261 0 2.158-.507 2.808-1.287l-.923-.819c-.546.533-1.092.819-1.859.819-1.014 0-1.807-.624-1.976-1.742h5.044c.013-.156.026-.299.026-.442 0-1.976-1.105-3.692-3.289-3.692-1.963 0-3.354 1.612-3.354 3.575v.026c0 2.119 1.534 3.562 3.523 3.562m-1.963-4.069c.143-1.066.819-1.807 1.781-1.807 1.04 0 1.638.793 1.742 1.807zm12.536 4.056c1.053 0 1.768-.442 2.236-1.001V494h1.534v-4.069c0-.897-.234-1.625-.741-2.119-.481-.494-1.248-.767-2.275-.767-1.092 0-1.833.221-2.6.559l.429 1.235c.624-.26 1.196-.429 1.963-.429 1.105 0 1.703.52 1.703 1.495v.169a5.7 5.7 0 0 0-1.846-.286c-1.677 0-2.847.728-2.847 2.21v.026c0 1.378 1.157 2.119 2.444 2.119m.442-1.144c-.754 0-1.339-.377-1.339-1.04v-.026c0-.715.598-1.144 1.612-1.144a4.4 4.4 0 0 1 1.56.273v.468c0 .871-.793 1.469-1.833 1.469m9.125 1.144c1.625 0 3.185-1.287 3.185-3.562v-.026c0-2.288-1.573-3.562-3.185-3.562-1.118 0-1.833.572-2.34 1.287v-3.77h-1.586V494h1.586v-1.066c.481.637 1.196 1.209 2.34 1.209m-.377-1.365c-1.066 0-2.002-.884-2.002-2.197v-.026c0-1.313.936-2.197 2.002-2.197 1.053 0 1.963.871 1.963 2.197v.026c0 1.352-.884 2.197-1.963 2.197m8.449 1.378c2.119 0 3.679-1.625 3.679-3.575v-.026c0-1.963-1.547-3.562-3.653-3.562s-3.666 1.625-3.666 3.588v.026c0 1.95 1.547 3.549 3.64 3.549m.026-1.378c-1.222 0-2.093-1.001-2.093-2.197v-.026c0-1.196.806-2.184 2.067-2.184 1.235 0 2.106 1.001 2.106 2.21v.026c0 1.183-.806 2.171-2.08 2.171m7.621 1.365c1.066 0 1.703-.559 2.145-1.209V494h1.586v-6.864h-1.586v3.874c0 1.066-.637 1.69-1.547 1.69-.936 0-1.469-.598-1.469-1.664v-3.9h-1.573v4.368c0 1.599.897 2.639 2.444 2.639m7.996-.026c.598 0 1.027-.13 1.417-.351v-1.287a2.1 2.1 0 0 1-.975.234c-.533 0-.845-.247-.845-.858v-3.367h1.846v-1.352h-1.846v-1.885h-1.573v1.885h-.871v1.352h.871v3.614c0 1.508.819 2.015 1.976 2.015m9.243 0c.598 0 1.027-.13 1.417-.351v-1.287a2.1 2.1 0 0 1-.975.234c-.533 0-.845-.247-.845-.858v-3.367h1.846v-1.352h-1.846v-1.885h-1.573v1.885h-.871v1.352h.871v3.614c0 1.508.819 2.015 1.976 2.015m3.03-.117h1.586v-3.874c0-1.066.637-1.703 1.547-1.703.936 0 1.469.611 1.469 1.677v3.9h1.573v-4.381c0-1.586-.897-2.626-2.444-2.626-1.066 0-1.703.559-2.145 1.196v-3.679h-1.586zm11.221.156c1.261 0 2.158-.507 2.808-1.287l-.923-.819c-.546.533-1.092.819-1.859.819-1.014 0-1.807-.624-1.976-1.742h5.044c.013-.156.026-.299.026-.442 0-1.976-1.105-3.692-3.289-3.692-1.963 0-3.354 1.612-3.354 3.575v.026c0 2.119 1.534 3.562 3.523 3.562m-1.963-4.069c.143-1.066.819-1.807 1.781-1.807 1.04 0 1.638.793 1.742 1.807zm10.547 5.993h1.586v-3.146c.481.637 1.196 1.209 2.34 1.209 1.625 0 3.185-1.287 3.185-3.562v-.026c0-2.288-1.573-3.562-3.185-3.562-1.118 0-1.833.572-2.34 1.287v-1.144h-1.586zm3.549-3.302c-1.066 0-2.002-.884-2.002-2.197v-.026c0-1.313.936-2.197 2.002-2.197 1.053 0 1.963.871 1.963 2.197v.026c0 1.352-.884 2.197-1.963 2.197m5.173 1.222h1.586v-2.613c0-1.82.962-2.717 2.34-2.717h.091v-1.664c-1.209-.052-2.002.65-2.431 1.677v-1.547h-1.586zm5.409-7.917h1.69v-1.495h-1.69zm.052 7.917h1.586v-6.864h-1.586zm5.813.052h1.417l2.808-6.916h-1.651l-1.859 5.044-1.846-5.044h-1.69zm7.206.091c1.053 0 1.768-.442 2.236-1.001V494h1.534v-4.069c0-.897-.234-1.625-.741-2.119-.481-.494-1.248-.767-2.275-.767-1.092 0-1.833.221-2.6.559l.429 1.235c.624-.26 1.196-.429 1.963-.429 1.105 0 1.703.52 1.703 1.495v.169a5.7 5.7 0 0 0-1.846-.286c-1.677 0-2.847.728-2.847 2.21v.026c0 1.378 1.157 2.119 2.444 2.119m.442-1.144c-.754 0-1.339-.377-1.339-1.04v-.026c0-.715.598-1.144 1.612-1.144a4.4 4.4 0 0 1 1.56.273v.468c0 .871-.793 1.469-1.833 1.469m8.384 1.157c1.339 0 2.132-.533 2.808-1.287l-.949-.936c-.507.507-1.04.845-1.781.845-1.209 0-2.054-.975-2.054-2.197v-.026c0-1.196.845-2.184 1.989-2.184.78 0 1.287.364 1.768.858l.988-1.053c-.65-.702-1.456-1.183-2.743-1.183-2.067 0-3.575 1.638-3.575 3.588v.026c0 1.95 1.508 3.549 3.549 3.549m7.155-1.924-1.924-5.096h-1.69l2.86 6.877c-.26.585-.533.78-.975.78-.325 0-.637-.104-.923-.26l-.533 1.157c.481.273.975.429 1.625.429 1.105 0 1.716-.52 2.262-1.937l2.73-7.046h-1.638zm11.031 1.898c1.43 0 2.548-.715 2.548-2.158v-.026c0-1.235-1.131-1.69-2.132-2.002-.806-.26-1.547-.468-1.547-.975v-.026c0-.377.351-.676.962-.676.572 0 1.274.247 1.937.65l.624-1.118c-.728-.481-1.664-.78-2.522-.78-1.365 0-2.444.793-2.444 2.106v.026c0 1.3 1.131 1.716 2.145 2.002.806.247 1.534.429 1.534.962v.026c0 .455-.39.741-1.066.741-.702 0-1.495-.286-2.249-.845l-.702 1.066a4.74 4.74 0 0 0 2.912 1.027m7.305.026c1.261 0 2.158-.507 2.808-1.287l-.923-.819c-.546.533-1.092.819-1.859.819-1.014 0-1.807-.624-1.976-1.742h5.044c.013-.156.026-.299.026-.442 0-1.976-1.105-3.692-3.289-3.692-1.963 0-3.354 1.612-3.354 3.575v.026c0 2.119 1.534 3.562 3.523 3.562m-1.963-4.069c.143-1.066.819-1.807 1.781-1.807 1.04 0 1.638.793 1.742 1.807zm8.964 4.03c.598 0 1.027-.13 1.417-.351v-1.287a2.1 2.1 0 0 1-.975.234c-.533 0-.845-.247-.845-.858v-3.367h1.846v-1.352h-1.846v-1.885h-1.573v1.885h-.871v1.352h.871v3.614c0 1.508.819 2.015 1.976 2.015m5.345 0c.598 0 1.027-.13 1.417-.351v-1.287a2.1 2.1 0 0 1-.975.234c-.533 0-.845-.247-.845-.858v-3.367h1.846v-1.352h-1.846v-1.885h-1.573v1.885h-.871v1.352h.871v3.614c0 1.508.819 2.015 1.976 2.015m3.069-8.034h1.69v-1.495h-1.69zm.052 7.917h1.586v-6.864h-1.586zm3.629 0h1.586v-3.874c0-1.066.637-1.703 1.547-1.703.936 0 1.469.611 1.469 1.677v3.9h1.573v-4.381c0-1.586-.897-2.626-2.444-2.626-1.066 0-1.703.559-2.145 1.196v-1.053h-1.586zm11.13 2.106c1.235 0 2.197-.299 2.821-.923.572-.572.871-1.43.871-2.587v-5.46h-1.573v1.027c-.533-.637-1.248-1.17-2.405-1.17-1.599 0-3.12 1.196-3.12 3.224v.026c0 2.015 1.495 3.211 3.12 3.211 1.131 0 1.846-.52 2.418-1.248v.52c0 1.378-.767 2.093-2.171 2.093-.936 0-1.703-.26-2.444-.715l-.585 1.183c.884.533 1.937.819 3.068.819m.13-3.991c-1.079 0-1.95-.767-1.95-1.885v-.026c0-1.131.858-1.872 1.95-1.872s2.015.754 2.015 1.872v.026c0 1.118-.923 1.885-2.015 1.885m7.889 2.015c1.43 0 2.548-.715 2.548-2.158v-.026c0-1.235-1.131-1.69-2.132-2.002-.806-.26-1.547-.468-1.547-.975v-.026c0-.377.351-.676.962-.676.572 0 1.274.247 1.937.65l.624-1.118c-.728-.481-1.664-.78-2.522-.78-1.365 0-2.444.793-2.444 2.106v.026c0 1.3 1.131 1.716 2.145 2.002.806.247 1.534.429 1.534.962v.026c0 .455-.39.741-1.066.741-.702 0-1.495-.286-2.249-.845l-.702 1.066a4.74 4.74 0 0 0 2.912 1.027"/><path fill="#fff" d="M22 470.5h27.5v37H22a5.5 5.5 0 0 1-5.5-5.5v-26a5.5 5.5 0 0 1 5.5-5.5"/><path stroke="#d1d5db" d="M22 470.5h27.5v37H22a5.5 5.5 0 0 1-5.5-5.5v-26a5.5 5.5 0 0 1 5.5-5.5Z"/><rect width="15" height="15" x="25.5" y="481.5" fill="#fff" rx="3.5"/><rect width="15" height="15" x="25.5" y="481.5" stroke="#d1d5db" rx="3.5"/></g></g><g filter="url(#l)"><g clip-path="url(#m)"><rect width="382" height="55" x="16" y="528" fill="#fff" rx="6"/><path fill="#fff" d="M49.5 528.5H392a5.5 5.5 0 0 1 5.5 5.5v43a5.5 5.5 0 0 1-5.5 5.5H49.5z"/><path stroke="#d1d5db" d="M49.5 528.5H392a5.5 5.5 0 0 1 5.5 5.5v43a5.5 5.5 0 0 1-5.5 5.5H49.5z"/><path fill="#7e8390" d="M67.395 550.656c1.703 0 2.743-.624 3.692-1.612l-1.027-1.04c-.78.728-1.495 1.17-2.613 1.17-1.742 0-3.003-1.443-3.003-3.224v-.026c0-1.781 1.274-3.198 2.99-3.198 1.053 0 1.82.442 2.561 1.118l1.027-1.183c-.871-.832-1.885-1.417-3.575-1.417-2.743 0-4.68 2.119-4.68 4.706v.026c0 2.613 1.963 4.68 4.628 4.68m7.18-.013c1.052 0 1.767-.442 2.235-1.001v.858h1.534v-4.069c0-.897-.234-1.625-.74-2.119-.482-.494-1.249-.767-2.276-.767-1.092 0-1.833.221-2.6.559l.43 1.235c.623-.26 1.195-.429 1.962-.429 1.105 0 1.703.52 1.703 1.495v.169a5.7 5.7 0 0 0-1.846-.286c-1.677 0-2.847.728-2.847 2.21v.026c0 1.378 1.157 2.119 2.444 2.119m.441-1.144c-.754 0-1.339-.377-1.339-1.04v-.026c0-.715.598-1.144 1.612-1.144a4.4 4.4 0 0 1 1.56.273v.468c0 .871-.793 1.469-1.833 1.469m5.2 1.001H81.8v-2.613c0-1.82.962-2.717 2.34-2.717h.091v-1.664c-1.209-.052-2.002.65-2.43 1.677v-1.547h-1.587zm5.37 2.08h1.585v-3.146c.481.637 1.196 1.209 2.34 1.209 1.625 0 3.185-1.287 3.185-3.562v-.026c0-2.288-1.573-3.562-3.185-3.562-1.118 0-1.833.572-2.34 1.287v-1.144h-1.586zm3.548-3.302c-1.066 0-2.002-.884-2.002-2.197v-.026c0-1.313.936-2.197 2.002-2.197 1.053 0 1.963.871 1.963 2.197v.026c0 1.352-.884 2.197-1.963 2.197m8.332 1.378c1.261 0 2.158-.507 2.808-1.287l-.923-.819c-.546.533-1.092.819-1.859.819-1.014 0-1.807-.624-1.976-1.742h5.044c.013-.156.026-.299.026-.442 0-1.976-1.105-3.692-3.289-3.692-1.963 0-3.354 1.612-3.354 3.575v.026c0 2.119 1.534 3.562 3.523 3.562m-1.963-4.069c.143-1.066.819-1.807 1.781-1.807 1.04 0 1.638.793 1.742 1.807zm8.964 4.03c.598 0 1.027-.13 1.417-.351v-1.287a2.1 2.1 0 0 1-.975.234c-.533 0-.845-.247-.845-.858v-3.367h1.846v-1.352h-1.846v-1.885h-1.573v1.885h-.871v1.352h.871v3.614c0 1.508.819 2.015 1.976 2.015m5.999.039c1.261 0 2.158-.507 2.808-1.287l-.923-.819c-.546.533-1.092.819-1.859.819-1.014 0-1.807-.624-1.976-1.742h5.044c.013-.156.026-.299.026-.442 0-1.976-1.105-3.692-3.289-3.692-1.963 0-3.354 1.612-3.354 3.575v.026c0 2.119 1.534 3.562 3.523 3.562m-1.963-4.069c.143-1.066.819-1.807 1.781-1.807 1.04 0 1.638.793 1.742 1.807zm9.497 4.056c1.118 0 1.833-.572 2.34-1.287v1.144h1.573v-9.49h-1.573v3.692c-.494-.65-1.209-1.209-2.34-1.209-1.638 0-3.185 1.287-3.185 3.562v.026c0 2.275 1.573 3.562 3.185 3.562m.377-1.365c-1.066 0-1.976-.871-1.976-2.197v-.026c0-1.352.897-2.197 1.976-2.197 1.053 0 1.989.871 1.989 2.197v.026c0 1.313-.936 2.197-1.989 2.197m9.759 1.222h1.573v-5.512h1.794v-1.3h-1.82v-.377c0-.702.312-1.04.91-1.04.338 0 .611.065.923.169v-1.326a4.2 4.2 0 0 0-1.287-.182c-.663 0-1.17.182-1.534.546s-.559.936-.559 1.69v.507h-.871v1.313h.871zm4.615 0h1.586v-9.49h-1.586zm6.904.156c2.119 0 3.679-1.625 3.679-3.575v-.026c0-1.963-1.547-3.562-3.653-3.562s-3.666 1.625-3.666 3.588v.026c0 1.95 1.547 3.549 3.64 3.549m.026-1.378c-1.222 0-2.093-1.001-2.093-2.197v-.026c0-1.196.806-2.184 2.067-2.184 1.235 0 2.106 1.001 2.106 2.21v.026c0 1.183-.806 2.171-2.08 2.171m8.518 1.378c2.119 0 3.679-1.625 3.679-3.575v-.026c0-1.963-1.547-3.562-3.653-3.562s-3.666 1.625-3.666 3.588v.026c0 1.95 1.547 3.549 3.64 3.549m.026-1.378c-1.222 0-2.093-1.001-2.093-2.197v-.026c0-1.196.806-2.184 2.067-2.184 1.235 0 2.106 1.001 2.106 2.21v.026c0 1.183-.806 2.171-2.08 2.171m5.242 1.222h1.586v-2.613c0-1.82.962-2.717 2.34-2.717h.091v-1.664c-1.209-.052-2.002.65-2.431 1.677v-1.547h-1.586zm12.544.156c2.119 0 3.679-1.625 3.679-3.575v-.026c0-1.963-1.547-3.562-3.653-3.562s-3.666 1.625-3.666 3.588v.026c0 1.95 1.547 3.549 3.64 3.549m.026-1.378c-1.222 0-2.093-1.001-2.093-2.197v-.026c0-1.196.806-2.184 2.067-2.184 1.235 0 2.106 1.001 2.106 2.21v.026c0 1.183-.806 2.171-2.08 2.171m5.242 1.222h1.586v-2.613c0-1.82.962-2.717 2.34-2.717h.091v-1.664c-1.209-.052-2.002.65-2.431 1.677v-1.547h-1.586zm12.114.143c1.118 0 1.833-.572 2.34-1.287v1.144h1.573v-9.49h-1.573v3.692c-.494-.65-1.209-1.209-2.34-1.209-1.638 0-3.185 1.287-3.185 3.562v.026c0 2.275 1.573 3.562 3.185 3.562m.377-1.365c-1.066 0-1.976-.871-1.976-2.197v-.026c0-1.352.897-2.197 1.976-2.197 1.053 0 1.989.871 1.989 2.197v.026c0 1.313-.936 2.197-1.989 2.197m5.498 1.222h1.586v-2.613c0-1.82.962-2.717 2.34-2.717h.091v-1.664c-1.209-.052-2.002.65-2.431 1.677v-1.547h-1.586zm8.418.156c2.119 0 3.679-1.625 3.679-3.575v-.026c0-1.963-1.547-3.562-3.653-3.562s-3.666 1.625-3.666 3.588v.026c0 1.95 1.547 3.549 3.64 3.549m.026-1.378c-1.222 0-2.093-1.001-2.093-2.197v-.026c0-1.196.806-2.184 2.067-2.184 1.235 0 2.106 1.001 2.106 2.21v.026c0 1.183-.806 2.171-2.08 2.171m5.242 3.302h1.586v-3.146c.481.637 1.196 1.209 2.34 1.209 1.625 0 3.185-1.287 3.185-3.562v-.026c0-2.288-1.573-3.562-3.185-3.562-1.118 0-1.833.572-2.34 1.287v-1.144h-1.586zm3.549-3.302c-1.066 0-2.002-.884-2.002-2.197v-.026c0-1.313.936-2.197 2.002-2.197 1.053 0 1.963.871 1.963 2.197v.026c0 1.352-.884 2.197-1.963 2.197m12.255 1.378c1.339 0 2.132-.533 2.808-1.287l-.949-.936c-.507.507-1.04.845-1.781.845-1.209 0-2.054-.975-2.054-2.197v-.026c0-1.196.845-2.184 1.989-2.184.78 0 1.287.364 1.768.858l.988-1.053c-.65-.702-1.456-1.183-2.743-1.183-2.067 0-3.575 1.638-3.575 3.588v.026c0 1.95 1.508 3.549 3.549 3.549m7.21 0c1.261 0 2.158-.507 2.808-1.287l-.923-.819c-.546.533-1.092.819-1.859.819-1.014 0-1.807-.624-1.976-1.742h5.044c.013-.156.026-.299.026-.442 0-1.976-1.105-3.692-3.289-3.692-1.963 0-3.354 1.612-3.354 3.575v.026c0 2.119 1.534 3.562 3.523 3.562m-1.963-4.069c.143-1.066.819-1.807 1.781-1.807 1.04 0 1.638.793 1.742 1.807zm6.689-4.004h1.69v-1.495h-1.69zm.052 7.917h1.586v-6.864h-1.586zm3.719 0h1.586v-9.49h-1.586zm3.668-7.917h1.69v-1.495h-1.69zm.052 7.917h1.586v-6.864h-1.586zm3.629 0h1.586v-3.874c0-1.066.637-1.703 1.547-1.703.936 0 1.469.611 1.469 1.677v3.9h1.573v-4.381c0-1.586-.897-2.626-2.444-2.626-1.066 0-1.703.559-2.145 1.196v-1.053h-1.586zm11.129 2.106c1.235 0 2.197-.299 2.821-.923.572-.572.871-1.43.871-2.587v-5.46h-1.573v1.027c-.533-.637-1.248-1.17-2.405-1.17-1.599 0-3.12 1.196-3.12 3.224v.026c0 2.015 1.495 3.211 3.12 3.211 1.131 0 1.846-.52 2.418-1.248v.52c0 1.378-.767 2.093-2.171 2.093-.936 0-1.703-.26-2.444-.715l-.585 1.183c.884.533 1.937.819 3.068.819m.13-3.991c-1.079 0-1.95-.767-1.95-1.885v-.026c0-1.131.858-1.872 1.95-1.872s2.015.754 2.015 1.872v.026c0 1.118-.923 1.885-2.015 1.885m7.89 2.015c1.43 0 2.548-.715 2.548-2.158v-.026c0-1.235-1.131-1.69-2.132-2.002-.806-.26-1.547-.468-1.547-.975v-.026c0-.377.351-.676.962-.676.572 0 1.274.247 1.937.65l.624-1.118c-.728-.481-1.664-.78-2.522-.78-1.365 0-2.444.793-2.444 2.106v.026c0 1.3 1.131 1.716 2.145 2.002.806.247 1.534.429 1.534.962v.026c0 .455-.39.741-1.066.741-.702 0-1.495-.286-2.249-.845l-.702 1.066a4.74 4.74 0 0 0 2.912 1.027m11.32.026c2.119 0 3.679-1.625 3.679-3.575v-.026c0-1.963-1.547-3.562-3.653-3.562s-3.666 1.625-3.666 3.588v.026c0 1.95 1.547 3.549 3.64 3.549m.026-1.378c-1.222 0-2.093-1.001-2.093-2.197v-.026c0-1.196.806-2.184 2.067-2.184 1.235 0 2.106 1.001 2.106 2.21v.026c0 1.183-.806 2.171-2.08 2.171m5.242 1.222h1.586v-2.613c0-1.82.962-2.717 2.34-2.717h.091v-1.664c-1.209-.052-2.002.65-2.431 1.677v-1.547h-1.586zm12.453.156c1.339 0 2.132-.533 2.808-1.287l-.949-.936c-.507.507-1.04.845-1.781.845-1.209 0-2.054-.975-2.054-2.197v-.026c0-1.196.845-2.184 1.989-2.184.78 0 1.287.364 1.768.858l.988-1.053c-.65-.702-1.456-1.183-2.743-1.183-2.067 0-3.575 1.638-3.575 3.588v.026c0 1.95 1.508 3.549 3.549 3.549m4.333-.156h1.586v-9.49h-1.586zm6.904.156c2.119 0 3.679-1.625 3.679-3.575v-.026c0-1.963-1.547-3.562-3.653-3.562s-3.666 1.625-3.666 3.588v.026c0 1.95 1.547 3.549 3.64 3.549m.026-1.378c-1.222 0-2.093-1.001-2.093-2.197v-.026c0-1.196.806-2.184 2.067-2.184 1.235 0 2.106 1.001 2.106 2.21v.026c0 1.183-.806 2.171-2.08 2.171m7.608 1.352c1.43 0 2.548-.715 2.548-2.158v-.026c0-1.235-1.131-1.69-2.132-2.002-.806-.26-1.547-.468-1.547-.975v-.026c0-.377.351-.676.962-.676.572 0 1.274.247 1.937.65l.624-1.118c-.728-.481-1.664-.78-2.522-.78-1.365 0-2.444.793-2.444 2.106v.026c0 1.3 1.131 1.716 2.145 2.002.806.247 1.534.429 1.534.962v.026c0 .455-.39.741-1.066.741-.702 0-1.495-.286-2.249-.845l-.702 1.066a4.74 4.74 0 0 0 2.912 1.027m7.306.026c1.261 0 2.158-.507 2.808-1.287l-.923-.819c-.546.533-1.092.819-1.859.819-1.014 0-1.807-.624-1.976-1.742h5.044c.013-.156.026-.299.026-.442 0-1.976-1.105-3.692-3.289-3.692-1.963 0-3.354 1.612-3.354 3.575v.026c0 2.119 1.534 3.562 3.523 3.562m-1.963-4.069c.143-1.066.819-1.807 1.781-1.807 1.04 0 1.638.793 1.742 1.807zm9.497 4.056c1.118 0 1.833-.572 2.34-1.287v1.144h1.573v-9.49h-1.573v3.692c-.494-.65-1.209-1.209-2.34-1.209-1.638 0-3.185 1.287-3.185 3.562v.026c0 2.275 1.573 3.562 3.185 3.562m.377-1.365c-1.066 0-1.976-.871-1.976-2.197v-.026c0-1.352.897-2.197 1.976-2.197 1.053 0 1.989.871 1.989 2.197v.026c0 1.313-.936 2.197-1.989 2.197M64.639 570.552h1.404l1.547-4.693 1.534 4.693h1.417l2.249-6.916h-1.586l-1.404 4.706-1.521-4.732h-1.352l-1.521 4.732-1.378-4.706h-1.625zm9.572-7.969h1.69v-1.495h-1.69zm.052 7.917h1.586v-6.864h-1.586zm3.629 0h1.586v-3.874c0-1.066.637-1.703 1.547-1.703.936 0 1.469.611 1.469 1.677v3.9h1.573v-4.381c0-1.586-.897-2.626-2.444-2.626-1.066 0-1.703.559-2.145 1.196v-1.053h-1.586zm10.909.143c1.117 0 1.832-.572 2.34-1.287v1.144h1.572v-9.49h-1.572v3.692c-.495-.65-1.21-1.209-2.34-1.209-1.639 0-3.186 1.287-3.186 3.562v.026c0 2.275 1.574 3.562 3.186 3.562m.376-1.365c-1.065 0-1.976-.871-1.976-2.197v-.026c0-1.352.898-2.197 1.977-2.197 1.053 0 1.989.871 1.989 2.197v.026c0 1.313-.936 2.197-1.99 2.197m8.774 1.378c2.119 0 3.679-1.625 3.679-3.575v-.026c0-1.963-1.547-3.562-3.653-3.562s-3.666 1.625-3.666 3.588v.026c0 1.95 1.547 3.549 3.64 3.549m.026-1.378c-1.222 0-2.093-1.001-2.093-2.197v-.026c0-1.196.806-2.184 2.067-2.184 1.235 0 2.106 1.001 2.106 2.21v.026c0 1.183-.806 2.171-2.08 2.171m6.576 1.274h1.404l1.547-4.693 1.534 4.693h1.417l2.249-6.916h-1.586l-1.404 4.706-1.521-4.732h-1.352l-1.521 4.732-1.378-4.706h-1.625zm11.709.078c1.43 0 2.548-.715 2.548-2.158v-.026c0-1.235-1.131-1.69-2.132-2.002-.806-.26-1.547-.468-1.547-.975v-.026c0-.377.351-.676.962-.676.572 0 1.274.247 1.937.65l.624-1.118c-.728-.481-1.664-.78-2.522-.78-1.365 0-2.444.793-2.444 2.106v.026c0 1.3 1.131 1.716 2.145 2.002.806.247 1.534.429 1.534.962v.026c0 .455-.39.741-1.066.741-.702 0-1.495-.286-2.249-.845l-.702 1.066a4.74 4.74 0 0 0 2.912 1.027m10.033.013c1.053 0 1.768-.442 2.236-1.001v.858h1.534v-4.069c0-.897-.234-1.625-.741-2.119-.481-.494-1.248-.767-2.275-.767-1.092 0-1.833.221-2.6.559l.429 1.235c.624-.26 1.196-.429 1.963-.429 1.105 0 1.703.52 1.703 1.495v.169a5.7 5.7 0 0 0-1.846-.286c-1.677 0-2.847.728-2.847 2.21v.026c0 1.378 1.157 2.119 2.444 2.119m.442-1.144c-.754 0-1.339-.377-1.339-1.04v-.026c0-.715.598-1.144 1.612-1.144a4.4 4.4 0 0 1 1.56.273v.468c0 .871-.793 1.469-1.833 1.469m5.199 1.001h1.586v-3.874c0-1.066.637-1.703 1.547-1.703.936 0 1.469.611 1.469 1.677v3.9h1.573v-4.381c0-1.586-.897-2.626-2.444-2.626-1.066 0-1.703.559-2.145 1.196v-1.053h-1.586zm10.908.143c1.118 0 1.833-.572 2.34-1.287v1.144h1.573v-9.49h-1.573v3.692c-.494-.65-1.209-1.209-2.34-1.209-1.638 0-3.185 1.287-3.185 3.562v.026c0 2.275 1.573 3.562 3.185 3.562m.377-1.365c-1.066 0-1.976-.871-1.976-2.197v-.026c0-1.352.897-2.197 1.976-2.197 1.053 0 1.989.871 1.989 2.197v.026c0 1.313-.936 2.197-1.989 2.197m9.396 1.222h1.586v-3.874c0-1.066.637-1.703 1.547-1.703.936 0 1.469.611 1.469 1.677v3.9h1.573v-4.381c0-1.586-.897-2.626-2.444-2.626-1.066 0-1.703.559-2.145 1.196v-3.679h-1.586zm11.22.156c1.261 0 2.158-.507 2.808-1.287l-.923-.819c-.546.533-1.092.819-1.859.819-1.014 0-1.807-.624-1.976-1.742h5.044c.013-.156.026-.299.026-.442 0-1.976-1.105-3.692-3.289-3.692-1.963 0-3.354 1.612-3.354 3.575v.026c0 2.119 1.534 3.562 3.523 3.562m-1.963-4.069c.143-1.066.819-1.807 1.781-1.807 1.04 0 1.638.793 1.742 1.807zm8.639 4.056c1.053 0 1.768-.442 2.236-1.001v.858h1.534v-4.069c0-.897-.234-1.625-.741-2.119-.481-.494-1.248-.767-2.275-.767-1.092 0-1.833.221-2.6.559l.429 1.235c.624-.26 1.196-.429 1.963-.429 1.105 0 1.703.52 1.703 1.495v.169a5.7 5.7 0 0 0-1.846-.286c-1.677 0-2.847.728-2.847 2.21v.026c0 1.378 1.157 2.119 2.444 2.119m.442-1.144c-.754 0-1.339-.377-1.339-1.04v-.026c0-.715.598-1.144 1.612-1.144a4.4 4.4 0 0 1 1.56.273v.468c0 .871-.793 1.469-1.833 1.469m7.129 1.053h1.417l2.808-6.916h-1.651l-1.859 5.044-1.846-5.044h-1.69zm8.334-1.82-1.924-5.096h-1.69l2.86 6.877c-.26.585-.533.78-.975.78-.325 0-.637-.104-.923-.26l-.533 1.157c.481.273.975.429 1.625.429 1.105 0 1.716-.52 2.262-1.937l2.73-7.046h-1.638zm11.511 1.911c1.118 0 1.833-.572 2.34-1.287v1.144h1.573v-9.49h-1.573v3.692c-.494-.65-1.209-1.209-2.34-1.209-1.638 0-3.185 1.287-3.185 3.562v.026c0 2.275 1.573 3.562 3.185 3.562m.377-1.365c-1.066 0-1.976-.871-1.976-2.197v-.026c0-1.352.897-2.197 1.976-2.197 1.053 0 1.989.871 1.989 2.197v.026c0 1.313-.936 2.197-1.989 2.197m5.498 1.222h1.586v-2.613c0-1.82.962-2.717 2.34-2.717h.091v-1.664c-1.209-.052-2.002.65-2.431 1.677v-1.547h-1.586zm7.029.143c1.053 0 1.768-.442 2.236-1.001v.858h1.534v-4.069c0-.897-.234-1.625-.741-2.119-.481-.494-1.248-.767-2.275-.767-1.092 0-1.833.221-2.6.559l.429 1.235c.624-.26 1.196-.429 1.963-.429 1.105 0 1.703.52 1.703 1.495v.169a5.7 5.7 0 0 0-1.846-.286c-1.677 0-2.847.728-2.847 2.21v.026c0 1.378 1.157 2.119 2.444 2.119m.442-1.144c-.754 0-1.339-.377-1.339-1.04v-.026c0-.715.598-1.144 1.612-1.144a4.4 4.4 0 0 1 1.56.273v.468c0 .871-.793 1.469-1.833 1.469m5.199 3.081h1.586v-3.146c.481.637 1.196 1.209 2.34 1.209 1.625 0 3.185-1.287 3.185-3.562v-.026c0-2.288-1.573-3.562-3.185-3.562-1.118 0-1.833.572-2.34 1.287v-1.144h-1.586zm3.549-3.302c-1.066 0-2.002-.884-2.002-2.197v-.026c0-1.313.936-2.197 2.002-2.197 1.053 0 1.963.871 1.963 2.197v.026c0 1.352-.884 2.197-1.963 2.197m8.332 1.378c1.261 0 2.158-.507 2.808-1.287l-.923-.819c-.546.533-1.092.819-1.859.819-1.014 0-1.807-.624-1.976-1.742h5.044c.013-.156.026-.299.026-.442 0-1.976-1.105-3.692-3.289-3.692-1.963 0-3.354 1.612-3.354 3.575v.026c0 2.119 1.534 3.562 3.523 3.562m-1.963-4.069c.143-1.066.819-1.807 1.781-1.807 1.04 0 1.638.793 1.742 1.807zm9.015 4.043c1.43 0 2.548-.715 2.548-2.158v-.026c0-1.235-1.131-1.69-2.132-2.002-.806-.26-1.547-.468-1.547-.975v-.026c0-.377.351-.676.962-.676.572 0 1.274.247 1.937.65l.624-1.118c-.728-.481-1.664-.78-2.522-.78-1.365 0-2.444.793-2.444 2.106v.026c0 1.3 1.131 1.716 2.145 2.002.806.247 1.534.429 1.534.962v.026c0 .455-.39.741-1.066.741-.702 0-1.495-.286-2.249-.845l-.702 1.066a4.74 4.74 0 0 0 2.912 1.027"/><path fill="#fff" d="M22 528.5h27.5v54H22a5.5 5.5 0 0 1-5.5-5.5v-43a5.5 5.5 0 0 1 5.5-5.5"/><path stroke="#d1d5db" d="M22 528.5h27.5v54H22a5.5 5.5 0 0 1-5.5-5.5v-43a5.5 5.5 0 0 1 5.5-5.5Z"/><rect width="15" height="15" x="25.5" y="548" fill="#fff" rx="3.5"/><rect width="15" height="15" x="25.5" y="548" stroke="#d1d5db" rx="3.5"/></g></g><g filter="url(#n)"><g clip-path="url(#o)"><rect width="382" height="55" x="16" y="719" fill="#fff" rx="6"/><path fill="#fff" d="M49.5 719.5H392a5.5 5.5 0 0 1 5.5 5.5v43a5.5 5.5 0 0 1-5.5 5.5H49.5z"/><path stroke="#d1d5db" d="M49.5 719.5H392a5.5 5.5 0 0 1 5.5 5.5v43a5.5 5.5 0 0 1-5.5 5.5H49.5z"/><path fill="#7e8390" d="M67.395 741.656c1.703 0 2.743-.624 3.692-1.612l-1.027-1.04c-.78.728-1.495 1.17-2.613 1.17-1.742 0-3.003-1.443-3.003-3.224v-.026c0-1.781 1.274-3.198 2.99-3.198 1.053 0 1.82.442 2.561 1.118l1.027-1.183c-.871-.832-1.885-1.417-3.575-1.417-2.743 0-4.68 2.119-4.68 4.706v.026c0 2.613 1.963 4.68 4.628 4.68m7.18-.013c1.052 0 1.767-.442 2.235-1.001v.858h1.534v-4.069c0-.897-.234-1.625-.74-2.119-.482-.494-1.249-.767-2.276-.767-1.092 0-1.833.221-2.6.559l.43 1.235c.623-.26 1.195-.429 1.962-.429 1.105 0 1.703.52 1.703 1.495v.169a5.7 5.7 0 0 0-1.846-.286c-1.677 0-2.847.728-2.847 2.21v.026c0 1.378 1.157 2.119 2.444 2.119m.441-1.144c-.754 0-1.339-.377-1.339-1.04v-.026c0-.715.598-1.144 1.612-1.144a4.4 4.4 0 0 1 1.56.273v.468c0 .871-.793 1.469-1.833 1.469m5.2 1.001H81.8v-2.613c0-1.82.962-2.717 2.34-2.717h.091v-1.664c-1.209-.052-2.002.65-2.43 1.677v-1.547h-1.587zm5.37 2.08h1.585v-3.146c.481.637 1.196 1.209 2.34 1.209 1.625 0 3.185-1.287 3.185-3.562v-.026c0-2.288-1.573-3.562-3.185-3.562-1.118 0-1.833.572-2.34 1.287v-1.144h-1.586zm3.548-3.302c-1.066 0-2.002-.884-2.002-2.197v-.026c0-1.313.936-2.197 2.002-2.197 1.053 0 1.963.871 1.963 2.197v.026c0 1.352-.884 2.197-1.963 2.197m8.332 1.378c1.261 0 2.158-.507 2.808-1.287l-.923-.819c-.546.533-1.092.819-1.859.819-1.014 0-1.807-.624-1.976-1.742h5.044c.013-.156.026-.299.026-.442 0-1.976-1.105-3.692-3.289-3.692-1.963 0-3.354 1.612-3.354 3.575v.026c0 2.119 1.534 3.562 3.523 3.562m-1.963-4.069c.143-1.066.819-1.807 1.781-1.807 1.04 0 1.638.793 1.742 1.807zm8.964 4.03c.598 0 1.027-.13 1.417-.351v-1.287a2.1 2.1 0 0 1-.975.234c-.533 0-.845-.247-.845-.858v-3.367h1.846v-1.352h-1.846v-1.885h-1.573v1.885h-.871v1.352h.871v3.614c0 1.508.819 2.015 1.976 2.015m5.999.039c1.261 0 2.158-.507 2.808-1.287l-.923-.819c-.546.533-1.092.819-1.859.819-1.014 0-1.807-.624-1.976-1.742h5.044c.013-.156.026-.299.026-.442 0-1.976-1.105-3.692-3.289-3.692-1.963 0-3.354 1.612-3.354 3.575v.026c0 2.119 1.534 3.562 3.523 3.562m-1.963-4.069c.143-1.066.819-1.807 1.781-1.807 1.04 0 1.638.793 1.742 1.807zm9.497 4.056c1.118 0 1.833-.572 2.34-1.287v1.144h1.573v-9.49h-1.573v3.692c-.494-.65-1.209-1.209-2.34-1.209-1.638 0-3.185 1.287-3.185 3.562v.026c0 2.275 1.573 3.562 3.185 3.562m.377-1.365c-1.066 0-1.976-.871-1.976-2.197v-.026c0-1.352.897-2.197 1.976-2.197 1.053 0 1.989.871 1.989 2.197v.026c0 1.313-.936 2.197-1.989 2.197m9.759 1.222h1.573v-5.512h1.794v-1.3h-1.82v-.377c0-.702.312-1.04.91-1.04.338 0 .611.065.923.169v-1.326a4.2 4.2 0 0 0-1.287-.182c-.663 0-1.17.182-1.534.546s-.559.936-.559 1.69v.507h-.871v1.313h.871zm4.615 0h1.586v-9.49h-1.586zm6.904.156c2.119 0 3.679-1.625 3.679-3.575v-.026c0-1.963-1.547-3.562-3.653-3.562s-3.666 1.625-3.666 3.588v.026c0 1.95 1.547 3.549 3.64 3.549m.026-1.378c-1.222 0-2.093-1.001-2.093-2.197v-.026c0-1.196.806-2.184 2.067-2.184 1.235 0 2.106 1.001 2.106 2.21v.026c0 1.183-.806 2.171-2.08 2.171m8.518 1.378c2.119 0 3.679-1.625 3.679-3.575v-.026c0-1.963-1.547-3.562-3.653-3.562s-3.666 1.625-3.666 3.588v.026c0 1.95 1.547 3.549 3.64 3.549m.026-1.378c-1.222 0-2.093-1.001-2.093-2.197v-.026c0-1.196.806-2.184 2.067-2.184 1.235 0 2.106 1.001 2.106 2.21v.026c0 1.183-.806 2.171-2.08 2.171m5.242 1.222h1.586v-2.613c0-1.82.962-2.717 2.34-2.717h.091v-1.664c-1.209-.052-2.002.65-2.431 1.677v-1.547h-1.586zm12.544.156c2.119 0 3.679-1.625 3.679-3.575v-.026c0-1.963-1.547-3.562-3.653-3.562s-3.666 1.625-3.666 3.588v.026c0 1.95 1.547 3.549 3.64 3.549m.026-1.378c-1.222 0-2.093-1.001-2.093-2.197v-.026c0-1.196.806-2.184 2.067-2.184 1.235 0 2.106 1.001 2.106 2.21v.026c0 1.183-.806 2.171-2.08 2.171m5.242 1.222h1.586v-2.613c0-1.82.962-2.717 2.34-2.717h.091v-1.664c-1.209-.052-2.002.65-2.431 1.677v-1.547h-1.586zm12.114.143c1.118 0 1.833-.572 2.34-1.287v1.144h1.573v-9.49h-1.573v3.692c-.494-.65-1.209-1.209-2.34-1.209-1.638 0-3.185 1.287-3.185 3.562v.026c0 2.275 1.573 3.562 3.185 3.562m.377-1.365c-1.066 0-1.976-.871-1.976-2.197v-.026c0-1.352.897-2.197 1.976-2.197 1.053 0 1.989.871 1.989 2.197v.026c0 1.313-.936 2.197-1.989 2.197m5.498 1.222h1.586v-2.613c0-1.82.962-2.717 2.34-2.717h.091v-1.664c-1.209-.052-2.002.65-2.431 1.677v-1.547h-1.586zm8.418.156c2.119 0 3.679-1.625 3.679-3.575v-.026c0-1.963-1.547-3.562-3.653-3.562s-3.666 1.625-3.666 3.588v.026c0 1.95 1.547 3.549 3.64 3.549m.026-1.378c-1.222 0-2.093-1.001-2.093-2.197v-.026c0-1.196.806-2.184 2.067-2.184 1.235 0 2.106 1.001 2.106 2.21v.026c0 1.183-.806 2.171-2.08 2.171m5.242 3.302h1.586v-3.146c.481.637 1.196 1.209 2.34 1.209 1.625 0 3.185-1.287 3.185-3.562v-.026c0-2.288-1.573-3.562-3.185-3.562-1.118 0-1.833.572-2.34 1.287v-1.144h-1.586zm3.549-3.302c-1.066 0-2.002-.884-2.002-2.197v-.026c0-1.313.936-2.197 2.002-2.197 1.053 0 1.963.871 1.963 2.197v.026c0 1.352-.884 2.197-1.963 2.197m12.255 1.378c1.339 0 2.132-.533 2.808-1.287l-.949-.936c-.507.507-1.04.845-1.781.845-1.209 0-2.054-.975-2.054-2.197v-.026c0-1.196.845-2.184 1.989-2.184.78 0 1.287.364 1.768.858l.988-1.053c-.65-.702-1.456-1.183-2.743-1.183-2.067 0-3.575 1.638-3.575 3.588v.026c0 1.95 1.508 3.549 3.549 3.549m7.21 0c1.261 0 2.158-.507 2.808-1.287l-.923-.819c-.546.533-1.092.819-1.859.819-1.014 0-1.807-.624-1.976-1.742h5.044c.013-.156.026-.299.026-.442 0-1.976-1.105-3.692-3.289-3.692-1.963 0-3.354 1.612-3.354 3.575v.026c0 2.119 1.534 3.562 3.523 3.562m-1.963-4.069c.143-1.066.819-1.807 1.781-1.807 1.04 0 1.638.793 1.742 1.807zm6.689-4.004h1.69v-1.495h-1.69zm.052 7.917h1.586v-6.864h-1.586zm3.719 0h1.586v-9.49h-1.586zm3.668-7.917h1.69v-1.495h-1.69zm.052 7.917h1.586v-6.864h-1.586zm3.629 0h1.586v-3.874c0-1.066.637-1.703 1.547-1.703.936 0 1.469.611 1.469 1.677v3.9h1.573v-4.381c0-1.586-.897-2.626-2.444-2.626-1.066 0-1.703.559-2.145 1.196v-1.053h-1.586zm11.129 2.106c1.235 0 2.197-.299 2.821-.923.572-.572.871-1.43.871-2.587v-5.46h-1.573v1.027c-.533-.637-1.248-1.17-2.405-1.17-1.599 0-3.12 1.196-3.12 3.224v.026c0 2.015 1.495 3.211 3.12 3.211 1.131 0 1.846-.52 2.418-1.248v.52c0 1.378-.767 2.093-2.171 2.093-.936 0-1.703-.26-2.444-.715l-.585 1.183c.884.533 1.937.819 3.068.819m.13-3.991c-1.079 0-1.95-.767-1.95-1.885v-.026c0-1.131.858-1.872 1.95-1.872s2.015.754 2.015 1.872v.026c0 1.118-.923 1.885-2.015 1.885m7.89 2.015c1.43 0 2.548-.715 2.548-2.158v-.026c0-1.235-1.131-1.69-2.132-2.002-.806-.26-1.547-.468-1.547-.975v-.026c0-.377.351-.676.962-.676.572 0 1.274.247 1.937.65l.624-1.118c-.728-.481-1.664-.78-2.522-.78-1.365 0-2.444.793-2.444 2.106v.026c0 1.3 1.131 1.716 2.145 2.002.806.247 1.534.429 1.534.962v.026c0 .455-.39.741-1.066.741-.702 0-1.495-.286-2.249-.845l-.702 1.066a4.74 4.74 0 0 0 2.912 1.027m11.32.026c2.119 0 3.679-1.625 3.679-3.575v-.026c0-1.963-1.547-3.562-3.653-3.562s-3.666 1.625-3.666 3.588v.026c0 1.95 1.547 3.549 3.64 3.549m.026-1.378c-1.222 0-2.093-1.001-2.093-2.197v-.026c0-1.196.806-2.184 2.067-2.184 1.235 0 2.106 1.001 2.106 2.21v.026c0 1.183-.806 2.171-2.08 2.171m5.242 1.222h1.586v-2.613c0-1.82.962-2.717 2.34-2.717h.091v-1.664c-1.209-.052-2.002.65-2.431 1.677v-1.547h-1.586zm12.453.156c1.339 0 2.132-.533 2.808-1.287l-.949-.936c-.507.507-1.04.845-1.781.845-1.209 0-2.054-.975-2.054-2.197v-.026c0-1.196.845-2.184 1.989-2.184.78 0 1.287.364 1.768.858l.988-1.053c-.65-.702-1.456-1.183-2.743-1.183-2.067 0-3.575 1.638-3.575 3.588v.026c0 1.95 1.508 3.549 3.549 3.549m4.333-.156h1.586v-9.49h-1.586zm6.904.156c2.119 0 3.679-1.625 3.679-3.575v-.026c0-1.963-1.547-3.562-3.653-3.562s-3.666 1.625-3.666 3.588v.026c0 1.95 1.547 3.549 3.64 3.549m.026-1.378c-1.222 0-2.093-1.001-2.093-2.197v-.026c0-1.196.806-2.184 2.067-2.184 1.235 0 2.106 1.001 2.106 2.21v.026c0 1.183-.806 2.171-2.08 2.171m7.608 1.352c1.43 0 2.548-.715 2.548-2.158v-.026c0-1.235-1.131-1.69-2.132-2.002-.806-.26-1.547-.468-1.547-.975v-.026c0-.377.351-.676.962-.676.572 0 1.274.247 1.937.65l.624-1.118c-.728-.481-1.664-.78-2.522-.78-1.365 0-2.444.793-2.444 2.106v.026c0 1.3 1.131 1.716 2.145 2.002.806.247 1.534.429 1.534.962v.026c0 .455-.39.741-1.066.741-.702 0-1.495-.286-2.249-.845l-.702 1.066a4.74 4.74 0 0 0 2.912 1.027m7.306.026c1.261 0 2.158-.507 2.808-1.287l-.923-.819c-.546.533-1.092.819-1.859.819-1.014 0-1.807-.624-1.976-1.742h5.044c.013-.156.026-.299.026-.442 0-1.976-1.105-3.692-3.289-3.692-1.963 0-3.354 1.612-3.354 3.575v.026c0 2.119 1.534 3.562 3.523 3.562m-1.963-4.069c.143-1.066.819-1.807 1.781-1.807 1.04 0 1.638.793 1.742 1.807zm9.497 4.056c1.118 0 1.833-.572 2.34-1.287v1.144h1.573v-9.49h-1.573v3.692c-.494-.65-1.209-1.209-2.34-1.209-1.638 0-3.185 1.287-3.185 3.562v.026c0 2.275 1.573 3.562 3.185 3.562m.377-1.365c-1.066 0-1.976-.871-1.976-2.197v-.026c0-1.352.897-2.197 1.976-2.197 1.053 0 1.989.871 1.989 2.197v.026c0 1.313-.936 2.197-1.989 2.197M64.639 761.552h1.404l1.547-4.693 1.534 4.693h1.417l2.249-6.916h-1.586l-1.404 4.706-1.521-4.732h-1.352l-1.521 4.732-1.378-4.706h-1.625zm9.572-7.969h1.69v-1.495h-1.69zm.052 7.917h1.586v-6.864h-1.586zm3.629 0h1.586v-3.874c0-1.066.637-1.703 1.547-1.703.936 0 1.469.611 1.469 1.677v3.9h1.573v-4.381c0-1.586-.897-2.626-2.444-2.626-1.066 0-1.703.559-2.145 1.196v-1.053h-1.586zm10.909.143c1.117 0 1.832-.572 2.34-1.287v1.144h1.572v-9.49h-1.572v3.692c-.495-.65-1.21-1.209-2.34-1.209-1.639 0-3.186 1.287-3.186 3.562v.026c0 2.275 1.574 3.562 3.186 3.562m.376-1.365c-1.065 0-1.976-.871-1.976-2.197v-.026c0-1.352.898-2.197 1.977-2.197 1.053 0 1.989.871 1.989 2.197v.026c0 1.313-.936 2.197-1.99 2.197m8.774 1.378c2.119 0 3.679-1.625 3.679-3.575v-.026c0-1.963-1.547-3.562-3.653-3.562s-3.666 1.625-3.666 3.588v.026c0 1.95 1.547 3.549 3.64 3.549m.026-1.378c-1.222 0-2.093-1.001-2.093-2.197v-.026c0-1.196.806-2.184 2.067-2.184 1.235 0 2.106 1.001 2.106 2.21v.026c0 1.183-.806 2.171-2.08 2.171m6.576 1.274h1.404l1.547-4.693 1.534 4.693h1.417l2.249-6.916h-1.586l-1.404 4.706-1.521-4.732h-1.352l-1.521 4.732-1.378-4.706h-1.625zm11.709.078c1.43 0 2.548-.715 2.548-2.158v-.026c0-1.235-1.131-1.69-2.132-2.002-.806-.26-1.547-.468-1.547-.975v-.026c0-.377.351-.676.962-.676.572 0 1.274.247 1.937.65l.624-1.118c-.728-.481-1.664-.78-2.522-.78-1.365 0-2.444.793-2.444 2.106v.026c0 1.3 1.131 1.716 2.145 2.002.806.247 1.534.429 1.534.962v.026c0 .455-.39.741-1.066.741-.702 0-1.495-.286-2.249-.845l-.702 1.066a4.74 4.74 0 0 0 2.912 1.027m10.033.013c1.053 0 1.768-.442 2.236-1.001v.858h1.534v-4.069c0-.897-.234-1.625-.741-2.119-.481-.494-1.248-.767-2.275-.767-1.092 0-1.833.221-2.6.559l.429 1.235c.624-.26 1.196-.429 1.963-.429 1.105 0 1.703.52 1.703 1.495v.169a5.7 5.7 0 0 0-1.846-.286c-1.677 0-2.847.728-2.847 2.21v.026c0 1.378 1.157 2.119 2.444 2.119m.442-1.144c-.754 0-1.339-.377-1.339-1.04v-.026c0-.715.598-1.144 1.612-1.144a4.4 4.4 0 0 1 1.56.273v.468c0 .871-.793 1.469-1.833 1.469m5.199 1.001h1.586v-3.874c0-1.066.637-1.703 1.547-1.703.936 0 1.469.611 1.469 1.677v3.9h1.573v-4.381c0-1.586-.897-2.626-2.444-2.626-1.066 0-1.703.559-2.145 1.196v-1.053h-1.586zm10.908.143c1.118 0 1.833-.572 2.34-1.287v1.144h1.573v-9.49h-1.573v3.692c-.494-.65-1.209-1.209-2.34-1.209-1.638 0-3.185 1.287-3.185 3.562v.026c0 2.275 1.573 3.562 3.185 3.562m.377-1.365c-1.066 0-1.976-.871-1.976-2.197v-.026c0-1.352.897-2.197 1.976-2.197 1.053 0 1.989.871 1.989 2.197v.026c0 1.313-.936 2.197-1.989 2.197m9.396 1.222h1.586v-3.874c0-1.066.637-1.703 1.547-1.703.936 0 1.469.611 1.469 1.677v3.9h1.573v-4.381c0-1.586-.897-2.626-2.444-2.626-1.066 0-1.703.559-2.145 1.196v-3.679h-1.586zm11.22.156c1.261 0 2.158-.507 2.808-1.287l-.923-.819c-.546.533-1.092.819-1.859.819-1.014 0-1.807-.624-1.976-1.742h5.044c.013-.156.026-.299.026-.442 0-1.976-1.105-3.692-3.289-3.692-1.963 0-3.354 1.612-3.354 3.575v.026c0 2.119 1.534 3.562 3.523 3.562m-1.963-4.069c.143-1.066.819-1.807 1.781-1.807 1.04 0 1.638.793 1.742 1.807zm8.639 4.056c1.053 0 1.768-.442 2.236-1.001v.858h1.534v-4.069c0-.897-.234-1.625-.741-2.119-.481-.494-1.248-.767-2.275-.767-1.092 0-1.833.221-2.6.559l.429 1.235c.624-.26 1.196-.429 1.963-.429 1.105 0 1.703.52 1.703 1.495v.169a5.7 5.7 0 0 0-1.846-.286c-1.677 0-2.847.728-2.847 2.21v.026c0 1.378 1.157 2.119 2.444 2.119m.442-1.144c-.754 0-1.339-.377-1.339-1.04v-.026c0-.715.598-1.144 1.612-1.144a4.4 4.4 0 0 1 1.56.273v.468c0 .871-.793 1.469-1.833 1.469m7.129 1.053h1.417l2.808-6.916h-1.651l-1.859 5.044-1.846-5.044h-1.69zm8.334-1.82-1.924-5.096h-1.69l2.86 6.877c-.26.585-.533.78-.975.78-.325 0-.637-.104-.923-.26l-.533 1.157c.481.273.975.429 1.625.429 1.105 0 1.716-.52 2.262-1.937l2.73-7.046h-1.638zm11.511 1.911c1.118 0 1.833-.572 2.34-1.287v1.144h1.573v-9.49h-1.573v3.692c-.494-.65-1.209-1.209-2.34-1.209-1.638 0-3.185 1.287-3.185 3.562v.026c0 2.275 1.573 3.562 3.185 3.562m.377-1.365c-1.066 0-1.976-.871-1.976-2.197v-.026c0-1.352.897-2.197 1.976-2.197 1.053 0 1.989.871 1.989 2.197v.026c0 1.313-.936 2.197-1.989 2.197m5.498 1.222h1.586v-2.613c0-1.82.962-2.717 2.34-2.717h.091v-1.664c-1.209-.052-2.002.65-2.431 1.677v-1.547h-1.586zm7.029.143c1.053 0 1.768-.442 2.236-1.001v.858h1.534v-4.069c0-.897-.234-1.625-.741-2.119-.481-.494-1.248-.767-2.275-.767-1.092 0-1.833.221-2.6.559l.429 1.235c.624-.26 1.196-.429 1.963-.429 1.105 0 1.703.52 1.703 1.495v.169a5.7 5.7 0 0 0-1.846-.286c-1.677 0-2.847.728-2.847 2.21v.026c0 1.378 1.157 2.119 2.444 2.119m.442-1.144c-.754 0-1.339-.377-1.339-1.04v-.026c0-.715.598-1.144 1.612-1.144a4.4 4.4 0 0 1 1.56.273v.468c0 .871-.793 1.469-1.833 1.469m5.199 3.081h1.586v-3.146c.481.637 1.196 1.209 2.34 1.209 1.625 0 3.185-1.287 3.185-3.562v-.026c0-2.288-1.573-3.562-3.185-3.562-1.118 0-1.833.572-2.34 1.287v-1.144h-1.586zm3.549-3.302c-1.066 0-2.002-.884-2.002-2.197v-.026c0-1.313.936-2.197 2.002-2.197 1.053 0 1.963.871 1.963 2.197v.026c0 1.352-.884 2.197-1.963 2.197m8.332 1.378c1.261 0 2.158-.507 2.808-1.287l-.923-.819c-.546.533-1.092.819-1.859.819-1.014 0-1.807-.624-1.976-1.742h5.044c.013-.156.026-.299.026-.442 0-1.976-1.105-3.692-3.289-3.692-1.963 0-3.354 1.612-3.354 3.575v.026c0 2.119 1.534 3.562 3.523 3.562m-1.963-4.069c.143-1.066.819-1.807 1.781-1.807 1.04 0 1.638.793 1.742 1.807zm9.015 4.043c1.43 0 2.548-.715 2.548-2.158v-.026c0-1.235-1.131-1.69-2.132-2.002-.806-.26-1.547-.468-1.547-.975v-.026c0-.377.351-.676.962-.676.572 0 1.274.247 1.937.65l.624-1.118c-.728-.481-1.664-.78-2.522-.78-1.365 0-2.444.793-2.444 2.106v.026c0 1.3 1.131 1.716 2.145 2.002.806.247 1.534.429 1.534.962v.026c0 .455-.39.741-1.066.741-.702 0-1.495-.286-2.249-.845l-.702 1.066a4.74 4.74 0 0 0 2.912 1.027"/><path fill="#fff" d="M22 719.5h27.5v54H22a5.5 5.5 0 0 1-5.5-5.5v-43a5.5 5.5 0 0 1 5.5-5.5"/><path stroke="#d1d5db" d="M22 719.5h27.5v54H22a5.5 5.5 0 0 1-5.5-5.5v-43a5.5 5.5 0 0 1 5.5-5.5Z"/><rect width="15" height="15" x="25.5" y="739" fill="#fff" rx="3.5"/><rect width="15" height="15" x="25.5" y="739" stroke="#d1d5db" rx="3.5"/></g></g><g filter="url(#p)"><g clip-path="url(#q)"><rect width="382" height="38" x="16" y="603" fill="#fff" rx="6"/><path fill="#fff" d="M49.5 603.5H392a5.5 5.5 0 0 1 5.5 5.5v26a5.5 5.5 0 0 1-5.5 5.5H49.5z"/><path stroke="#d1d5db" d="M49.5 603.5H392a5.5 5.5 0 0 1 5.5 5.5v26a5.5 5.5 0 0 1-5.5 5.5H49.5z"/><path fill="#7e8390" d="M66.355 627.13c1.911 0 3.25-1.014 3.25-2.717v-.026c0-1.508-.988-2.197-2.912-2.665-1.755-.416-2.171-.728-2.171-1.43v-.026c0-.598.546-1.079 1.482-1.079.832 0 1.651.325 2.47.936l.858-1.209c-.923-.741-1.976-1.144-3.302-1.144-1.807 0-3.107 1.079-3.107 2.639v.026c0 1.677 1.092 2.249 3.029 2.717 1.69.39 2.054.741 2.054 1.391v.026c0 .676-.624 1.144-1.612 1.144-1.118 0-2.002-.429-2.873-1.183l-.962 1.144a5.6 5.6 0 0 0 3.796 1.456m7.186-.013c.598 0 1.027-.13 1.417-.351v-1.287a2.1 2.1 0 0 1-.975.234c-.533 0-.845-.247-.845-.858v-3.367h1.846v-1.352h-1.846v-1.885h-1.573v1.885h-.871v1.352h.871v3.614c0 1.508.819 2.015 1.976 2.015m5.02.026c1.053 0 1.768-.442 2.236-1.001V627h1.534v-4.069c0-.897-.234-1.625-.741-2.119-.481-.494-1.248-.767-2.275-.767-1.092 0-1.833.221-2.6.559l.429 1.235c.624-.26 1.196-.429 1.963-.429 1.105 0 1.703.52 1.703 1.495v.169a5.7 5.7 0 0 0-1.846-.286c-1.677 0-2.847.728-2.847 2.21v.026c0 1.378 1.157 2.119 2.444 2.119m.442-1.144c-.754 0-1.34-.377-1.34-1.04v-.026c0-.715.599-1.144 1.613-1.144a4.4 4.4 0 0 1 1.56.273v.468c0 .871-.793 1.469-1.833 1.469m9.125 1.144c1.625 0 3.185-1.287 3.185-3.562v-.026c0-2.288-1.573-3.562-3.185-3.562-1.118 0-1.833.572-2.34 1.287v-3.77h-1.586V627h1.586v-1.066c.48.637 1.196 1.209 2.34 1.209m-.377-1.365c-1.066 0-2.002-.884-2.002-2.197v-.026c0-1.313.936-2.197 2.002-2.197 1.053 0 1.963.871 1.963 2.197v.026c0 1.352-.884 2.197-1.963 2.197M93.014 627H94.6v-9.49h-1.586zm6.788.156c1.261 0 2.158-.507 2.808-1.287l-.923-.819c-.546.533-1.092.819-1.859.819-1.014 0-1.807-.624-1.976-1.742h5.044c.013-.156.026-.299.026-.442 0-1.976-1.105-3.692-3.289-3.692-1.963 0-3.354 1.612-3.354 3.575v.026c0 2.119 1.534 3.562 3.523 3.562m-1.963-4.069c.143-1.066.819-1.807 1.781-1.807 1.04 0 1.638.793 1.742 1.807zm13.199 3.978h1.391l2.236-6.539 2.236 6.539h1.391l3.159-9.165h-1.677l-2.171 6.747-2.236-6.773h-1.352l-2.236 6.773-2.171-6.747h-1.729zm11.707-7.982h1.69v-1.495h-1.69zm.052 7.917h1.586v-6.864h-1.586zm3.993 0h1.573v-5.512h1.794v-1.3h-1.82v-.377c0-.702.312-1.04.91-1.04.338 0 .611.065.923.169v-1.326a4.2 4.2 0 0 0-1.287-.182c-.663 0-1.17.182-1.534.546s-.559.936-.559 1.69v.507h-.871v1.313h.871zm4.615 0h1.586v-6.864h-1.586zm-.052-7.917h1.69v-1.495h-1.69zm9.567 8.06c1.053 0 1.768-.442 2.236-1.001V627h1.534v-4.069c0-.897-.234-1.625-.741-2.119-.481-.494-1.248-.767-2.275-.767-1.092 0-1.833.221-2.6.559l.429 1.235c.624-.26 1.196-.429 1.963-.429 1.105 0 1.703.52 1.703 1.495v.169a5.7 5.7 0 0 0-1.846-.286c-1.677 0-2.847.728-2.847 2.21v.026c0 1.378 1.157 2.119 2.444 2.119m.442-1.144c-.754 0-1.339-.377-1.339-1.04v-.026c0-.715.598-1.144 1.612-1.144a4.4 4.4 0 0 1 1.56.273v.468c0 .871-.793 1.469-1.833 1.469m8.384 1.157c1.339 0 2.132-.533 2.808-1.287l-.949-.936c-.507.507-1.04.845-1.781.845-1.209 0-2.054-.975-2.054-2.197v-.026c0-1.196.845-2.184 1.989-2.184.78 0 1.287.364 1.768.858l.988-1.053c-.65-.702-1.456-1.183-2.743-1.183-2.067 0-3.575 1.638-3.575 3.588v.026c0 1.95 1.508 3.549 3.549 3.549m7.236 0c1.339 0 2.132-.533 2.808-1.287l-.949-.936c-.507.507-1.04.845-1.781.845-1.209 0-2.054-.975-2.054-2.197v-.026c0-1.196.845-2.184 1.989-2.184.78 0 1.287.364 1.768.858l.988-1.053c-.65-.702-1.456-1.183-2.743-1.183-2.067 0-3.575 1.638-3.575 3.588v.026c0 1.95 1.508 3.549 3.549 3.549m7.211 0c1.261 0 2.158-.507 2.808-1.287l-.923-.819c-.546.533-1.092.819-1.859.819-1.014 0-1.807-.624-1.976-1.742h5.044c.013-.156.026-.299.026-.442 0-1.976-1.105-3.692-3.289-3.692-1.963 0-3.354 1.612-3.354 3.575v.026c0 2.119 1.534 3.562 3.523 3.562m-1.963-4.069c.143-1.066.819-1.807 1.781-1.807 1.04 0 1.638.793 1.742 1.807zm9.015 4.043c1.43 0 2.548-.715 2.548-2.158v-.026c0-1.235-1.131-1.69-2.132-2.002-.806-.26-1.547-.468-1.547-.975v-.026c0-.377.351-.676.962-.676.572 0 1.274.247 1.937.65l.624-1.118c-.728-.481-1.664-.78-2.522-.78-1.365 0-2.444.793-2.444 2.106v.026c0 1.3 1.131 1.716 2.145 2.002.806.247 1.534.429 1.534.962v.026c0 .455-.39.741-1.066.741-.702 0-1.495-.286-2.249-.845l-.702 1.066a4.74 4.74 0 0 0 2.912 1.027m6.386 0c1.43 0 2.548-.715 2.548-2.158v-.026c0-1.235-1.131-1.69-2.132-2.002-.806-.26-1.547-.468-1.547-.975v-.026c0-.377.351-.676.962-.676.572 0 1.274.247 1.937.65l.624-1.118c-.728-.481-1.664-.78-2.522-.78-1.365 0-2.444.793-2.444 2.106v.026c0 1.3 1.131 1.716 2.145 2.002.806.247 1.534.429 1.534.962v.026c0 .455-.39.741-1.066.741-.702 0-1.495-.286-2.249-.845l-.702 1.066a4.74 4.74 0 0 0 2.912 1.027"/><path fill="#fff" d="M22 603.5h27.5v37H22a5.5 5.5 0 0 1-5.5-5.5v-26a5.5 5.5 0 0 1 5.5-5.5"/><path stroke="#d1d5db" d="M22 603.5h27.5v37H22a5.5 5.5 0 0 1-5.5-5.5v-26a5.5 5.5 0 0 1 5.5-5.5Z"/><rect width="15" height="15" x="25.5" y="614.5" fill="#fff" rx="3.5"/><rect width="15" height="15" x="25.5" y="614.5" stroke="#d1d5db" rx="3.5"/></g></g><g filter="url(#r)"><g clip-path="url(#s)"><rect width="382" height="38" x="16" y="661" fill="#fff" rx="6"/><path fill="#fff" d="M49.5 661.5H392a5.5 5.5 0 0 1 5.5 5.5v26a5.5 5.5 0 0 1-5.5 5.5H49.5z"/><path stroke="#d1d5db" d="M49.5 661.5H392a5.5 5.5 0 0 1 5.5 5.5v26a5.5 5.5 0 0 1-5.5 5.5H49.5z"/><path fill="#7e8390" d="M66.355 685.13c1.911 0 3.25-1.014 3.25-2.717v-.026c0-1.508-.988-2.197-2.912-2.665-1.755-.416-2.171-.728-2.171-1.43v-.026c0-.598.546-1.079 1.482-1.079.832 0 1.651.325 2.47.936l.858-1.209c-.923-.741-1.976-1.144-3.302-1.144-1.807 0-3.107 1.079-3.107 2.639v.026c0 1.677 1.092 2.249 3.029 2.717 1.69.39 2.054.741 2.054 1.391v.026c0 .676-.624 1.144-1.612 1.144-1.118 0-2.002-.429-2.873-1.183l-.962 1.144a5.6 5.6 0 0 0 3.796 1.456m7.186-.013c.598 0 1.027-.13 1.417-.351v-1.287a2.1 2.1 0 0 1-.975.234c-.533 0-.845-.247-.845-.858v-3.367h1.846v-1.352h-1.846v-1.885h-1.573v1.885h-.871v1.352h.871v3.614c0 1.508.819 2.015 1.976 2.015m5.02.026c1.053 0 1.768-.442 2.236-1.001V685h1.534v-4.069c0-.897-.234-1.625-.741-2.119-.481-.494-1.248-.767-2.275-.767-1.092 0-1.833.221-2.6.559l.429 1.235c.624-.26 1.196-.429 1.963-.429 1.105 0 1.703.52 1.703 1.495v.169a5.7 5.7 0 0 0-1.846-.286c-1.677 0-2.847.728-2.847 2.21v.026c0 1.378 1.157 2.119 2.444 2.119m.442-1.144c-.754 0-1.34-.377-1.34-1.04v-.026c0-.715.599-1.144 1.613-1.144a4.4 4.4 0 0 1 1.56.273v.468c0 .871-.793 1.469-1.833 1.469m9.125 1.144c1.625 0 3.185-1.287 3.185-3.562v-.026c0-2.288-1.573-3.562-3.185-3.562-1.118 0-1.833.572-2.34 1.287v-3.77h-1.586V685h1.586v-1.066c.48.637 1.196 1.209 2.34 1.209m-.377-1.365c-1.066 0-2.002-.884-2.002-2.197v-.026c0-1.313.936-2.197 2.002-2.197 1.053 0 1.963.871 1.963 2.197v.026c0 1.352-.884 2.197-1.963 2.197M93.014 685H94.6v-9.49h-1.586zm6.788.156c1.261 0 2.158-.507 2.808-1.287l-.923-.819c-.546.533-1.092.819-1.859.819-1.014 0-1.807-.624-1.976-1.742h5.044c.013-.156.026-.299.026-.442 0-1.976-1.105-3.692-3.289-3.692-1.963 0-3.354 1.612-3.354 3.575v.026c0 2.119 1.534 3.562 3.523 3.562m-1.963-4.069c.143-1.066.819-1.807 1.781-1.807 1.04 0 1.638.793 1.742 1.807zm13.199 3.978h1.391l2.236-6.539 2.236 6.539h1.391l3.159-9.165h-1.677l-2.171 6.747-2.236-6.773h-1.352l-2.236 6.773-2.171-6.747h-1.729zm11.707-7.982h1.69v-1.495h-1.69zm.052 7.917h1.586v-6.864h-1.586zm3.993 0h1.573v-5.512h1.794v-1.3h-1.82v-.377c0-.702.312-1.04.91-1.04.338 0 .611.065.923.169v-1.326a4.2 4.2 0 0 0-1.287-.182c-.663 0-1.17.182-1.534.546s-.559.936-.559 1.69v.507h-.871v1.313h.871zm4.615 0h1.586v-6.864h-1.586zm-.052-7.917h1.69v-1.495h-1.69zm9.567 8.06c1.053 0 1.768-.442 2.236-1.001V685h1.534v-4.069c0-.897-.234-1.625-.741-2.119-.481-.494-1.248-.767-2.275-.767-1.092 0-1.833.221-2.6.559l.429 1.235c.624-.26 1.196-.429 1.963-.429 1.105 0 1.703.52 1.703 1.495v.169a5.7 5.7 0 0 0-1.846-.286c-1.677 0-2.847.728-2.847 2.21v.026c0 1.378 1.157 2.119 2.444 2.119m.442-1.144c-.754 0-1.339-.377-1.339-1.04v-.026c0-.715.598-1.144 1.612-1.144a4.4 4.4 0 0 1 1.56.273v.468c0 .871-.793 1.469-1.833 1.469m8.384 1.157c1.339 0 2.132-.533 2.808-1.287l-.949-.936c-.507.507-1.04.845-1.781.845-1.209 0-2.054-.975-2.054-2.197v-.026c0-1.196.845-2.184 1.989-2.184.78 0 1.287.364 1.768.858l.988-1.053c-.65-.702-1.456-1.183-2.743-1.183-2.067 0-3.575 1.638-3.575 3.588v.026c0 1.95 1.508 3.549 3.549 3.549m7.236 0c1.339 0 2.132-.533 2.808-1.287l-.949-.936c-.507.507-1.04.845-1.781.845-1.209 0-2.054-.975-2.054-2.197v-.026c0-1.196.845-2.184 1.989-2.184.78 0 1.287.364 1.768.858l.988-1.053c-.65-.702-1.456-1.183-2.743-1.183-2.067 0-3.575 1.638-3.575 3.588v.026c0 1.95 1.508 3.549 3.549 3.549m7.211 0c1.261 0 2.158-.507 2.808-1.287l-.923-.819c-.546.533-1.092.819-1.859.819-1.014 0-1.807-.624-1.976-1.742h5.044c.013-.156.026-.299.026-.442 0-1.976-1.105-3.692-3.289-3.692-1.963 0-3.354 1.612-3.354 3.575v.026c0 2.119 1.534 3.562 3.523 3.562m-1.963-4.069c.143-1.066.819-1.807 1.781-1.807 1.04 0 1.638.793 1.742 1.807zm9.015 4.043c1.43 0 2.548-.715 2.548-2.158v-.026c0-1.235-1.131-1.69-2.132-2.002-.806-.26-1.547-.468-1.547-.975v-.026c0-.377.351-.676.962-.676.572 0 1.274.247 1.937.65l.624-1.118c-.728-.481-1.664-.78-2.522-.78-1.365 0-2.444.793-2.444 2.106v.026c0 1.3 1.131 1.716 2.145 2.002.806.247 1.534.429 1.534.962v.026c0 .455-.39.741-1.066.741-.702 0-1.495-.286-2.249-.845l-.702 1.066a4.74 4.74 0 0 0 2.912 1.027m6.386 0c1.43 0 2.548-.715 2.548-2.158v-.026c0-1.235-1.131-1.69-2.132-2.002-.806-.26-1.547-.468-1.547-.975v-.026c0-.377.351-.676.962-.676.572 0 1.274.247 1.937.65l.624-1.118c-.728-.481-1.664-.78-2.522-.78-1.365 0-2.444.793-2.444 2.106v.026c0 1.3 1.131 1.716 2.145 2.002.806.247 1.534.429 1.534.962v.026c0 .455-.39.741-1.066.741-.702 0-1.495-.286-2.249-.845l-.702 1.066a4.74 4.74 0 0 0 2.912 1.027"/><path fill="#fff" d="M22 661.5h27.5v37H22a5.5 5.5 0 0 1-5.5-5.5v-26a5.5 5.5 0 0 1 5.5-5.5"/><path stroke="#d1d5db" d="M22 661.5h27.5v37H22a5.5 5.5 0 0 1-5.5-5.5v-26a5.5 5.5 0 0 1 5.5-5.5Z"/><rect width="15" height="15" x="25.5" y="672.5" fill="#fff" rx="3.5"/><rect width="15" height="15" x="25.5" y="672.5" stroke="#d1d5db" rx="3.5"/></g></g><g filter="url(#t)"><g clip-path="url(#u)"><rect width="382" height="38" x="16" y="296" fill="#fff" rx="6"/><path fill="#fff" d="M49.5 296.5H392a5.5 5.5 0 0 1 5.5 5.5v26a5.5 5.5 0 0 1-5.5 5.5H49.5z"/><path stroke="#d1d5db" d="M49.5 296.5H392a5.5 5.5 0 0 1 5.5 5.5v26a5.5 5.5 0 0 1-5.5 5.5H49.5z"/><path fill="#7e8390" d="M66.355 320.13c1.911 0 3.25-1.014 3.25-2.717v-.026c0-1.508-.988-2.197-2.912-2.665-1.755-.416-2.171-.728-2.171-1.43v-.026c0-.598.546-1.079 1.482-1.079.832 0 1.651.325 2.47.936l.858-1.209c-.923-.741-1.976-1.144-3.302-1.144-1.807 0-3.107 1.079-3.107 2.639v.026c0 1.677 1.092 2.249 3.029 2.717 1.69.39 2.054.741 2.054 1.391v.026c0 .676-.624 1.144-1.612 1.144-1.118 0-2.002-.429-2.873-1.183l-.962 1.144a5.6 5.6 0 0 0 3.796 1.456m7.186-.013c.598 0 1.027-.13 1.417-.351v-1.287a2.1 2.1 0 0 1-.975.234c-.533 0-.845-.247-.845-.858v-3.367h1.846v-1.352h-1.846v-1.885h-1.573v1.885h-.871v1.352h.871v3.614c0 1.508.819 2.015 1.976 2.015m5.02.026c1.053 0 1.768-.442 2.236-1.001V320h1.534v-4.069c0-.897-.234-1.625-.741-2.119-.481-.494-1.248-.767-2.275-.767-1.092 0-1.833.221-2.6.559l.429 1.235c.624-.26 1.196-.429 1.963-.429 1.105 0 1.703.52 1.703 1.495v.169a5.7 5.7 0 0 0-1.846-.286c-1.677 0-2.847.728-2.847 2.21v.026c0 1.378 1.157 2.119 2.444 2.119m.442-1.144c-.754 0-1.34-.377-1.34-1.04v-.026c0-.715.599-1.144 1.613-1.144a4.4 4.4 0 0 1 1.56.273v.468c0 .871-.793 1.469-1.833 1.469m9.125 1.144c1.625 0 3.185-1.287 3.185-3.562v-.026c0-2.288-1.573-3.562-3.185-3.562-1.118 0-1.833.572-2.34 1.287v-3.77h-1.586V320h1.586v-1.066c.48.637 1.196 1.209 2.34 1.209m-.377-1.365c-1.066 0-2.002-.884-2.002-2.197v-.026c0-1.313.936-2.197 2.002-2.197 1.053 0 1.963.871 1.963 2.197v.026c0 1.352-.884 2.197-1.963 2.197M93.014 320H94.6v-9.49h-1.586zm6.788.156c1.261 0 2.158-.507 2.808-1.287l-.923-.819c-.546.533-1.092.819-1.859.819-1.014 0-1.807-.624-1.976-1.742h5.044c.013-.156.026-.299.026-.442 0-1.976-1.105-3.692-3.289-3.692-1.963 0-3.354 1.612-3.354 3.575v.026c0 2.119 1.534 3.562 3.523 3.562m-1.963-4.069c.143-1.066.819-1.807 1.781-1.807 1.04 0 1.638.793 1.742 1.807zm13.199 3.978h1.391l2.236-6.539 2.236 6.539h1.391l3.159-9.165h-1.677l-2.171 6.747-2.236-6.773h-1.352l-2.236 6.773-2.171-6.747h-1.729zm11.707-7.982h1.69v-1.495h-1.69zm.052 7.917h1.586v-6.864h-1.586zm3.993 0h1.573v-5.512h1.794v-1.3h-1.82v-.377c0-.702.312-1.04.91-1.04.338 0 .611.065.923.169v-1.326a4.2 4.2 0 0 0-1.287-.182c-.663 0-1.17.182-1.534.546s-.559.936-.559 1.69v.507h-.871v1.313h.871zm4.615 0h1.586v-6.864h-1.586zm-.052-7.917h1.69v-1.495h-1.69zm9.567 8.06c1.053 0 1.768-.442 2.236-1.001V320h1.534v-4.069c0-.897-.234-1.625-.741-2.119-.481-.494-1.248-.767-2.275-.767-1.092 0-1.833.221-2.6.559l.429 1.235c.624-.26 1.196-.429 1.963-.429 1.105 0 1.703.52 1.703 1.495v.169a5.7 5.7 0 0 0-1.846-.286c-1.677 0-2.847.728-2.847 2.21v.026c0 1.378 1.157 2.119 2.444 2.119m.442-1.144c-.754 0-1.339-.377-1.339-1.04v-.026c0-.715.598-1.144 1.612-1.144a4.4 4.4 0 0 1 1.56.273v.468c0 .871-.793 1.469-1.833 1.469m8.384 1.157c1.339 0 2.132-.533 2.808-1.287l-.949-.936c-.507.507-1.04.845-1.781.845-1.209 0-2.054-.975-2.054-2.197v-.026c0-1.196.845-2.184 1.989-2.184.78 0 1.287.364 1.768.858l.988-1.053c-.65-.702-1.456-1.183-2.743-1.183-2.067 0-3.575 1.638-3.575 3.588v.026c0 1.95 1.508 3.549 3.549 3.549m7.236 0c1.339 0 2.132-.533 2.808-1.287l-.949-.936c-.507.507-1.04.845-1.781.845-1.209 0-2.054-.975-2.054-2.197v-.026c0-1.196.845-2.184 1.989-2.184.78 0 1.287.364 1.768.858l.988-1.053c-.65-.702-1.456-1.183-2.743-1.183-2.067 0-3.575 1.638-3.575 3.588v.026c0 1.95 1.508 3.549 3.549 3.549m7.211 0c1.261 0 2.158-.507 2.808-1.287l-.923-.819c-.546.533-1.092.819-1.859.819-1.014 0-1.807-.624-1.976-1.742h5.044c.013-.156.026-.299.026-.442 0-1.976-1.105-3.692-3.289-3.692-1.963 0-3.354 1.612-3.354 3.575v.026c0 2.119 1.534 3.562 3.523 3.562m-1.963-4.069c.143-1.066.819-1.807 1.781-1.807 1.04 0 1.638.793 1.742 1.807zm9.015 4.043c1.43 0 2.548-.715 2.548-2.158v-.026c0-1.235-1.131-1.69-2.132-2.002-.806-.26-1.547-.468-1.547-.975v-.026c0-.377.351-.676.962-.676.572 0 1.274.247 1.937.65l.624-1.118c-.728-.481-1.664-.78-2.522-.78-1.365 0-2.444.793-2.444 2.106v.026c0 1.3 1.131 1.716 2.145 2.002.806.247 1.534.429 1.534.962v.026c0 .455-.39.741-1.066.741-.702 0-1.495-.286-2.249-.845l-.702 1.066a4.74 4.74 0 0 0 2.912 1.027m6.386 0c1.43 0 2.548-.715 2.548-2.158v-.026c0-1.235-1.131-1.69-2.132-2.002-.806-.26-1.547-.468-1.547-.975v-.026c0-.377.351-.676.962-.676.572 0 1.274.247 1.937.65l.624-1.118c-.728-.481-1.664-.78-2.522-.78-1.365 0-2.444.793-2.444 2.106v.026c0 1.3 1.131 1.716 2.145 2.002.806.247 1.534.429 1.534.962v.026c0 .455-.39.741-1.066.741-.702 0-1.495-.286-2.249-.845l-.702 1.066a4.74 4.74 0 0 0 2.912 1.027"/><path fill="#fff" d="M22 296.5h27.5v37H22a5.5 5.5 0 0 1-5.5-5.5v-26a5.5 5.5 0 0 1 5.5-5.5"/><path stroke="#d1d5db" d="M22 296.5h27.5v37H22a5.5 5.5 0 0 1-5.5-5.5v-26a5.5 5.5 0 0 1 5.5-5.5Z"/><rect width="15" height="15" x="25.5" y="307.5" fill="#fff" rx="3.5"/><rect width="15" height="15" x="25.5" y="307.5" stroke="#d1d5db" rx="3.5"/></g></g></g><defs><filter id="b" width="324" height="54" x="45" y="804" color-interpolation-filters="sRGB" filterUnits="userSpaceOnUse"><feFlood flood-opacity="0" result="BackgroundImageFix"/><feColorMatrix in="SourceAlpha" result="hardAlpha" values="0 0 0 0 0 0 0 0 0 0 0 0 0 0 0 0 0 0 127 0"/><feOffset dy="4"/><feGaussianBlur stdDeviation="2"/><feColorMatrix values="0 0 0 0 0 0 0 0 0 0 0 0 0 0 0 0 0 0 0.25 0"/><feBlend in2="BackgroundImageFix" result="effect1_dropShadow_1910_8454"/><feBlend in="SourceGraphic" in2="effect1_dropShadow_1910_8454" result="shape"/></filter><filter id="c" width="127" height="50" x="240" y="803" color-interpolation-filters="sRGB" filterUnits="userSpaceOnUse"><feFlood flood-opacity="0" result="BackgroundImageFix"/><feColorMatrix in="SourceAlpha" result="hardAlpha" values="0 0 0 0 0 0 0 0 0 0 0 0 0 0 0 0 0 0 127 0"/><feOffset dy="1"/><feGaussianBlur stdDeviation="1"/><feColorMatrix values="0 0 0 0 0 0 0 0 0 0 0 0 0 0 0 0 0 0 0.05 0"/><feBlend in2="BackgroundImageFix" result="effect1_dropShadow_1910_8454"/><feBlend in="SourceGraphic" in2="effect1_dropShadow_1910_8454" result="shape"/></filter><filter id="d" width="151" height="50" x="47" y="803" color-interpolation-filters="sRGB" filterUnits="userSpaceOnUse"><feFlood flood-opacity="0" result="BackgroundImageFix"/><feColorMatrix in="SourceAlpha" result="hardAlpha" values="0 0 0 0 0 0 0 0 0 0 0 0 0 0 0 0 0 0 127 0"/><feOffset dy="1"/><feGaussianBlur stdDeviation="1"/><feColorMatrix values="0 0 0 0 0 0 0 0 0 0 0 0 0 0 0 0 0 0 0.05 0"/><feBlend in2="BackgroundImageFix" result="effect1_dropShadow_1910_8454"/><feBlend in="SourceGraphic" in2="effect1_dropShadow_1910_8454" result="shape"/></filter><filter id="e" width="386" height="42" x="14" y="202" color-interpolation-filters="sRGB" filterUnits="userSpaceOnUse"><feFlood flood-opacity="0" result="BackgroundImageFix"/><feColorMatrix in="SourceAlpha" result="hardAlpha" values="0 0 0 0 0 0 0 0 0 0 0 0 0 0 0 0 0 0 127 0"/><feOffset dy="1"/><feGaussianBlur stdDeviation="1"/><feColorMatrix values="0 0 0 0 0 0 0 0 0 0 0 0 0 0 0 0 0 0 0.05 0"/><feBlend in2="BackgroundImageFix" result="effect1_dropShadow_1910_8454"/><feBlend in="SourceGraphic" in2="effect1_dropShadow_1910_8454" result="shape"/></filter><filter id="f" width="386" height="42" x="14" y="353" color-interpolation-filters="sRGB" filterUnits="userSpaceOnUse"><feFlood flood-opacity="0" result="BackgroundImageFix"/><feColorMatrix in="SourceAlpha" result="hardAlpha" values="0 0 0 0 0 0 0 0 0 0 0 0 0 0 0 0 0 0 127 0"/><feOffset dy="1"/><feGaussianBlur stdDeviation="1"/><feColorMatrix values="0 0 0 0 0 0 0 0 0 0 0 0 0 0 0 0 0 0 0.05 0"/><feBlend in2="BackgroundImageFix" result="effect1_dropShadow_1910_8454"/><feBlend in="SourceGraphic" in2="effect1_dropShadow_1910_8454" result="shape"/></filter><filter id="h" width="386" height="42" x="14" y="411" color-interpolation-filters="sRGB" filterUnits="userSpaceOnUse"><feFlood flood-opacity="0" result="BackgroundImageFix"/><feColorMatrix in="SourceAlpha" result="hardAlpha" values="0 0 0 0 0 0 0 0 0 0 0 0 0 0 0 0 0 0 127 0"/><feOffset dy="1"/><feGaussianBlur stdDeviation="1"/><feColorMatrix values="0 0 0 0 0 0 0 0 0 0 0 0 0 0 0 0 0 0 0.05 0"/><feBlend in2="BackgroundImageFix" result="effect1_dropShadow_1910_8454"/><feBlend in="SourceGraphic" in2="effect1_dropShadow_1910_8454" result="shape"/></filter><filter id="j" width="386" height="42" x="14" y="469" color-interpolation-filters="sRGB" filterUnits="userSpaceOnUse"><feFlood flood-opacity="0" result="BackgroundImageFix"/><feColorMatrix in="SourceAlpha" result="hardAlpha" values="0 0 0 0 0 0 0 0 0 0 0 0 0 0 0 0 0 0 127 0"/><feOffset dy="1"/><feGaussianBlur stdDeviation="1"/><feColorMatrix values="0 0 0 0 0 0 0 0 0 0 0 0 0 0 0 0 0 0 0.05 0"/><feBlend in2="BackgroundImageFix" result="effect1_dropShadow_1910_8454"/><feBlend in="SourceGraphic" in2="effect1_dropShadow_1910_8454" result="shape"/></filter><filter id="l" width="386" height="59" x="14" y="527" color-interpolation-filters="sRGB" filterUnits="userSpaceOnUse"><feFlood flood-opacity="0" result="BackgroundImageFix"/><feColorMatrix in="SourceAlpha" result="hardAlpha" values="0 0 0 0 0 0 0 0 0 0 0 0 0 0 0 0 0 0 127 0"/><feOffset dy="1"/><feGaussianBlur stdDeviation="1"/><feColorMatrix values="0 0 0 0 0 0 0 0 0 0 0 0 0 0 0 0 0 0 0.05 0"/><feBlend in2="BackgroundImageFix" result="effect1_dropShadow_1910_8454"/><feBlend in="SourceGraphic" in2="effect1_dropShadow_1910_8454" result="shape"/></filter><filter id="n" width="386" height="59" x="14" y="718" color-interpolation-filters="sRGB" filterUnits="userSpaceOnUse"><feFlood flood-opacity="0" result="BackgroundImageFix"/><feColorMatrix in="SourceAlpha" result="hardAlpha" values="0 0 0 0 0 0 0 0 0 0 0 0 0 0 0 0 0 0 127 0"/><feOffset dy="1"/><feGaussianBlur stdDeviation="1"/><feColorMatrix values="0 0 0 0 0 0 0 0 0 0 0 0 0 0 0 0 0 0 0.05 0"/><feBlend in2="BackgroundImageFix" result="effect1_dropShadow_1910_8454"/><feBlend in="SourceGraphic" in2="effect1_dropShadow_1910_8454" result="shape"/></filter><filter id="p" width="386" height="42" x="14" y="602" color-interpolation-filters="sRGB" filterUnits="userSpaceOnUse"><feFlood flood-opacity="0" result="BackgroundImageFix"/><feColorMatrix in="SourceAlpha" result="hardAlpha" values="0 0 0 0 0 0 0 0 0 0 0 0 0 0 0 0 0 0 127 0"/><feOffset dy="1"/><feGaussianBlur stdDeviation="1"/><feColorMatrix values="0 0 0 0 0 0 0 0 0 0 0 0 0 0 0 0 0 0 0.05 0"/><feBlend in2="BackgroundImageFix" result="effect1_dropShadow_1910_8454"/><feBlend in="SourceGraphic" in2="effect1_dropShadow_1910_8454" result="shape"/></filter><filter id="r" width="386" height="42" x="14" y="660" color-interpolation-filters="sRGB" filterUnits="userSpaceOnUse"><feFlood flood-opacity="0" result="BackgroundImageFix"/><feColorMatrix in="SourceAlpha" result="hardAlpha" values="0 0 0 0 0 0 0 0 0 0 0 0 0 0 0 0 0 0 127 0"/><feOffset dy="1"/><feGaussianBlur stdDeviation="1"/><feColorMatrix values="0 0 0 0 0 0 0 0 0 0 0 0 0 0 0 0 0 0 0.05 0"/><feBlend in2="BackgroundImageFix" result="effect1_dropShadow_1910_8454"/><feBlend in="SourceGraphic" in2="effect1_dropShadow_1910_8454" result="shape"/></filter><filter id="t" width="386" height="42" x="14" y="295" color-interpolation-filters="sRGB" filterUnits="userSpaceOnUse"><feFlood flood-opacity="0" result="BackgroundImageFix"/><feColorMatrix in="SourceAlpha" result="hardAlpha" values="0 0 0 0 0 0 0 0 0 0 0 0 0 0 0 0 0 0 127 0"/><feOffset dy="1"/><feGaussianBlur stdDeviation="1"/><feColorMatrix values="0 0 0 0 0 0 0 0 0 0 0 0 0 0 0 0 0 0 0.05 0"/><feBlend in2="BackgroundImageFix" result="effect1_dropShadow_1910_8454"/><feBlend in="SourceGraphic" in2="effect1_dropShadow_1910_8454" result="shape"/></filter><clipPath id="a"><path fill="#fff" d="M0 0h414v896H0z"/></clipPath><clipPath id="g"><rect width="382" height="38" x="16" y="354" fill="#fff" rx="6"/></clipPath><clipPath id="i"><rect width="382" height="38" x="16" y="412" fill="#fff" rx="6"/></clipPath><clipPath id="k"><rect width="382" height="38" x="16" y="470" fill="#fff" rx="6"/></clipPath><clipPath id="m"><rect width="382" height="55" x="16" y="528" fill="#fff" rx="6"/></clipPath><clipPath id="o"><rect width="382" height="55" x="16" y="719" fill="#fff" rx="6"/></clipPath><clipPath id="q"><rect width="382" height="38" x="16" y="603" fill="#fff" rx="6"/></clipPath><clipPath id="s"><rect width="382" height="38" x="16" y="661" fill="#fff" rx="6"/></clipPath><clipPath id="u"><rect width="382" height="38" x="16" y="296" fill="#fff" rx="6"/></clipPath></defs></svg>