<svg xmlns="http://www.w3.org/2000/svg" width="414" height="896" fill="none" viewBox="0 0 414 896"><g clip-path="url(#a)"><path fill="#fff" d="M0 0h414v896H0z"/><path fill="#000" d="M22.92 184h2.48v-5.58l5.56-8.42h-2.82l-3.96 6.18-3.9-6.18h-2.92l5.56 8.48zm12.73.24c3.26 0 5.66-2.5 5.66-5.5v-.04c0-3.02-2.38-5.48-5.62-5.48s-5.64 2.5-5.64 5.52v.04c0 3 2.38 5.46 5.6 5.46m.04-2.12c-1.88 0-3.22-1.54-3.22-3.38v-.04c0-1.84 1.24-3.36 3.18-3.36 1.9 0 3.24 1.54 3.24 3.4v.04c0 1.82-1.24 3.34-3.2 3.34m11.724 2.1c1.64 0 2.62-.86 3.3-1.86V184h2.44v-10.56h-2.44v5.96c0 1.64-.98 2.6-2.38 2.6-1.44 0-2.26-.92-2.26-2.56v-6h-2.42v6.72c0 2.46 1.38 4.06 3.76 4.06m8.742-.22h2.44v-4.02c0-2.8 1.48-4.18 3.6-4.18h.14v-2.56c-1.86-.08-3.08 1-3.74 2.58v-2.38h-2.44zm22.238 3.2h2.42v-13.76h-2.42v1.64c-.76-1-1.86-1.86-3.6-1.86-2.52 0-4.9 1.98-4.9 5.48v.04c0 3.5 2.42 5.48 4.9 5.48 1.72 0 2.82-.88 3.6-1.98zm-3.02-5.08c-1.64 0-3.04-1.34-3.04-3.38v-.04c0-2.08 1.38-3.38 3.04-3.38 1.62 0 3.06 1.34 3.06 3.38v.04c0 2.02-1.44 3.38-3.06 3.38m12.118 2.1c1.64 0 2.62-.86 3.3-1.86V184h2.44v-10.56h-2.44v5.96c0 1.64-.98 2.6-2.38 2.6-1.44 0-2.26-.92-2.26-2.56v-6h-2.42v6.72c0 2.46 1.38 4.06 3.76 4.06m13.602.02c1.94 0 3.32-.78 4.32-1.98l-1.42-1.26c-.84.82-1.68 1.26-2.86 1.26-1.56 0-2.78-.96-3.04-2.68h7.76c.02-.24.04-.46.04-.68 0-3.04-1.7-5.68-5.06-5.68-3.02 0-5.16 2.48-5.16 5.5v.04c0 3.26 2.36 5.48 5.42 5.48m-3.02-6.26c.22-1.64 1.26-2.78 2.74-2.78 1.6 0 2.52 1.22 2.68 2.78zm13.871 6.22c2.2 0 3.92-1.1 3.92-3.32v-.04c0-1.9-1.74-2.6-3.28-3.08-1.24-.4-2.38-.72-2.38-1.5v-.04c0-.58.54-1.04 1.48-1.04.88 0 1.96.38 2.98 1l.96-1.72c-1.12-.74-2.56-1.2-3.88-1.2-2.1 0-3.76 1.22-3.76 3.24v.04c0 2 1.74 2.64 3.3 3.08 1.24.38 2.36.66 2.36 1.48v.04c0 .7-.6 1.14-1.64 1.14-1.08 0-2.3-.44-3.46-1.3l-1.08 1.64a7.3 7.3 0 0 0 4.48 1.58m9.744-.02c.92 0 1.58-.2 2.18-.54v-1.98c-.48.24-.96.36-1.5.36-.82 0-1.3-.38-1.3-1.32v-5.18h2.84v-2.08h-2.84v-2.9h-2.42v2.9h-1.34v2.08h1.34v5.56c0 2.32 1.26 3.1 3.04 3.1m4.723-12.36h2.6v-2.3h-2.6zm.08 12.18h2.44v-10.56h-2.44zm10.622.24c3.26 0 5.66-2.5 5.66-5.5v-.04c0-3.02-2.38-5.48-5.62-5.48s-5.64 2.5-5.64 5.52v.04c0 3 2.38 5.46 5.6 5.46m.04-2.12c-1.88 0-3.22-1.54-3.22-3.38v-.04c0-1.84 1.24-3.36 3.18-3.36 1.9 0 3.24 1.54 3.24 3.4v.04c0 1.82-1.24 3.34-3.2 3.34m8.065 1.88h2.44v-5.96c0-1.64.98-2.62 2.38-2.62 1.44 0 2.26.94 2.26 2.58v6h2.42v-6.74c0-2.44-1.38-4.04-3.76-4.04-1.64 0-2.62.86-3.3 1.84v-1.62h-2.44zm16.042.2c2.2 0 3.92-1.1 3.92-3.32v-.04c0-1.9-1.74-2.6-3.28-3.08-1.24-.4-2.38-.72-2.38-1.5v-.04c0-.58.54-1.04 1.48-1.04.88 0 1.96.38 2.98 1l.96-1.72c-1.12-.74-2.56-1.2-3.88-1.2-2.1 0-3.76 1.22-3.76 3.24v.04c0 2 1.74 2.64 3.3 3.08 1.24.38 2.36.66 2.36 1.48v.04c0 .7-.6 1.14-1.64 1.14-1.08 0-2.3-.44-3.46-1.3l-1.08 1.64a7.3 7.3 0 0 0 4.48 1.58"/><g filter="url(#b)"><circle cx="207" cy="639" r="64" fill="#de1639"/><g stroke="#fff" stroke-miterlimit="10" stroke-width="6" clip-path="url(#c)"><path d="M189.467 639.799c0 9.171 8.119 16.558 18.082 16.34 9.61-.219 17.141-7.788 17.141-16.704v-27.839c0-8.624-7.021-15.975-16.278-16.63-10.355-.692-18.945 6.878-18.945 16.303z"/><path stroke-linecap="round" d="M241.477 637.652c0 18.778-15.454 33.989-34.478 33.989-19.023 0-34.478-15.211-34.478-33.989m34.518 47.746v-13.755"/></g></g><path fill="#000" d="M150.409 764.264c4.048 0 6.732-3.564 6.732-7.964v-.044c0-4.4-2.662-7.92-6.688-7.92-4.048 0-6.732 3.564-6.732 7.964v.044c0 4.4 2.64 7.92 6.688 7.92m.044-2.442c-2.398 0-3.938-2.486-3.938-5.522v-.044c0-3.036 1.518-5.478 3.894-5.478s3.938 2.486 3.938 5.522v.044c0 3.014-1.496 5.478-3.894 5.478m9.54-6.424h2.926v-3.014h-2.926zm0 8.602h2.926v-3.036h-2.926zm12.48.264c4.048 0 6.732-3.564 6.732-7.964v-.044c0-4.4-2.662-7.92-6.688-7.92-4.048 0-6.732 3.564-6.732 7.964v.044c0 4.4 2.64 7.92 6.688 7.92m.044-2.442c-2.398 0-3.938-2.486-3.938-5.522v-.044c0-3.036 1.518-5.478 3.894-5.478s3.938 2.486 3.938 5.522v.044c0 3.014-1.496 5.478-3.894 5.478m15.876 2.442c4.048 0 6.732-3.564 6.732-7.964v-.044c0-4.4-2.662-7.92-6.688-7.92-4.048 0-6.732 3.564-6.732 7.964v.044c0 4.4 2.64 7.92 6.688 7.92m.044-2.442c-2.398 0-3.938-2.486-3.938-5.522v-.044c0-3.036 1.518-5.478 3.894-5.478s3.938 2.486 3.938 5.522v.044c0 3.014-1.496 5.478-3.894 5.478m17.104 4.994h2.134v-20.372h-2.134zM225.91 764h2.596v-3.454h2.2v-2.222h-2.2v-9.834h-2.31l-8.558 10.12.506 1.936h7.766zm-5.06-5.676 5.06-6.094v6.094zm17.68 5.94c3.41 0 5.72-2.068 5.72-5.214v-.044c0-3.256-2.376-4.84-5.368-4.84-1.034 0-1.716.176-2.442.44l.242-3.586h6.886v-2.42h-9.218l-.44 7.546 1.628 1.078c.792-.374 1.738-.682 2.838-.682 1.87 0 3.19.99 3.19 2.552v.044c0 1.606-1.21 2.662-3.058 2.662-1.43 0-2.728-.704-3.96-1.848l-1.672 1.958c1.452 1.408 3.3 2.354 5.654 2.354m8.625-8.866h2.926v-3.014h-2.926zm0 8.602h2.926v-3.036h-2.926zm12.48.264c4.048 0 6.732-3.564 6.732-7.964v-.044c0-4.4-2.662-7.92-6.688-7.92-4.048 0-6.732 3.564-6.732 7.964v.044c0 4.4 2.64 7.92 6.688 7.92m.044-2.442c-2.398 0-3.938-2.486-3.938-5.522v-.044c0-3.036 1.518-5.478 3.894-5.478s3.938 2.486 3.938 5.522v.044c0 3.014-1.496 5.478-3.894 5.478m15.876 2.442c4.048 0 6.732-3.564 6.732-7.964v-.044c0-4.4-2.662-7.92-6.688-7.92-4.048 0-6.732 3.564-6.732 7.964v.044c0 4.4 2.64 7.92 6.688 7.92m.044-2.442c-2.398 0-3.938-2.486-3.938-5.522v-.044c0-3.036 1.518-5.478 3.894-5.478s3.938 2.486 3.938 5.522v.044c0 3.014-1.496 5.478-3.894 5.478"/><path fill="#6b6b6b" d="M173.294 726h2.46v-4.88h3.08l3.44 4.88h2.92l-3.78-5.3c1.94-.56 3.32-1.94 3.32-4.24v-.04c0-1.22-.42-2.26-1.16-3.02-.9-.88-2.28-1.4-4.04-1.4h-6.24zm2.46-7.06v-4.7h3.58c1.82 0 2.9.82 2.9 2.32v.04c0 1.42-1.12 2.34-2.88 2.34zm16.358 7.3c1.94 0 3.32-.78 4.32-1.98l-1.42-1.26c-.84.82-1.68 1.26-2.86 1.26-1.56 0-2.78-.96-3.04-2.68h7.76c.02-.24.04-.46.04-.68 0-3.04-1.7-5.68-5.06-5.68-3.02 0-5.16 2.48-5.16 5.5v.04c0 3.26 2.36 5.48 5.42 5.48m-3.02-6.26c.22-1.64 1.26-2.78 2.74-2.78 1.6 0 2.52 1.22 2.68 2.78zm15.13 6.26c2.06 0 3.28-.82 4.32-1.98l-1.46-1.44c-.78.78-1.6 1.3-2.74 1.3-1.86 0-3.16-1.5-3.16-3.38v-.04c0-1.84 1.3-3.36 3.06-3.36 1.2 0 1.98.56 2.72 1.32l1.52-1.62c-1-1.08-2.24-1.82-4.22-1.82-3.18 0-5.5 2.52-5.5 5.52v.04c0 3 2.32 5.46 5.46 5.46m11.273 0c3.26 0 5.66-2.5 5.66-5.5v-.04c0-3.02-2.38-5.48-5.62-5.48s-5.64 2.5-5.64 5.52v.04c0 3 2.38 5.46 5.6 5.46m.04-2.12c-1.88 0-3.22-1.54-3.22-3.38v-.04c0-1.84 1.24-3.36 3.18-3.36 1.9 0 3.24 1.54 3.24 3.4v.04c0 1.82-1.24 3.34-3.2 3.34M223.6 726h2.44v-4.02c0-2.8 1.48-4.18 3.6-4.18h.14v-2.56c-1.86-.08-3.08 1-3.74 2.58v-2.38h-2.44zm12.368.22c1.72 0 2.82-.88 3.6-1.98V726h2.42v-14.6h-2.42v5.68c-.76-1-1.86-1.86-3.6-1.86-2.52 0-4.9 1.98-4.9 5.48v.04c0 3.5 2.42 5.48 4.9 5.48m.58-2.1c-1.64 0-3.04-1.34-3.04-3.38v-.04c0-2.08 1.38-3.38 3.04-3.38 1.62 0 3.06 1.34 3.06 3.38v.04c0 2.02-1.44 3.38-3.06 3.38"/><path fill="#de1639" d="M164.428 796h1.845v-8.79h3.345v-1.71h-8.535v1.71h3.345zm8.839.18c1.455 0 2.49-.585 3.24-1.485l-1.065-.945c-.63.615-1.26.945-2.145.945-1.17 0-2.085-.72-2.28-2.01h5.82c.015-.18.03-.345.03-.51 0-2.28-1.275-4.26-3.795-4.26-2.265 0-3.87 1.86-3.87 4.125v.03c0 2.445 1.77 4.11 4.065 4.11m-2.265-4.695c.165-1.23.945-2.085 2.055-2.085 1.2 0 1.89.915 2.01 2.085zm10.402 4.665c1.65 0 2.94-.825 2.94-2.49v-.03c0-1.425-1.305-1.95-2.46-2.31-.93-.3-1.785-.54-1.785-1.125v-.03c0-.435.405-.78 1.11-.78.66 0 1.47.285 2.235.75l.72-1.29c-.84-.555-1.92-.9-2.91-.9-1.575 0-2.82.915-2.82 2.43v.03c0 1.5 1.305 1.98 2.475 2.31.93.285 1.77.495 1.77 1.11v.03c0 .525-.45.855-1.23.855-.81 0-1.725-.33-2.595-.975l-.81 1.23a5.47 5.47 0 0 0 3.36 1.185m7.308-.015c.69 0 1.185-.15 1.635-.405v-1.485c-.36.18-.72.27-1.125.27-.615 0-.975-.285-.975-.99v-3.885h2.13v-1.56h-2.13v-2.175h-1.815v2.175h-1.005v1.56h1.005v4.17c0 1.74.945 2.325 2.28 2.325m7.995-.135h1.83v-3.015c0-2.1 1.11-3.135 2.7-3.135h.105v-1.92c-1.395-.06-2.31.75-2.805 1.935v-1.785h-1.83zm9.577.18c1.455 0 2.49-.585 3.24-1.485l-1.065-.945c-.63.615-1.26.945-2.145.945-1.17 0-2.085-.72-2.28-2.01h5.82c.015-.18.03-.345.03-.51 0-2.28-1.275-4.26-3.795-4.26-2.265 0-3.87 1.86-3.87 4.125v.03c0 2.445 1.77 4.11 4.065 4.11m-2.265-4.695c.165-1.23.945-2.085 2.055-2.085 1.2 0 1.89.915 2.01 2.085zm11.348 4.695c1.545 0 2.46-.615 3.24-1.485l-1.095-1.08c-.585.585-1.2.975-2.055.975-1.395 0-2.37-1.125-2.37-2.535v-.03c0-1.38.975-2.52 2.295-2.52.9 0 1.485.42 2.04.99l1.14-1.215c-.75-.81-1.68-1.365-3.165-1.365-2.385 0-4.125 1.89-4.125 4.14v.03c0 2.25 1.74 4.095 4.095 4.095m8.455 0c2.445 0 4.245-1.875 4.245-4.125v-.03c0-2.265-1.785-4.11-4.215-4.11s-4.23 1.875-4.23 4.14v.03c0 2.25 1.785 4.095 4.2 4.095m.03-1.59c-1.41 0-2.415-1.155-2.415-2.535v-.03c0-1.38.93-2.52 2.385-2.52 1.425 0 2.43 1.155 2.43 2.55v.03c0 1.365-.93 2.505-2.4 2.505M229.9 796h1.83v-3.015c0-2.1 1.11-3.135 2.7-3.135h.105v-1.92c-1.395-.06-2.31.75-2.805 1.935v-1.785h-1.83zm9.276.165c1.29 0 2.115-.66 2.7-1.485V796h1.815v-10.95h-1.815v4.26c-.57-.75-1.395-1.395-2.7-1.395-1.89 0-3.675 1.485-3.675 4.11v.03c0 2.625 1.815 4.11 3.675 4.11m.435-1.575c-1.23 0-2.28-1.005-2.28-2.535v-.03c0-1.56 1.035-2.535 2.28-2.535 1.215 0 2.295 1.005 2.295 2.535v.03c0 1.515-1.08 2.535-2.295 2.535m6.389-7.725h1.95v-1.725H246zm.06 9.135h1.83v-7.92h-1.83zm4.187 0h1.83v-4.47c0-1.23.735-1.965 1.785-1.965 1.08 0 1.695.705 1.695 1.935v4.5h1.815v-5.055c0-1.83-1.035-3.03-2.82-3.03-1.23 0-1.965.645-2.475 1.38v-1.215h-1.83zm12.841 2.43c1.425 0 2.535-.345 3.255-1.065.66-.66 1.005-1.65 1.005-2.985v-6.3h-1.815v1.185c-.615-.735-1.44-1.35-2.775-1.35-1.845 0-3.6 1.38-3.6 3.72v.03c0 2.325 1.725 3.705 3.6 3.705 1.305 0 2.13-.6 2.79-1.44v.6c0 1.59-.885 2.415-2.505 2.415-1.08 0-1.965-.3-2.82-.825l-.675 1.365c1.02.615 2.235.945 3.54.945m.15-4.605c-1.245 0-2.25-.885-2.25-2.175v-.03c0-1.305.99-2.16 2.25-2.16s2.325.87 2.325 2.16v.03c0 1.29-1.065 2.175-2.325 2.175"/><g filter="url(#d)"><rect width="382" height="214" x="16" y="209" fill="#fff" rx="10"/></g><g filter="url(#e)"><g filter="url(#f)"><rect width="199" height="51" x="108" y="290.176" fill="#3aa8c4" rx="6"/><path fill="#fff" d="m141.932 321.676 5.4-12.69h2.556l5.4 12.69h-2.898l-1.152-2.826h-5.328l-1.152 2.826zm4.968-5.274h3.348l-1.674-4.086zm13.548 5.454c-2.25 0-4.392-1.764-4.392-4.986v-.036c0-3.222 2.106-4.986 4.392-4.986 1.458 0 2.358.666 3.006 1.44v-4.752h2.736v13.14h-2.736v-1.386c-.666.918-1.566 1.566-3.006 1.566m.702-2.322c1.278 0 2.34-1.062 2.34-2.664v-.036c0-1.602-1.062-2.664-2.34-2.664s-2.358 1.044-2.358 2.664v.036c0 1.602 1.08 2.664 2.358 2.664m11.444 2.322c-2.25 0-4.392-1.764-4.392-4.986v-.036c0-3.222 2.106-4.986 4.392-4.986 1.458 0 2.358.666 3.006 1.44v-4.752h2.736v13.14H175.6v-1.386c-.666.918-1.566 1.566-3.006 1.566m.702-2.322c1.278 0 2.34-1.062 2.34-2.664v-.036c0-1.602-1.062-2.664-2.34-2.664s-2.358 1.044-2.358 2.664v.036c0 1.602 1.08 2.664 2.358 2.664m19.847 5.022v-4.266c-.666.918-1.566 1.566-3.006 1.566-2.25 0-4.392-1.764-4.392-4.986v-.036c0-3.222 2.106-4.986 4.392-4.986 1.458 0 2.358.666 3.006 1.44v-1.26h2.736v12.528zm-2.304-5.022c1.278 0 2.34-1.062 2.34-2.664v-.036c0-1.602-1.062-2.664-2.34-2.664s-2.358 1.044-2.358 2.664v.036c0 1.602 1.08 2.664 2.358 2.664m10.689 2.322c-2.088 0-3.276-1.35-3.276-3.582v-6.246h2.736v5.382c0 1.296.594 1.962 1.656 1.962s1.71-.666 1.71-1.962v-5.382h2.736v9.648h-2.736v-1.368c-.63.81-1.458 1.548-2.826 1.548m12.582.036c-2.898 0-5.04-2.034-5.04-4.986v-.036c0-2.754 1.962-5.022 4.77-5.022 3.222 0 4.698 2.502 4.698 5.238 0 .216-.018.45-.036.72h-6.714c.27 1.242 1.134 1.89 2.358 1.89.918 0 1.566-.288 2.34-.99l1.566 1.386c-.918 1.134-2.196 1.8-3.942 1.8m-2.358-5.796h4.122c-.162-1.224-.882-2.052-2.034-2.052s-1.872.81-2.088 2.052m12.21 5.76c-1.368 0-2.844-.45-4.14-1.458l1.17-1.8c1.062.774 2.124 1.152 3.042 1.152.792 0 1.152-.288 1.152-.72v-.036c0-.594-.936-.774-1.998-1.116-1.35-.378-2.88-1.026-2.88-2.898v-.036c0-1.962 1.584-3.06 3.528-3.06 1.224 0 2.538.414 3.6 1.116l-1.044 1.89c-.954-.558-1.908-.9-2.61-.9-.666 0-1.008.288-1.008.666v.036c0 .504.918.828 1.962 1.152 1.35.432 2.916 1.098 2.916 2.862v.036c0 2.142-1.602 3.114-3.69 3.114m8.733-.018c-1.656 0-2.808-.666-2.808-2.898v-4.572h-1.152v-2.34h1.152v-2.466h2.736v2.466h2.268v2.34h-2.268v4.122c0 .63.288.936.882.936a2.7 2.7 0 0 0 1.35-.342v2.196c-.576.342-1.242.558-2.16.558m4.267-10.872v-2.43h2.88v2.43zm.072 10.71v-9.648h2.736v9.648zm10.039.216c-2.97 0-5.202-2.196-5.202-4.986v-.036c0-2.772 2.232-5.022 5.238-5.022 2.97 0 5.202 2.196 5.202 4.986v.036c0 2.772-2.232 5.022-5.238 5.022m.036-2.358c1.566 0 2.502-1.188 2.502-2.628v-.036c0-1.422-1.026-2.664-2.538-2.664-1.566 0-2.502 1.188-2.502 2.628v.036c0 1.422 1.026 2.664 2.538 2.664m7.183 2.142v-9.648h2.736v1.368c.63-.81 1.458-1.548 2.826-1.548 2.088 0 3.276 1.35 3.276 3.582v6.246h-2.736v-5.382c0-1.296-.594-1.962-1.656-1.962s-1.71.666-1.71 1.962v5.382zm14.599.18c-1.368 0-2.844-.45-4.14-1.458l1.17-1.8c1.062.774 2.124 1.152 3.042 1.152.792 0 1.152-.288 1.152-.72v-.036c0-.594-.936-.774-1.998-1.116-1.35-.378-2.88-1.026-2.88-2.898v-.036c0-1.962 1.584-3.06 3.528-3.06 1.224 0 2.538.414 3.6 1.116l-1.044 1.89c-.954-.558-1.908-.9-2.61-.9-.666 0-1.008.288-1.008.666v.036c0 .504.918.828 1.962 1.152 1.35.432 2.916 1.098 2.916 2.862v.036c0 2.142-1.602 3.114-3.69 3.114"/></g></g><path fill="#ffcb35" d="M174 166C37 149-4.667 163.167-19.5 192.5L-31-28.5 455-56l6 190c-9.5 2.167-42.5 18.5-97.5 27.5-42.678 6.984-76.877 18.475-189.5 4.5"/><path stroke="#666" stroke-width="2" d="M211 123h158"/><path stroke="#de1639" stroke-width="2" d="M48 123h163"/><circle cx="43.5" cy="122" r="15" fill="#de1639"/><path fill="#fff" d="M42.704 129H44.9v-12.69h-1.53l-3.402 1.08.468 1.8 2.268-.63z"/><path fill="#000" d="M21.037 151h1.476v-2.7h1.668c1.848 0 3.36-.984 3.36-2.868v-.024c0-1.692-1.224-2.808-3.192-2.808h-3.312zm1.476-4.032v-3.024h1.716c1.104 0 1.812.516 1.812 1.5v.024c0 .876-.696 1.5-1.812 1.5zm6.36 4.032h1.464v-2.412c0-1.68.888-2.508 2.16-2.508h.084v-1.536c-1.116-.048-1.848.6-2.244 1.548v-1.428h-1.464zm7.662.144c1.164 0 1.992-.468 2.592-1.188l-.852-.756c-.504.492-1.008.756-1.716.756-.936 0-1.668-.576-1.824-1.608h4.656c.012-.144.024-.276.024-.408 0-1.824-1.02-3.408-3.036-3.408-1.812 0-3.096 1.488-3.096 3.3v.024c0 1.956 1.416 3.288 3.252 3.288m-1.812-3.756c.132-.984.756-1.668 1.644-1.668.96 0 1.512.732 1.608 1.668zm6.138 5.532h1.464v-2.904c.444.588 1.104 1.116 2.16 1.116 1.5 0 2.94-1.188 2.94-3.288v-.024c0-2.112-1.452-3.288-2.94-3.288-1.032 0-1.692.528-2.16 1.188v-1.056H40.86zm3.276-3.048c-.984 0-1.848-.816-1.848-2.028v-.024c0-1.212.864-2.028 1.848-2.028.972 0 1.812.804 1.812 2.028v.024c0 1.248-.816 2.028-1.812 2.028m6.61 1.26c.973 0 1.633-.408 2.065-.924V151h1.416v-3.756c0-.828-.216-1.5-.684-1.956-.444-.456-1.152-.708-2.1-.708-1.008 0-1.692.204-2.4.516l.396 1.14c.576-.24 1.104-.396 1.812-.396 1.02 0 1.572.48 1.572 1.38v.156a5.3 5.3 0 0 0-1.704-.264c-1.548 0-2.628.672-2.628 2.04v.024c0 1.272 1.068 1.956 2.256 1.956m.409-1.056c-.696 0-1.236-.348-1.236-.96v-.024c0-.66.552-1.056 1.488-1.056.576 0 1.068.108 1.44.252v.432c0 .804-.732 1.356-1.692 1.356m4.799.924h1.464v-2.412c0-1.68.888-2.508 2.16-2.508h.084v-1.536c-1.116-.048-1.848.6-2.244 1.548v-1.428h-1.464zm7.662.144c1.164 0 1.992-.468 2.592-1.188l-.852-.756c-.504.492-1.008.756-1.716.756-.936 0-1.668-.576-1.824-1.608h4.656c.012-.144.024-.276.024-.408 0-1.824-1.02-3.408-3.036-3.408-1.812 0-3.096 1.488-3.096 3.3v.024c0 1.956 1.416 3.288 3.252 3.288m-1.812-3.756c.132-.984.756-1.668 1.644-1.668.96 0 1.512.732 1.608 1.668z"/><ellipse cx="124.5" cy="122" fill="#de1639" rx="15.5" ry="15"/><path fill="#fff" d="M119.882 129h9.108v-1.944h-5.994l2.592-2.16c2.232-1.818 3.276-2.88 3.276-4.878v-.036c0-2.25-1.692-3.762-4.158-3.762-2.25 0-3.438.954-4.644 2.628l1.584 1.242c.954-1.26 1.746-1.89 2.898-1.89s2.034.738 2.034 1.962c0 1.134-.648 1.926-2.358 3.402l-4.338 3.69z"/><path fill="#000" d="m103.86 150.196-.96-.816a4.32 4.32 0 0 0 .852-2.58v-.024c0-2.364-1.8-4.32-4.38-4.32s-4.404 1.98-4.404 4.344v.024c0 2.364 1.8 4.32 4.38 4.32.972 0 1.848-.288 2.556-.792l1.008.9zm-4.488-.42c-1.668 0-2.856-1.344-2.856-2.976v-.024c0-1.632 1.164-2.952 2.832-2.952s2.856 1.344 2.856 2.976v.024c0 .6-.144 1.14-.408 1.596l-1.476-1.344-.948 1.08 1.452 1.248c-.42.24-.9.372-1.452.372m8.179 1.356c.984 0 1.572-.516 1.98-1.116V151h1.464v-6.336h-1.464v3.576c0 .984-.588 1.56-1.428 1.56-.864 0-1.356-.552-1.356-1.536v-3.6h-1.452v4.032c0 1.476.828 2.436 2.256 2.436m8.161.012c1.164 0 1.992-.468 2.592-1.188l-.852-.756c-.504.492-1.008.756-1.716.756-.936 0-1.668-.576-1.824-1.608h4.656c.012-.144.024-.276.024-.408 0-1.824-1.02-3.408-3.036-3.408-1.812 0-3.096 1.488-3.096 3.3v.024c0 1.956 1.416 3.288 3.252 3.288m-1.812-3.756c.132-.984.756-1.668 1.644-1.668.96 0 1.512.732 1.608 1.668zm8.323 3.732c1.32 0 2.352-.66 2.352-1.992v-.024c0-1.14-1.044-1.56-1.968-1.848-.744-.24-1.428-.432-1.428-.9v-.024c0-.348.324-.624.888-.624.528 0 1.176.228 1.788.6l.576-1.032c-.672-.444-1.536-.72-2.328-.72-1.26 0-2.256.732-2.256 1.944v.024c0 1.2 1.044 1.584 1.98 1.848.744.228 1.416.396 1.416.888v.024c0 .42-.36.684-.984.684-.648 0-1.38-.264-2.076-.78l-.648.984a4.38 4.38 0 0 0 2.688.948m5.846-.012c.552 0 .948-.12 1.308-.324v-1.188a1.95 1.95 0 0 1-.9.216c-.492 0-.78-.228-.78-.792v-3.108h1.704v-1.248h-1.704v-1.74h-1.452v1.74h-.804v1.248h.804v3.336c0 1.392.756 1.86 1.824 1.86m2.834-7.416h1.56v-1.38h-1.56zm.048 7.308h1.464v-6.336h-1.464zm6.373.144c1.956 0 3.396-1.5 3.396-3.3v-.024c0-1.812-1.428-3.288-3.372-3.288s-3.384 1.5-3.384 3.312v.024c0 1.8 1.428 3.276 3.36 3.276m.024-1.272c-1.128 0-1.932-.924-1.932-2.028v-.024c0-1.104.744-2.016 1.908-2.016 1.14 0 1.944.924 1.944 2.04v.024c0 1.092-.744 2.004-1.92 2.004m4.839 1.128h1.464v-3.576c0-.984.588-1.572 1.428-1.572.864 0 1.356.564 1.356 1.548v3.6h1.452v-4.044c0-1.464-.828-2.424-2.256-2.424-.984 0-1.572.516-1.98 1.104v-.972h-1.464zm9.626.12c1.32 0 2.352-.66 2.352-1.992v-.024c0-1.14-1.044-1.56-1.968-1.848-.744-.24-1.428-.432-1.428-.9v-.024c0-.348.324-.624.888-.624.528 0 1.176.228 1.788.6l.576-1.032c-.672-.444-1.536-.72-2.328-.72-1.26 0-2.256.732-2.256 1.944v.024c0 1.2 1.044 1.584 1.98 1.848.744.228 1.416.396 1.416.888v.024c0 .42-.36.684-.984.684-.648 0-1.38-.264-2.076-.78l-.648.984a4.38 4.38 0 0 0 2.688.948"/><ellipse cx="368" cy="122" fill="#efefef" stroke="#666" stroke-width="2" rx="15.5" ry="15"/><path fill="#666" d="M367.972 129.216c2.79 0 4.68-1.692 4.68-4.266v-.036c0-2.664-1.944-3.96-4.392-3.96-.846 0-1.404.144-1.998.36l.198-2.934h5.634v-1.98h-7.542l-.36 6.174 1.332.882c.648-.306 1.422-.558 2.322-.558 1.53 0 2.61.81 2.61 2.088v.036c0 1.314-.99 2.178-2.502 2.178-1.17 0-2.232-.576-3.24-1.512l-1.368 1.602c1.188 1.152 2.7 1.926 4.626 1.926M347.16 151h1.476v-2.7h1.668c1.848 0 3.36-.984 3.36-2.868v-.024c0-1.692-1.224-2.808-3.192-2.808h-3.312zm1.476-4.032v-3.024h1.716c1.104 0 1.812.516 1.812 1.5v.024c0 .876-.696 1.5-1.812 1.5zm8.567 4.164c.984 0 1.572-.516 1.98-1.116V151h1.464v-6.336h-1.464v3.576c0 .984-.588 1.56-1.428 1.56-.864 0-1.356-.552-1.356-1.536v-3.6h-1.452v4.032c0 1.476.828 2.436 2.256 2.436m8.87 0c1.5 0 2.94-1.188 2.94-3.288v-.024c0-2.112-1.452-3.288-2.94-3.288-1.032 0-1.692.528-2.16 1.188v-3.48h-1.464V151h1.464v-.984c.444.588 1.104 1.116 2.16 1.116m-.348-1.26c-.984 0-1.848-.816-1.848-2.028v-.024c0-1.212.864-2.028 1.848-2.028.972 0 1.812.804 1.812 2.028v.024c0 1.248-.816 2.028-1.812 2.028m4.859 1.128h1.464v-8.76h-1.464zm3.385-7.308h1.56v-1.38h-1.56zm.048 7.308h1.464v-6.336h-1.464zm5.534.12c1.32 0 2.352-.66 2.352-1.992v-.024c0-1.14-1.044-1.56-1.968-1.848-.744-.24-1.428-.432-1.428-.9v-.024c0-.348.324-.624.888-.624.528 0 1.176.228 1.788.6l.576-1.032c-.672-.444-1.536-.72-2.328-.72-1.26 0-2.256.732-2.256 1.944v.024c0 1.2 1.044 1.584 1.98 1.848.744.228 1.416.396 1.416.888v.024c0 .42-.36.684-.984.684-.648 0-1.38-.264-2.076-.78l-.648.984a4.38 4.38 0 0 0 2.688.948m3.828-.12h1.464v-3.576c0-.984.588-1.572 1.428-1.572.864 0 1.356.564 1.356 1.548v3.6h1.452v-4.044c0-1.464-.828-2.424-2.256-2.424-.984 0-1.572.516-1.98 1.104v-3.396h-1.464z"/><ellipse cx="291.5" cy="122" fill="#efefef" stroke="#666" stroke-width="2" rx="15.5" ry="15"/><path fill="#666" d="M292.416 128h2.124v-2.826h1.8v-1.818h-1.8v-8.046h-1.89l-7.002 8.28.414 1.584h6.354zm-4.14-4.644 4.14-4.986v4.986zM270.912 151h1.476v-2.928h1.848L276.3 151h1.752l-2.268-3.18c1.164-.336 1.992-1.164 1.992-2.544v-.024c0-.732-.252-1.356-.696-1.812-.54-.528-1.368-.84-2.424-.84h-3.744zm1.476-4.236v-2.82h2.148c1.092 0 1.74.492 1.74 1.392v.024c0 .852-.672 1.404-1.728 1.404zm9.815 4.38c1.164 0 1.992-.468 2.592-1.188l-.852-.756c-.504.492-1.008.756-1.716.756-.936 0-1.668-.576-1.824-1.608h4.656c.012-.144.024-.276.024-.408 0-1.824-1.02-3.408-3.036-3.408-1.812 0-3.096 1.488-3.096 3.3v.024c0 1.956 1.416 3.288 3.252 3.288m-1.812-3.756c.132-.984.756-1.668 1.644-1.668.96 0 1.512.732 1.608 1.668zm7.849 3.66h1.308l2.592-6.384h-1.524l-1.716 4.656-1.704-4.656h-1.56zm5.157-7.356h1.56v-1.38h-1.56zm.048 7.308h1.464v-6.336h-1.464zm6.266.144c1.164 0 1.992-.468 2.592-1.188l-.852-.756c-.504.492-1.008.756-1.716.756-.936 0-1.668-.576-1.824-1.608h4.656c.012-.144.024-.276.024-.408 0-1.824-1.02-3.408-3.036-3.408-1.812 0-3.096 1.488-3.096 3.3v.024c0 1.956 1.416 3.288 3.252 3.288m-1.812-3.756c.132-.984.756-1.668 1.644-1.668.96 0 1.512.732 1.608 1.668zm7.369 3.66h1.296l1.428-4.332 1.416 4.332h1.308l2.076-6.384h-1.464l-1.296 4.344-1.404-4.368h-1.248l-1.404 4.368-1.272-4.344h-1.5z"/><ellipse cx="213.5" cy="122" fill="#fff" stroke="#de1639" stroke-width="2" rx="15.5" ry="15"/><path fill="#de1639" d="M213.598 129.216c2.628 0 4.41-1.674 4.41-3.996v-.036c0-2.322-1.8-3.294-3.708-3.528l3.51-3.6V116.4h-8.334v1.926h5.454l-3.402 3.618.36 1.386h1.026c1.764 0 2.898.702 2.898 1.944v.036c0 1.152-.954 1.908-2.178 1.908-1.404 0-2.412-.594-3.312-1.656l-1.548 1.458c1.062 1.278 2.628 2.196 4.824 2.196M192.976 151h1.476v-2.928h1.848l2.064 2.928h1.752l-2.268-3.18c1.164-.336 1.992-1.164 1.992-2.544v-.024c0-.732-.252-1.356-.696-1.812-.54-.528-1.368-.84-2.424-.84h-3.744zm1.476-4.236v-2.82h2.148c1.092 0 1.74.492 1.74 1.392v.024c0 .852-.672 1.404-1.728 1.404zm9.815 4.38c1.164 0 1.992-.468 2.592-1.188l-.852-.756c-.504.492-1.008.756-1.716.756-.936 0-1.668-.576-1.824-1.608h4.656c.012-.144.024-.276.024-.408 0-1.824-1.02-3.408-3.036-3.408-1.812 0-3.096 1.488-3.096 3.3v.024c0 1.956 1.416 3.288 3.252 3.288m-1.812-3.756c.132-.984.756-1.668 1.644-1.668.96 0 1.512.732 1.608 1.668zm9.078 3.756c1.236 0 1.968-.492 2.592-1.188l-.876-.864c-.468.468-.96.78-1.644.78-1.116 0-1.896-.9-1.896-2.028v-.024c0-1.104.78-2.016 1.836-2.016.72 0 1.188.336 1.632.792l.912-.972c-.6-.648-1.344-1.092-2.532-1.092-1.908 0-3.3 1.512-3.3 3.312v.024c0 1.8 1.392 3.276 3.276 3.276m6.764 0c1.956 0 3.396-1.5 3.396-3.3v-.024c0-1.812-1.428-3.288-3.372-3.288s-3.384 1.5-3.384 3.312v.024c0 1.8 1.428 3.276 3.36 3.276m.024-1.272c-1.128 0-1.932-.924-1.932-2.028v-.024c0-1.104.744-2.016 1.908-2.016 1.14 0 1.944.924 1.944 2.04v.024c0 1.092-.744 2.004-1.92 2.004M223.16 151h1.464v-2.412c0-1.68.888-2.508 2.16-2.508h.084v-1.536c-1.116-.048-1.848.6-2.244 1.548v-1.428h-1.464zm7.421.132c1.032 0 1.692-.528 2.16-1.188V151h1.452v-8.76h-1.452v3.408c-.456-.6-1.116-1.116-2.16-1.116-1.512 0-2.94 1.188-2.94 3.288v.024c0 2.1 1.452 3.288 2.94 3.288m.348-1.26c-.984 0-1.824-.804-1.824-2.028v-.024c0-1.248.828-2.028 1.824-2.028.972 0 1.836.804 1.836 2.028v.024c0 1.212-.864 2.028-1.836 2.028"/><path stroke="#000" stroke-linecap="round" stroke-linejoin="bevel" stroke-width="2.5" d="M41 74H19m6.335-8-6.85 6.85a1.666 1.666 0 0 0 0 2.35l6.666 6.667"/><path fill="#000" fill-rule="evenodd" d="M393.333 19.332h-16.666c-.921 0-1.667.746-1.667 1.667v6c0 .92.746 1.666 1.667 1.666h16.666c.921 0 1.667-.746 1.667-1.666v-6c0-.92-.746-1.667-1.667-1.667m-16.666-1A2.667 2.667 0 0 0 374 20.999v6a2.667 2.667 0 0 0 2.667 2.666h16.666A2.667 2.667 0 0 0 396 27v-6a2.667 2.667 0 0 0-2.667-2.667z" clip-rule="evenodd" opacity=".35"/><path fill="#000" d="M397 21.998v4a2.17 2.17 0 0 0 0-4" opacity=".4"/><path fill="#000" d="M376 21.665c0-.736.597-1.333 1.333-1.333h15.334c.736 0 1.333.597 1.333 1.333v4.667c0 .736-.597 1.333-1.333 1.333h-15.334A1.333 1.333 0 0 1 376 26.332z"/><path fill="#000" fill-rule="evenodd" d="M359.33 20.713c2.216 0 4.347 1.117 5.953 3.119.121.154.314.152.433-.005l1.156-1.53a.5.5 0 0 0 .094-.3.5.5 0 0 0-.096-.297c-4.215-5.298-10.865-5.298-15.08 0a.5.5 0 0 0-.097.298c0 .112.033.22.094.3l1.156 1.53c.119.157.312.159.433.004 1.606-2.002 3.738-3.119 5.954-3.119m0 4.978c1.217 0 2.391.593 3.294 1.665.122.152.314.148.433-.008l1.155-1.53a.5.5 0 0 0 .094-.302.5.5 0 0 0-.099-.3c-2.748-3.352-7.004-3.352-9.752 0a.5.5 0 0 0-.098.3.5.5 0 0 0 .094.302l1.154 1.53c.119.156.311.16.433.008.902-1.071 2.075-1.665 3.292-1.665m2.313 3.349a.48.48 0 0 1-.094.302l-1.997 2.643a.28.28 0 0 1-.222.122.28.28 0 0 1-.222-.122l-1.997-2.643a.48.48 0 0 1-.094-.302.48.48 0 0 1 .103-.297c1.276-1.415 3.144-1.415 4.42 0a.48.48 0 0 1 .103.297m-15.977-10.872h-1c-.552 0-1 .587-1 1.311v11.366c0 .724.448 1.311 1 1.311h1c.552 0 1-.587 1-1.311V19.479c0-.724-.448-1.311-1-1.311m-5.667 3.06h1c.553 0 1 .587 1 1.311v8.306c0 .724-.447 1.311-1 1.311h-1c-.552 0-1-.587-1-1.311v-8.306c0-.724.448-1.311 1-1.311m-3.666 3.06h-1c-.553 0-1 .587-1 1.311v5.246c0 .724.447 1.311 1 1.311h1c.552 0 1-.587 1-1.311v-5.246c0-.724-.448-1.311-1-1.311m-4.667 2.622h-1c-.552 0-1 .588-1 1.312v2.623c0 .724.448 1.311 1 1.311h1c.552 0 1-.587 1-1.311v-2.623c0-.724-.448-1.312-1-1.312" clip-rule="evenodd"/><path fill="#000" d="M37.32 29.257c2.688 0 4.285-2.102 4.285-5.662 0-1.34-.256-2.468-.747-3.34-.71-1.355-1.934-2.087-3.48-2.087-2.299 0-3.925 1.545-3.925 3.713 0 2.037 1.465 3.516 3.48 3.516 1.237 0 2.24-.579 2.738-1.582h.125c0 2.417-.916 3.86-2.461 3.86-.908 0-1.611-.498-1.853-1.297H33.6c.315 1.736 1.787 2.879 3.72 2.879m.066-5.362c-1.216 0-2.08-.864-2.08-2.072 0-1.18.908-2.08 2.088-2.08 1.179 0 2.087.915 2.087 2.11 0 1.178-.886 2.042-2.095 2.042m7.31 5.259c.696 0 1.172-.498 1.172-1.157 0-.666-.476-1.157-1.172-1.157-.688 0-1.172.49-1.172 1.157 0 .66.484 1.157 1.172 1.157m0-5.493c.696 0 1.172-.49 1.172-1.15 0-.666-.476-1.157-1.172-1.157-.688 0-1.172.49-1.172 1.157 0 .66.484 1.15 1.172 1.15M52.724 29h1.809v-1.97h1.428v-1.596h-1.428v-7.002h-2.666c-1.868 2.812-3.355 5.163-4.307 6.914v1.684h5.164zm-3.413-3.632a80 80 0 0 1 3.34-5.398h.102v5.508h-3.442zM59.99 29h1.89V18.432h-1.883l-2.761 1.933v1.817l2.63-1.846h.124z"/></g><defs><filter id="b" width="136" height="136" x="139" y="575" color-interpolation-filters="sRGB" filterUnits="userSpaceOnUse"><feFlood flood-opacity="0" result="BackgroundImageFix"/><feColorMatrix in="SourceAlpha" result="hardAlpha" values="0 0 0 0 0 0 0 0 0 0 0 0 0 0 0 0 0 0 127 0"/><feOffset dy="4"/><feGaussianBlur stdDeviation="2"/><feColorMatrix values="0 0 0 0 0 0 0 0 0 0 0 0 0 0 0 0 0 0 0.25 0"/><feBlend in2="BackgroundImageFix" result="effect1_dropShadow_1910_8705"/><feBlend in="SourceGraphic" in2="effect1_dropShadow_1910_8705" result="shape"/></filter><filter id="d" width="412" height="244" x="1" y="198" color-interpolation-filters="sRGB" filterUnits="userSpaceOnUse"><feFlood flood-opacity="0" result="BackgroundImageFix"/><feColorMatrix in="SourceAlpha" result="hardAlpha" values="0 0 0 0 0 0 0 0 0 0 0 0 0 0 0 0 0 0 127 0"/><feOffset dy="4"/><feGaussianBlur stdDeviation="7.5"/><feColorMatrix values="0 0 0 0 0 0 0 0 0 0 0 0 0 0 0 0 0 0 0.25 0"/><feBlend in2="BackgroundImageFix" result="effect1_dropShadow_1910_8705"/><feBlend in="SourceGraphic" in2="effect1_dropShadow_1910_8705" result="shape"/></filter><filter id="e" width="207" height="59" x="104" y="290.176" color-interpolation-filters="sRGB" filterUnits="userSpaceOnUse"><feFlood flood-opacity="0" result="BackgroundImageFix"/><feColorMatrix in="SourceAlpha" result="hardAlpha" values="0 0 0 0 0 0 0 0 0 0 0 0 0 0 0 0 0 0 127 0"/><feOffset dy="4"/><feGaussianBlur stdDeviation="2"/><feColorMatrix values="0 0 0 0 0 0 0 0 0 0 0 0 0 0 0 0 0 0 0.25 0"/><feBlend in2="BackgroundImageFix" result="effect1_dropShadow_1910_8705"/><feBlend in="SourceGraphic" in2="effect1_dropShadow_1910_8705" result="shape"/></filter><filter id="f" width="203" height="55" x="106" y="289.176" color-interpolation-filters="sRGB" filterUnits="userSpaceOnUse"><feFlood flood-opacity="0" result="BackgroundImageFix"/><feColorMatrix in="SourceAlpha" result="hardAlpha" values="0 0 0 0 0 0 0 0 0 0 0 0 0 0 0 0 0 0 127 0"/><feOffset dy="1"/><feGaussianBlur stdDeviation="1"/><feColorMatrix values="0 0 0 0 0 0 0 0 0 0 0 0 0 0 0 0 0 0 0.05 0"/><feBlend in2="BackgroundImageFix" result="effect1_dropShadow_1910_8705"/><feBlend in="SourceGraphic" in2="effect1_dropShadow_1910_8705" result="shape"/></filter><clipPath id="a"><path fill="#fff" d="M0 0h414v896H0z"/></clipPath><clipPath id="c"><path fill="#fff" d="M168.6 591.291h76.8v97.746h-76.8z"/></clipPath></defs></svg>