<svg width="414" height="896" viewBox="0 0 414 896" fill="none" xmlns="http://www.w3.org/2000/svg">
<g clip-path="url(#clip0_1910_8705)">
<rect width="414" height="896" fill="white"/>
<path d="M22.92 184H25.4V178.42L30.96 170H28.14L24.18 176.18L20.28 170H17.36L22.92 178.48V184ZM35.6494 184.24C38.9094 184.24 41.3094 181.74 41.3094 178.74V178.7C41.3094 175.68 38.9294 173.22 35.6894 173.22C32.4494 173.22 30.0494 175.72 30.0494 178.74V178.78C30.0494 181.78 32.4294 184.24 35.6494 184.24ZM35.6894 182.12C33.8094 182.12 32.4694 180.58 32.4694 178.74V178.7C32.4694 176.86 33.7094 175.34 35.6494 175.34C37.5494 175.34 38.8894 176.88 38.8894 178.74V178.78C38.8894 180.6 37.6494 182.12 35.6894 182.12ZM47.4139 184.22C49.0539 184.22 50.0339 183.36 50.7139 182.36V184H53.1539V173.44H50.7139V179.4C50.7139 181.04 49.7339 182 48.3339 182C46.8939 182 46.0739 181.08 46.0739 179.44V173.44H43.6539V180.16C43.6539 182.62 45.0339 184.22 47.4139 184.22ZM56.1563 184H58.5963V179.98C58.5963 177.18 60.0763 175.8 62.1963 175.8H62.3363V173.24C60.4763 173.16 59.2563 174.24 58.5963 175.82V173.44H56.1563V184ZM78.3941 187.2H80.8141V173.44H78.3941V175.08C77.6341 174.08 76.5341 173.22 74.7941 173.22C72.2741 173.22 69.8941 175.2 69.8941 178.7V178.74C69.8941 182.24 72.3141 184.22 74.7941 184.22C76.5141 184.22 77.6141 183.34 78.3941 182.24V187.2ZM75.3741 182.12C73.7341 182.12 72.3341 180.78 72.3341 178.74V178.7C72.3341 176.62 73.7141 175.32 75.3741 175.32C76.9941 175.32 78.4341 176.66 78.4341 178.7V178.74C78.4341 180.76 76.9941 182.12 75.3741 182.12ZM87.492 184.22C89.132 184.22 90.112 183.36 90.792 182.36V184H93.232V173.44H90.792V179.4C90.792 181.04 89.812 182 88.412 182C86.972 182 86.152 181.08 86.152 179.44V173.44H83.732V180.16C83.732 182.62 85.112 184.22 87.492 184.22ZM101.094 184.24C103.034 184.24 104.414 183.46 105.414 182.26L103.994 181C103.154 181.82 102.314 182.26 101.134 182.26C99.5744 182.26 98.3544 181.3 98.0944 179.58H105.854C105.874 179.34 105.894 179.12 105.894 178.9C105.894 175.86 104.194 173.22 100.834 173.22C97.8144 173.22 95.6744 175.7 95.6744 178.72V178.76C95.6744 182.02 98.0344 184.24 101.094 184.24ZM98.0744 177.98C98.2944 176.34 99.3344 175.2 100.814 175.2C102.414 175.2 103.334 176.42 103.494 177.98H98.0744ZM111.945 184.2C114.145 184.2 115.865 183.1 115.865 180.88V180.84C115.865 178.94 114.125 178.24 112.585 177.76C111.345 177.36 110.205 177.04 110.205 176.26V176.22C110.205 175.64 110.745 175.18 111.685 175.18C112.565 175.18 113.645 175.56 114.665 176.18L115.625 174.46C114.505 173.72 113.065 173.26 111.745 173.26C109.645 173.26 107.985 174.48 107.985 176.5V176.54C107.985 178.54 109.725 179.18 111.285 179.62C112.525 180 113.645 180.28 113.645 181.1V181.14C113.645 181.84 113.045 182.28 112.005 182.28C110.925 182.28 109.705 181.84 108.545 180.98L107.465 182.62C108.785 183.68 110.445 184.2 111.945 184.2ZM121.689 184.18C122.609 184.18 123.269 183.98 123.869 183.64V181.66C123.389 181.9 122.909 182.02 122.369 182.02C121.549 182.02 121.069 181.64 121.069 180.7V175.52H123.909V173.44H121.069V170.54H118.649V173.44H117.309V175.52H118.649V181.08C118.649 183.4 119.909 184.18 121.689 184.18ZM126.412 171.82H129.012V169.52H126.412V171.82ZM126.492 184H128.932V173.44H126.492V184ZM137.114 184.24C140.374 184.24 142.774 181.74 142.774 178.74V178.7C142.774 175.68 140.394 173.22 137.154 173.22C133.914 173.22 131.514 175.72 131.514 178.74V178.78C131.514 181.78 133.894 184.24 137.114 184.24ZM137.154 182.12C135.274 182.12 133.934 180.58 133.934 178.74V178.7C133.934 176.86 135.174 175.34 137.114 175.34C139.014 175.34 140.354 176.88 140.354 178.74V178.78C140.354 180.6 139.114 182.12 137.154 182.12ZM145.219 184H147.659V178.04C147.659 176.4 148.639 175.42 150.039 175.42C151.479 175.42 152.299 176.36 152.299 178V184H154.719V177.26C154.719 174.82 153.339 173.22 150.959 173.22C149.319 173.22 148.339 174.08 147.659 175.06V173.44H145.219V184ZM161.261 184.2C163.461 184.2 165.181 183.1 165.181 180.88V180.84C165.181 178.94 163.441 178.24 161.901 177.76C160.661 177.36 159.521 177.04 159.521 176.26V176.22C159.521 175.64 160.061 175.18 161.001 175.18C161.881 175.18 162.961 175.56 163.981 176.18L164.941 174.46C163.821 173.72 162.381 173.26 161.061 173.26C158.961 173.26 157.301 174.48 157.301 176.5V176.54C157.301 178.54 159.041 179.18 160.601 179.62C161.841 180 162.961 180.28 162.961 181.1V181.14C162.961 181.84 162.361 182.28 161.321 182.28C160.241 182.28 159.021 181.84 157.861 180.98L156.781 182.62C158.101 183.68 159.761 184.2 161.261 184.2Z" fill="black"/>
<g filter="url(#filter0_d_1910_8705)">
<circle cx="207" cy="639" r="64" fill="#DE1639"/>
<g clip-path="url(#clip1_1910_8705)">
<path d="M189.467 639.799C189.467 648.97 197.586 656.357 207.549 656.139C217.159 655.92 224.69 648.351 224.69 639.435V611.596C224.69 602.972 217.669 595.621 208.412 594.966C198.057 594.274 189.467 601.844 189.467 611.269V639.799Z" stroke="white" stroke-width="6" stroke-miterlimit="10"/>
<path d="M241.477 637.652C241.477 656.43 226.023 671.641 206.999 671.641C187.976 671.641 172.521 656.43 172.521 637.652" stroke="white" stroke-width="6" stroke-miterlimit="10" stroke-linecap="round"/>
<path d="M207.039 685.398V671.643" stroke="white" stroke-width="6" stroke-miterlimit="10" stroke-linecap="round"/>
</g>
</g>
<path d="M150.409 764.264C154.457 764.264 157.141 760.7 157.141 756.3V756.256C157.141 751.856 154.479 748.336 150.453 748.336C146.405 748.336 143.721 751.9 143.721 756.3V756.344C143.721 760.744 146.361 764.264 150.409 764.264ZM150.453 761.822C148.055 761.822 146.515 759.336 146.515 756.3V756.256C146.515 753.22 148.033 750.778 150.409 750.778C152.785 750.778 154.347 753.264 154.347 756.3V756.344C154.347 759.358 152.851 761.822 150.453 761.822ZM159.993 755.398H162.919V752.384H159.993V755.398ZM159.993 764H162.919V760.964H159.993V764ZM172.473 764.264C176.521 764.264 179.205 760.7 179.205 756.3V756.256C179.205 751.856 176.543 748.336 172.517 748.336C168.469 748.336 165.785 751.9 165.785 756.3V756.344C165.785 760.744 168.425 764.264 172.473 764.264ZM172.517 761.822C170.119 761.822 168.579 759.336 168.579 756.3V756.256C168.579 753.22 170.097 750.778 172.473 750.778C174.849 750.778 176.411 753.264 176.411 756.3V756.344C176.411 759.358 174.915 761.822 172.517 761.822ZM188.393 764.264C192.441 764.264 195.125 760.7 195.125 756.3V756.256C195.125 751.856 192.463 748.336 188.437 748.336C184.389 748.336 181.705 751.9 181.705 756.3V756.344C181.705 760.744 184.345 764.264 188.393 764.264ZM188.437 761.822C186.039 761.822 184.499 759.336 184.499 756.3V756.256C184.499 753.22 186.017 750.778 188.393 750.778C190.769 750.778 192.331 753.264 192.331 756.3V756.344C192.331 759.358 190.835 761.822 188.437 761.822ZM205.541 766.816H207.675V746.444H205.541V766.816ZM225.91 764H228.506V760.546H230.706V758.324H228.506V748.49H226.196L217.638 758.61L218.144 760.546H225.91V764ZM220.85 758.324L225.91 752.23V758.324H220.85ZM238.53 764.264C241.94 764.264 244.25 762.196 244.25 759.05V759.006C244.25 755.75 241.874 754.166 238.882 754.166C237.848 754.166 237.166 754.342 236.44 754.606L236.682 751.02H243.568V748.6H234.35L233.91 756.146L235.538 757.224C236.33 756.85 237.276 756.542 238.376 756.542C240.246 756.542 241.566 757.532 241.566 759.094V759.138C241.566 760.744 240.356 761.8 238.508 761.8C237.078 761.8 235.78 761.096 234.548 759.952L232.876 761.91C234.328 763.318 236.176 764.264 238.53 764.264ZM247.155 755.398H250.081V752.384H247.155V755.398ZM247.155 764H250.081V760.964H247.155V764ZM259.635 764.264C263.683 764.264 266.367 760.7 266.367 756.3V756.256C266.367 751.856 263.705 748.336 259.679 748.336C255.631 748.336 252.947 751.9 252.947 756.3V756.344C252.947 760.744 255.587 764.264 259.635 764.264ZM259.679 761.822C257.281 761.822 255.741 759.336 255.741 756.3V756.256C255.741 753.22 257.259 750.778 259.635 750.778C262.011 750.778 263.573 753.264 263.573 756.3V756.344C263.573 759.358 262.077 761.822 259.679 761.822ZM275.555 764.264C279.603 764.264 282.287 760.7 282.287 756.3V756.256C282.287 751.856 279.625 748.336 275.599 748.336C271.551 748.336 268.867 751.9 268.867 756.3V756.344C268.867 760.744 271.507 764.264 275.555 764.264ZM275.599 761.822C273.201 761.822 271.661 759.336 271.661 756.3V756.256C271.661 753.22 273.179 750.778 275.555 750.778C277.931 750.778 279.493 753.264 279.493 756.3V756.344C279.493 759.358 277.997 761.822 275.599 761.822Z" fill="black"/>
<path d="M173.294 726H175.754V721.12H178.834L182.274 726H185.194L181.414 720.7C183.354 720.14 184.734 718.76 184.734 716.46V716.42C184.734 715.2 184.314 714.16 183.574 713.4C182.674 712.52 181.294 712 179.534 712H173.294V726ZM175.754 718.94V714.24H179.334C181.154 714.24 182.234 715.06 182.234 716.56V716.6C182.234 718.02 181.114 718.94 179.354 718.94H175.754ZM192.112 726.24C194.052 726.24 195.432 725.46 196.432 724.26L195.012 723C194.172 723.82 193.332 724.26 192.152 724.26C190.592 724.26 189.372 723.3 189.112 721.58H196.872C196.892 721.34 196.912 721.12 196.912 720.9C196.912 717.86 195.212 715.22 191.852 715.22C188.832 715.22 186.692 717.7 186.692 720.72V720.76C186.692 724.02 189.052 726.24 192.112 726.24ZM189.092 719.98C189.312 718.34 190.352 717.2 191.832 717.2C193.432 717.2 194.352 718.42 194.512 719.98H189.092ZM204.222 726.24C206.282 726.24 207.502 725.42 208.542 724.26L207.082 722.82C206.302 723.6 205.482 724.12 204.342 724.12C202.482 724.12 201.182 722.62 201.182 720.74V720.7C201.182 718.86 202.482 717.34 204.242 717.34C205.442 717.34 206.222 717.9 206.962 718.66L208.482 717.04C207.482 715.96 206.242 715.22 204.262 715.22C201.082 715.22 198.762 717.74 198.762 720.74V720.78C198.762 723.78 201.082 726.24 204.222 726.24ZM215.495 726.24C218.755 726.24 221.155 723.74 221.155 720.74V720.7C221.155 717.68 218.775 715.22 215.535 715.22C212.295 715.22 209.895 717.72 209.895 720.74V720.78C209.895 723.78 212.275 726.24 215.495 726.24ZM215.535 724.12C213.655 724.12 212.315 722.58 212.315 720.74V720.7C212.315 718.86 213.555 717.34 215.495 717.34C217.395 717.34 218.735 718.88 218.735 720.74V720.78C218.735 722.6 217.495 724.12 215.535 724.12ZM223.6 726H226.04V721.98C226.04 719.18 227.52 717.8 229.64 717.8H229.78V715.24C227.92 715.16 226.7 716.24 226.04 717.82V715.44H223.6V726ZM235.968 726.22C237.688 726.22 238.788 725.34 239.568 724.24V726H241.988V711.4H239.568V717.08C238.808 716.08 237.708 715.22 235.968 715.22C233.448 715.22 231.068 717.2 231.068 720.7V720.74C231.068 724.24 233.488 726.22 235.968 726.22ZM236.548 724.12C234.908 724.12 233.508 722.78 233.508 720.74V720.7C233.508 718.62 234.888 717.32 236.548 717.32C238.168 717.32 239.608 718.66 239.608 720.7V720.74C239.608 722.76 238.168 724.12 236.548 724.12Z" fill="#6B6B6B"/>
<path d="M164.428 796H166.273V787.21H169.618V785.5H161.083V787.21H164.428V796ZM173.267 796.18C174.722 796.18 175.757 795.595 176.507 794.695L175.442 793.75C174.812 794.365 174.182 794.695 173.297 794.695C172.127 794.695 171.212 793.975 171.017 792.685H176.837C176.852 792.505 176.867 792.34 176.867 792.175C176.867 789.895 175.592 787.915 173.072 787.915C170.807 787.915 169.202 789.775 169.202 792.04V792.07C169.202 794.515 170.972 796.18 173.267 796.18ZM171.002 791.485C171.167 790.255 171.947 789.4 173.057 789.4C174.257 789.4 174.947 790.315 175.067 791.485H171.002ZM181.404 796.15C183.054 796.15 184.344 795.325 184.344 793.66V793.63C184.344 792.205 183.039 791.68 181.884 791.32C180.954 791.02 180.099 790.78 180.099 790.195V790.165C180.099 789.73 180.504 789.385 181.209 789.385C181.869 789.385 182.679 789.67 183.444 790.135L184.164 788.845C183.324 788.29 182.244 787.945 181.254 787.945C179.679 787.945 178.434 788.86 178.434 790.375V790.405C178.434 791.905 179.739 792.385 180.909 792.715C181.839 793 182.679 793.21 182.679 793.825V793.855C182.679 794.38 182.229 794.71 181.449 794.71C180.639 794.71 179.724 794.38 178.854 793.735L178.044 794.965C179.034 795.76 180.279 796.15 181.404 796.15ZM188.712 796.135C189.402 796.135 189.897 795.985 190.347 795.73V794.245C189.987 794.425 189.627 794.515 189.222 794.515C188.607 794.515 188.247 794.23 188.247 793.525V789.64H190.377V788.08H188.247V785.905H186.432V788.08H185.427V789.64H186.432V793.81C186.432 795.55 187.377 796.135 188.712 796.135ZM196.707 796H198.537V792.985C198.537 790.885 199.647 789.85 201.237 789.85H201.342V787.93C199.947 787.87 199.032 788.68 198.537 789.865V788.08H196.707V796ZM206.284 796.18C207.739 796.18 208.774 795.595 209.524 794.695L208.459 793.75C207.829 794.365 207.199 794.695 206.314 794.695C205.144 794.695 204.229 793.975 204.034 792.685H209.854C209.869 792.505 209.884 792.34 209.884 792.175C209.884 789.895 208.609 787.915 206.089 787.915C203.824 787.915 202.219 789.775 202.219 792.04V792.07C202.219 794.515 203.989 796.18 206.284 796.18ZM204.019 791.485C204.184 790.255 204.964 789.4 206.074 789.4C207.274 789.4 207.964 790.315 208.084 791.485H204.019ZM215.367 796.18C216.912 796.18 217.827 795.565 218.607 794.695L217.512 793.615C216.927 794.2 216.312 794.59 215.457 794.59C214.062 794.59 213.087 793.465 213.087 792.055V792.025C213.087 790.645 214.062 789.505 215.382 789.505C216.282 789.505 216.867 789.925 217.422 790.495L218.562 789.28C217.812 788.47 216.882 787.915 215.397 787.915C213.012 787.915 211.272 789.805 211.272 792.055V792.085C211.272 794.335 213.012 796.18 215.367 796.18ZM223.822 796.18C226.267 796.18 228.067 794.305 228.067 792.055V792.025C228.067 789.76 226.282 787.915 223.852 787.915C221.422 787.915 219.622 789.79 219.622 792.055V792.085C219.622 794.335 221.407 796.18 223.822 796.18ZM223.852 794.59C222.442 794.59 221.437 793.435 221.437 792.055V792.025C221.437 790.645 222.367 789.505 223.822 789.505C225.247 789.505 226.252 790.66 226.252 792.055V792.085C226.252 793.45 225.322 794.59 223.852 794.59ZM229.9 796H231.73V792.985C231.73 790.885 232.84 789.85 234.43 789.85H234.535V787.93C233.14 787.87 232.225 788.68 231.73 789.865V788.08H229.9V796ZM239.176 796.165C240.466 796.165 241.291 795.505 241.876 794.68V796H243.691V785.05H241.876V789.31C241.306 788.56 240.481 787.915 239.176 787.915C237.286 787.915 235.501 789.4 235.501 792.025V792.055C235.501 794.68 237.316 796.165 239.176 796.165ZM239.611 794.59C238.381 794.59 237.331 793.585 237.331 792.055V792.025C237.331 790.465 238.366 789.49 239.611 789.49C240.826 789.49 241.906 790.495 241.906 792.025V792.055C241.906 793.57 240.826 794.59 239.611 794.59ZM246 786.865H247.95V785.14H246V786.865ZM246.06 796H247.89V788.08H246.06V796ZM250.247 796H252.077V791.53C252.077 790.3 252.812 789.565 253.862 789.565C254.942 789.565 255.557 790.27 255.557 791.5V796H257.372V790.945C257.372 789.115 256.337 787.915 254.552 787.915C253.322 787.915 252.587 788.56 252.077 789.295V788.08H250.247V796ZM263.088 798.43C264.513 798.43 265.623 798.085 266.343 797.365C267.003 796.705 267.348 795.715 267.348 794.38V788.08H265.533V789.265C264.918 788.53 264.093 787.915 262.758 787.915C260.913 787.915 259.158 789.295 259.158 791.635V791.665C259.158 793.99 260.883 795.37 262.758 795.37C264.063 795.37 264.888 794.77 265.548 793.93V794.53C265.548 796.12 264.663 796.945 263.043 796.945C261.963 796.945 261.078 796.645 260.223 796.12L259.548 797.485C260.568 798.1 261.783 798.43 263.088 798.43ZM263.238 793.825C261.993 793.825 260.988 792.94 260.988 791.65V791.62C260.988 790.315 261.978 789.46 263.238 789.46C264.498 789.46 265.563 790.33 265.563 791.62V791.65C265.563 792.94 264.498 793.825 263.238 793.825Z" fill="#DE1639"/>
<g filter="url(#filter1_d_1910_8705)">
<rect x="16" y="209" width="382" height="214" rx="10" fill="white"/>
</g>
<g filter="url(#filter2_d_1910_8705)">
<g filter="url(#filter3_d_1910_8705)">
<rect x="108" y="290.176" width="199" height="51" rx="6" fill="#3AA8C4"/>
<path d="M141.932 321.676L147.332 308.986H149.888L155.288 321.676H152.39L151.238 318.85H145.91L144.758 321.676H141.932ZM146.9 316.402H150.248L148.574 312.316L146.9 316.402ZM160.448 321.856C158.198 321.856 156.056 320.092 156.056 316.87V316.834C156.056 313.612 158.162 311.848 160.448 311.848C161.906 311.848 162.806 312.514 163.454 313.288V308.536H166.19V321.676H163.454V320.29C162.788 321.208 161.888 321.856 160.448 321.856ZM161.15 319.534C162.428 319.534 163.49 318.472 163.49 316.87V316.834C163.49 315.232 162.428 314.17 161.15 314.17C159.872 314.17 158.792 315.214 158.792 316.834V316.87C158.792 318.472 159.872 319.534 161.15 319.534ZM172.594 321.856C170.344 321.856 168.202 320.092 168.202 316.87V316.834C168.202 313.612 170.308 311.848 172.594 311.848C174.052 311.848 174.952 312.514 175.6 313.288V308.536H178.336V321.676H175.6V320.29C174.934 321.208 174.034 321.856 172.594 321.856ZM173.296 319.534C174.574 319.534 175.636 318.472 175.636 316.87V316.834C175.636 315.232 174.574 314.17 173.296 314.17C172.018 314.17 170.938 315.214 170.938 316.834V316.87C170.938 318.472 172.018 319.534 173.296 319.534ZM193.143 324.556V320.29C192.477 321.208 191.577 321.856 190.137 321.856C187.887 321.856 185.745 320.092 185.745 316.87V316.834C185.745 313.612 187.851 311.848 190.137 311.848C191.595 311.848 192.495 312.514 193.143 313.288V312.028H195.879V324.556H193.143ZM190.839 319.534C192.117 319.534 193.179 318.472 193.179 316.87V316.834C193.179 315.232 192.117 314.17 190.839 314.17C189.561 314.17 188.481 315.214 188.481 316.834V316.87C188.481 318.472 189.561 319.534 190.839 319.534ZM201.528 321.856C199.44 321.856 198.252 320.506 198.252 318.274V312.028H200.988V317.41C200.988 318.706 201.582 319.372 202.644 319.372C203.706 319.372 204.354 318.706 204.354 317.41V312.028H207.09V321.676H204.354V320.308C203.724 321.118 202.896 321.856 201.528 321.856ZM214.11 321.892C211.212 321.892 209.07 319.858 209.07 316.906V316.87C209.07 314.116 211.032 311.848 213.84 311.848C217.062 311.848 218.538 314.35 218.538 317.086C218.538 317.302 218.52 317.536 218.502 317.806H211.788C212.058 319.048 212.922 319.696 214.146 319.696C215.064 319.696 215.712 319.408 216.486 318.706L218.052 320.092C217.134 321.226 215.856 321.892 214.11 321.892ZM211.752 316.096H215.874C215.712 314.872 214.992 314.044 213.84 314.044C212.688 314.044 211.968 314.854 211.752 316.096ZM223.962 321.856C222.594 321.856 221.118 321.406 219.822 320.398L220.992 318.598C222.054 319.372 223.116 319.75 224.034 319.75C224.826 319.75 225.186 319.462 225.186 319.03V318.994C225.186 318.4 224.25 318.22 223.188 317.878C221.838 317.5 220.308 316.852 220.308 314.98V314.944C220.308 312.982 221.892 311.884 223.836 311.884C225.06 311.884 226.374 312.298 227.436 313L226.392 314.89C225.438 314.332 224.484 313.99 223.782 313.99C223.116 313.99 222.774 314.278 222.774 314.656V314.692C222.774 315.196 223.692 315.52 224.736 315.844C226.086 316.276 227.652 316.942 227.652 318.706V318.742C227.652 320.884 226.05 321.856 223.962 321.856ZM232.695 321.838C231.039 321.838 229.887 321.172 229.887 318.94V314.368H228.735V312.028H229.887V309.562H232.623V312.028H234.891V314.368H232.623V318.49C232.623 319.12 232.911 319.426 233.505 319.426C233.991 319.426 234.441 319.318 234.855 319.084V321.28C234.279 321.622 233.613 321.838 232.695 321.838ZM236.962 310.966V308.536H239.842V310.966H236.962ZM237.034 321.676V312.028H239.77V321.676H237.034ZM247.073 321.892C244.103 321.892 241.871 319.696 241.871 316.906V316.87C241.871 314.098 244.103 311.848 247.109 311.848C250.079 311.848 252.311 314.044 252.311 316.834V316.87C252.311 319.642 250.079 321.892 247.073 321.892ZM247.109 319.534C248.675 319.534 249.611 318.346 249.611 316.906V316.87C249.611 315.448 248.585 314.206 247.073 314.206C245.507 314.206 244.571 315.394 244.571 316.834V316.87C244.571 318.292 245.597 319.534 247.109 319.534ZM254.292 321.676V312.028H257.028V313.396C257.658 312.586 258.486 311.848 259.854 311.848C261.942 311.848 263.13 313.198 263.13 315.43V321.676H260.394V316.294C260.394 314.998 259.8 314.332 258.738 314.332C257.676 314.332 257.028 314.998 257.028 316.294V321.676H254.292ZM268.891 321.856C267.523 321.856 266.047 321.406 264.751 320.398L265.921 318.598C266.983 319.372 268.045 319.75 268.963 319.75C269.755 319.75 270.115 319.462 270.115 319.03V318.994C270.115 318.4 269.179 318.22 268.117 317.878C266.767 317.5 265.237 316.852 265.237 314.98V314.944C265.237 312.982 266.821 311.884 268.765 311.884C269.989 311.884 271.303 312.298 272.365 313L271.321 314.89C270.367 314.332 269.413 313.99 268.711 313.99C268.045 313.99 267.703 314.278 267.703 314.656V314.692C267.703 315.196 268.621 315.52 269.665 315.844C271.015 316.276 272.581 316.942 272.581 318.706V318.742C272.581 320.884 270.979 321.856 268.891 321.856Z" fill="white"/>
</g>
</g>
<path d="M174 166C37 149 -4.66667 163.167 -19.5 192.5L-31 -28.5L455 -56L461 134C451.5 136.167 418.5 152.5 363.5 161.5C320.822 168.484 286.623 179.975 174 166Z" fill="#FFCB35"/>
<line x1="211" y1="123" x2="369" y2="123" stroke="#666666" stroke-width="2"/>
<line x1="48" y1="123" x2="211" y2="123" stroke="#DE1639" stroke-width="2"/>
<circle cx="43.5" cy="122" r="15" fill="#DE1639"/>
<path d="M42.704 129H44.9V116.31H43.37L39.968 117.39L40.436 119.19L42.704 118.56V129Z" fill="white"/>
<path d="M21.037 151H22.513V148.3H24.181C26.029 148.3 27.541 147.316 27.541 145.432V145.408C27.541 143.716 26.317 142.6 24.349 142.6H21.037V151ZM22.513 146.968V143.944H24.229C25.333 143.944 26.041 144.46 26.041 145.444V145.468C26.041 146.344 25.345 146.968 24.229 146.968H22.513ZM28.8727 151H30.3367V148.588C30.3367 146.908 31.2247 146.08 32.4967 146.08H32.5807V144.544C31.4647 144.496 30.7327 145.144 30.3367 146.092V144.664H28.8727V151ZM36.5348 151.144C37.6988 151.144 38.5268 150.676 39.1268 149.956L38.2748 149.2C37.7708 149.692 37.2668 149.956 36.5588 149.956C35.6228 149.956 34.8908 149.38 34.7348 148.348H39.3908C39.4028 148.204 39.4148 148.072 39.4148 147.94C39.4148 146.116 38.3948 144.532 36.3788 144.532C34.5668 144.532 33.2828 146.02 33.2828 147.832V147.856C33.2828 149.812 34.6988 151.144 36.5348 151.144ZM34.7228 147.388C34.8548 146.404 35.4788 145.72 36.3668 145.72C37.3268 145.72 37.8788 146.452 37.9748 147.388H34.7228ZM40.8609 152.92H42.3249V150.016C42.7689 150.604 43.4289 151.132 44.4849 151.132C45.9849 151.132 47.4249 149.944 47.4249 147.844V147.82C47.4249 145.708 45.9729 144.532 44.4849 144.532C43.4529 144.532 42.7929 145.06 42.3249 145.72V144.664H40.8609V152.92ZM44.1369 149.872C43.1529 149.872 42.2889 149.056 42.2889 147.844V147.82C42.2889 146.608 43.1529 145.792 44.1369 145.792C45.1089 145.792 45.9489 146.596 45.9489 147.82V147.844C45.9489 149.092 45.1329 149.872 44.1369 149.872ZM50.7477 151.132C51.7197 151.132 52.3797 150.724 52.8117 150.208V151H54.2277V147.244C54.2277 146.416 54.0117 145.744 53.5437 145.288C53.0997 144.832 52.3917 144.58 51.4437 144.58C50.4357 144.58 49.7517 144.784 49.0437 145.096L49.4397 146.236C50.0157 145.996 50.5437 145.84 51.2517 145.84C52.2717 145.84 52.8237 146.32 52.8237 147.22V147.376C52.3317 147.22 51.8277 147.112 51.1197 147.112C49.5717 147.112 48.4917 147.784 48.4917 149.152V149.176C48.4917 150.448 49.5597 151.132 50.7477 151.132ZM51.1557 150.076C50.4597 150.076 49.9197 149.728 49.9197 149.116V149.092C49.9197 148.432 50.4717 148.036 51.4077 148.036C51.9837 148.036 52.4757 148.144 52.8477 148.288V148.72C52.8477 149.524 52.1157 150.076 51.1557 150.076ZM55.9547 151H57.4187V148.588C57.4187 146.908 58.3067 146.08 59.5787 146.08H59.6627V144.544C58.5467 144.496 57.8147 145.144 57.4187 146.092V144.664H55.9547V151ZM63.6168 151.144C64.7808 151.144 65.6088 150.676 66.2088 149.956L65.3568 149.2C64.8528 149.692 64.3488 149.956 63.6408 149.956C62.7048 149.956 61.9728 149.38 61.8168 148.348H66.4728C66.4848 148.204 66.4968 148.072 66.4968 147.94C66.4968 146.116 65.4768 144.532 63.4608 144.532C61.6488 144.532 60.3648 146.02 60.3648 147.832V147.856C60.3648 149.812 61.7808 151.144 63.6168 151.144ZM61.8048 147.388C61.9368 146.404 62.5608 145.72 63.4488 145.72C64.4088 145.72 64.9608 146.452 65.0568 147.388H61.8048Z" fill="black"/>
<ellipse cx="124.5" cy="122" rx="15.5" ry="15" fill="#DE1639"/>
<path d="M119.882 129H128.99V127.056H122.996L125.588 124.896C127.82 123.078 128.864 122.016 128.864 120.018V119.982C128.864 117.732 127.172 116.22 124.706 116.22C122.456 116.22 121.268 117.174 120.062 118.848L121.646 120.09C122.6 118.83 123.392 118.2 124.544 118.2C125.696 118.2 126.578 118.938 126.578 120.162C126.578 121.296 125.93 122.088 124.22 123.564L119.882 127.254V129Z" fill="white"/>
<path d="M103.86 150.196L102.9 149.38C103.44 148.648 103.752 147.76 103.752 146.8V146.776C103.752 144.412 101.952 142.456 99.3718 142.456C96.7918 142.456 94.9678 144.436 94.9678 146.8V146.824C94.9678 149.188 96.7678 151.144 99.3478 151.144C100.32 151.144 101.196 150.856 101.904 150.352L102.912 151.252L103.86 150.196ZM99.3718 149.776C97.7038 149.776 96.5158 148.432 96.5158 146.8V146.776C96.5158 145.144 97.6798 143.824 99.3478 143.824C101.016 143.824 102.204 145.168 102.204 146.8V146.824C102.204 147.424 102.06 147.964 101.796 148.42L100.32 147.076L99.3718 148.156L100.824 149.404C100.404 149.644 99.9238 149.776 99.3718 149.776ZM107.551 151.132C108.535 151.132 109.123 150.616 109.531 150.016V151H110.995V144.664H109.531V148.24C109.531 149.224 108.943 149.8 108.103 149.8C107.239 149.8 106.747 149.248 106.747 148.264V144.664H105.295V148.696C105.295 150.172 106.123 151.132 107.551 151.132ZM115.712 151.144C116.876 151.144 117.704 150.676 118.304 149.956L117.452 149.2C116.948 149.692 116.444 149.956 115.736 149.956C114.8 149.956 114.068 149.38 113.912 148.348H118.568C118.58 148.204 118.592 148.072 118.592 147.94C118.592 146.116 117.572 144.532 115.556 144.532C113.744 144.532 112.46 146.02 112.46 147.832V147.856C112.46 149.812 113.876 151.144 115.712 151.144ZM113.9 147.388C114.032 146.404 114.656 145.72 115.544 145.72C116.504 145.72 117.056 146.452 117.152 147.388H113.9ZM122.223 151.12C123.543 151.12 124.575 150.46 124.575 149.128V149.104C124.575 147.964 123.531 147.544 122.607 147.256C121.863 147.016 121.179 146.824 121.179 146.356V146.332C121.179 145.984 121.503 145.708 122.067 145.708C122.595 145.708 123.243 145.936 123.855 146.308L124.431 145.276C123.759 144.832 122.895 144.556 122.103 144.556C120.843 144.556 119.847 145.288 119.847 146.5V146.524C119.847 147.724 120.891 148.108 121.827 148.372C122.571 148.6 123.243 148.768 123.243 149.26V149.284C123.243 149.704 122.883 149.968 122.259 149.968C121.611 149.968 120.879 149.704 120.183 149.188L119.535 150.172C120.327 150.808 121.323 151.12 122.223 151.12ZM128.069 151.108C128.621 151.108 129.017 150.988 129.377 150.784V149.596C129.089 149.74 128.801 149.812 128.477 149.812C127.985 149.812 127.697 149.584 127.697 149.02V145.912H129.401V144.664H127.697V142.924H126.245V144.664H125.441V145.912H126.245V149.248C126.245 150.64 127.001 151.108 128.069 151.108ZM130.903 143.692H132.463V142.312H130.903V143.692ZM130.951 151H132.415V144.664H130.951V151ZM137.324 151.144C139.28 151.144 140.72 149.644 140.72 147.844V147.82C140.72 146.008 139.292 144.532 137.348 144.532C135.404 144.532 133.964 146.032 133.964 147.844V147.868C133.964 149.668 135.392 151.144 137.324 151.144ZM137.348 149.872C136.22 149.872 135.416 148.948 135.416 147.844V147.82C135.416 146.716 136.16 145.804 137.324 145.804C138.464 145.804 139.268 146.728 139.268 147.844V147.868C139.268 148.96 138.524 149.872 137.348 149.872ZM142.187 151H143.651V147.424C143.651 146.44 144.239 145.852 145.079 145.852C145.943 145.852 146.435 146.416 146.435 147.4V151H147.887V146.956C147.887 145.492 147.059 144.532 145.631 144.532C144.647 144.532 144.059 145.048 143.651 145.636V144.664H142.187V151ZM151.813 151.12C153.133 151.12 154.165 150.46 154.165 149.128V149.104C154.165 147.964 153.121 147.544 152.197 147.256C151.453 147.016 150.769 146.824 150.769 146.356V146.332C150.769 145.984 151.093 145.708 151.657 145.708C152.185 145.708 152.833 145.936 153.445 146.308L154.021 145.276C153.349 144.832 152.485 144.556 151.693 144.556C150.433 144.556 149.437 145.288 149.437 146.5V146.524C149.437 147.724 150.481 148.108 151.417 148.372C152.161 148.6 152.833 148.768 152.833 149.26V149.284C152.833 149.704 152.473 149.968 151.849 149.968C151.201 149.968 150.469 149.704 149.773 149.188L149.125 150.172C149.917 150.808 150.913 151.12 151.813 151.12Z" fill="black"/>
<ellipse cx="368" cy="122" rx="15.5" ry="15" fill="#EFEFEF" stroke="#666666" stroke-width="2"/>
<path d="M367.972 129.216C370.762 129.216 372.652 127.524 372.652 124.95V124.914C372.652 122.25 370.708 120.954 368.26 120.954C367.414 120.954 366.856 121.098 366.262 121.314L366.46 118.38H372.094V116.4H364.552L364.192 122.574L365.524 123.456C366.172 123.15 366.946 122.898 367.846 122.898C369.376 122.898 370.456 123.708 370.456 124.986V125.022C370.456 126.336 369.466 127.2 367.954 127.2C366.784 127.2 365.722 126.624 364.714 125.688L363.346 127.29C364.534 128.442 366.046 129.216 367.972 129.216Z" fill="#666666"/>
<path d="M347.16 151H348.636V148.3H350.304C352.152 148.3 353.664 147.316 353.664 145.432V145.408C353.664 143.716 352.44 142.6 350.472 142.6H347.16V151ZM348.636 146.968V143.944H350.352C351.456 143.944 352.164 144.46 352.164 145.444V145.468C352.164 146.344 351.468 146.968 350.352 146.968H348.636ZM357.203 151.132C358.187 151.132 358.775 150.616 359.183 150.016V151H360.647V144.664H359.183V148.24C359.183 149.224 358.595 149.8 357.755 149.8C356.891 149.8 356.399 149.248 356.399 148.264V144.664H354.947V148.696C354.947 150.172 355.775 151.132 357.203 151.132ZM366.073 151.132C367.573 151.132 369.013 149.944 369.013 147.844V147.82C369.013 145.708 367.561 144.532 366.073 144.532C365.041 144.532 364.381 145.06 363.913 145.72V142.24H362.449V151H363.913V150.016C364.357 150.604 365.017 151.132 366.073 151.132ZM365.725 149.872C364.741 149.872 363.877 149.056 363.877 147.844V147.82C363.877 146.608 364.741 145.792 365.725 145.792C366.697 145.792 367.537 146.596 367.537 147.82V147.844C367.537 149.092 366.721 149.872 365.725 149.872ZM370.584 151H372.048V142.24H370.584V151ZM373.969 143.692H375.529V142.312H373.969V143.692ZM374.017 151H375.481V144.664H374.017V151ZM379.551 151.12C380.871 151.12 381.903 150.46 381.903 149.128V149.104C381.903 147.964 380.859 147.544 379.935 147.256C379.191 147.016 378.507 146.824 378.507 146.356V146.332C378.507 145.984 378.831 145.708 379.395 145.708C379.923 145.708 380.571 145.936 381.183 146.308L381.759 145.276C381.087 144.832 380.223 144.556 379.431 144.556C378.171 144.556 377.175 145.288 377.175 146.5V146.524C377.175 147.724 378.219 148.108 379.155 148.372C379.899 148.6 380.571 148.768 380.571 149.26V149.284C380.571 149.704 380.211 149.968 379.587 149.968C378.939 149.968 378.207 149.704 377.511 149.188L376.863 150.172C377.655 150.808 378.651 151.12 379.551 151.12ZM383.379 151H384.843V147.424C384.843 146.44 385.431 145.852 386.271 145.852C387.135 145.852 387.627 146.416 387.627 147.4V151H389.079V146.956C389.079 145.492 388.251 144.532 386.823 144.532C385.839 144.532 385.251 145.048 384.843 145.636V142.24H383.379V151Z" fill="#666666"/>
<ellipse cx="291.5" cy="122" rx="15.5" ry="15" fill="#EFEFEF" stroke="#666666" stroke-width="2"/>
<path d="M292.416 128H294.54V125.174H296.34V123.356H294.54V115.31H292.65L285.648 123.59L286.062 125.174H292.416V128ZM288.276 123.356L292.416 118.37V123.356H288.276Z" fill="#666666"/>
<path d="M270.912 151H272.388V148.072H274.236L276.3 151H278.052L275.784 147.82C276.948 147.484 277.776 146.656 277.776 145.276V145.252C277.776 144.52 277.524 143.896 277.08 143.44C276.54 142.912 275.712 142.6 274.656 142.6H270.912V151ZM272.388 146.764V143.944H274.536C275.628 143.944 276.276 144.436 276.276 145.336V145.36C276.276 146.212 275.604 146.764 274.548 146.764H272.388ZM282.203 151.144C283.367 151.144 284.195 150.676 284.795 149.956L283.943 149.2C283.439 149.692 282.935 149.956 282.227 149.956C281.291 149.956 280.559 149.38 280.403 148.348H285.059C285.071 148.204 285.083 148.072 285.083 147.94C285.083 146.116 284.063 144.532 282.047 144.532C280.235 144.532 278.951 146.02 278.951 147.832V147.856C278.951 149.812 280.367 151.144 282.203 151.144ZM280.391 147.388C280.523 146.404 281.147 145.72 282.035 145.72C282.995 145.72 283.547 146.452 283.643 147.388H280.391ZM288.24 151.048H289.548L292.14 144.664H290.616L288.9 149.32L287.196 144.664H285.636L288.24 151.048ZM293.397 143.692H294.957V142.312H293.397V143.692ZM293.445 151H294.909V144.664H293.445V151ZM299.711 151.144C300.875 151.144 301.703 150.676 302.303 149.956L301.451 149.2C300.947 149.692 300.443 149.956 299.735 149.956C298.799 149.956 298.067 149.38 297.911 148.348H302.567C302.579 148.204 302.591 148.072 302.591 147.94C302.591 146.116 301.571 144.532 299.555 144.532C297.743 144.532 296.459 146.02 296.459 147.832V147.856C296.459 149.812 297.875 151.144 299.711 151.144ZM297.899 147.388C298.031 146.404 298.655 145.72 299.543 145.72C300.503 145.72 301.055 146.452 301.151 147.388H297.899ZM305.268 151.048H306.564L307.992 146.716L309.408 151.048H310.716L312.792 144.664H311.328L310.032 149.008L308.628 144.64H307.38L305.976 149.008L304.704 144.664H303.204L305.268 151.048Z" fill="#666666"/>
<ellipse cx="213.5" cy="122" rx="15.5" ry="15" fill="white" stroke="#DE1639" stroke-width="2"/>
<path d="M213.598 129.216C216.226 129.216 218.008 127.542 218.008 125.22V125.184C218.008 122.862 216.208 121.89 214.3 121.656L217.81 118.056V116.4H209.476V118.326H214.93L211.528 121.944L211.888 123.33H212.914C214.678 123.33 215.812 124.032 215.812 125.274V125.31C215.812 126.462 214.858 127.218 213.634 127.218C212.23 127.218 211.222 126.624 210.322 125.562L208.774 127.02C209.836 128.298 211.402 129.216 213.598 129.216Z" fill="#DE1639"/>
<path d="M192.976 151H194.452V148.072H196.3L198.364 151H200.116L197.848 147.82C199.012 147.484 199.84 146.656 199.84 145.276V145.252C199.84 144.52 199.588 143.896 199.144 143.44C198.604 142.912 197.776 142.6 196.72 142.6H192.976V151ZM194.452 146.764V143.944H196.6C197.692 143.944 198.34 144.436 198.34 145.336V145.36C198.34 146.212 197.668 146.764 196.612 146.764H194.452ZM204.267 151.144C205.431 151.144 206.259 150.676 206.859 149.956L206.007 149.2C205.503 149.692 204.999 149.956 204.291 149.956C203.355 149.956 202.623 149.38 202.467 148.348H207.123C207.135 148.204 207.147 148.072 207.147 147.94C207.147 146.116 206.127 144.532 204.111 144.532C202.299 144.532 201.015 146.02 201.015 147.832V147.856C201.015 149.812 202.431 151.144 204.267 151.144ZM202.455 147.388C202.587 146.404 203.211 145.72 204.099 145.72C205.059 145.72 205.611 146.452 205.707 147.388H202.455ZM211.533 151.144C212.769 151.144 213.501 150.652 214.125 149.956L213.249 149.092C212.781 149.56 212.289 149.872 211.605 149.872C210.489 149.872 209.709 148.972 209.709 147.844V147.82C209.709 146.716 210.489 145.804 211.545 145.804C212.265 145.804 212.733 146.14 213.177 146.596L214.089 145.624C213.489 144.976 212.745 144.532 211.557 144.532C209.649 144.532 208.257 146.044 208.257 147.844V147.868C208.257 149.668 209.649 151.144 211.533 151.144ZM218.297 151.144C220.253 151.144 221.693 149.644 221.693 147.844V147.82C221.693 146.008 220.265 144.532 218.321 144.532C216.377 144.532 214.937 146.032 214.937 147.844V147.868C214.937 149.668 216.365 151.144 218.297 151.144ZM218.321 149.872C217.193 149.872 216.389 148.948 216.389 147.844V147.82C216.389 146.716 217.133 145.804 218.297 145.804C219.437 145.804 220.241 146.728 220.241 147.844V147.868C220.241 148.96 219.497 149.872 218.321 149.872ZM223.16 151H224.624V148.588C224.624 146.908 225.512 146.08 226.784 146.08H226.868V144.544C225.752 144.496 225.02 145.144 224.624 146.092V144.664H223.16V151ZM230.581 151.132C231.613 151.132 232.273 150.604 232.741 149.944V151H234.193V142.24H232.741V145.648C232.285 145.048 231.625 144.532 230.581 144.532C229.069 144.532 227.641 145.72 227.641 147.82V147.844C227.641 149.944 229.093 151.132 230.581 151.132ZM230.929 149.872C229.945 149.872 229.105 149.068 229.105 147.844V147.82C229.105 146.572 229.933 145.792 230.929 145.792C231.901 145.792 232.765 146.596 232.765 147.82V147.844C232.765 149.056 231.901 149.872 230.929 149.872Z" fill="#DE1639"/>
<path d="M41 74H19" stroke="black" stroke-width="2.5" stroke-linecap="round" stroke-linejoin="bevel"/>
<path d="M25.3347 66L18.4847 72.85C18.1742 73.1623 18 73.5847 18 74.025C18 74.4653 18.1742 74.8877 18.4847 75.2L25.1513 81.8667" stroke="black" stroke-width="2.5" stroke-linecap="round" stroke-linejoin="bevel"/>
<path opacity="0.35" fill-rule="evenodd" clip-rule="evenodd" d="M393.333 19.332H376.667C375.746 19.332 375 20.0782 375 20.9987V26.9987C375 27.9192 375.746 28.6654 376.667 28.6654H393.333C394.254 28.6654 395 27.9192 395 26.9987V20.9987C395 20.0782 394.254 19.332 393.333 19.332ZM376.667 18.332C375.194 18.332 374 19.5259 374 20.9987V26.9987C374 28.4715 375.194 29.6654 376.667 29.6654H393.333C394.806 29.6654 396 28.4715 396 26.9987V20.9987C396 19.5259 394.806 18.332 393.333 18.332H376.667Z" fill="black"/>
<path opacity="0.4" d="M397 21.998V25.998C397.805 25.6593 398.328 24.8712 398.328 23.998C398.328 23.1249 397.805 22.3368 397 21.998" fill="black"/>
<path d="M376 21.6654C376 20.929 376.597 20.332 377.333 20.332H392.667C393.403 20.332 394 20.929 394 21.6654V26.332C394 27.0684 393.403 27.6654 392.667 27.6654H377.333C376.597 27.6654 376 27.0684 376 26.332V21.6654Z" fill="black"/>
<path fill-rule="evenodd" clip-rule="evenodd" d="M359.33 20.713C361.546 20.7131 363.677 21.8297 365.283 23.8319C365.404 23.9865 365.597 23.9845 365.716 23.8275L366.872 22.2976C366.933 22.218 366.966 22.1101 366.966 21.9979C366.965 21.8857 366.931 21.7783 366.87 21.6996C362.655 16.4022 356.005 16.4022 351.79 21.6996C351.729 21.7783 351.694 21.8856 351.693 21.9978C351.693 22.11 351.726 22.2179 351.787 22.2976L352.943 23.8275C353.062 23.9848 353.255 23.9867 353.376 23.8319C354.982 21.8296 357.114 20.713 359.33 20.713ZM359.33 25.6906C360.547 25.6905 361.721 26.2839 362.624 27.3556C362.746 27.5077 362.938 27.5044 363.057 27.3482L364.212 25.8182C364.273 25.738 364.306 25.6291 364.306 25.516C364.305 25.4029 364.269 25.2949 364.207 25.2163C361.459 21.8639 357.203 21.8639 354.455 25.2163C354.393 25.2949 354.357 25.4029 354.357 25.5161C354.356 25.6292 354.39 25.7381 354.451 25.8182L355.605 27.3482C355.724 27.5044 355.916 27.5077 356.038 27.3556C356.94 26.2846 358.113 25.6913 359.33 25.6906ZM361.643 29.0396C361.645 29.1531 361.611 29.2624 361.549 29.3419L359.552 31.9852C359.493 32.0629 359.413 32.1066 359.33 32.1066C359.247 32.1066 359.167 32.0629 359.108 31.9852L357.111 29.3419C357.049 29.2624 357.015 29.153 357.017 29.0395C357.019 28.9261 357.056 28.8187 357.12 28.7426C358.396 27.3278 360.264 27.3278 361.54 28.7426C361.604 28.8187 361.641 28.9262 361.643 29.0396Z" fill="black"/>
<path fill-rule="evenodd" clip-rule="evenodd" d="M345.666 18.168H344.666C344.114 18.168 343.666 18.7551 343.666 19.4794V30.8447C343.666 31.5689 344.114 32.1561 344.666 32.1561H345.666C346.218 32.1561 346.666 31.5689 346.666 30.8447V19.4794C346.666 18.7551 346.218 18.168 345.666 18.168ZM339.999 21.2279H340.999C341.552 21.2279 341.999 21.815 341.999 22.5392V30.8447C341.999 31.5689 341.552 32.1561 340.999 32.1561H339.999C339.447 32.1561 338.999 31.5689 338.999 30.8447V22.5392C338.999 21.815 339.447 21.2279 339.999 21.2279ZM336.333 24.2878H335.333C334.78 24.2878 334.333 24.8749 334.333 25.5991V30.8447C334.333 31.5689 334.78 32.1561 335.333 32.1561H336.333C336.885 32.1561 337.333 31.5689 337.333 30.8447V25.5991C337.333 24.8749 336.885 24.2878 336.333 24.2878ZM331.666 26.9105H330.666C330.114 26.9105 329.666 27.4977 329.666 28.2219V30.8447C329.666 31.5689 330.114 32.1561 330.666 32.1561H331.666C332.218 32.1561 332.666 31.5689 332.666 30.8447V28.2219C332.666 27.4977 332.218 26.9105 331.666 26.9105Z" fill="black"/>
<path d="M37.3203 29.2568C40.0083 29.2568 41.605 27.1548 41.605 23.5952C41.605 22.2549 41.3486 21.127 40.8579 20.2554C40.1475 18.9004 38.9243 18.168 37.3789 18.168C35.0791 18.168 33.4531 19.7134 33.4531 21.8813C33.4531 23.9175 34.918 25.397 36.9321 25.397C38.1699 25.397 39.1733 24.8184 39.6714 23.8149H39.6934C39.6934 23.8149 39.7227 23.8149 39.73 23.8149C39.7446 23.8149 39.7959 23.8149 39.7959 23.8149C39.7959 26.2319 38.8804 27.6748 37.335 27.6748C36.4268 27.6748 35.7236 27.1768 35.4819 26.3784H33.5996C33.9146 28.1143 35.3867 29.2568 37.3203 29.2568ZM37.3862 23.8955C36.1704 23.8955 35.3062 23.0312 35.3062 21.8228C35.3062 20.6436 36.2144 19.7427 37.3936 19.7427C38.5728 19.7427 39.481 20.6582 39.481 21.8521C39.481 23.0312 38.5947 23.8955 37.3862 23.8955Z" fill="black"/>
<path d="M44.6961 29.1543C45.3919 29.1543 45.868 28.6562 45.868 27.9971C45.868 27.3306 45.3919 26.8398 44.6961 26.8398C44.0076 26.8398 43.5242 27.3306 43.5242 27.9971C43.5242 28.6562 44.0076 29.1543 44.6961 29.1543ZM44.6961 23.6611C45.3919 23.6611 45.868 23.1704 45.868 22.5112C45.868 21.8447 45.3919 21.354 44.6961 21.354C44.0076 21.354 43.5242 21.8447 43.5242 22.5112C43.5242 23.1704 44.0076 23.6611 44.6961 23.6611Z" fill="black"/>
<path d="M52.7237 29.0005H54.5328V27.0303H55.961V25.4336H54.5328V18.4316H51.8668C49.9991 21.2441 48.5123 23.5952 47.5602 25.3457V27.0303H52.7237V29.0005ZM49.3106 25.3677C50.5411 23.1997 51.6397 21.4639 52.6505 19.9697H52.753V25.4775H49.3106V25.3677Z" fill="black"/>
<path d="M59.9896 29.0005H61.8793V18.4316H59.997L57.2357 20.3652V22.1816L59.8651 20.3359H59.9896V29.0005Z" fill="black"/>
</g>
<defs>
<filter id="filter0_d_1910_8705" x="139" y="575" width="136" height="136" filterUnits="userSpaceOnUse" color-interpolation-filters="sRGB">
<feFlood flood-opacity="0" result="BackgroundImageFix"/>
<feColorMatrix in="SourceAlpha" type="matrix" values="0 0 0 0 0 0 0 0 0 0 0 0 0 0 0 0 0 0 127 0" result="hardAlpha"/>
<feOffset dy="4"/>
<feGaussianBlur stdDeviation="2"/>
<feColorMatrix type="matrix" values="0 0 0 0 0 0 0 0 0 0 0 0 0 0 0 0 0 0 0.25 0"/>
<feBlend mode="normal" in2="BackgroundImageFix" result="effect1_dropShadow_1910_8705"/>
<feBlend mode="normal" in="SourceGraphic" in2="effect1_dropShadow_1910_8705" result="shape"/>
</filter>
<filter id="filter1_d_1910_8705" x="1" y="198" width="412" height="244" filterUnits="userSpaceOnUse" color-interpolation-filters="sRGB">
<feFlood flood-opacity="0" result="BackgroundImageFix"/>
<feColorMatrix in="SourceAlpha" type="matrix" values="0 0 0 0 0 0 0 0 0 0 0 0 0 0 0 0 0 0 127 0" result="hardAlpha"/>
<feOffset dy="4"/>
<feGaussianBlur stdDeviation="7.5"/>
<feColorMatrix type="matrix" values="0 0 0 0 0 0 0 0 0 0 0 0 0 0 0 0 0 0 0.25 0"/>
<feBlend mode="normal" in2="BackgroundImageFix" result="effect1_dropShadow_1910_8705"/>
<feBlend mode="normal" in="SourceGraphic" in2="effect1_dropShadow_1910_8705" result="shape"/>
</filter>
<filter id="filter2_d_1910_8705" x="104" y="290.176" width="207" height="59" filterUnits="userSpaceOnUse" color-interpolation-filters="sRGB">
<feFlood flood-opacity="0" result="BackgroundImageFix"/>
<feColorMatrix in="SourceAlpha" type="matrix" values="0 0 0 0 0 0 0 0 0 0 0 0 0 0 0 0 0 0 127 0" result="hardAlpha"/>
<feOffset dy="4"/>
<feGaussianBlur stdDeviation="2"/>
<feColorMatrix type="matrix" values="0 0 0 0 0 0 0 0 0 0 0 0 0 0 0 0 0 0 0.25 0"/>
<feBlend mode="normal" in2="BackgroundImageFix" result="effect1_dropShadow_1910_8705"/>
<feBlend mode="normal" in="SourceGraphic" in2="effect1_dropShadow_1910_8705" result="shape"/>
</filter>
<filter id="filter3_d_1910_8705" x="106" y="289.176" width="203" height="55" filterUnits="userSpaceOnUse" color-interpolation-filters="sRGB">
<feFlood flood-opacity="0" result="BackgroundImageFix"/>
<feColorMatrix in="SourceAlpha" type="matrix" values="0 0 0 0 0 0 0 0 0 0 0 0 0 0 0 0 0 0 127 0" result="hardAlpha"/>
<feOffset dy="1"/>
<feGaussianBlur stdDeviation="1"/>
<feColorMatrix type="matrix" values="0 0 0 0 0 0 0 0 0 0 0 0 0 0 0 0 0 0 0.05 0"/>
<feBlend mode="normal" in2="BackgroundImageFix" result="effect1_dropShadow_1910_8705"/>
<feBlend mode="normal" in="SourceGraphic" in2="effect1_dropShadow_1910_8705" result="shape"/>
</filter>
<clipPath id="clip0_1910_8705">
<rect width="414" height="896" fill="white"/>
</clipPath>
<clipPath id="clip1_1910_8705">
<rect width="76.8" height="97.7455" fill="white" transform="translate(168.6 591.291)"/>
</clipPath>
</defs>
</svg>
